%TF.GenerationSoftware,KiCad,Pcbnew,9.0.4*%
%TF.CreationDate,2026-01-29T02:10:09+03:00*%
%TF.ProjectId,ADC,4144432e-6b69-4636-9164-5f7063625858,rev?*%
%TF.SameCoordinates,Original*%
%TF.FileFunction,Copper,L2,Inr*%
%TF.FilePolarity,Positive*%
%FSLAX46Y46*%
G04 Gerber Fmt 4.6, Leading zero omitted, Abs format (unit mm)*
G04 Created by KiCad (PCBNEW 9.0.4) date 2026-01-29 02:10:09*
%MOMM*%
%LPD*%
G01*
G04 APERTURE LIST*
%TA.AperFunction,ComponentPad*%
%ADD10R,1.700000X1.700000*%
%TD*%
%TA.AperFunction,ComponentPad*%
%ADD11C,1.700000*%
%TD*%
%TA.AperFunction,ViaPad*%
%ADD12C,0.600000*%
%TD*%
%TA.AperFunction,ViaPad*%
%ADD13C,0.800000*%
%TD*%
G04 APERTURE END LIST*
D10*
%TO.N,STBY*%
%TO.C,J2*%
X142150000Y-74430000D03*
D11*
%TO.N,CONVST*%
X142150000Y-76970000D03*
%TO.N,RST*%
X142150000Y-79510000D03*
%TO.N,SCLK{slash}RD*%
X142150000Y-82050000D03*
%TO.N,OS0*%
X142150000Y-84590000D03*
%TO.N,OS1*%
X142150000Y-87130000D03*
%TO.N,OS2*%
X142150000Y-89670000D03*
%TO.N,CS*%
X142150000Y-92210000D03*
%TO.N,BUSY*%
X142150000Y-94750000D03*
%TO.N,FRSTDATA*%
X142150000Y-97290000D03*
%TO.N,+5V*%
X142150000Y-99830000D03*
%TO.N,GND*%
X142150000Y-102370000D03*
%TD*%
D12*
%TO.N,GND*%
X175850000Y-95142500D03*
X186892500Y-87500000D03*
D13*
X165150000Y-100800000D03*
D12*
X186750000Y-93015000D03*
X186900000Y-85450000D03*
X179150000Y-80550000D03*
X159355000Y-72170294D03*
X174150000Y-80550000D03*
D13*
X166200000Y-86300000D03*
D12*
X159355000Y-74695294D03*
X173370000Y-83970000D03*
X178150000Y-80550000D03*
X189305000Y-93197500D03*
X187200000Y-82725000D03*
X176150000Y-80550000D03*
X175150000Y-80550000D03*
X181250000Y-85200000D03*
X186475000Y-82725000D03*
X177650000Y-89300000D03*
X183020000Y-80360000D03*
D13*
X157925000Y-100800000D03*
D12*
X181320000Y-87525000D03*
X184417500Y-93200000D03*
X170740000Y-80320000D03*
X177150000Y-80550000D03*
D13*
X150825000Y-100775000D03*
D12*
X181250000Y-82000000D03*
X181250000Y-83650000D03*
X181250000Y-84550000D03*
X180150000Y-80550000D03*
X172499999Y-83066117D03*
X184290000Y-81380000D03*
X172500000Y-81900000D03*
X186900000Y-86500000D03*
X172950000Y-77775000D03*
%TO.N,+5V*%
X181250000Y-86400000D03*
X181250000Y-80950000D03*
X160605000Y-74695294D03*
X169825000Y-80850000D03*
X184400000Y-92075000D03*
X172375000Y-80725000D03*
X160605000Y-72170294D03*
D13*
X185630000Y-94830000D03*
%TO.N,+3.3V*%
X150750000Y-95950000D03*
D12*
X189300000Y-92065000D03*
D13*
X157850000Y-95975000D03*
X165075000Y-95975000D03*
D12*
%TO.N,Net-(U1-OS0)*%
X164100000Y-88675000D03*
X169175000Y-82100000D03*
%TO.N,Net-(U1-OS1)*%
X169225000Y-83125000D03*
X164100000Y-89475000D03*
%TO.N,Net-(U1-OS2)*%
X169225000Y-84125000D03*
X164100000Y-90275003D03*
%TO.N,STBY*%
X173450000Y-82800000D03*
%TO.N,BUSY*%
X173410000Y-88290414D03*
%TO.N,CONVST*%
X173410000Y-85090411D03*
%TO.N,CS*%
X173410000Y-87490414D03*
%TO.N,FRSTDATA*%
X173410000Y-89090000D03*
%TO.N,SCLK{slash}RD*%
X173410000Y-86690414D03*
%TO.N,RST*%
X173410000Y-85890414D03*
%TD*%
%TA.AperFunction,Conductor*%
%TO.N,GND*%
G36*
X196267539Y-68220185D02*
G01*
X196313294Y-68272989D01*
X196324500Y-68324500D01*
X196324500Y-68990427D01*
X196304815Y-69057466D01*
X196252011Y-69103221D01*
X196200500Y-69114427D01*
X189650000Y-69114427D01*
X189650000Y-75614427D01*
X196200500Y-75614427D01*
X196267539Y-75634112D01*
X196313294Y-75686916D01*
X196324500Y-75738427D01*
X196324500Y-96045215D01*
X196304815Y-96112254D01*
X196252011Y-96158009D01*
X196200500Y-96169215D01*
X189650000Y-96169215D01*
X189650000Y-102669215D01*
X196200500Y-102669215D01*
X196267539Y-102688900D01*
X196313294Y-102741704D01*
X196324500Y-102793215D01*
X196324500Y-104700500D01*
X196304815Y-104767539D01*
X196252011Y-104813294D01*
X196200500Y-104824500D01*
X139749500Y-104824500D01*
X139682461Y-104804815D01*
X139636706Y-104752011D01*
X139625500Y-104700500D01*
X139625500Y-102263753D01*
X140800000Y-102263753D01*
X140800000Y-102476246D01*
X140833242Y-102686127D01*
X140833242Y-102686130D01*
X140898904Y-102888217D01*
X140995375Y-103077550D01*
X141034728Y-103131716D01*
X141667036Y-102499407D01*
X141684075Y-102562993D01*
X141749901Y-102677007D01*
X141842993Y-102770099D01*
X141957007Y-102835925D01*
X142020590Y-102852962D01*
X141388282Y-103485269D01*
X141388282Y-103485270D01*
X141442449Y-103524624D01*
X141631782Y-103621095D01*
X141833870Y-103686757D01*
X142043754Y-103720000D01*
X142256246Y-103720000D01*
X142466127Y-103686757D01*
X142466130Y-103686757D01*
X142668217Y-103621095D01*
X142857554Y-103524622D01*
X142911716Y-103485270D01*
X142911717Y-103485270D01*
X142279408Y-102852962D01*
X142342993Y-102835925D01*
X142457007Y-102770099D01*
X142550099Y-102677007D01*
X142615925Y-102562993D01*
X142632962Y-102499408D01*
X143265270Y-103131717D01*
X143265270Y-103131716D01*
X143304622Y-103077554D01*
X143401095Y-102888217D01*
X143466757Y-102686130D01*
X143466757Y-102686127D01*
X143500000Y-102476246D01*
X143500000Y-102263753D01*
X143466757Y-102053872D01*
X143466757Y-102053869D01*
X143401095Y-101851782D01*
X143304624Y-101662449D01*
X143265270Y-101608282D01*
X143265269Y-101608282D01*
X142632962Y-102240590D01*
X142615925Y-102177007D01*
X142550099Y-102062993D01*
X142457007Y-101969901D01*
X142342993Y-101904075D01*
X142279409Y-101887037D01*
X142911716Y-101254728D01*
X142857550Y-101215375D01*
X142683303Y-101126591D01*
X142632507Y-101078616D01*
X142615712Y-101010795D01*
X142638250Y-100944660D01*
X142683302Y-100905621D01*
X142779199Y-100856760D01*
X142932073Y-100745690D01*
X143065690Y-100612073D01*
X143176760Y-100459199D01*
X143262547Y-100290832D01*
X143320940Y-100111118D01*
X143324042Y-100091533D01*
X146959499Y-100091533D01*
X146985458Y-100222030D01*
X146985461Y-100222040D01*
X147036376Y-100344961D01*
X147036386Y-100344979D01*
X147110301Y-100455601D01*
X147110307Y-100455609D01*
X147204390Y-100549692D01*
X147204398Y-100549698D01*
X147315020Y-100623613D01*
X147315023Y-100623614D01*
X147315031Y-100623620D01*
X147437964Y-100674540D01*
X147437968Y-100674540D01*
X147437969Y-100674541D01*
X147568466Y-100700500D01*
X147568469Y-100700500D01*
X147701533Y-100700500D01*
X147789325Y-100683035D01*
X147832036Y-100674540D01*
X147954969Y-100623620D01*
X148065606Y-100549695D01*
X148159695Y-100455606D01*
X148233620Y-100344969D01*
X148284540Y-100222036D01*
X148305527Y-100116533D01*
X154059499Y-100116533D01*
X154085458Y-100247030D01*
X154085461Y-100247040D01*
X154136376Y-100369961D01*
X154136386Y-100369979D01*
X154210301Y-100480601D01*
X154210307Y-100480609D01*
X154304390Y-100574692D01*
X154304398Y-100574698D01*
X154415020Y-100648613D01*
X154415023Y-100648614D01*
X154415031Y-100648620D01*
X154537964Y-100699540D01*
X154537968Y-100699540D01*
X154537969Y-100699541D01*
X154668466Y-100725500D01*
X154668469Y-100725500D01*
X154801533Y-100725500D01*
X154889325Y-100708035D01*
X154932036Y-100699540D01*
X155054969Y-100648620D01*
X155165606Y-100574695D01*
X155259695Y-100480606D01*
X155333620Y-100369969D01*
X155384540Y-100247036D01*
X155410500Y-100116533D01*
X161284499Y-100116533D01*
X161310458Y-100247030D01*
X161310461Y-100247040D01*
X161361376Y-100369961D01*
X161361386Y-100369979D01*
X161435301Y-100480601D01*
X161435307Y-100480609D01*
X161529390Y-100574692D01*
X161529398Y-100574698D01*
X161640020Y-100648613D01*
X161640023Y-100648614D01*
X161640031Y-100648620D01*
X161762964Y-100699540D01*
X161762968Y-100699540D01*
X161762969Y-100699541D01*
X161893466Y-100725500D01*
X161893469Y-100725500D01*
X162026533Y-100725500D01*
X162114325Y-100708035D01*
X162157036Y-100699540D01*
X162279969Y-100648620D01*
X162390606Y-100574695D01*
X162484695Y-100480606D01*
X162558620Y-100369969D01*
X162609540Y-100247036D01*
X162635500Y-100116531D01*
X162635500Y-99983469D01*
X162635500Y-99983466D01*
X162609541Y-99852969D01*
X162609540Y-99852968D01*
X162609540Y-99852964D01*
X162558620Y-99730031D01*
X162541920Y-99705038D01*
X162484698Y-99619398D01*
X162484692Y-99619390D01*
X162390609Y-99525307D01*
X162390601Y-99525301D01*
X162279979Y-99451386D01*
X162279972Y-99451382D01*
X162279969Y-99451380D01*
X162279965Y-99451378D01*
X162279961Y-99451376D01*
X162157040Y-99400461D01*
X162157030Y-99400458D01*
X162026533Y-99374500D01*
X162026531Y-99374500D01*
X161893469Y-99374500D01*
X161893467Y-99374500D01*
X161762969Y-99400458D01*
X161762959Y-99400461D01*
X161640038Y-99451376D01*
X161640020Y-99451386D01*
X161529398Y-99525301D01*
X161529390Y-99525307D01*
X161435307Y-99619390D01*
X161435301Y-99619398D01*
X161361386Y-99730020D01*
X161361376Y-99730038D01*
X161310461Y-99852959D01*
X161310458Y-99852969D01*
X161284500Y-99983466D01*
X161284500Y-99983469D01*
X161284500Y-100116531D01*
X161284500Y-100116533D01*
X161284499Y-100116533D01*
X155410500Y-100116533D01*
X155410500Y-100116531D01*
X155410500Y-99983469D01*
X155410500Y-99983466D01*
X155384541Y-99852969D01*
X155384540Y-99852968D01*
X155384540Y-99852964D01*
X155333620Y-99730031D01*
X155316920Y-99705038D01*
X155259698Y-99619398D01*
X155259692Y-99619390D01*
X155165609Y-99525307D01*
X155165601Y-99525301D01*
X155054979Y-99451386D01*
X155054972Y-99451382D01*
X155054969Y-99451380D01*
X155054965Y-99451378D01*
X155054961Y-99451376D01*
X154932040Y-99400461D01*
X154932030Y-99400458D01*
X154801533Y-99374500D01*
X154801531Y-99374500D01*
X154668469Y-99374500D01*
X154668467Y-99374500D01*
X154537969Y-99400458D01*
X154537959Y-99400461D01*
X154415038Y-99451376D01*
X154415020Y-99451386D01*
X154304398Y-99525301D01*
X154304390Y-99525307D01*
X154210307Y-99619390D01*
X154210301Y-99619398D01*
X154136386Y-99730020D01*
X154136376Y-99730038D01*
X154085461Y-99852959D01*
X154085458Y-99852969D01*
X154059500Y-99983466D01*
X154059500Y-99983469D01*
X154059500Y-100116531D01*
X154059500Y-100116533D01*
X154059499Y-100116533D01*
X148305527Y-100116533D01*
X148310500Y-100091531D01*
X148310500Y-99958469D01*
X148310500Y-99958466D01*
X148284541Y-99827969D01*
X148284540Y-99827968D01*
X148284540Y-99827964D01*
X148284538Y-99827959D01*
X148233623Y-99705038D01*
X148233622Y-99705037D01*
X148233620Y-99705031D01*
X148176399Y-99619394D01*
X148159698Y-99594398D01*
X148159692Y-99594390D01*
X148065609Y-99500307D01*
X148065601Y-99500301D01*
X147954979Y-99426386D01*
X147954972Y-99426382D01*
X147954969Y-99426380D01*
X147954965Y-99426378D01*
X147954961Y-99426376D01*
X147832040Y-99375461D01*
X147832030Y-99375458D01*
X147701533Y-99349500D01*
X147701531Y-99349500D01*
X147568469Y-99349500D01*
X147568467Y-99349500D01*
X147437969Y-99375458D01*
X147437959Y-99375461D01*
X147315038Y-99426376D01*
X147315020Y-99426386D01*
X147204398Y-99500301D01*
X147204390Y-99500307D01*
X147110307Y-99594390D01*
X147110301Y-99594398D01*
X147036386Y-99705020D01*
X147036376Y-99705038D01*
X146985461Y-99827959D01*
X146985458Y-99827969D01*
X146959500Y-99958466D01*
X146959500Y-99958469D01*
X146959500Y-100091531D01*
X146959500Y-100091533D01*
X146959499Y-100091533D01*
X143324042Y-100091533D01*
X143324042Y-100091531D01*
X143349155Y-99932979D01*
X143349155Y-99932978D01*
X143350500Y-99924487D01*
X143350500Y-99735513D01*
X143320940Y-99548881D01*
X143272714Y-99400458D01*
X143262547Y-99369168D01*
X143262545Y-99369165D01*
X143262545Y-99369163D01*
X143176759Y-99200800D01*
X143065690Y-99047927D01*
X142932073Y-98914310D01*
X142779199Y-98803240D01*
X142610836Y-98717454D01*
X142536472Y-98693291D01*
X142489195Y-98677930D01*
X142431521Y-98638493D01*
X142404323Y-98574134D01*
X142416238Y-98505288D01*
X142463482Y-98453812D01*
X142489194Y-98442069D01*
X142610832Y-98402547D01*
X142779199Y-98316760D01*
X142932073Y-98205690D01*
X143065690Y-98072073D01*
X143176760Y-97919199D01*
X143262547Y-97750832D01*
X143320940Y-97571118D01*
X143324333Y-97549695D01*
X143350500Y-97384486D01*
X143350500Y-97195513D01*
X143334031Y-97091533D01*
X146959499Y-97091533D01*
X146985458Y-97222030D01*
X146985461Y-97222040D01*
X147036376Y-97344961D01*
X147036386Y-97344979D01*
X147110301Y-97455601D01*
X147110307Y-97455609D01*
X147204390Y-97549692D01*
X147204398Y-97549698D01*
X147315020Y-97623613D01*
X147315023Y-97623614D01*
X147315031Y-97623620D01*
X147437964Y-97674540D01*
X147437968Y-97674540D01*
X147437969Y-97674541D01*
X147568466Y-97700500D01*
X147568469Y-97700500D01*
X147701533Y-97700500D01*
X147789325Y-97683035D01*
X147832036Y-97674540D01*
X147954969Y-97623620D01*
X148065606Y-97549695D01*
X148159695Y-97455606D01*
X148233620Y-97344969D01*
X148284540Y-97222036D01*
X148305527Y-97116533D01*
X154059499Y-97116533D01*
X154085458Y-97247030D01*
X154085461Y-97247040D01*
X154136376Y-97369961D01*
X154136386Y-97369979D01*
X154210301Y-97480601D01*
X154210307Y-97480609D01*
X154304390Y-97574692D01*
X154304398Y-97574698D01*
X154415020Y-97648613D01*
X154415023Y-97648614D01*
X154415031Y-97648620D01*
X154537964Y-97699540D01*
X154537968Y-97699540D01*
X154537969Y-97699541D01*
X154668466Y-97725500D01*
X154668469Y-97725500D01*
X154801533Y-97725500D01*
X154889325Y-97708035D01*
X154932036Y-97699540D01*
X155054969Y-97648620D01*
X155165606Y-97574695D01*
X155259695Y-97480606D01*
X155333620Y-97369969D01*
X155384540Y-97247036D01*
X155410500Y-97116533D01*
X161284499Y-97116533D01*
X161310458Y-97247030D01*
X161310461Y-97247040D01*
X161361376Y-97369961D01*
X161361386Y-97369979D01*
X161435301Y-97480601D01*
X161435307Y-97480609D01*
X161529390Y-97574692D01*
X161529398Y-97574698D01*
X161640020Y-97648613D01*
X161640023Y-97648614D01*
X161640031Y-97648620D01*
X161762964Y-97699540D01*
X161762968Y-97699540D01*
X161762969Y-97699541D01*
X161893466Y-97725500D01*
X161893469Y-97725500D01*
X162026533Y-97725500D01*
X162114325Y-97708035D01*
X162157036Y-97699540D01*
X162279969Y-97648620D01*
X162390606Y-97574695D01*
X162484695Y-97480606D01*
X162558620Y-97369969D01*
X162609540Y-97247036D01*
X162635500Y-97116531D01*
X162635500Y-96983469D01*
X162635500Y-96983466D01*
X162609541Y-96852969D01*
X162609540Y-96852968D01*
X162609540Y-96852964D01*
X162609538Y-96852959D01*
X162558623Y-96730038D01*
X162558622Y-96730037D01*
X162558620Y-96730031D01*
X162555592Y-96725500D01*
X162484698Y-96619398D01*
X162484692Y-96619390D01*
X162390609Y-96525307D01*
X162390601Y-96525301D01*
X162279979Y-96451386D01*
X162279972Y-96451382D01*
X162279969Y-96451380D01*
X162279965Y-96451378D01*
X162279961Y-96451376D01*
X162157040Y-96400461D01*
X162157030Y-96400458D01*
X162026533Y-96374500D01*
X162026531Y-96374500D01*
X161893469Y-96374500D01*
X161893467Y-96374500D01*
X161762969Y-96400458D01*
X161762959Y-96400461D01*
X161640038Y-96451376D01*
X161640020Y-96451386D01*
X161529398Y-96525301D01*
X161529390Y-96525307D01*
X161435307Y-96619390D01*
X161435301Y-96619398D01*
X161361386Y-96730020D01*
X161361376Y-96730038D01*
X161310461Y-96852959D01*
X161310458Y-96852969D01*
X161284500Y-96983466D01*
X161284500Y-96983469D01*
X161284500Y-97116531D01*
X161284500Y-97116533D01*
X161284499Y-97116533D01*
X155410500Y-97116533D01*
X155410500Y-97116531D01*
X155410500Y-96983469D01*
X155410500Y-96983466D01*
X155384541Y-96852969D01*
X155384540Y-96852968D01*
X155384540Y-96852964D01*
X155384538Y-96852959D01*
X155333623Y-96730038D01*
X155333622Y-96730037D01*
X155333620Y-96730031D01*
X155330592Y-96725500D01*
X155259698Y-96619398D01*
X155259692Y-96619390D01*
X155165609Y-96525307D01*
X155165601Y-96525301D01*
X155054979Y-96451386D01*
X155054972Y-96451382D01*
X155054969Y-96451380D01*
X155054965Y-96451378D01*
X155054961Y-96451376D01*
X154932040Y-96400461D01*
X154932030Y-96400458D01*
X154801533Y-96374500D01*
X154801531Y-96374500D01*
X154668469Y-96374500D01*
X154668467Y-96374500D01*
X154537969Y-96400458D01*
X154537959Y-96400461D01*
X154415038Y-96451376D01*
X154415020Y-96451386D01*
X154304398Y-96525301D01*
X154304390Y-96525307D01*
X154210307Y-96619390D01*
X154210301Y-96619398D01*
X154136386Y-96730020D01*
X154136376Y-96730038D01*
X154085461Y-96852959D01*
X154085458Y-96852969D01*
X154059500Y-96983466D01*
X154059500Y-96983469D01*
X154059500Y-97116531D01*
X154059500Y-97116533D01*
X154059499Y-97116533D01*
X148305527Y-97116533D01*
X148310500Y-97091531D01*
X148310500Y-96958469D01*
X148310500Y-96958466D01*
X148284541Y-96827969D01*
X148284540Y-96827968D01*
X148284540Y-96827964D01*
X148243971Y-96730020D01*
X148233623Y-96705038D01*
X148233622Y-96705037D01*
X148233620Y-96705031D01*
X148230592Y-96700500D01*
X148159698Y-96594398D01*
X148159692Y-96594390D01*
X148065609Y-96500307D01*
X148065601Y-96500301D01*
X147954979Y-96426386D01*
X147954972Y-96426382D01*
X147954969Y-96426380D01*
X147954965Y-96426378D01*
X147954961Y-96426376D01*
X147832040Y-96375461D01*
X147832030Y-96375458D01*
X147701533Y-96349500D01*
X147701531Y-96349500D01*
X147568469Y-96349500D01*
X147568467Y-96349500D01*
X147437969Y-96375458D01*
X147437959Y-96375461D01*
X147315038Y-96426376D01*
X147315020Y-96426386D01*
X147204398Y-96500301D01*
X147204390Y-96500307D01*
X147110307Y-96594390D01*
X147110301Y-96594398D01*
X147036386Y-96705020D01*
X147036376Y-96705038D01*
X146985461Y-96827959D01*
X146985458Y-96827969D01*
X146959500Y-96958466D01*
X146959500Y-96958469D01*
X146959500Y-97091531D01*
X146959500Y-97091533D01*
X146959499Y-97091533D01*
X143334031Y-97091533D01*
X143320940Y-97008883D01*
X143320939Y-97008881D01*
X143262547Y-96829168D01*
X143262545Y-96829165D01*
X143262545Y-96829163D01*
X143199296Y-96705031D01*
X143176760Y-96660801D01*
X143065690Y-96507927D01*
X142932073Y-96374310D01*
X142779199Y-96263240D01*
X142610836Y-96177454D01*
X142536472Y-96153291D01*
X142489195Y-96137930D01*
X142431521Y-96098493D01*
X142404323Y-96034134D01*
X142406091Y-96023920D01*
X149999499Y-96023920D01*
X150028340Y-96168907D01*
X150028343Y-96168917D01*
X150084912Y-96305488D01*
X150084919Y-96305501D01*
X150167048Y-96428415D01*
X150167051Y-96428419D01*
X150271580Y-96532948D01*
X150271584Y-96532951D01*
X150394498Y-96615080D01*
X150394511Y-96615087D01*
X150531082Y-96671656D01*
X150531087Y-96671658D01*
X150531091Y-96671658D01*
X150531092Y-96671659D01*
X150676079Y-96700500D01*
X150676082Y-96700500D01*
X150823920Y-96700500D01*
X150921462Y-96681096D01*
X150968913Y-96671658D01*
X151095090Y-96619394D01*
X151105488Y-96615087D01*
X151105488Y-96615086D01*
X151105495Y-96615084D01*
X151228416Y-96532951D01*
X151332951Y-96428416D01*
X151415084Y-96305495D01*
X151471658Y-96168913D01*
X151495527Y-96048920D01*
X157099499Y-96048920D01*
X157128340Y-96193907D01*
X157128343Y-96193917D01*
X157184912Y-96330488D01*
X157184919Y-96330501D01*
X157267048Y-96453415D01*
X157267051Y-96453419D01*
X157371580Y-96557948D01*
X157371584Y-96557951D01*
X157494498Y-96640080D01*
X157494511Y-96640087D01*
X157631082Y-96696656D01*
X157631087Y-96696658D01*
X157631091Y-96696658D01*
X157631092Y-96696659D01*
X157776079Y-96725500D01*
X157776082Y-96725500D01*
X157923920Y-96725500D01*
X158049598Y-96700500D01*
X158068913Y-96696658D01*
X158205495Y-96640084D01*
X158328416Y-96557951D01*
X158432951Y-96453416D01*
X158515084Y-96330495D01*
X158571658Y-96193913D01*
X158586548Y-96119060D01*
X158600500Y-96048920D01*
X164324499Y-96048920D01*
X164353340Y-96193907D01*
X164353343Y-96193917D01*
X164409912Y-96330488D01*
X164409919Y-96330501D01*
X164492048Y-96453415D01*
X164492051Y-96453419D01*
X164596580Y-96557948D01*
X164596584Y-96557951D01*
X164719498Y-96640080D01*
X164719511Y-96640087D01*
X164856082Y-96696656D01*
X164856087Y-96696658D01*
X164856091Y-96696658D01*
X164856092Y-96696659D01*
X165001079Y-96725500D01*
X165001082Y-96725500D01*
X165148920Y-96725500D01*
X165274598Y-96700500D01*
X165293913Y-96696658D01*
X165430495Y-96640084D01*
X165553416Y-96557951D01*
X165657951Y-96453416D01*
X165740084Y-96330495D01*
X165796658Y-96193913D01*
X165811548Y-96119060D01*
X165825500Y-96048920D01*
X165825500Y-95901079D01*
X165796659Y-95756092D01*
X165796658Y-95756091D01*
X165796658Y-95756087D01*
X165786301Y-95731082D01*
X165740087Y-95619511D01*
X165740080Y-95619498D01*
X165657951Y-95496584D01*
X165657948Y-95496580D01*
X165553419Y-95392051D01*
X165553415Y-95392048D01*
X165430501Y-95309919D01*
X165430488Y-95309912D01*
X165293917Y-95253343D01*
X165293907Y-95253340D01*
X165148920Y-95224500D01*
X165148918Y-95224500D01*
X165001082Y-95224500D01*
X165001080Y-95224500D01*
X164856092Y-95253340D01*
X164856082Y-95253343D01*
X164719511Y-95309912D01*
X164719498Y-95309919D01*
X164596584Y-95392048D01*
X164596580Y-95392051D01*
X164492051Y-95496580D01*
X164492048Y-95496584D01*
X164409919Y-95619498D01*
X164409912Y-95619511D01*
X164353343Y-95756082D01*
X164353340Y-95756092D01*
X164324500Y-95901079D01*
X164324500Y-95901082D01*
X164324500Y-96048918D01*
X164324500Y-96048920D01*
X164324499Y-96048920D01*
X158600500Y-96048920D01*
X158600500Y-95901079D01*
X158571659Y-95756092D01*
X158571658Y-95756091D01*
X158571658Y-95756087D01*
X158561301Y-95731082D01*
X158515087Y-95619511D01*
X158515080Y-95619498D01*
X158432951Y-95496584D01*
X158432948Y-95496580D01*
X158328419Y-95392051D01*
X158328415Y-95392048D01*
X158205501Y-95309919D01*
X158205488Y-95309912D01*
X158068917Y-95253343D01*
X158068907Y-95253340D01*
X157923920Y-95224500D01*
X157923918Y-95224500D01*
X157776082Y-95224500D01*
X157776080Y-95224500D01*
X157631092Y-95253340D01*
X157631082Y-95253343D01*
X157494511Y-95309912D01*
X157494498Y-95309919D01*
X157371584Y-95392048D01*
X157371580Y-95392051D01*
X157267051Y-95496580D01*
X157267048Y-95496584D01*
X157184919Y-95619498D01*
X157184912Y-95619511D01*
X157128343Y-95756082D01*
X157128340Y-95756092D01*
X157099500Y-95901079D01*
X157099500Y-95901082D01*
X157099500Y-96048918D01*
X157099500Y-96048920D01*
X157099499Y-96048920D01*
X151495527Y-96048920D01*
X151500500Y-96023918D01*
X151500500Y-95876082D01*
X151500500Y-95876079D01*
X151471659Y-95731092D01*
X151471658Y-95731091D01*
X151471658Y-95731087D01*
X151444569Y-95665688D01*
X151415087Y-95594511D01*
X151415080Y-95594498D01*
X151332951Y-95471584D01*
X151332948Y-95471580D01*
X151228419Y-95367051D01*
X151228415Y-95367048D01*
X151105501Y-95284919D01*
X151105488Y-95284912D01*
X150968917Y-95228343D01*
X150968907Y-95228340D01*
X150823920Y-95199500D01*
X150823918Y-95199500D01*
X150676082Y-95199500D01*
X150676080Y-95199500D01*
X150531092Y-95228340D01*
X150531082Y-95228343D01*
X150394511Y-95284912D01*
X150394498Y-95284919D01*
X150271584Y-95367048D01*
X150271580Y-95367051D01*
X150167051Y-95471580D01*
X150167048Y-95471584D01*
X150084919Y-95594498D01*
X150084912Y-95594511D01*
X150028343Y-95731082D01*
X150028340Y-95731092D01*
X149999500Y-95876079D01*
X149999500Y-95876082D01*
X149999500Y-96023918D01*
X149999500Y-96023920D01*
X149999499Y-96023920D01*
X142406091Y-96023920D01*
X142416238Y-95965288D01*
X142463482Y-95913812D01*
X142489194Y-95902069D01*
X142610832Y-95862547D01*
X142779199Y-95776760D01*
X142932073Y-95665690D01*
X143065690Y-95532073D01*
X143176760Y-95379199D01*
X143262547Y-95210832D01*
X143320940Y-95031118D01*
X143341086Y-94903920D01*
X184879499Y-94903920D01*
X184908340Y-95048907D01*
X184908343Y-95048917D01*
X184964912Y-95185488D01*
X184964919Y-95185501D01*
X185047048Y-95308415D01*
X185047051Y-95308419D01*
X185151580Y-95412948D01*
X185151584Y-95412951D01*
X185274498Y-95495080D01*
X185274511Y-95495087D01*
X185363809Y-95532075D01*
X185411087Y-95551658D01*
X185411091Y-95551658D01*
X185411092Y-95551659D01*
X185556079Y-95580500D01*
X185556082Y-95580500D01*
X185703920Y-95580500D01*
X185801462Y-95561096D01*
X185848913Y-95551658D01*
X185981874Y-95496584D01*
X185985488Y-95495087D01*
X185985488Y-95495086D01*
X185985495Y-95495084D01*
X186108416Y-95412951D01*
X186212951Y-95308416D01*
X186295084Y-95185495D01*
X186351658Y-95048913D01*
X186380500Y-94903918D01*
X186380500Y-94756082D01*
X186380500Y-94756079D01*
X186351659Y-94611092D01*
X186351658Y-94611091D01*
X186351658Y-94611087D01*
X186351656Y-94611082D01*
X186295087Y-94474511D01*
X186295080Y-94474498D01*
X186212951Y-94351584D01*
X186212948Y-94351580D01*
X186108419Y-94247051D01*
X186108415Y-94247048D01*
X185985501Y-94164919D01*
X185985488Y-94164912D01*
X185848917Y-94108343D01*
X185848907Y-94108340D01*
X185703920Y-94079500D01*
X185703918Y-94079500D01*
X185556082Y-94079500D01*
X185556080Y-94079500D01*
X185411092Y-94108340D01*
X185411082Y-94108343D01*
X185274511Y-94164912D01*
X185274498Y-94164919D01*
X185151584Y-94247048D01*
X185151580Y-94247051D01*
X185047051Y-94351580D01*
X185047048Y-94351584D01*
X184964919Y-94474498D01*
X184964912Y-94474511D01*
X184908343Y-94611082D01*
X184908340Y-94611092D01*
X184879500Y-94756079D01*
X184879500Y-94756082D01*
X184879500Y-94903918D01*
X184879500Y-94903920D01*
X184879499Y-94903920D01*
X143341086Y-94903920D01*
X143350500Y-94844486D01*
X143350500Y-94655513D01*
X143320940Y-94468881D01*
X143262545Y-94289163D01*
X143199239Y-94164919D01*
X143176760Y-94120801D01*
X143065690Y-93967927D01*
X142932073Y-93834310D01*
X142779199Y-93723240D01*
X142610836Y-93637454D01*
X142536472Y-93613291D01*
X142489195Y-93597930D01*
X142431521Y-93558493D01*
X142404323Y-93494134D01*
X142416238Y-93425288D01*
X142463482Y-93373812D01*
X142489194Y-93362069D01*
X142610832Y-93322547D01*
X142779199Y-93236760D01*
X142932073Y-93125690D01*
X143065690Y-92992073D01*
X143176760Y-92839199D01*
X143262547Y-92670832D01*
X143320940Y-92491118D01*
X143321169Y-92489672D01*
X143350500Y-92304486D01*
X143350500Y-92139071D01*
X183749499Y-92139071D01*
X183774497Y-92264738D01*
X183774499Y-92264744D01*
X183823533Y-92383124D01*
X183823538Y-92383133D01*
X183894723Y-92489668D01*
X183894726Y-92489672D01*
X183985327Y-92580273D01*
X183985331Y-92580276D01*
X184091866Y-92651461D01*
X184091872Y-92651464D01*
X184091873Y-92651465D01*
X184210256Y-92700501D01*
X184210260Y-92700501D01*
X184210261Y-92700502D01*
X184335928Y-92725500D01*
X184335931Y-92725500D01*
X184464071Y-92725500D01*
X184548615Y-92708682D01*
X184589744Y-92700501D01*
X184708127Y-92651465D01*
X184814669Y-92580276D01*
X184905276Y-92489669D01*
X184976465Y-92383127D01*
X185025501Y-92264744D01*
X185050500Y-92139069D01*
X185050500Y-92129071D01*
X188649499Y-92129071D01*
X188674497Y-92254738D01*
X188674499Y-92254744D01*
X188723533Y-92373124D01*
X188723538Y-92373133D01*
X188794723Y-92479668D01*
X188794726Y-92479672D01*
X188885327Y-92570273D01*
X188885331Y-92570276D01*
X188991866Y-92641461D01*
X188991872Y-92641464D01*
X188991873Y-92641465D01*
X189110256Y-92690501D01*
X189110260Y-92690501D01*
X189110261Y-92690502D01*
X189235928Y-92715500D01*
X189235931Y-92715500D01*
X189364071Y-92715500D01*
X189448615Y-92698682D01*
X189489744Y-92690501D01*
X189608127Y-92641465D01*
X189714669Y-92570276D01*
X189805276Y-92479669D01*
X189876465Y-92373127D01*
X189925501Y-92254744D01*
X189933682Y-92213615D01*
X189950500Y-92129071D01*
X189950500Y-92000928D01*
X189925502Y-91875261D01*
X189925501Y-91875260D01*
X189925501Y-91875256D01*
X189876465Y-91756873D01*
X189876464Y-91756872D01*
X189876461Y-91756866D01*
X189805276Y-91650331D01*
X189805273Y-91650327D01*
X189714672Y-91559726D01*
X189714668Y-91559723D01*
X189608133Y-91488538D01*
X189608124Y-91488533D01*
X189489744Y-91439499D01*
X189489738Y-91439497D01*
X189364071Y-91414500D01*
X189364069Y-91414500D01*
X189235931Y-91414500D01*
X189235929Y-91414500D01*
X189110261Y-91439497D01*
X189110255Y-91439499D01*
X188991875Y-91488533D01*
X188991866Y-91488538D01*
X188885331Y-91559723D01*
X188885327Y-91559726D01*
X188794726Y-91650327D01*
X188794723Y-91650331D01*
X188723538Y-91756866D01*
X188723533Y-91756875D01*
X188674499Y-91875255D01*
X188674497Y-91875261D01*
X188649500Y-92000928D01*
X188649500Y-92000931D01*
X188649500Y-92129069D01*
X188649500Y-92129071D01*
X188649499Y-92129071D01*
X185050500Y-92129071D01*
X185050500Y-92010931D01*
X185048510Y-92000928D01*
X185025502Y-91885261D01*
X185025501Y-91885260D01*
X185025501Y-91885256D01*
X184976465Y-91766873D01*
X184976464Y-91766872D01*
X184976461Y-91766866D01*
X184905276Y-91660331D01*
X184905273Y-91660327D01*
X184814672Y-91569726D01*
X184814668Y-91569723D01*
X184708133Y-91498538D01*
X184708124Y-91498533D01*
X184589744Y-91449499D01*
X184589738Y-91449497D01*
X184464071Y-91424500D01*
X184464069Y-91424500D01*
X184335931Y-91424500D01*
X184335929Y-91424500D01*
X184210261Y-91449497D01*
X184210255Y-91449499D01*
X184091875Y-91498533D01*
X184091866Y-91498538D01*
X183985331Y-91569723D01*
X183985327Y-91569726D01*
X183894726Y-91660327D01*
X183894723Y-91660331D01*
X183823538Y-91766866D01*
X183823533Y-91766875D01*
X183774499Y-91885255D01*
X183774497Y-91885261D01*
X183749500Y-92010928D01*
X183749500Y-92010931D01*
X183749500Y-92139069D01*
X183749500Y-92139071D01*
X183749499Y-92139071D01*
X143350500Y-92139071D01*
X143350500Y-92115513D01*
X143336043Y-92024237D01*
X143320940Y-91928881D01*
X143268300Y-91766875D01*
X143262547Y-91749168D01*
X143262545Y-91749165D01*
X143262545Y-91749163D01*
X143176759Y-91580800D01*
X143065690Y-91427927D01*
X142932073Y-91294310D01*
X142779199Y-91183240D01*
X142610836Y-91097454D01*
X142536472Y-91073291D01*
X142489195Y-91057930D01*
X142431521Y-91018493D01*
X142404323Y-90954134D01*
X142416238Y-90885288D01*
X142463482Y-90833812D01*
X142489194Y-90822069D01*
X142610832Y-90782547D01*
X142779199Y-90696760D01*
X142932073Y-90585690D01*
X143065690Y-90452073D01*
X143176760Y-90299199D01*
X143262547Y-90130832D01*
X143320940Y-89951118D01*
X143350500Y-89764486D01*
X143350500Y-89575513D01*
X143320940Y-89388881D01*
X143262545Y-89209163D01*
X143176759Y-89040800D01*
X143165954Y-89025928D01*
X143065690Y-88887927D01*
X142932073Y-88754310D01*
X142911098Y-88739071D01*
X163449499Y-88739071D01*
X163474497Y-88864738D01*
X163474499Y-88864744D01*
X163523534Y-88983127D01*
X163538892Y-89006112D01*
X163559768Y-89072790D01*
X163541282Y-89140170D01*
X163538892Y-89143888D01*
X163523534Y-89166872D01*
X163474499Y-89285255D01*
X163474497Y-89285261D01*
X163449500Y-89410928D01*
X163449500Y-89410931D01*
X163449500Y-89539069D01*
X163449500Y-89539071D01*
X163449499Y-89539071D01*
X163474497Y-89664738D01*
X163474499Y-89664744D01*
X163523533Y-89783124D01*
X163523538Y-89783133D01*
X163538891Y-89806110D01*
X163559769Y-89872788D01*
X163541284Y-89940168D01*
X163538894Y-89943888D01*
X163523534Y-89966876D01*
X163474499Y-90085258D01*
X163474497Y-90085264D01*
X163449500Y-90210931D01*
X163449500Y-90210934D01*
X163449500Y-90339072D01*
X163449500Y-90339074D01*
X163449499Y-90339074D01*
X163474497Y-90464741D01*
X163474499Y-90464747D01*
X163523533Y-90583127D01*
X163523538Y-90583136D01*
X163594723Y-90689671D01*
X163594726Y-90689675D01*
X163685327Y-90780276D01*
X163685331Y-90780279D01*
X163791866Y-90851464D01*
X163791872Y-90851467D01*
X163791873Y-90851468D01*
X163910256Y-90900504D01*
X163910260Y-90900504D01*
X163910261Y-90900505D01*
X164035928Y-90925503D01*
X164035931Y-90925503D01*
X164164071Y-90925503D01*
X164248615Y-90908685D01*
X164289744Y-90900504D01*
X164408127Y-90851468D01*
X164514669Y-90780279D01*
X164605276Y-90689672D01*
X164676465Y-90583130D01*
X164725501Y-90464747D01*
X164750500Y-90339072D01*
X164750500Y-90210934D01*
X164750500Y-90210931D01*
X164725502Y-90085264D01*
X164725501Y-90085263D01*
X164725501Y-90085259D01*
X164676465Y-89966876D01*
X164661108Y-89943892D01*
X164640229Y-89877215D01*
X164658713Y-89809835D01*
X164661049Y-89806198D01*
X164676465Y-89783127D01*
X164725501Y-89664744D01*
X164733682Y-89623615D01*
X164750500Y-89539071D01*
X164750500Y-89410928D01*
X164725502Y-89285261D01*
X164725501Y-89285260D01*
X164725501Y-89285256D01*
X164676465Y-89166873D01*
X164661108Y-89143890D01*
X164640230Y-89077215D01*
X164658714Y-89009835D01*
X164661096Y-89006126D01*
X164676465Y-88983127D01*
X164725501Y-88864744D01*
X164741986Y-88781873D01*
X164750500Y-88739071D01*
X164750500Y-88610928D01*
X164725502Y-88485261D01*
X164725501Y-88485260D01*
X164725501Y-88485256D01*
X164676465Y-88366873D01*
X164676464Y-88366872D01*
X164676461Y-88366866D01*
X164605276Y-88260331D01*
X164605273Y-88260327D01*
X164514672Y-88169726D01*
X164514668Y-88169723D01*
X164408133Y-88098538D01*
X164408124Y-88098533D01*
X164289744Y-88049499D01*
X164289738Y-88049497D01*
X164164071Y-88024500D01*
X164164069Y-88024500D01*
X164035931Y-88024500D01*
X164035929Y-88024500D01*
X163910261Y-88049497D01*
X163910255Y-88049499D01*
X163791875Y-88098533D01*
X163791866Y-88098538D01*
X163685331Y-88169723D01*
X163685327Y-88169726D01*
X163594726Y-88260327D01*
X163594723Y-88260331D01*
X163523538Y-88366866D01*
X163523533Y-88366875D01*
X163474499Y-88485255D01*
X163474497Y-88485261D01*
X163449500Y-88610928D01*
X163449500Y-88610931D01*
X163449500Y-88739069D01*
X163449500Y-88739071D01*
X163449499Y-88739071D01*
X142911098Y-88739071D01*
X142779199Y-88643240D01*
X142610836Y-88557454D01*
X142536472Y-88533291D01*
X142489195Y-88517930D01*
X142431521Y-88478493D01*
X142404323Y-88414134D01*
X142416238Y-88345288D01*
X142463482Y-88293812D01*
X142489194Y-88282069D01*
X142610832Y-88242547D01*
X142779199Y-88156760D01*
X142932073Y-88045690D01*
X143065690Y-87912073D01*
X143176760Y-87759199D01*
X143262547Y-87590832D01*
X143320940Y-87411118D01*
X143350500Y-87224486D01*
X143350500Y-87035513D01*
X143320940Y-86848881D01*
X143290268Y-86754483D01*
X143262547Y-86669168D01*
X143262545Y-86669165D01*
X143262545Y-86669163D01*
X143176759Y-86500800D01*
X143176664Y-86500669D01*
X143065690Y-86347927D01*
X142932073Y-86214310D01*
X142779199Y-86103240D01*
X142733898Y-86080158D01*
X142610836Y-86017454D01*
X142511959Y-85985327D01*
X142489195Y-85977930D01*
X142431521Y-85938493D01*
X142404323Y-85874134D01*
X142416238Y-85805288D01*
X142463482Y-85753812D01*
X142489194Y-85742069D01*
X142610832Y-85702547D01*
X142779199Y-85616760D01*
X142932073Y-85505690D01*
X143065690Y-85372073D01*
X143176760Y-85219199D01*
X143209735Y-85154482D01*
X172759499Y-85154482D01*
X172784497Y-85280149D01*
X172784499Y-85280155D01*
X172833533Y-85398535D01*
X172833538Y-85398544D01*
X172848891Y-85421521D01*
X172869769Y-85488199D01*
X172851284Y-85555579D01*
X172848894Y-85559299D01*
X172833534Y-85582287D01*
X172784499Y-85700669D01*
X172784497Y-85700675D01*
X172759500Y-85826342D01*
X172759500Y-85826345D01*
X172759500Y-85954483D01*
X172759500Y-85954485D01*
X172759499Y-85954485D01*
X172784497Y-86080152D01*
X172784499Y-86080158D01*
X172833534Y-86198541D01*
X172848892Y-86221526D01*
X172869768Y-86288204D01*
X172851282Y-86355584D01*
X172848892Y-86359302D01*
X172833534Y-86382286D01*
X172784499Y-86500669D01*
X172784497Y-86500675D01*
X172759500Y-86626342D01*
X172759500Y-86626345D01*
X172759500Y-86754483D01*
X172759500Y-86754485D01*
X172759499Y-86754485D01*
X172784497Y-86880152D01*
X172784499Y-86880158D01*
X172833534Y-86998541D01*
X172848892Y-87021526D01*
X172869768Y-87088204D01*
X172851282Y-87155584D01*
X172848892Y-87159302D01*
X172833534Y-87182286D01*
X172784499Y-87300669D01*
X172784497Y-87300675D01*
X172759500Y-87426342D01*
X172759500Y-87426345D01*
X172759500Y-87554483D01*
X172759500Y-87554485D01*
X172759499Y-87554485D01*
X172784497Y-87680152D01*
X172784499Y-87680158D01*
X172833534Y-87798541D01*
X172848892Y-87821526D01*
X172869768Y-87888204D01*
X172851282Y-87955584D01*
X172848892Y-87959302D01*
X172833534Y-87982286D01*
X172784499Y-88100669D01*
X172784497Y-88100675D01*
X172759500Y-88226342D01*
X172759500Y-88226345D01*
X172759500Y-88354483D01*
X172759500Y-88354485D01*
X172759499Y-88354485D01*
X172784497Y-88480152D01*
X172784499Y-88480158D01*
X172833533Y-88598538D01*
X172848754Y-88621318D01*
X172869630Y-88687996D01*
X172851144Y-88755376D01*
X172848754Y-88759096D01*
X172833533Y-88781875D01*
X172784499Y-88900255D01*
X172784497Y-88900261D01*
X172759500Y-89025928D01*
X172759500Y-89025931D01*
X172759500Y-89154069D01*
X172759500Y-89154071D01*
X172759499Y-89154071D01*
X172784497Y-89279738D01*
X172784499Y-89279744D01*
X172833533Y-89398124D01*
X172833538Y-89398133D01*
X172904723Y-89504668D01*
X172904726Y-89504672D01*
X172995327Y-89595273D01*
X172995331Y-89595276D01*
X173101866Y-89666461D01*
X173101872Y-89666464D01*
X173101873Y-89666465D01*
X173220256Y-89715501D01*
X173220260Y-89715501D01*
X173220261Y-89715502D01*
X173345928Y-89740500D01*
X173345931Y-89740500D01*
X173474071Y-89740500D01*
X173558615Y-89723682D01*
X173599744Y-89715501D01*
X173718127Y-89666465D01*
X173824669Y-89595276D01*
X173915276Y-89504669D01*
X173986465Y-89398127D01*
X174035501Y-89279744D01*
X174057953Y-89166873D01*
X174060500Y-89154071D01*
X174060500Y-89025928D01*
X174035502Y-88900261D01*
X174035501Y-88900260D01*
X174035501Y-88900256D01*
X173986465Y-88781873D01*
X173971245Y-88759096D01*
X173950368Y-88692423D01*
X173968851Y-88625043D01*
X173971212Y-88621367D01*
X173986465Y-88598541D01*
X174035501Y-88480158D01*
X174048634Y-88414134D01*
X174060500Y-88354485D01*
X174060500Y-88226342D01*
X174035502Y-88100675D01*
X174035501Y-88100674D01*
X174035501Y-88100670D01*
X173986465Y-87982287D01*
X173971108Y-87959304D01*
X173950230Y-87892629D01*
X173968714Y-87825249D01*
X173971096Y-87821540D01*
X173986465Y-87798541D01*
X174035501Y-87680158D01*
X174060500Y-87554483D01*
X174060500Y-87426345D01*
X174060500Y-87426342D01*
X174035502Y-87300675D01*
X174035501Y-87300674D01*
X174035501Y-87300670D01*
X173986465Y-87182287D01*
X173971108Y-87159304D01*
X173950230Y-87092629D01*
X173968714Y-87025249D01*
X173971096Y-87021540D01*
X173986465Y-86998541D01*
X174035501Y-86880158D01*
X174060500Y-86754483D01*
X174060500Y-86626345D01*
X174060500Y-86626342D01*
X174035502Y-86500675D01*
X174035501Y-86500674D01*
X174035501Y-86500670D01*
X174020341Y-86464071D01*
X180599499Y-86464071D01*
X180624497Y-86589738D01*
X180624499Y-86589744D01*
X180673533Y-86708124D01*
X180673538Y-86708133D01*
X180744723Y-86814668D01*
X180744726Y-86814672D01*
X180835327Y-86905273D01*
X180835331Y-86905276D01*
X180941866Y-86976461D01*
X180941872Y-86976464D01*
X180941873Y-86976465D01*
X181060256Y-87025501D01*
X181060260Y-87025501D01*
X181060261Y-87025502D01*
X181185928Y-87050500D01*
X181185931Y-87050500D01*
X181314071Y-87050500D01*
X181398615Y-87033682D01*
X181439744Y-87025501D01*
X181558127Y-86976465D01*
X181664669Y-86905276D01*
X181755276Y-86814669D01*
X181826465Y-86708127D01*
X181875501Y-86589744D01*
X181883682Y-86548615D01*
X181900500Y-86464071D01*
X181900500Y-86335928D01*
X181875502Y-86210261D01*
X181875501Y-86210260D01*
X181875501Y-86210256D01*
X181826465Y-86091873D01*
X181826464Y-86091872D01*
X181826461Y-86091866D01*
X181755276Y-85985331D01*
X181755273Y-85985327D01*
X181664672Y-85894726D01*
X181664668Y-85894723D01*
X181558133Y-85823538D01*
X181558124Y-85823533D01*
X181439744Y-85774499D01*
X181439738Y-85774497D01*
X181314071Y-85749500D01*
X181314069Y-85749500D01*
X181185931Y-85749500D01*
X181185929Y-85749500D01*
X181060261Y-85774497D01*
X181060255Y-85774499D01*
X180941875Y-85823533D01*
X180941866Y-85823538D01*
X180835331Y-85894723D01*
X180835327Y-85894726D01*
X180744726Y-85985327D01*
X180744723Y-85985331D01*
X180673538Y-86091866D01*
X180673533Y-86091875D01*
X180624499Y-86210255D01*
X180624497Y-86210261D01*
X180599500Y-86335928D01*
X180599500Y-86335931D01*
X180599500Y-86464069D01*
X180599500Y-86464071D01*
X180599499Y-86464071D01*
X174020341Y-86464071D01*
X173986465Y-86382287D01*
X173970111Y-86357811D01*
X173969186Y-86356338D01*
X173960160Y-86324340D01*
X173950230Y-86292629D01*
X173950715Y-86290859D01*
X173950217Y-86289092D01*
X173959925Y-86257286D01*
X173968714Y-86225249D01*
X173970600Y-86222313D01*
X173970615Y-86222266D01*
X173970649Y-86222236D01*
X173971096Y-86221542D01*
X173986465Y-86198541D01*
X174035501Y-86080158D01*
X174060500Y-85954483D01*
X174060500Y-85826345D01*
X174060500Y-85826342D01*
X174035502Y-85700675D01*
X174035501Y-85700674D01*
X174035501Y-85700670D01*
X173986465Y-85582287D01*
X173971108Y-85559303D01*
X173950229Y-85492626D01*
X173968713Y-85425246D01*
X173971049Y-85421609D01*
X173986465Y-85398538D01*
X174035501Y-85280155D01*
X174060500Y-85154480D01*
X174060500Y-85026342D01*
X174060500Y-85026339D01*
X174035502Y-84900672D01*
X174035501Y-84900671D01*
X174035501Y-84900667D01*
X173986465Y-84782284D01*
X173986464Y-84782283D01*
X173986461Y-84782277D01*
X173915276Y-84675742D01*
X173915273Y-84675738D01*
X173824672Y-84585137D01*
X173824668Y-84585134D01*
X173718133Y-84513949D01*
X173718124Y-84513944D01*
X173599744Y-84464910D01*
X173599738Y-84464908D01*
X173474071Y-84439911D01*
X173474069Y-84439911D01*
X173345931Y-84439911D01*
X173345929Y-84439911D01*
X173220261Y-84464908D01*
X173220255Y-84464910D01*
X173101875Y-84513944D01*
X173101866Y-84513949D01*
X172995331Y-84585134D01*
X172995327Y-84585137D01*
X172904726Y-84675738D01*
X172904723Y-84675742D01*
X172833538Y-84782277D01*
X172833533Y-84782286D01*
X172784499Y-84900666D01*
X172784497Y-84900672D01*
X172759500Y-85026339D01*
X172759500Y-85026342D01*
X172759500Y-85154480D01*
X172759500Y-85154482D01*
X172759499Y-85154482D01*
X143209735Y-85154482D01*
X143262547Y-85050832D01*
X143320940Y-84871118D01*
X143350500Y-84684486D01*
X143350500Y-84495513D01*
X143320940Y-84308881D01*
X143262545Y-84129163D01*
X143176759Y-83960800D01*
X143158200Y-83935256D01*
X143065690Y-83807927D01*
X142932073Y-83674310D01*
X142779199Y-83563240D01*
X142610836Y-83477454D01*
X142527880Y-83450500D01*
X142489195Y-83437930D01*
X142431521Y-83398493D01*
X142404323Y-83334134D01*
X142416238Y-83265288D01*
X142463482Y-83213812D01*
X142489194Y-83202069D01*
X142610832Y-83162547D01*
X142779199Y-83076760D01*
X142932073Y-82965690D01*
X143065690Y-82832073D01*
X143176760Y-82679199D01*
X143262547Y-82510832D01*
X143320940Y-82331118D01*
X143337979Y-82223538D01*
X143347398Y-82164071D01*
X168524499Y-82164071D01*
X168549497Y-82289738D01*
X168549499Y-82289744D01*
X168598533Y-82408124D01*
X168598538Y-82408133D01*
X168669723Y-82514668D01*
X168669726Y-82514672D01*
X168706109Y-82551055D01*
X168739594Y-82612378D01*
X168734610Y-82682070D01*
X168721530Y-82707627D01*
X168648538Y-82816866D01*
X168648533Y-82816875D01*
X168599499Y-82935255D01*
X168599497Y-82935261D01*
X168574500Y-83060928D01*
X168574500Y-83060931D01*
X168574500Y-83189069D01*
X168574500Y-83189071D01*
X168574499Y-83189071D01*
X168599497Y-83314738D01*
X168599499Y-83314744D01*
X168648533Y-83433124D01*
X168648538Y-83433133D01*
X168719723Y-83539668D01*
X168723589Y-83544379D01*
X168721958Y-83545716D01*
X168750858Y-83598642D01*
X168745874Y-83668334D01*
X168722489Y-83704719D01*
X168723589Y-83705621D01*
X168719723Y-83710331D01*
X168648538Y-83816866D01*
X168648533Y-83816875D01*
X168599499Y-83935255D01*
X168599497Y-83935261D01*
X168574500Y-84060928D01*
X168574500Y-84060931D01*
X168574500Y-84189069D01*
X168574500Y-84189071D01*
X168574499Y-84189071D01*
X168599497Y-84314738D01*
X168599499Y-84314744D01*
X168648533Y-84433124D01*
X168648538Y-84433133D01*
X168719723Y-84539668D01*
X168719726Y-84539672D01*
X168810327Y-84630273D01*
X168810331Y-84630276D01*
X168916866Y-84701461D01*
X168916872Y-84701464D01*
X168916873Y-84701465D01*
X169035256Y-84750501D01*
X169035260Y-84750501D01*
X169035261Y-84750502D01*
X169160928Y-84775500D01*
X169160931Y-84775500D01*
X169289071Y-84775500D01*
X169373615Y-84758682D01*
X169414744Y-84750501D01*
X169533127Y-84701465D01*
X169639669Y-84630276D01*
X169730276Y-84539669D01*
X169801465Y-84433127D01*
X169850501Y-84314744D01*
X169875500Y-84189069D01*
X169875500Y-84060931D01*
X169875500Y-84060928D01*
X169850502Y-83935261D01*
X169850501Y-83935260D01*
X169850501Y-83935256D01*
X169801465Y-83816873D01*
X169801464Y-83816872D01*
X169801461Y-83816866D01*
X169730276Y-83710331D01*
X169726411Y-83705621D01*
X169728045Y-83704279D01*
X169699148Y-83651389D01*
X169704114Y-83581696D01*
X169727514Y-83545284D01*
X169726411Y-83544379D01*
X169730271Y-83539673D01*
X169730276Y-83539669D01*
X169801465Y-83433127D01*
X169850501Y-83314744D01*
X169865069Y-83241507D01*
X169875500Y-83189071D01*
X169875500Y-83060928D01*
X169850502Y-82935261D01*
X169850501Y-82935260D01*
X169850501Y-82935256D01*
X169821015Y-82864071D01*
X172799499Y-82864071D01*
X172824497Y-82989738D01*
X172824499Y-82989744D01*
X172873533Y-83108124D01*
X172873538Y-83108133D01*
X172944723Y-83214668D01*
X172944726Y-83214672D01*
X173035327Y-83305273D01*
X173035331Y-83305276D01*
X173141866Y-83376461D01*
X173141872Y-83376464D01*
X173141873Y-83376465D01*
X173260256Y-83425501D01*
X173260260Y-83425501D01*
X173260261Y-83425502D01*
X173385928Y-83450500D01*
X173385931Y-83450500D01*
X173514071Y-83450500D01*
X173601376Y-83433133D01*
X173639744Y-83425501D01*
X173758127Y-83376465D01*
X173864669Y-83305276D01*
X173955276Y-83214669D01*
X174026465Y-83108127D01*
X174075501Y-82989744D01*
X174100500Y-82864069D01*
X174100500Y-82735931D01*
X174100500Y-82735928D01*
X174075502Y-82610261D01*
X174075501Y-82610260D01*
X174075501Y-82610256D01*
X174026465Y-82491873D01*
X174026464Y-82491872D01*
X174026461Y-82491866D01*
X173955276Y-82385331D01*
X173955273Y-82385327D01*
X173864672Y-82294726D01*
X173864668Y-82294723D01*
X173758133Y-82223538D01*
X173758124Y-82223533D01*
X173639744Y-82174499D01*
X173639738Y-82174497D01*
X173514071Y-82149500D01*
X173514069Y-82149500D01*
X173385931Y-82149500D01*
X173385929Y-82149500D01*
X173260261Y-82174497D01*
X173260255Y-82174499D01*
X173141875Y-82223533D01*
X173141866Y-82223538D01*
X173035331Y-82294723D01*
X173035327Y-82294726D01*
X172944726Y-82385327D01*
X172944723Y-82385331D01*
X172873538Y-82491866D01*
X172873533Y-82491875D01*
X172824499Y-82610255D01*
X172824497Y-82610261D01*
X172799500Y-82735928D01*
X172799500Y-82735931D01*
X172799500Y-82864069D01*
X172799500Y-82864071D01*
X172799499Y-82864071D01*
X169821015Y-82864071D01*
X169807762Y-82832075D01*
X169801466Y-82816875D01*
X169801458Y-82816861D01*
X169791710Y-82802271D01*
X169791697Y-82802254D01*
X169730276Y-82710331D01*
X169688279Y-82668334D01*
X169683428Y-82662052D01*
X169673496Y-82636596D01*
X169660405Y-82612621D01*
X169660983Y-82604524D01*
X169658033Y-82596961D01*
X169663440Y-82570180D01*
X169665389Y-82542929D01*
X169671257Y-82531462D01*
X169671861Y-82528473D01*
X169673820Y-82526453D01*
X169678469Y-82517371D01*
X169680271Y-82514673D01*
X169680276Y-82514669D01*
X169751465Y-82408127D01*
X169800501Y-82289744D01*
X169813672Y-82223533D01*
X169825500Y-82164071D01*
X169825500Y-82035928D01*
X169800502Y-81910261D01*
X169800501Y-81910260D01*
X169800501Y-81910256D01*
X169751465Y-81791873D01*
X169751464Y-81791872D01*
X169751461Y-81791866D01*
X169685662Y-81693391D01*
X169664784Y-81626713D01*
X169683269Y-81559333D01*
X169735247Y-81512643D01*
X169788764Y-81500500D01*
X169889071Y-81500500D01*
X169973615Y-81483682D01*
X170014744Y-81475501D01*
X170133127Y-81426465D01*
X170239669Y-81355276D01*
X170330276Y-81264669D01*
X170401465Y-81158127D01*
X170450501Y-81039744D01*
X170458682Y-80998615D01*
X170475500Y-80914071D01*
X170475500Y-80789071D01*
X171724499Y-80789071D01*
X171749497Y-80914738D01*
X171749499Y-80914744D01*
X171798533Y-81033124D01*
X171798538Y-81033133D01*
X171869723Y-81139668D01*
X171869726Y-81139672D01*
X171960327Y-81230273D01*
X171960331Y-81230276D01*
X172066866Y-81301461D01*
X172066872Y-81301464D01*
X172066873Y-81301465D01*
X172185256Y-81350501D01*
X172185260Y-81350501D01*
X172185261Y-81350502D01*
X172310928Y-81375500D01*
X172310931Y-81375500D01*
X172439071Y-81375500D01*
X172540754Y-81355273D01*
X172564744Y-81350501D01*
X172683127Y-81301465D01*
X172789669Y-81230276D01*
X172880276Y-81139669D01*
X172951465Y-81033127D01*
X172959358Y-81014071D01*
X180599499Y-81014071D01*
X180624497Y-81139738D01*
X180624499Y-81139744D01*
X180673533Y-81258124D01*
X180673538Y-81258133D01*
X180744723Y-81364668D01*
X180744726Y-81364672D01*
X180835327Y-81455273D01*
X180835331Y-81455276D01*
X180941866Y-81526461D01*
X180941872Y-81526464D01*
X180941873Y-81526465D01*
X181060256Y-81575501D01*
X181060260Y-81575501D01*
X181060261Y-81575502D01*
X181185928Y-81600500D01*
X181185931Y-81600500D01*
X181314071Y-81600500D01*
X181398615Y-81583682D01*
X181439744Y-81575501D01*
X181558127Y-81526465D01*
X181664669Y-81455276D01*
X181755276Y-81364669D01*
X181826465Y-81258127D01*
X181875501Y-81139744D01*
X181900500Y-81014069D01*
X181900500Y-80885931D01*
X181900500Y-80885928D01*
X181875502Y-80760261D01*
X181875501Y-80760260D01*
X181875501Y-80760256D01*
X181837574Y-80668692D01*
X181826466Y-80641875D01*
X181826461Y-80641866D01*
X181755276Y-80535331D01*
X181755273Y-80535327D01*
X181664672Y-80444726D01*
X181664668Y-80444723D01*
X181558133Y-80373538D01*
X181558124Y-80373533D01*
X181439744Y-80324499D01*
X181439738Y-80324497D01*
X181314071Y-80299500D01*
X181314069Y-80299500D01*
X181185931Y-80299500D01*
X181185929Y-80299500D01*
X181060261Y-80324497D01*
X181060255Y-80324499D01*
X180941875Y-80373533D01*
X180941866Y-80373538D01*
X180835331Y-80444723D01*
X180835327Y-80444726D01*
X180744726Y-80535327D01*
X180744723Y-80535331D01*
X180673538Y-80641866D01*
X180673533Y-80641875D01*
X180624499Y-80760255D01*
X180624497Y-80760261D01*
X180599500Y-80885928D01*
X180599500Y-80885931D01*
X180599500Y-81014069D01*
X180599500Y-81014071D01*
X180599499Y-81014071D01*
X172959358Y-81014071D01*
X173000501Y-80914744D01*
X173006181Y-80886188D01*
X173012257Y-80855647D01*
X173025500Y-80789071D01*
X173025500Y-80660928D01*
X173000502Y-80535261D01*
X173000501Y-80535260D01*
X173000501Y-80535256D01*
X172951465Y-80416873D01*
X172951464Y-80416872D01*
X172951461Y-80416866D01*
X172880276Y-80310331D01*
X172880273Y-80310327D01*
X172789672Y-80219726D01*
X172789668Y-80219723D01*
X172683133Y-80148538D01*
X172683124Y-80148533D01*
X172564744Y-80099499D01*
X172564738Y-80099497D01*
X172439071Y-80074500D01*
X172439069Y-80074500D01*
X172310931Y-80074500D01*
X172310929Y-80074500D01*
X172185261Y-80099497D01*
X172185255Y-80099499D01*
X172066875Y-80148533D01*
X172066866Y-80148538D01*
X171960331Y-80219723D01*
X171960327Y-80219726D01*
X171869726Y-80310327D01*
X171869723Y-80310331D01*
X171798538Y-80416866D01*
X171798533Y-80416875D01*
X171749499Y-80535255D01*
X171749497Y-80535261D01*
X171724500Y-80660928D01*
X171724500Y-80660931D01*
X171724500Y-80789069D01*
X171724500Y-80789071D01*
X171724499Y-80789071D01*
X170475500Y-80789071D01*
X170475500Y-80785928D01*
X170454236Y-80679031D01*
X170450502Y-80660261D01*
X170450501Y-80660260D01*
X170450501Y-80660256D01*
X170401465Y-80541873D01*
X170401464Y-80541872D01*
X170401461Y-80541866D01*
X170330276Y-80435331D01*
X170330273Y-80435327D01*
X170239672Y-80344726D01*
X170239668Y-80344723D01*
X170133133Y-80273538D01*
X170133124Y-80273533D01*
X170014744Y-80224499D01*
X170014738Y-80224497D01*
X169889071Y-80199500D01*
X169889069Y-80199500D01*
X169760931Y-80199500D01*
X169760929Y-80199500D01*
X169635261Y-80224497D01*
X169635255Y-80224499D01*
X169516875Y-80273533D01*
X169516866Y-80273538D01*
X169410331Y-80344723D01*
X169410327Y-80344726D01*
X169319726Y-80435327D01*
X169319723Y-80435331D01*
X169248538Y-80541866D01*
X169248533Y-80541875D01*
X169199499Y-80660255D01*
X169199497Y-80660261D01*
X169174500Y-80785928D01*
X169174500Y-80785931D01*
X169174500Y-80914069D01*
X169174500Y-80914071D01*
X169174499Y-80914071D01*
X169199497Y-81039738D01*
X169199499Y-81039744D01*
X169248533Y-81158124D01*
X169248538Y-81158133D01*
X169314338Y-81256609D01*
X169335216Y-81323287D01*
X169316731Y-81390667D01*
X169264753Y-81437357D01*
X169211236Y-81449500D01*
X169110929Y-81449500D01*
X168985261Y-81474497D01*
X168985255Y-81474499D01*
X168866875Y-81523533D01*
X168866866Y-81523538D01*
X168760331Y-81594723D01*
X168760327Y-81594726D01*
X168669726Y-81685327D01*
X168669723Y-81685331D01*
X168598538Y-81791866D01*
X168598533Y-81791875D01*
X168549499Y-81910255D01*
X168549497Y-81910261D01*
X168524500Y-82035928D01*
X168524500Y-82035931D01*
X168524500Y-82164069D01*
X168524500Y-82164071D01*
X168524499Y-82164071D01*
X143347398Y-82164071D01*
X143350500Y-82144486D01*
X143350500Y-81955513D01*
X143320940Y-81768881D01*
X143262545Y-81589163D01*
X143191383Y-81449500D01*
X143176760Y-81420801D01*
X143065690Y-81267927D01*
X142932073Y-81134310D01*
X142779199Y-81023240D01*
X142761200Y-81014069D01*
X142610836Y-80937454D01*
X142536472Y-80913291D01*
X142489195Y-80897930D01*
X142431521Y-80858493D01*
X142404323Y-80794134D01*
X142416238Y-80725288D01*
X142463482Y-80673812D01*
X142489194Y-80662069D01*
X142610832Y-80622547D01*
X142779199Y-80536760D01*
X142932073Y-80425690D01*
X143065690Y-80292073D01*
X143176760Y-80139199D01*
X143262547Y-79970832D01*
X143320940Y-79791118D01*
X143350500Y-79604486D01*
X143350500Y-79415513D01*
X143320940Y-79228881D01*
X143262545Y-79049163D01*
X143176759Y-78880800D01*
X143065690Y-78727927D01*
X142932073Y-78594310D01*
X142779199Y-78483240D01*
X142610836Y-78397454D01*
X142536472Y-78373291D01*
X142489195Y-78357930D01*
X142431521Y-78318493D01*
X142404323Y-78254134D01*
X142416238Y-78185288D01*
X142463482Y-78133812D01*
X142489194Y-78122069D01*
X142610832Y-78082547D01*
X142779199Y-77996760D01*
X142932073Y-77885690D01*
X143065690Y-77752073D01*
X143176760Y-77599199D01*
X143262547Y-77430832D01*
X143320940Y-77251118D01*
X143350500Y-77064486D01*
X143350500Y-76875513D01*
X143320940Y-76688881D01*
X143262545Y-76509163D01*
X143176759Y-76340800D01*
X143065690Y-76187927D01*
X142932073Y-76054310D01*
X142779199Y-75943240D01*
X142625615Y-75864985D01*
X142574819Y-75817010D01*
X142558024Y-75749189D01*
X142580561Y-75683054D01*
X142622184Y-75650000D01*
X146100000Y-75650000D01*
X152600000Y-75650000D01*
X152600000Y-74759365D01*
X159954499Y-74759365D01*
X159979497Y-74885032D01*
X159979499Y-74885038D01*
X160028533Y-75003418D01*
X160028538Y-75003427D01*
X160099723Y-75109962D01*
X160099726Y-75109966D01*
X160190327Y-75200567D01*
X160190331Y-75200570D01*
X160296866Y-75271755D01*
X160296872Y-75271758D01*
X160296873Y-75271759D01*
X160415256Y-75320795D01*
X160415260Y-75320795D01*
X160415261Y-75320796D01*
X160540928Y-75345794D01*
X160540931Y-75345794D01*
X160669071Y-75345794D01*
X160753615Y-75328976D01*
X160794744Y-75320795D01*
X160913127Y-75271759D01*
X161019669Y-75200570D01*
X161110276Y-75109963D01*
X161181465Y-75003421D01*
X161230501Y-74885038D01*
X161255500Y-74759363D01*
X161255500Y-74631225D01*
X161255500Y-74631222D01*
X161230502Y-74505555D01*
X161230501Y-74505554D01*
X161230501Y-74505550D01*
X161181465Y-74387167D01*
X161181464Y-74387166D01*
X161181461Y-74387160D01*
X161110276Y-74280625D01*
X161110273Y-74280621D01*
X161019672Y-74190020D01*
X161019668Y-74190017D01*
X160913133Y-74118832D01*
X160913124Y-74118827D01*
X160794744Y-74069793D01*
X160794738Y-74069791D01*
X160669071Y-74044794D01*
X160669069Y-74044794D01*
X160540931Y-74044794D01*
X160540929Y-74044794D01*
X160415261Y-74069791D01*
X160415255Y-74069793D01*
X160296875Y-74118827D01*
X160296866Y-74118832D01*
X160190331Y-74190017D01*
X160190327Y-74190020D01*
X160099726Y-74280621D01*
X160099723Y-74280625D01*
X160028538Y-74387160D01*
X160028533Y-74387169D01*
X159979499Y-74505549D01*
X159979497Y-74505555D01*
X159954500Y-74631222D01*
X159954500Y-74631225D01*
X159954500Y-74759363D01*
X159954500Y-74759365D01*
X159954499Y-74759365D01*
X152600000Y-74759365D01*
X152600000Y-72234365D01*
X159954499Y-72234365D01*
X159979497Y-72360032D01*
X159979499Y-72360038D01*
X160028533Y-72478418D01*
X160028538Y-72478427D01*
X160099723Y-72584962D01*
X160099726Y-72584966D01*
X160190327Y-72675567D01*
X160190331Y-72675570D01*
X160296866Y-72746755D01*
X160296872Y-72746758D01*
X160296873Y-72746759D01*
X160415256Y-72795795D01*
X160415260Y-72795795D01*
X160415261Y-72795796D01*
X160540928Y-72820794D01*
X160540931Y-72820794D01*
X160669071Y-72820794D01*
X160753615Y-72803976D01*
X160794744Y-72795795D01*
X160913127Y-72746759D01*
X161019669Y-72675570D01*
X161110276Y-72584963D01*
X161181465Y-72478421D01*
X161230501Y-72360038D01*
X161255500Y-72234363D01*
X161255500Y-72106225D01*
X161255500Y-72106222D01*
X161230502Y-71980555D01*
X161230501Y-71980554D01*
X161230501Y-71980550D01*
X161181465Y-71862167D01*
X161181464Y-71862166D01*
X161181461Y-71862160D01*
X161110276Y-71755625D01*
X161110273Y-71755621D01*
X161019672Y-71665020D01*
X161019668Y-71665017D01*
X160913133Y-71593832D01*
X160913124Y-71593827D01*
X160794744Y-71544793D01*
X160794738Y-71544791D01*
X160669071Y-71519794D01*
X160669069Y-71519794D01*
X160540931Y-71519794D01*
X160540929Y-71519794D01*
X160415261Y-71544791D01*
X160415255Y-71544793D01*
X160296875Y-71593827D01*
X160296866Y-71593832D01*
X160190331Y-71665017D01*
X160190327Y-71665020D01*
X160099726Y-71755621D01*
X160099723Y-71755625D01*
X160028538Y-71862160D01*
X160028533Y-71862169D01*
X159979499Y-71980549D01*
X159979497Y-71980555D01*
X159954500Y-72106222D01*
X159954500Y-72106225D01*
X159954500Y-72234363D01*
X159954500Y-72234365D01*
X159954499Y-72234365D01*
X152600000Y-72234365D01*
X152600000Y-69150000D01*
X146100000Y-69150000D01*
X146100000Y-75650000D01*
X142622184Y-75650000D01*
X142635277Y-75639603D01*
X142681910Y-75630500D01*
X143033261Y-75630500D01*
X143055971Y-75627191D01*
X143101393Y-75620573D01*
X143206483Y-75569198D01*
X143289198Y-75486483D01*
X143340573Y-75381393D01*
X143350500Y-75313260D01*
X143350500Y-73546740D01*
X143340573Y-73478607D01*
X143289198Y-73373517D01*
X143289196Y-73373515D01*
X143289196Y-73373514D01*
X143206485Y-73290803D01*
X143101391Y-73239426D01*
X143033261Y-73229500D01*
X143033260Y-73229500D01*
X141266740Y-73229500D01*
X141266739Y-73229500D01*
X141198608Y-73239426D01*
X141093514Y-73290803D01*
X141010803Y-73373514D01*
X140959426Y-73478608D01*
X140949500Y-73546739D01*
X140949500Y-75313260D01*
X140959426Y-75381391D01*
X141010803Y-75486485D01*
X141093514Y-75569196D01*
X141093515Y-75569196D01*
X141093517Y-75569198D01*
X141198607Y-75620573D01*
X141232673Y-75625536D01*
X141266739Y-75630500D01*
X141618090Y-75630500D01*
X141685129Y-75650185D01*
X141730884Y-75702989D01*
X141740828Y-75772147D01*
X141711803Y-75835703D01*
X141674385Y-75864985D01*
X141520800Y-75943240D01*
X141433579Y-76006610D01*
X141367927Y-76054310D01*
X141367925Y-76054312D01*
X141367924Y-76054312D01*
X141234312Y-76187924D01*
X141234312Y-76187925D01*
X141234310Y-76187927D01*
X141186610Y-76253579D01*
X141123240Y-76340800D01*
X141037454Y-76509163D01*
X140979059Y-76688881D01*
X140949500Y-76875513D01*
X140949500Y-77064486D01*
X140979059Y-77251118D01*
X141037454Y-77430836D01*
X141123240Y-77599199D01*
X141234310Y-77752073D01*
X141367927Y-77885690D01*
X141520801Y-77996760D01*
X141600347Y-78037290D01*
X141689163Y-78082545D01*
X141689165Y-78082545D01*
X141689168Y-78082547D01*
X141778734Y-78111649D01*
X141810803Y-78122069D01*
X141868478Y-78161507D01*
X141895676Y-78225866D01*
X141883761Y-78294712D01*
X141836516Y-78346188D01*
X141810803Y-78357931D01*
X141689163Y-78397454D01*
X141520800Y-78483240D01*
X141433579Y-78546610D01*
X141367927Y-78594310D01*
X141367925Y-78594312D01*
X141367924Y-78594312D01*
X141234312Y-78727924D01*
X141234312Y-78727925D01*
X141234310Y-78727927D01*
X141186610Y-78793579D01*
X141123240Y-78880800D01*
X141037454Y-79049163D01*
X140979059Y-79228881D01*
X140949500Y-79415513D01*
X140949500Y-79604486D01*
X140979059Y-79791118D01*
X141037454Y-79970836D01*
X141090274Y-80074500D01*
X141123240Y-80139199D01*
X141234310Y-80292073D01*
X141367927Y-80425690D01*
X141520801Y-80536760D01*
X141600347Y-80577290D01*
X141689163Y-80622545D01*
X141689165Y-80622545D01*
X141689168Y-80622547D01*
X141748647Y-80641873D01*
X141810803Y-80662069D01*
X141868478Y-80701507D01*
X141895676Y-80765866D01*
X141883761Y-80834712D01*
X141836516Y-80886188D01*
X141810803Y-80897931D01*
X141689163Y-80937454D01*
X141520800Y-81023240D01*
X141498085Y-81039744D01*
X141367927Y-81134310D01*
X141367925Y-81134312D01*
X141367924Y-81134312D01*
X141234312Y-81267924D01*
X141234312Y-81267925D01*
X141234310Y-81267927D01*
X141194088Y-81323287D01*
X141123240Y-81420800D01*
X141037454Y-81589163D01*
X140979059Y-81768881D01*
X140949500Y-81955513D01*
X140949500Y-82144486D01*
X140979059Y-82331118D01*
X141037454Y-82510836D01*
X141114503Y-82662052D01*
X141123240Y-82679199D01*
X141234310Y-82832073D01*
X141367927Y-82965690D01*
X141520801Y-83076760D01*
X141582374Y-83108133D01*
X141689163Y-83162545D01*
X141689165Y-83162545D01*
X141689168Y-83162547D01*
X141770794Y-83189069D01*
X141810803Y-83202069D01*
X141868478Y-83241507D01*
X141895676Y-83305866D01*
X141883761Y-83374712D01*
X141836516Y-83426188D01*
X141810803Y-83437931D01*
X141689163Y-83477454D01*
X141520800Y-83563240D01*
X141435796Y-83625000D01*
X141367927Y-83674310D01*
X141367925Y-83674312D01*
X141367924Y-83674312D01*
X141234312Y-83807924D01*
X141234312Y-83807925D01*
X141234310Y-83807927D01*
X141227809Y-83816875D01*
X141123240Y-83960800D01*
X141037454Y-84129163D01*
X140979059Y-84308881D01*
X140949500Y-84495513D01*
X140949500Y-84684486D01*
X140979059Y-84871118D01*
X141037454Y-85050836D01*
X141090264Y-85154480D01*
X141123240Y-85219199D01*
X141234310Y-85372073D01*
X141367927Y-85505690D01*
X141520801Y-85616760D01*
X141600347Y-85657290D01*
X141689163Y-85702545D01*
X141689165Y-85702545D01*
X141689168Y-85702547D01*
X141778734Y-85731649D01*
X141810803Y-85742069D01*
X141868478Y-85781507D01*
X141895676Y-85845866D01*
X141883761Y-85914712D01*
X141836516Y-85966188D01*
X141810803Y-85977931D01*
X141689163Y-86017454D01*
X141520800Y-86103240D01*
X141433579Y-86166610D01*
X141367927Y-86214310D01*
X141367925Y-86214312D01*
X141367924Y-86214312D01*
X141234312Y-86347924D01*
X141234312Y-86347925D01*
X141234310Y-86347927D01*
X141228747Y-86355584D01*
X141123240Y-86500800D01*
X141037454Y-86669163D01*
X140979059Y-86848881D01*
X140949500Y-87035513D01*
X140949500Y-87224486D01*
X140979059Y-87411118D01*
X141037454Y-87590836D01*
X141123240Y-87759199D01*
X141234310Y-87912073D01*
X141367927Y-88045690D01*
X141520801Y-88156760D01*
X141600347Y-88197290D01*
X141689163Y-88242545D01*
X141689165Y-88242545D01*
X141689168Y-88242547D01*
X141778734Y-88271649D01*
X141810803Y-88282069D01*
X141868478Y-88321507D01*
X141895676Y-88385866D01*
X141883761Y-88454712D01*
X141836516Y-88506188D01*
X141810803Y-88517931D01*
X141689163Y-88557454D01*
X141520800Y-88643240D01*
X141459200Y-88687996D01*
X141367927Y-88754310D01*
X141367925Y-88754312D01*
X141367924Y-88754312D01*
X141234312Y-88887924D01*
X141234312Y-88887925D01*
X141234310Y-88887927D01*
X141225349Y-88900261D01*
X141123240Y-89040800D01*
X141037454Y-89209163D01*
X140979059Y-89388881D01*
X140949500Y-89575513D01*
X140949500Y-89764486D01*
X140979059Y-89951118D01*
X141037454Y-90130836D01*
X141123240Y-90299199D01*
X141234310Y-90452073D01*
X141367927Y-90585690D01*
X141520801Y-90696760D01*
X141600347Y-90737290D01*
X141689163Y-90782545D01*
X141689165Y-90782545D01*
X141689168Y-90782547D01*
X141778734Y-90811649D01*
X141810803Y-90822069D01*
X141868478Y-90861507D01*
X141895676Y-90925866D01*
X141883761Y-90994712D01*
X141836516Y-91046188D01*
X141810803Y-91057931D01*
X141689163Y-91097454D01*
X141520800Y-91183240D01*
X141433579Y-91246610D01*
X141367927Y-91294310D01*
X141367925Y-91294312D01*
X141367924Y-91294312D01*
X141234312Y-91427924D01*
X141234312Y-91427925D01*
X141234310Y-91427927D01*
X141190273Y-91488538D01*
X141123240Y-91580800D01*
X141037454Y-91749163D01*
X140979059Y-91928881D01*
X140949500Y-92115513D01*
X140949500Y-92304486D01*
X140979059Y-92491118D01*
X141037454Y-92670836D01*
X141123240Y-92839199D01*
X141234310Y-92992073D01*
X141367927Y-93125690D01*
X141520801Y-93236760D01*
X141600347Y-93277290D01*
X141689163Y-93322545D01*
X141689165Y-93322545D01*
X141689168Y-93322547D01*
X141778734Y-93351649D01*
X141810803Y-93362069D01*
X141868478Y-93401507D01*
X141895676Y-93465866D01*
X141883761Y-93534712D01*
X141836516Y-93586188D01*
X141810803Y-93597931D01*
X141689163Y-93637454D01*
X141520800Y-93723240D01*
X141433579Y-93786610D01*
X141367927Y-93834310D01*
X141367925Y-93834312D01*
X141367924Y-93834312D01*
X141234312Y-93967924D01*
X141234312Y-93967925D01*
X141234310Y-93967927D01*
X141186610Y-94033579D01*
X141123240Y-94120800D01*
X141037454Y-94289163D01*
X140979059Y-94468881D01*
X140949500Y-94655513D01*
X140949500Y-94844486D01*
X140979059Y-95031118D01*
X141037454Y-95210836D01*
X141087940Y-95309919D01*
X141123240Y-95379199D01*
X141234310Y-95532073D01*
X141367927Y-95665690D01*
X141520801Y-95776760D01*
X141600347Y-95817290D01*
X141689163Y-95862545D01*
X141689165Y-95862545D01*
X141689168Y-95862547D01*
X141778734Y-95891649D01*
X141810803Y-95902069D01*
X141868478Y-95941507D01*
X141895676Y-96005866D01*
X141883761Y-96074712D01*
X141836516Y-96126188D01*
X141810803Y-96137931D01*
X141689163Y-96177454D01*
X141520800Y-96263240D01*
X141462652Y-96305488D01*
X141367927Y-96374310D01*
X141367925Y-96374312D01*
X141367924Y-96374312D01*
X141234312Y-96507924D01*
X141234312Y-96507925D01*
X141234310Y-96507927D01*
X141197965Y-96557951D01*
X141123240Y-96660800D01*
X141037454Y-96829163D01*
X140979059Y-97008881D01*
X140949500Y-97195513D01*
X140949500Y-97384486D01*
X140979059Y-97571118D01*
X141037454Y-97750836D01*
X141123240Y-97919199D01*
X141234310Y-98072073D01*
X141367927Y-98205690D01*
X141520801Y-98316760D01*
X141600347Y-98357290D01*
X141689163Y-98402545D01*
X141689165Y-98402545D01*
X141689168Y-98402547D01*
X141778734Y-98431649D01*
X141810803Y-98442069D01*
X141868478Y-98481507D01*
X141895676Y-98545866D01*
X141883761Y-98614712D01*
X141836516Y-98666188D01*
X141810803Y-98677931D01*
X141689163Y-98717454D01*
X141520800Y-98803240D01*
X141433579Y-98866610D01*
X141367927Y-98914310D01*
X141367925Y-98914312D01*
X141367924Y-98914312D01*
X141234312Y-99047924D01*
X141234312Y-99047925D01*
X141234310Y-99047927D01*
X141186610Y-99113579D01*
X141123240Y-99200800D01*
X141037454Y-99369163D01*
X140979059Y-99548881D01*
X140949500Y-99735513D01*
X140949500Y-99924486D01*
X140979059Y-100111118D01*
X141037454Y-100290836D01*
X141077771Y-100369961D01*
X141123240Y-100459199D01*
X141234310Y-100612073D01*
X141367927Y-100745690D01*
X141520801Y-100856760D01*
X141587796Y-100890895D01*
X141616696Y-100905621D01*
X141667492Y-100953596D01*
X141684287Y-101021417D01*
X141661750Y-101087552D01*
X141616697Y-101126590D01*
X141442443Y-101215378D01*
X141442440Y-101215380D01*
X141388282Y-101254727D01*
X141388282Y-101254728D01*
X142020591Y-101887037D01*
X141957007Y-101904075D01*
X141842993Y-101969901D01*
X141749901Y-102062993D01*
X141684075Y-102177007D01*
X141667037Y-102240591D01*
X141034728Y-101608282D01*
X141034727Y-101608282D01*
X140995380Y-101662439D01*
X140898904Y-101851782D01*
X140833242Y-102053869D01*
X140833242Y-102053872D01*
X140800000Y-102263753D01*
X139625500Y-102263753D01*
X139625500Y-68324500D01*
X139645185Y-68257461D01*
X139697989Y-68211706D01*
X139749500Y-68200500D01*
X196200500Y-68200500D01*
X196267539Y-68220185D01*
G37*
%TD.AperFunction*%
%TD*%
M02*
