%TF.GenerationSoftware,KiCad,Pcbnew,9.0.4*%
%TF.CreationDate,2026-01-29T02:10:09+03:00*%
%TF.ProjectId,ADC,4144432e-6b69-4636-9164-5f7063625858,rev?*%
%TF.SameCoordinates,Original*%
%TF.FileFunction,Copper,L4,Bot*%
%TF.FilePolarity,Positive*%
%FSLAX46Y46*%
G04 Gerber Fmt 4.6, Leading zero omitted, Abs format (unit mm)*
G04 Created by KiCad (PCBNEW 9.0.4) date 2026-01-29 02:10:09*
%MOMM*%
%LPD*%
G01*
G04 APERTURE LIST*
%TA.AperFunction,ComponentPad*%
%ADD10R,1.700000X1.700000*%
%TD*%
%TA.AperFunction,ComponentPad*%
%ADD11C,1.700000*%
%TD*%
%TA.AperFunction,ViaPad*%
%ADD12C,0.600000*%
%TD*%
%TA.AperFunction,ViaPad*%
%ADD13C,0.800000*%
%TD*%
%TA.AperFunction,Conductor*%
%ADD14C,0.500000*%
%TD*%
%TA.AperFunction,Conductor*%
%ADD15C,0.200000*%
%TD*%
%TA.AperFunction,Conductor*%
%ADD16C,0.250000*%
%TD*%
G04 APERTURE END LIST*
D10*
%TO.P,J2,1,Pin_1*%
%TO.N,STBY*%
X142150000Y-74430000D03*
D11*
%TO.P,J2,2,Pin_2*%
%TO.N,CONVST*%
X142150000Y-76970000D03*
%TO.P,J2,3,Pin_3*%
%TO.N,RST*%
X142150000Y-79510000D03*
%TO.P,J2,4,Pin_4*%
%TO.N,SCLK{slash}RD*%
X142150000Y-82050000D03*
%TO.P,J2,5,Pin_5*%
%TO.N,OS0*%
X142150000Y-84590000D03*
%TO.P,J2,6,Pin_6*%
%TO.N,OS1*%
X142150000Y-87130000D03*
%TO.P,J2,7,Pin_7*%
%TO.N,OS2*%
X142150000Y-89670000D03*
%TO.P,J2,8,Pin_8*%
%TO.N,CS*%
X142150000Y-92210000D03*
%TO.P,J2,9,Pin_9*%
%TO.N,BUSY*%
X142150000Y-94750000D03*
%TO.P,J2,10,Pin_10*%
%TO.N,FRSTDATA*%
X142150000Y-97290000D03*
%TO.P,J2,11,Pin_11*%
%TO.N,+5V*%
X142150000Y-99830000D03*
%TO.P,J2,12,Pin_12*%
%TO.N,GND*%
X142150000Y-102370000D03*
%TD*%
D12*
%TO.N,GND*%
X175850000Y-95142500D03*
X186892500Y-87500000D03*
D13*
X165150000Y-100800000D03*
D12*
X186750000Y-93015000D03*
X186900000Y-85450000D03*
X179150000Y-80550000D03*
X159355000Y-72170294D03*
X174150000Y-80550000D03*
D13*
X166200000Y-86300000D03*
D12*
X159355000Y-74695294D03*
X173370000Y-83970000D03*
X178150000Y-80550000D03*
X189305000Y-93197500D03*
X187200000Y-82725000D03*
X176150000Y-80550000D03*
X175150000Y-80550000D03*
X181250000Y-85200000D03*
X186475000Y-82725000D03*
X177650000Y-89300000D03*
X183020000Y-80360000D03*
D13*
X157925000Y-100800000D03*
D12*
X181320000Y-87525000D03*
X184417500Y-93200000D03*
X170740000Y-80320000D03*
X177150000Y-80550000D03*
D13*
X150825000Y-100775000D03*
D12*
X181250000Y-82000000D03*
X181250000Y-83650000D03*
X181250000Y-84550000D03*
X180150000Y-80550000D03*
X172499999Y-83066117D03*
X184290000Y-81380000D03*
X172500000Y-81900000D03*
X186900000Y-86500000D03*
X172950000Y-77775000D03*
%TO.N,+5V*%
X181250000Y-86400000D03*
X181250000Y-80950000D03*
X160605000Y-74695294D03*
X169825000Y-80850000D03*
X184400000Y-92075000D03*
X172375000Y-80725000D03*
X160605000Y-72170294D03*
D13*
X185630000Y-94830000D03*
%TO.N,+3.3V*%
X150750000Y-95950000D03*
D12*
X189300000Y-92065000D03*
D13*
X157850000Y-95975000D03*
X165075000Y-95975000D03*
D12*
%TO.N,Net-(U1-OS0)*%
X164100000Y-88675000D03*
X169175000Y-82100000D03*
%TO.N,Net-(U1-OS1)*%
X169225000Y-83125000D03*
X164100000Y-89475000D03*
%TO.N,Net-(U1-OS2)*%
X169225000Y-84125000D03*
X164100000Y-90275003D03*
%TO.N,STBY*%
X173450000Y-82800000D03*
%TO.N,BUSY*%
X173410000Y-88290414D03*
%TO.N,CONVST*%
X173410000Y-85090411D03*
%TO.N,CS*%
X173410000Y-87490414D03*
%TO.N,FRSTDATA*%
X173410000Y-89090000D03*
%TO.N,SCLK{slash}RD*%
X173410000Y-86690414D03*
%TO.N,RST*%
X173410000Y-85890414D03*
%TD*%
D14*
%TO.N,+3.3V*%
X188200000Y-92900000D02*
X189025000Y-92075000D01*
X188200000Y-94450000D02*
X188200000Y-92900000D01*
X189025000Y-92075000D02*
X189300000Y-92075000D01*
X150750000Y-95950000D02*
X186700000Y-95950000D01*
X186700000Y-95950000D02*
X188200000Y-94450000D01*
D15*
X189300000Y-92065000D02*
X189300000Y-92075000D01*
D16*
%TO.N,Net-(U1-OS0)*%
X164100000Y-87175000D02*
X169175000Y-82100000D01*
X164100000Y-88675000D02*
X164100000Y-87175000D01*
%TO.N,Net-(U1-OS1)*%
X168350000Y-85375000D02*
X168350000Y-84000000D01*
X164149943Y-89475000D02*
X164250000Y-89475000D01*
X168350000Y-84000000D02*
X169225000Y-83125000D01*
X164250000Y-89475000D02*
X168350000Y-85375000D01*
D15*
X164100000Y-89475000D02*
X164149943Y-89475000D01*
D16*
%TO.N,Net-(U1-OS2)*%
X164185295Y-90275003D02*
X169225000Y-85235298D01*
X169225000Y-85235298D02*
X169225000Y-84125000D01*
X164100000Y-90275003D02*
X164185295Y-90275003D01*
D15*
%TO.N,STBY*%
X171785000Y-79165000D02*
X173440000Y-80820000D01*
X173440000Y-80820000D02*
X173440000Y-82790000D01*
X173440000Y-82790000D02*
X173450000Y-82800000D01*
X146885000Y-79165000D02*
X142150000Y-74430000D01*
X171785000Y-79165000D02*
X146885000Y-79165000D01*
%TO.N,BUSY*%
X143050000Y-93850000D02*
X142150000Y-94750000D01*
X173159586Y-88290414D02*
X167600000Y-93850000D01*
X173410000Y-88290414D02*
X173159586Y-88290414D01*
X167600000Y-93850000D02*
X143050000Y-93850000D01*
%TO.N,CONVST*%
X173410000Y-85090411D02*
X171420000Y-83100411D01*
X170835000Y-81475000D02*
X146655000Y-81475000D01*
X171420000Y-83100411D02*
X171420000Y-82060000D01*
X171420000Y-82060000D02*
X170835000Y-81475000D01*
X146655000Y-81475000D02*
X142150000Y-76970000D01*
%TO.N,CS*%
X173410000Y-87490414D02*
X172933033Y-87490414D01*
X142790000Y-92850000D02*
X142150000Y-92210000D01*
X167573447Y-92850000D02*
X142790000Y-92850000D01*
X172933033Y-87490414D02*
X167573447Y-92850000D01*
%TO.N,FRSTDATA*%
X173410000Y-89090000D02*
X167750000Y-94750000D01*
X167750000Y-94750000D02*
X144690000Y-94750000D01*
X144690000Y-94750000D02*
X142150000Y-97290000D01*
X173072089Y-89090000D02*
X173410000Y-89090000D01*
%TO.N,SCLK{slash}RD*%
X166850000Y-92200000D02*
X152300000Y-92200000D01*
X173410000Y-86690414D02*
X172359586Y-86690414D01*
X172359586Y-86690414D02*
X166850000Y-92200000D01*
X152300000Y-92200000D02*
X142150000Y-82050000D01*
%TO.N,RST*%
X153940000Y-91300000D02*
X142150000Y-79510000D01*
X173410000Y-85890414D02*
X172009586Y-85890414D01*
X172009586Y-85890414D02*
X166600000Y-91300000D01*
X166600000Y-91300000D02*
X153940000Y-91300000D01*
%TD*%
M02*
