%TF.GenerationSoftware,KiCad,Pcbnew,9.0.4*%
%TF.CreationDate,2026-01-29T02:10:09+03:00*%
%TF.ProjectId,ADC,4144432e-6b69-4636-9164-5f7063625858,rev?*%
%TF.SameCoordinates,Original*%
%TF.FileFunction,Legend,Top*%
%TF.FilePolarity,Positive*%
%FSLAX46Y46*%
G04 Gerber Fmt 4.6, Leading zero omitted, Abs format (unit mm)*
G04 Created by KiCad (PCBNEW 9.0.4) date 2026-01-29 02:10:09*
%MOMM*%
%LPD*%
G01*
G04 APERTURE LIST*
%ADD10C,0.200000*%
%ADD11C,0.150000*%
%ADD12C,0.120000*%
%ADD13C,0.127000*%
G04 APERTURE END LIST*
D10*
X139475000Y-68050000D02*
X196500000Y-68050000D01*
X196500000Y-105075000D01*
X139475000Y-105075000D01*
X139475000Y-68050000D01*
D11*
X164483333Y-85904819D02*
X164150000Y-85428628D01*
X163911905Y-85904819D02*
X163911905Y-84904819D01*
X163911905Y-84904819D02*
X164292857Y-84904819D01*
X164292857Y-84904819D02*
X164388095Y-84952438D01*
X164388095Y-84952438D02*
X164435714Y-85000057D01*
X164435714Y-85000057D02*
X164483333Y-85095295D01*
X164483333Y-85095295D02*
X164483333Y-85238152D01*
X164483333Y-85238152D02*
X164435714Y-85333390D01*
X164435714Y-85333390D02*
X164388095Y-85381009D01*
X164388095Y-85381009D02*
X164292857Y-85428628D01*
X164292857Y-85428628D02*
X163911905Y-85428628D01*
X165388095Y-84904819D02*
X164911905Y-84904819D01*
X164911905Y-84904819D02*
X164864286Y-85381009D01*
X164864286Y-85381009D02*
X164911905Y-85333390D01*
X164911905Y-85333390D02*
X165007143Y-85285771D01*
X165007143Y-85285771D02*
X165245238Y-85285771D01*
X165245238Y-85285771D02*
X165340476Y-85333390D01*
X165340476Y-85333390D02*
X165388095Y-85381009D01*
X165388095Y-85381009D02*
X165435714Y-85476247D01*
X165435714Y-85476247D02*
X165435714Y-85714342D01*
X165435714Y-85714342D02*
X165388095Y-85809580D01*
X165388095Y-85809580D02*
X165340476Y-85857200D01*
X165340476Y-85857200D02*
X165245238Y-85904819D01*
X165245238Y-85904819D02*
X165007143Y-85904819D01*
X165007143Y-85904819D02*
X164911905Y-85857200D01*
X164911905Y-85857200D02*
X164864286Y-85809580D01*
X187259580Y-81216666D02*
X187307200Y-81264285D01*
X187307200Y-81264285D02*
X187354819Y-81407142D01*
X187354819Y-81407142D02*
X187354819Y-81502380D01*
X187354819Y-81502380D02*
X187307200Y-81645237D01*
X187307200Y-81645237D02*
X187211961Y-81740475D01*
X187211961Y-81740475D02*
X187116723Y-81788094D01*
X187116723Y-81788094D02*
X186926247Y-81835713D01*
X186926247Y-81835713D02*
X186783390Y-81835713D01*
X186783390Y-81835713D02*
X186592914Y-81788094D01*
X186592914Y-81788094D02*
X186497676Y-81740475D01*
X186497676Y-81740475D02*
X186402438Y-81645237D01*
X186402438Y-81645237D02*
X186354819Y-81502380D01*
X186354819Y-81502380D02*
X186354819Y-81407142D01*
X186354819Y-81407142D02*
X186402438Y-81264285D01*
X186402438Y-81264285D02*
X186450057Y-81216666D01*
X186354819Y-80883332D02*
X186354819Y-80216666D01*
X186354819Y-80216666D02*
X187354819Y-80645237D01*
X152932200Y-99883332D02*
X152979819Y-99740475D01*
X152979819Y-99740475D02*
X152979819Y-99502380D01*
X152979819Y-99502380D02*
X152932200Y-99407142D01*
X152932200Y-99407142D02*
X152884580Y-99359523D01*
X152884580Y-99359523D02*
X152789342Y-99311904D01*
X152789342Y-99311904D02*
X152694104Y-99311904D01*
X152694104Y-99311904D02*
X152598866Y-99359523D01*
X152598866Y-99359523D02*
X152551247Y-99407142D01*
X152551247Y-99407142D02*
X152503628Y-99502380D01*
X152503628Y-99502380D02*
X152456009Y-99692856D01*
X152456009Y-99692856D02*
X152408390Y-99788094D01*
X152408390Y-99788094D02*
X152360771Y-99835713D01*
X152360771Y-99835713D02*
X152265533Y-99883332D01*
X152265533Y-99883332D02*
X152170295Y-99883332D01*
X152170295Y-99883332D02*
X152075057Y-99835713D01*
X152075057Y-99835713D02*
X152027438Y-99788094D01*
X152027438Y-99788094D02*
X151979819Y-99692856D01*
X151979819Y-99692856D02*
X151979819Y-99454761D01*
X151979819Y-99454761D02*
X152027438Y-99311904D01*
X151979819Y-98978570D02*
X152979819Y-98740475D01*
X152979819Y-98740475D02*
X152265533Y-98549999D01*
X152265533Y-98549999D02*
X152979819Y-98359523D01*
X152979819Y-98359523D02*
X151979819Y-98121428D01*
X152075057Y-97788094D02*
X152027438Y-97740475D01*
X152027438Y-97740475D02*
X151979819Y-97645237D01*
X151979819Y-97645237D02*
X151979819Y-97407142D01*
X151979819Y-97407142D02*
X152027438Y-97311904D01*
X152027438Y-97311904D02*
X152075057Y-97264285D01*
X152075057Y-97264285D02*
X152170295Y-97216666D01*
X152170295Y-97216666D02*
X152265533Y-97216666D01*
X152265533Y-97216666D02*
X152408390Y-97264285D01*
X152408390Y-97264285D02*
X152979819Y-97835713D01*
X152979819Y-97835713D02*
X152979819Y-97216666D01*
X167851333Y-89081819D02*
X167518000Y-88605628D01*
X167279905Y-89081819D02*
X167279905Y-88081819D01*
X167279905Y-88081819D02*
X167660857Y-88081819D01*
X167660857Y-88081819D02*
X167756095Y-88129438D01*
X167756095Y-88129438D02*
X167803714Y-88177057D01*
X167803714Y-88177057D02*
X167851333Y-88272295D01*
X167851333Y-88272295D02*
X167851333Y-88415152D01*
X167851333Y-88415152D02*
X167803714Y-88510390D01*
X167803714Y-88510390D02*
X167756095Y-88558009D01*
X167756095Y-88558009D02*
X167660857Y-88605628D01*
X167660857Y-88605628D02*
X167279905Y-88605628D01*
X168708476Y-88415152D02*
X168708476Y-89081819D01*
X168470381Y-88034200D02*
X168232286Y-88748485D01*
X168232286Y-88748485D02*
X168851333Y-88748485D01*
X188533333Y-84259580D02*
X188485714Y-84307200D01*
X188485714Y-84307200D02*
X188342857Y-84354819D01*
X188342857Y-84354819D02*
X188247619Y-84354819D01*
X188247619Y-84354819D02*
X188104762Y-84307200D01*
X188104762Y-84307200D02*
X188009524Y-84211961D01*
X188009524Y-84211961D02*
X187961905Y-84116723D01*
X187961905Y-84116723D02*
X187914286Y-83926247D01*
X187914286Y-83926247D02*
X187914286Y-83783390D01*
X187914286Y-83783390D02*
X187961905Y-83592914D01*
X187961905Y-83592914D02*
X188009524Y-83497676D01*
X188009524Y-83497676D02*
X188104762Y-83402438D01*
X188104762Y-83402438D02*
X188247619Y-83354819D01*
X188247619Y-83354819D02*
X188342857Y-83354819D01*
X188342857Y-83354819D02*
X188485714Y-83402438D01*
X188485714Y-83402438D02*
X188533333Y-83450057D01*
X188866667Y-83354819D02*
X189485714Y-83354819D01*
X189485714Y-83354819D02*
X189152381Y-83735771D01*
X189152381Y-83735771D02*
X189295238Y-83735771D01*
X189295238Y-83735771D02*
X189390476Y-83783390D01*
X189390476Y-83783390D02*
X189438095Y-83831009D01*
X189438095Y-83831009D02*
X189485714Y-83926247D01*
X189485714Y-83926247D02*
X189485714Y-84164342D01*
X189485714Y-84164342D02*
X189438095Y-84259580D01*
X189438095Y-84259580D02*
X189390476Y-84307200D01*
X189390476Y-84307200D02*
X189295238Y-84354819D01*
X189295238Y-84354819D02*
X189009524Y-84354819D01*
X189009524Y-84354819D02*
X188914286Y-84307200D01*
X188914286Y-84307200D02*
X188866667Y-84259580D01*
D12*
X188066667Y-86767664D02*
X188028571Y-86805760D01*
X188028571Y-86805760D02*
X187914286Y-86843855D01*
X187914286Y-86843855D02*
X187838095Y-86843855D01*
X187838095Y-86843855D02*
X187723809Y-86805760D01*
X187723809Y-86805760D02*
X187647619Y-86729569D01*
X187647619Y-86729569D02*
X187609524Y-86653379D01*
X187609524Y-86653379D02*
X187571428Y-86500998D01*
X187571428Y-86500998D02*
X187571428Y-86386712D01*
X187571428Y-86386712D02*
X187609524Y-86234331D01*
X187609524Y-86234331D02*
X187647619Y-86158140D01*
X187647619Y-86158140D02*
X187723809Y-86081950D01*
X187723809Y-86081950D02*
X187838095Y-86043855D01*
X187838095Y-86043855D02*
X187914286Y-86043855D01*
X187914286Y-86043855D02*
X188028571Y-86081950D01*
X188028571Y-86081950D02*
X188066667Y-86120045D01*
X188447619Y-86843855D02*
X188600000Y-86843855D01*
X188600000Y-86843855D02*
X188676190Y-86805760D01*
X188676190Y-86805760D02*
X188714286Y-86767664D01*
X188714286Y-86767664D02*
X188790476Y-86653379D01*
X188790476Y-86653379D02*
X188828571Y-86500998D01*
X188828571Y-86500998D02*
X188828571Y-86196236D01*
X188828571Y-86196236D02*
X188790476Y-86120045D01*
X188790476Y-86120045D02*
X188752381Y-86081950D01*
X188752381Y-86081950D02*
X188676190Y-86043855D01*
X188676190Y-86043855D02*
X188523809Y-86043855D01*
X188523809Y-86043855D02*
X188447619Y-86081950D01*
X188447619Y-86081950D02*
X188409524Y-86120045D01*
X188409524Y-86120045D02*
X188371428Y-86196236D01*
X188371428Y-86196236D02*
X188371428Y-86386712D01*
X188371428Y-86386712D02*
X188409524Y-86462902D01*
X188409524Y-86462902D02*
X188447619Y-86500998D01*
X188447619Y-86500998D02*
X188523809Y-86539093D01*
X188523809Y-86539093D02*
X188676190Y-86539093D01*
X188676190Y-86539093D02*
X188752381Y-86500998D01*
X188752381Y-86500998D02*
X188790476Y-86462902D01*
X188790476Y-86462902D02*
X188828571Y-86386712D01*
X165626667Y-82513855D02*
X165360000Y-82132902D01*
X165169524Y-82513855D02*
X165169524Y-81713855D01*
X165169524Y-81713855D02*
X165474286Y-81713855D01*
X165474286Y-81713855D02*
X165550476Y-81751950D01*
X165550476Y-81751950D02*
X165588571Y-81790045D01*
X165588571Y-81790045D02*
X165626667Y-81866236D01*
X165626667Y-81866236D02*
X165626667Y-81980521D01*
X165626667Y-81980521D02*
X165588571Y-82056712D01*
X165588571Y-82056712D02*
X165550476Y-82094807D01*
X165550476Y-82094807D02*
X165474286Y-82132902D01*
X165474286Y-82132902D02*
X165169524Y-82132902D01*
X166388571Y-82513855D02*
X165931428Y-82513855D01*
X166160000Y-82513855D02*
X166160000Y-81713855D01*
X166160000Y-81713855D02*
X166083809Y-81828140D01*
X166083809Y-81828140D02*
X166007619Y-81904331D01*
X166007619Y-81904331D02*
X165931428Y-81942426D01*
D11*
X160157200Y-99883332D02*
X160204819Y-99740475D01*
X160204819Y-99740475D02*
X160204819Y-99502380D01*
X160204819Y-99502380D02*
X160157200Y-99407142D01*
X160157200Y-99407142D02*
X160109580Y-99359523D01*
X160109580Y-99359523D02*
X160014342Y-99311904D01*
X160014342Y-99311904D02*
X159919104Y-99311904D01*
X159919104Y-99311904D02*
X159823866Y-99359523D01*
X159823866Y-99359523D02*
X159776247Y-99407142D01*
X159776247Y-99407142D02*
X159728628Y-99502380D01*
X159728628Y-99502380D02*
X159681009Y-99692856D01*
X159681009Y-99692856D02*
X159633390Y-99788094D01*
X159633390Y-99788094D02*
X159585771Y-99835713D01*
X159585771Y-99835713D02*
X159490533Y-99883332D01*
X159490533Y-99883332D02*
X159395295Y-99883332D01*
X159395295Y-99883332D02*
X159300057Y-99835713D01*
X159300057Y-99835713D02*
X159252438Y-99788094D01*
X159252438Y-99788094D02*
X159204819Y-99692856D01*
X159204819Y-99692856D02*
X159204819Y-99454761D01*
X159204819Y-99454761D02*
X159252438Y-99311904D01*
X159204819Y-98978570D02*
X160204819Y-98740475D01*
X160204819Y-98740475D02*
X159490533Y-98549999D01*
X159490533Y-98549999D02*
X160204819Y-98359523D01*
X160204819Y-98359523D02*
X159204819Y-98121428D01*
X159204819Y-97835713D02*
X159204819Y-97216666D01*
X159204819Y-97216666D02*
X159585771Y-97549999D01*
X159585771Y-97549999D02*
X159585771Y-97407142D01*
X159585771Y-97407142D02*
X159633390Y-97311904D01*
X159633390Y-97311904D02*
X159681009Y-97264285D01*
X159681009Y-97264285D02*
X159776247Y-97216666D01*
X159776247Y-97216666D02*
X160014342Y-97216666D01*
X160014342Y-97216666D02*
X160109580Y-97264285D01*
X160109580Y-97264285D02*
X160157200Y-97311904D01*
X160157200Y-97311904D02*
X160204819Y-97407142D01*
X160204819Y-97407142D02*
X160204819Y-97692856D01*
X160204819Y-97692856D02*
X160157200Y-97788094D01*
X160157200Y-97788094D02*
X160109580Y-97835713D01*
X170988095Y-97249819D02*
X170988095Y-98059342D01*
X170988095Y-98059342D02*
X171035714Y-98154580D01*
X171035714Y-98154580D02*
X171083333Y-98202200D01*
X171083333Y-98202200D02*
X171178571Y-98249819D01*
X171178571Y-98249819D02*
X171369047Y-98249819D01*
X171369047Y-98249819D02*
X171464285Y-98202200D01*
X171464285Y-98202200D02*
X171511904Y-98154580D01*
X171511904Y-98154580D02*
X171559523Y-98059342D01*
X171559523Y-98059342D02*
X171559523Y-97249819D01*
X172464285Y-97583152D02*
X172464285Y-98249819D01*
X172226190Y-97202200D02*
X171988095Y-97916485D01*
X171988095Y-97916485D02*
X172607142Y-97916485D01*
D12*
X188066667Y-85687664D02*
X188028571Y-85725760D01*
X188028571Y-85725760D02*
X187914286Y-85763855D01*
X187914286Y-85763855D02*
X187838095Y-85763855D01*
X187838095Y-85763855D02*
X187723809Y-85725760D01*
X187723809Y-85725760D02*
X187647619Y-85649569D01*
X187647619Y-85649569D02*
X187609524Y-85573379D01*
X187609524Y-85573379D02*
X187571428Y-85420998D01*
X187571428Y-85420998D02*
X187571428Y-85306712D01*
X187571428Y-85306712D02*
X187609524Y-85154331D01*
X187609524Y-85154331D02*
X187647619Y-85078140D01*
X187647619Y-85078140D02*
X187723809Y-85001950D01*
X187723809Y-85001950D02*
X187838095Y-84963855D01*
X187838095Y-84963855D02*
X187914286Y-84963855D01*
X187914286Y-84963855D02*
X188028571Y-85001950D01*
X188028571Y-85001950D02*
X188066667Y-85040045D01*
X188752381Y-84963855D02*
X188600000Y-84963855D01*
X188600000Y-84963855D02*
X188523809Y-85001950D01*
X188523809Y-85001950D02*
X188485714Y-85040045D01*
X188485714Y-85040045D02*
X188409524Y-85154331D01*
X188409524Y-85154331D02*
X188371428Y-85306712D01*
X188371428Y-85306712D02*
X188371428Y-85611474D01*
X188371428Y-85611474D02*
X188409524Y-85687664D01*
X188409524Y-85687664D02*
X188447619Y-85725760D01*
X188447619Y-85725760D02*
X188523809Y-85763855D01*
X188523809Y-85763855D02*
X188676190Y-85763855D01*
X188676190Y-85763855D02*
X188752381Y-85725760D01*
X188752381Y-85725760D02*
X188790476Y-85687664D01*
X188790476Y-85687664D02*
X188828571Y-85611474D01*
X188828571Y-85611474D02*
X188828571Y-85420998D01*
X188828571Y-85420998D02*
X188790476Y-85344807D01*
X188790476Y-85344807D02*
X188752381Y-85306712D01*
X188752381Y-85306712D02*
X188676190Y-85268617D01*
X188676190Y-85268617D02*
X188523809Y-85268617D01*
X188523809Y-85268617D02*
X188447619Y-85306712D01*
X188447619Y-85306712D02*
X188409524Y-85344807D01*
X188409524Y-85344807D02*
X188371428Y-85420998D01*
X188066667Y-87807664D02*
X188028571Y-87845760D01*
X188028571Y-87845760D02*
X187914286Y-87883855D01*
X187914286Y-87883855D02*
X187838095Y-87883855D01*
X187838095Y-87883855D02*
X187723809Y-87845760D01*
X187723809Y-87845760D02*
X187647619Y-87769569D01*
X187647619Y-87769569D02*
X187609524Y-87693379D01*
X187609524Y-87693379D02*
X187571428Y-87540998D01*
X187571428Y-87540998D02*
X187571428Y-87426712D01*
X187571428Y-87426712D02*
X187609524Y-87274331D01*
X187609524Y-87274331D02*
X187647619Y-87198140D01*
X187647619Y-87198140D02*
X187723809Y-87121950D01*
X187723809Y-87121950D02*
X187838095Y-87083855D01*
X187838095Y-87083855D02*
X187914286Y-87083855D01*
X187914286Y-87083855D02*
X188028571Y-87121950D01*
X188028571Y-87121950D02*
X188066667Y-87160045D01*
X188371428Y-87160045D02*
X188409524Y-87121950D01*
X188409524Y-87121950D02*
X188485714Y-87083855D01*
X188485714Y-87083855D02*
X188676190Y-87083855D01*
X188676190Y-87083855D02*
X188752381Y-87121950D01*
X188752381Y-87121950D02*
X188790476Y-87160045D01*
X188790476Y-87160045D02*
X188828571Y-87236236D01*
X188828571Y-87236236D02*
X188828571Y-87312426D01*
X188828571Y-87312426D02*
X188790476Y-87426712D01*
X188790476Y-87426712D02*
X188333333Y-87883855D01*
X188333333Y-87883855D02*
X188828571Y-87883855D01*
D11*
X170073333Y-78809580D02*
X170025714Y-78857200D01*
X170025714Y-78857200D02*
X169882857Y-78904819D01*
X169882857Y-78904819D02*
X169787619Y-78904819D01*
X169787619Y-78904819D02*
X169644762Y-78857200D01*
X169644762Y-78857200D02*
X169549524Y-78761961D01*
X169549524Y-78761961D02*
X169501905Y-78666723D01*
X169501905Y-78666723D02*
X169454286Y-78476247D01*
X169454286Y-78476247D02*
X169454286Y-78333390D01*
X169454286Y-78333390D02*
X169501905Y-78142914D01*
X169501905Y-78142914D02*
X169549524Y-78047676D01*
X169549524Y-78047676D02*
X169644762Y-77952438D01*
X169644762Y-77952438D02*
X169787619Y-77904819D01*
X169787619Y-77904819D02*
X169882857Y-77904819D01*
X169882857Y-77904819D02*
X170025714Y-77952438D01*
X170025714Y-77952438D02*
X170073333Y-78000057D01*
X170930476Y-78238152D02*
X170930476Y-78904819D01*
X170692381Y-77857200D02*
X170454286Y-78571485D01*
X170454286Y-78571485D02*
X171073333Y-78571485D01*
X191642080Y-93275357D02*
X191689700Y-93322976D01*
X191689700Y-93322976D02*
X191737319Y-93465833D01*
X191737319Y-93465833D02*
X191737319Y-93561071D01*
X191737319Y-93561071D02*
X191689700Y-93703928D01*
X191689700Y-93703928D02*
X191594461Y-93799166D01*
X191594461Y-93799166D02*
X191499223Y-93846785D01*
X191499223Y-93846785D02*
X191308747Y-93894404D01*
X191308747Y-93894404D02*
X191165890Y-93894404D01*
X191165890Y-93894404D02*
X190975414Y-93846785D01*
X190975414Y-93846785D02*
X190880176Y-93799166D01*
X190880176Y-93799166D02*
X190784938Y-93703928D01*
X190784938Y-93703928D02*
X190737319Y-93561071D01*
X190737319Y-93561071D02*
X190737319Y-93465833D01*
X190737319Y-93465833D02*
X190784938Y-93322976D01*
X190784938Y-93322976D02*
X190832557Y-93275357D01*
X191737319Y-92322976D02*
X191737319Y-92894404D01*
X191737319Y-92608690D02*
X190737319Y-92608690D01*
X190737319Y-92608690D02*
X190880176Y-92703928D01*
X190880176Y-92703928D02*
X190975414Y-92799166D01*
X190975414Y-92799166D02*
X191023033Y-92894404D01*
X190832557Y-91942023D02*
X190784938Y-91894404D01*
X190784938Y-91894404D02*
X190737319Y-91799166D01*
X190737319Y-91799166D02*
X190737319Y-91561071D01*
X190737319Y-91561071D02*
X190784938Y-91465833D01*
X190784938Y-91465833D02*
X190832557Y-91418214D01*
X190832557Y-91418214D02*
X190927795Y-91370595D01*
X190927795Y-91370595D02*
X191023033Y-91370595D01*
X191023033Y-91370595D02*
X191165890Y-91418214D01*
X191165890Y-91418214D02*
X191737319Y-91989642D01*
X191737319Y-91989642D02*
X191737319Y-91370595D01*
X182938095Y-97249819D02*
X182938095Y-98059342D01*
X182938095Y-98059342D02*
X182985714Y-98154580D01*
X182985714Y-98154580D02*
X183033333Y-98202200D01*
X183033333Y-98202200D02*
X183128571Y-98249819D01*
X183128571Y-98249819D02*
X183319047Y-98249819D01*
X183319047Y-98249819D02*
X183414285Y-98202200D01*
X183414285Y-98202200D02*
X183461904Y-98154580D01*
X183461904Y-98154580D02*
X183509523Y-98059342D01*
X183509523Y-98059342D02*
X183509523Y-97249819D01*
X183890476Y-97249819D02*
X184509523Y-97249819D01*
X184509523Y-97249819D02*
X184176190Y-97630771D01*
X184176190Y-97630771D02*
X184319047Y-97630771D01*
X184319047Y-97630771D02*
X184414285Y-97678390D01*
X184414285Y-97678390D02*
X184461904Y-97726009D01*
X184461904Y-97726009D02*
X184509523Y-97821247D01*
X184509523Y-97821247D02*
X184509523Y-98059342D01*
X184509523Y-98059342D02*
X184461904Y-98154580D01*
X184461904Y-98154580D02*
X184414285Y-98202200D01*
X184414285Y-98202200D02*
X184319047Y-98249819D01*
X184319047Y-98249819D02*
X184033333Y-98249819D01*
X184033333Y-98249819D02*
X183938095Y-98202200D01*
X183938095Y-98202200D02*
X183890476Y-98154580D01*
D12*
X165626667Y-84513855D02*
X165360000Y-84132902D01*
X165169524Y-84513855D02*
X165169524Y-83713855D01*
X165169524Y-83713855D02*
X165474286Y-83713855D01*
X165474286Y-83713855D02*
X165550476Y-83751950D01*
X165550476Y-83751950D02*
X165588571Y-83790045D01*
X165588571Y-83790045D02*
X165626667Y-83866236D01*
X165626667Y-83866236D02*
X165626667Y-83980521D01*
X165626667Y-83980521D02*
X165588571Y-84056712D01*
X165588571Y-84056712D02*
X165550476Y-84094807D01*
X165550476Y-84094807D02*
X165474286Y-84132902D01*
X165474286Y-84132902D02*
X165169524Y-84132902D01*
X165893333Y-83713855D02*
X166388571Y-83713855D01*
X166388571Y-83713855D02*
X166121905Y-84018617D01*
X166121905Y-84018617D02*
X166236190Y-84018617D01*
X166236190Y-84018617D02*
X166312381Y-84056712D01*
X166312381Y-84056712D02*
X166350476Y-84094807D01*
X166350476Y-84094807D02*
X166388571Y-84170998D01*
X166388571Y-84170998D02*
X166388571Y-84361474D01*
X166388571Y-84361474D02*
X166350476Y-84437664D01*
X166350476Y-84437664D02*
X166312381Y-84475760D01*
X166312381Y-84475760D02*
X166236190Y-84513855D01*
X166236190Y-84513855D02*
X166007619Y-84513855D01*
X166007619Y-84513855D02*
X165931428Y-84475760D01*
X165931428Y-84475760D02*
X165893333Y-84437664D01*
D11*
X183333333Y-78805830D02*
X183285714Y-78853450D01*
X183285714Y-78853450D02*
X183142857Y-78901069D01*
X183142857Y-78901069D02*
X183047619Y-78901069D01*
X183047619Y-78901069D02*
X182904762Y-78853450D01*
X182904762Y-78853450D02*
X182809524Y-78758211D01*
X182809524Y-78758211D02*
X182761905Y-78662973D01*
X182761905Y-78662973D02*
X182714286Y-78472497D01*
X182714286Y-78472497D02*
X182714286Y-78329640D01*
X182714286Y-78329640D02*
X182761905Y-78139164D01*
X182761905Y-78139164D02*
X182809524Y-78043926D01*
X182809524Y-78043926D02*
X182904762Y-77948688D01*
X182904762Y-77948688D02*
X183047619Y-77901069D01*
X183047619Y-77901069D02*
X183142857Y-77901069D01*
X183142857Y-77901069D02*
X183285714Y-77948688D01*
X183285714Y-77948688D02*
X183333333Y-77996307D01*
X183904762Y-78329640D02*
X183809524Y-78282021D01*
X183809524Y-78282021D02*
X183761905Y-78234402D01*
X183761905Y-78234402D02*
X183714286Y-78139164D01*
X183714286Y-78139164D02*
X183714286Y-78091545D01*
X183714286Y-78091545D02*
X183761905Y-77996307D01*
X183761905Y-77996307D02*
X183809524Y-77948688D01*
X183809524Y-77948688D02*
X183904762Y-77901069D01*
X183904762Y-77901069D02*
X184095238Y-77901069D01*
X184095238Y-77901069D02*
X184190476Y-77948688D01*
X184190476Y-77948688D02*
X184238095Y-77996307D01*
X184238095Y-77996307D02*
X184285714Y-78091545D01*
X184285714Y-78091545D02*
X184285714Y-78139164D01*
X184285714Y-78139164D02*
X184238095Y-78234402D01*
X184238095Y-78234402D02*
X184190476Y-78282021D01*
X184190476Y-78282021D02*
X184095238Y-78329640D01*
X184095238Y-78329640D02*
X183904762Y-78329640D01*
X183904762Y-78329640D02*
X183809524Y-78377259D01*
X183809524Y-78377259D02*
X183761905Y-78424878D01*
X183761905Y-78424878D02*
X183714286Y-78520116D01*
X183714286Y-78520116D02*
X183714286Y-78710592D01*
X183714286Y-78710592D02*
X183761905Y-78805830D01*
X183761905Y-78805830D02*
X183809524Y-78853450D01*
X183809524Y-78853450D02*
X183904762Y-78901069D01*
X183904762Y-78901069D02*
X184095238Y-78901069D01*
X184095238Y-78901069D02*
X184190476Y-78853450D01*
X184190476Y-78853450D02*
X184238095Y-78805830D01*
X184238095Y-78805830D02*
X184285714Y-78710592D01*
X184285714Y-78710592D02*
X184285714Y-78520116D01*
X184285714Y-78520116D02*
X184238095Y-78424878D01*
X184238095Y-78424878D02*
X184190476Y-78377259D01*
X184190476Y-78377259D02*
X184095238Y-78329640D01*
X141816666Y-71504819D02*
X141816666Y-72219104D01*
X141816666Y-72219104D02*
X141769047Y-72361961D01*
X141769047Y-72361961D02*
X141673809Y-72457200D01*
X141673809Y-72457200D02*
X141530952Y-72504819D01*
X141530952Y-72504819D02*
X141435714Y-72504819D01*
X142245238Y-71600057D02*
X142292857Y-71552438D01*
X142292857Y-71552438D02*
X142388095Y-71504819D01*
X142388095Y-71504819D02*
X142626190Y-71504819D01*
X142626190Y-71504819D02*
X142721428Y-71552438D01*
X142721428Y-71552438D02*
X142769047Y-71600057D01*
X142769047Y-71600057D02*
X142816666Y-71695295D01*
X142816666Y-71695295D02*
X142816666Y-71790533D01*
X142816666Y-71790533D02*
X142769047Y-71933390D01*
X142769047Y-71933390D02*
X142197619Y-72504819D01*
X142197619Y-72504819D02*
X142816666Y-72504819D01*
D12*
X175722917Y-96470164D02*
X175684821Y-96508260D01*
X175684821Y-96508260D02*
X175570536Y-96546355D01*
X175570536Y-96546355D02*
X175494345Y-96546355D01*
X175494345Y-96546355D02*
X175380059Y-96508260D01*
X175380059Y-96508260D02*
X175303869Y-96432069D01*
X175303869Y-96432069D02*
X175265774Y-96355879D01*
X175265774Y-96355879D02*
X175227678Y-96203498D01*
X175227678Y-96203498D02*
X175227678Y-96089212D01*
X175227678Y-96089212D02*
X175265774Y-95936831D01*
X175265774Y-95936831D02*
X175303869Y-95860640D01*
X175303869Y-95860640D02*
X175380059Y-95784450D01*
X175380059Y-95784450D02*
X175494345Y-95746355D01*
X175494345Y-95746355D02*
X175570536Y-95746355D01*
X175570536Y-95746355D02*
X175684821Y-95784450D01*
X175684821Y-95784450D02*
X175722917Y-95822545D01*
X176446726Y-95746355D02*
X176065774Y-95746355D01*
X176065774Y-95746355D02*
X176027678Y-96127307D01*
X176027678Y-96127307D02*
X176065774Y-96089212D01*
X176065774Y-96089212D02*
X176141964Y-96051117D01*
X176141964Y-96051117D02*
X176332440Y-96051117D01*
X176332440Y-96051117D02*
X176408631Y-96089212D01*
X176408631Y-96089212D02*
X176446726Y-96127307D01*
X176446726Y-96127307D02*
X176484821Y-96203498D01*
X176484821Y-96203498D02*
X176484821Y-96393974D01*
X176484821Y-96393974D02*
X176446726Y-96470164D01*
X176446726Y-96470164D02*
X176408631Y-96508260D01*
X176408631Y-96508260D02*
X176332440Y-96546355D01*
X176332440Y-96546355D02*
X176141964Y-96546355D01*
X176141964Y-96546355D02*
X176065774Y-96508260D01*
X176065774Y-96508260D02*
X176027678Y-96470164D01*
D11*
X145832200Y-99858332D02*
X145879819Y-99715475D01*
X145879819Y-99715475D02*
X145879819Y-99477380D01*
X145879819Y-99477380D02*
X145832200Y-99382142D01*
X145832200Y-99382142D02*
X145784580Y-99334523D01*
X145784580Y-99334523D02*
X145689342Y-99286904D01*
X145689342Y-99286904D02*
X145594104Y-99286904D01*
X145594104Y-99286904D02*
X145498866Y-99334523D01*
X145498866Y-99334523D02*
X145451247Y-99382142D01*
X145451247Y-99382142D02*
X145403628Y-99477380D01*
X145403628Y-99477380D02*
X145356009Y-99667856D01*
X145356009Y-99667856D02*
X145308390Y-99763094D01*
X145308390Y-99763094D02*
X145260771Y-99810713D01*
X145260771Y-99810713D02*
X145165533Y-99858332D01*
X145165533Y-99858332D02*
X145070295Y-99858332D01*
X145070295Y-99858332D02*
X144975057Y-99810713D01*
X144975057Y-99810713D02*
X144927438Y-99763094D01*
X144927438Y-99763094D02*
X144879819Y-99667856D01*
X144879819Y-99667856D02*
X144879819Y-99429761D01*
X144879819Y-99429761D02*
X144927438Y-99286904D01*
X144879819Y-98953570D02*
X145879819Y-98715475D01*
X145879819Y-98715475D02*
X145165533Y-98524999D01*
X145165533Y-98524999D02*
X145879819Y-98334523D01*
X145879819Y-98334523D02*
X144879819Y-98096428D01*
X145879819Y-97191666D02*
X145879819Y-97763094D01*
X145879819Y-97477380D02*
X144879819Y-97477380D01*
X144879819Y-97477380D02*
X145022676Y-97572618D01*
X145022676Y-97572618D02*
X145117914Y-97667856D01*
X145117914Y-97667856D02*
X145165533Y-97763094D01*
X159218095Y-75350113D02*
X159218095Y-76159636D01*
X159218095Y-76159636D02*
X159265714Y-76254874D01*
X159265714Y-76254874D02*
X159313333Y-76302494D01*
X159313333Y-76302494D02*
X159408571Y-76350113D01*
X159408571Y-76350113D02*
X159599047Y-76350113D01*
X159599047Y-76350113D02*
X159694285Y-76302494D01*
X159694285Y-76302494D02*
X159741904Y-76254874D01*
X159741904Y-76254874D02*
X159789523Y-76159636D01*
X159789523Y-76159636D02*
X159789523Y-75350113D01*
X160741904Y-75350113D02*
X160265714Y-75350113D01*
X160265714Y-75350113D02*
X160218095Y-75826303D01*
X160218095Y-75826303D02*
X160265714Y-75778684D01*
X160265714Y-75778684D02*
X160360952Y-75731065D01*
X160360952Y-75731065D02*
X160599047Y-75731065D01*
X160599047Y-75731065D02*
X160694285Y-75778684D01*
X160694285Y-75778684D02*
X160741904Y-75826303D01*
X160741904Y-75826303D02*
X160789523Y-75921541D01*
X160789523Y-75921541D02*
X160789523Y-76159636D01*
X160789523Y-76159636D02*
X160741904Y-76254874D01*
X160741904Y-76254874D02*
X160694285Y-76302494D01*
X160694285Y-76302494D02*
X160599047Y-76350113D01*
X160599047Y-76350113D02*
X160360952Y-76350113D01*
X160360952Y-76350113D02*
X160265714Y-76302494D01*
X160265714Y-76302494D02*
X160218095Y-76254874D01*
X182739580Y-93275357D02*
X182787200Y-93322976D01*
X182787200Y-93322976D02*
X182834819Y-93465833D01*
X182834819Y-93465833D02*
X182834819Y-93561071D01*
X182834819Y-93561071D02*
X182787200Y-93703928D01*
X182787200Y-93703928D02*
X182691961Y-93799166D01*
X182691961Y-93799166D02*
X182596723Y-93846785D01*
X182596723Y-93846785D02*
X182406247Y-93894404D01*
X182406247Y-93894404D02*
X182263390Y-93894404D01*
X182263390Y-93894404D02*
X182072914Y-93846785D01*
X182072914Y-93846785D02*
X181977676Y-93799166D01*
X181977676Y-93799166D02*
X181882438Y-93703928D01*
X181882438Y-93703928D02*
X181834819Y-93561071D01*
X181834819Y-93561071D02*
X181834819Y-93465833D01*
X181834819Y-93465833D02*
X181882438Y-93322976D01*
X181882438Y-93322976D02*
X181930057Y-93275357D01*
X182834819Y-92322976D02*
X182834819Y-92894404D01*
X182834819Y-92608690D02*
X181834819Y-92608690D01*
X181834819Y-92608690D02*
X181977676Y-92703928D01*
X181977676Y-92703928D02*
X182072914Y-92799166D01*
X182072914Y-92799166D02*
X182120533Y-92894404D01*
X182834819Y-91370595D02*
X182834819Y-91942023D01*
X182834819Y-91656309D02*
X181834819Y-91656309D01*
X181834819Y-91656309D02*
X181977676Y-91751547D01*
X181977676Y-91751547D02*
X182072914Y-91846785D01*
X182072914Y-91846785D02*
X182120533Y-91942023D01*
D12*
X165626667Y-83513855D02*
X165360000Y-83132902D01*
X165169524Y-83513855D02*
X165169524Y-82713855D01*
X165169524Y-82713855D02*
X165474286Y-82713855D01*
X165474286Y-82713855D02*
X165550476Y-82751950D01*
X165550476Y-82751950D02*
X165588571Y-82790045D01*
X165588571Y-82790045D02*
X165626667Y-82866236D01*
X165626667Y-82866236D02*
X165626667Y-82980521D01*
X165626667Y-82980521D02*
X165588571Y-83056712D01*
X165588571Y-83056712D02*
X165550476Y-83094807D01*
X165550476Y-83094807D02*
X165474286Y-83132902D01*
X165474286Y-83132902D02*
X165169524Y-83132902D01*
X165931428Y-82790045D02*
X165969524Y-82751950D01*
X165969524Y-82751950D02*
X166045714Y-82713855D01*
X166045714Y-82713855D02*
X166236190Y-82713855D01*
X166236190Y-82713855D02*
X166312381Y-82751950D01*
X166312381Y-82751950D02*
X166350476Y-82790045D01*
X166350476Y-82790045D02*
X166388571Y-82866236D01*
X166388571Y-82866236D02*
X166388571Y-82942426D01*
X166388571Y-82942426D02*
X166350476Y-83056712D01*
X166350476Y-83056712D02*
X165893333Y-83513855D01*
X165893333Y-83513855D02*
X166388571Y-83513855D01*
D13*
%TO.C,U1*%
X171800000Y-79800000D02*
X171800000Y-80800000D01*
X171800000Y-79800000D02*
X172800000Y-79800000D01*
X171800000Y-89000000D02*
X171800000Y-90000000D01*
X171800000Y-90000000D02*
X172800000Y-90000000D01*
X181000000Y-79800000D02*
X182000000Y-79800000D01*
X182000000Y-79800000D02*
X182000000Y-80800000D01*
X182000000Y-89000000D02*
X182000000Y-90000000D01*
X182000000Y-90000000D02*
X181000000Y-90000000D01*
D10*
X173500000Y-81400000D02*
G75*
G02*
X173300000Y-81400000I-100000J0D01*
G01*
X173300000Y-81400000D02*
G75*
G02*
X173500000Y-81400000I100000J0D01*
G01*
D12*
%TO.C,R5*%
X168271258Y-84902500D02*
X167796742Y-84902500D01*
X168271258Y-85947500D02*
X167796742Y-85947500D01*
%TO.C,C7*%
X184690000Y-81833080D02*
X184690000Y-81551920D01*
X185710000Y-81833080D02*
X185710000Y-81551920D01*
%TO.C,SW2*%
X155135000Y-95100000D02*
X154335000Y-95100000D01*
X155135000Y-102000000D02*
X154335000Y-102000000D01*
X156235000Y-96950000D02*
X156235000Y-98650000D01*
X156235000Y-99950000D02*
X156235000Y-100150000D01*
%TO.C,R4*%
X168255258Y-86674500D02*
X167780742Y-86674500D01*
X168255258Y-87719500D02*
X167780742Y-87719500D01*
%TO.C,C3*%
X185940580Y-83390000D02*
X185659420Y-83390000D01*
X185940580Y-84410000D02*
X185659420Y-84410000D01*
%TO.C,C9*%
X185525336Y-86140000D02*
X185309664Y-86140000D01*
X185525336Y-86860000D02*
X185309664Y-86860000D01*
%TO.C,R1*%
X167646359Y-81720000D02*
X167953641Y-81720000D01*
X167646359Y-82480000D02*
X167953641Y-82480000D01*
%TO.C,SW3*%
X162360000Y-95100000D02*
X161560000Y-95100000D01*
X162360000Y-102000000D02*
X161560000Y-102000000D01*
X163460000Y-96950000D02*
X163460000Y-98650000D01*
X163460000Y-99950000D02*
X163460000Y-100150000D01*
%TO.C,U4*%
X166640000Y-99990000D02*
X167690000Y-99990000D01*
X166640000Y-102490000D02*
X166640000Y-99990000D01*
X167690000Y-99990000D02*
X167690000Y-99000000D01*
X167810000Y-104460000D02*
X175690000Y-104460000D01*
X176860000Y-99990000D02*
X175810000Y-99990000D01*
X176860000Y-102490000D02*
X176860000Y-99990000D01*
%TO.C,C6*%
X185525336Y-85090000D02*
X185309664Y-85090000D01*
X185525336Y-85810000D02*
X185309664Y-85810000D01*
%TO.C,C2*%
X185517836Y-87140000D02*
X185302164Y-87140000D01*
X185517836Y-87860000D02*
X185302164Y-87860000D01*
%TO.C,C4*%
X170365336Y-79165000D02*
X170149664Y-79165000D01*
X170365336Y-79885000D02*
X170149664Y-79885000D01*
%TO.C,C12*%
X189762500Y-92524664D02*
X189762500Y-92740336D01*
X190482500Y-92524664D02*
X190482500Y-92740336D01*
%TO.C,U3*%
X178590000Y-99990000D02*
X179640000Y-99990000D01*
X178590000Y-102490000D02*
X178590000Y-99990000D01*
X179640000Y-99990000D02*
X179640000Y-99000000D01*
X179760000Y-104460000D02*
X187640000Y-104460000D01*
X188810000Y-99990000D02*
X187760000Y-99990000D01*
X188810000Y-102490000D02*
X188810000Y-99990000D01*
%TO.C,R3*%
X167646359Y-83720000D02*
X167953641Y-83720000D01*
X167646359Y-84480000D02*
X167953641Y-84480000D01*
%TO.C,C8*%
X183392164Y-79246250D02*
X183607836Y-79246250D01*
X183392164Y-79966250D02*
X183607836Y-79966250D01*
%TO.C,J2*%
X140770000Y-73050000D02*
X142150000Y-73050000D01*
X140770000Y-74430000D02*
X140770000Y-73050000D01*
X140770000Y-75700000D02*
X140770000Y-103750000D01*
X140770000Y-75700000D02*
X143530000Y-75700000D01*
X140770000Y-103750000D02*
X143530000Y-103750000D01*
X143530000Y-75700000D02*
X143530000Y-103750000D01*
%TO.C,U2*%
X170220000Y-71730294D02*
X170220000Y-73180294D01*
X170220000Y-73180294D02*
X172020000Y-73180294D01*
X181890000Y-73180294D02*
X181890000Y-74170294D01*
X182420000Y-68910294D02*
X171490000Y-68910294D01*
X183690000Y-71730294D02*
X183690000Y-73180294D01*
X183690000Y-73180294D02*
X181890000Y-73180294D01*
%TO.C,C5*%
X175490000Y-93915835D02*
X175490000Y-93684165D01*
X176210000Y-93915835D02*
X176210000Y-93684165D01*
%TO.C,SW1*%
X148035000Y-95075000D02*
X147235000Y-95075000D01*
X148035000Y-101975000D02*
X147235000Y-101975000D01*
X149135000Y-96925000D02*
X149135000Y-98625000D01*
X149135000Y-99925000D02*
X149135000Y-100125000D01*
D13*
%TO.C,VR1*%
X186075000Y-91460000D02*
X187675000Y-91460000D01*
X186075000Y-94590000D02*
X187675000Y-94590000D01*
D10*
X185075000Y-91025000D02*
G75*
G02*
X184875000Y-91025000I-100000J0D01*
G01*
X184875000Y-91025000D02*
G75*
G02*
X185075000Y-91025000I100000J0D01*
G01*
D12*
%TO.C,U5*%
X156995000Y-71830294D02*
X156995000Y-73280294D01*
X156995000Y-73280294D02*
X158795000Y-73280294D01*
X161165000Y-73280294D02*
X161165000Y-74270294D01*
X161695000Y-69010294D02*
X158265000Y-69010294D01*
X162965000Y-71830294D02*
X162965000Y-73280294D01*
X162965000Y-73280294D02*
X161165000Y-73280294D01*
%TO.C,C11*%
X183240000Y-92524664D02*
X183240000Y-92740336D01*
X183960000Y-92524664D02*
X183960000Y-92740336D01*
%TO.C,R2*%
X167646359Y-82720000D02*
X167953641Y-82720000D01*
X167646359Y-83480000D02*
X167953641Y-83480000D01*
%TD*%
M02*
