%TF.GenerationSoftware,KiCad,Pcbnew,9.0.4*%
%TF.CreationDate,2026-01-29T02:10:09+03:00*%
%TF.ProjectId,ADC,4144432e-6b69-4636-9164-5f7063625858,rev?*%
%TF.SameCoordinates,Original*%
%TF.FileFunction,Copper,L3,Inr*%
%TF.FilePolarity,Positive*%
%FSLAX46Y46*%
G04 Gerber Fmt 4.6, Leading zero omitted, Abs format (unit mm)*
G04 Created by KiCad (PCBNEW 9.0.4) date 2026-01-29 02:10:09*
%MOMM*%
%LPD*%
G01*
G04 APERTURE LIST*
%TA.AperFunction,ComponentPad*%
%ADD10R,1.700000X1.700000*%
%TD*%
%TA.AperFunction,ComponentPad*%
%ADD11C,1.700000*%
%TD*%
%TA.AperFunction,ViaPad*%
%ADD12C,0.600000*%
%TD*%
%TA.AperFunction,ViaPad*%
%ADD13C,0.800000*%
%TD*%
G04 APERTURE END LIST*
D10*
%TO.N,STBY*%
%TO.C,J2*%
X142150000Y-74430000D03*
D11*
%TO.N,CONVST*%
X142150000Y-76970000D03*
%TO.N,RST*%
X142150000Y-79510000D03*
%TO.N,SCLK{slash}RD*%
X142150000Y-82050000D03*
%TO.N,OS0*%
X142150000Y-84590000D03*
%TO.N,OS1*%
X142150000Y-87130000D03*
%TO.N,OS2*%
X142150000Y-89670000D03*
%TO.N,CS*%
X142150000Y-92210000D03*
%TO.N,BUSY*%
X142150000Y-94750000D03*
%TO.N,FRSTDATA*%
X142150000Y-97290000D03*
%TO.N,+5V*%
X142150000Y-99830000D03*
%TO.N,GND*%
X142150000Y-102370000D03*
%TD*%
D12*
%TO.N,GND*%
X175850000Y-95142500D03*
X186892500Y-87500000D03*
D13*
X165150000Y-100800000D03*
D12*
X186750000Y-93015000D03*
X186900000Y-85450000D03*
X179150000Y-80550000D03*
X159355000Y-72170294D03*
X174150000Y-80550000D03*
D13*
X166200000Y-86300000D03*
D12*
X159355000Y-74695294D03*
X173370000Y-83970000D03*
X178150000Y-80550000D03*
X189305000Y-93197500D03*
X187200000Y-82725000D03*
X176150000Y-80550000D03*
X175150000Y-80550000D03*
X181250000Y-85200000D03*
X186475000Y-82725000D03*
X177650000Y-89300000D03*
X183020000Y-80360000D03*
D13*
X157925000Y-100800000D03*
D12*
X181320000Y-87525000D03*
X184417500Y-93200000D03*
X170740000Y-80320000D03*
X177150000Y-80550000D03*
D13*
X150825000Y-100775000D03*
D12*
X181250000Y-82000000D03*
X181250000Y-83650000D03*
X181250000Y-84550000D03*
X180150000Y-80550000D03*
X172499999Y-83066117D03*
X184290000Y-81380000D03*
X172500000Y-81900000D03*
X186900000Y-86500000D03*
X172950000Y-77775000D03*
%TO.N,+5V*%
X181250000Y-86400000D03*
X181250000Y-80950000D03*
X160605000Y-74695294D03*
X169825000Y-80850000D03*
X184400000Y-92075000D03*
X172375000Y-80725000D03*
X160605000Y-72170294D03*
D13*
X185630000Y-94830000D03*
%TO.N,+3.3V*%
X150750000Y-95950000D03*
D12*
X189300000Y-92065000D03*
D13*
X157850000Y-95975000D03*
X165075000Y-95975000D03*
D12*
%TO.N,Net-(U1-OS0)*%
X164100000Y-88675000D03*
X169175000Y-82100000D03*
%TO.N,Net-(U1-OS1)*%
X169225000Y-83125000D03*
X164100000Y-89475000D03*
%TO.N,Net-(U1-OS2)*%
X169225000Y-84125000D03*
X164100000Y-90275003D03*
%TO.N,STBY*%
X173450000Y-82800000D03*
%TO.N,BUSY*%
X173410000Y-88290414D03*
%TO.N,CONVST*%
X173410000Y-85090411D03*
%TO.N,CS*%
X173410000Y-87490414D03*
%TO.N,FRSTDATA*%
X173410000Y-89090000D03*
%TO.N,SCLK{slash}RD*%
X173410000Y-86690414D03*
%TO.N,RST*%
X173410000Y-85890414D03*
%TD*%
%TA.AperFunction,Conductor*%
%TO.N,+5V*%
G36*
X196267539Y-68220185D02*
G01*
X196313294Y-68272989D01*
X196324500Y-68324500D01*
X196324500Y-68990427D01*
X196304815Y-69057466D01*
X196252011Y-69103221D01*
X196200500Y-69114427D01*
X189650000Y-69114427D01*
X189650000Y-75614427D01*
X196200500Y-75614427D01*
X196267539Y-75634112D01*
X196313294Y-75686916D01*
X196324500Y-75738427D01*
X196324500Y-96045215D01*
X196304815Y-96112254D01*
X196252011Y-96158009D01*
X196200500Y-96169215D01*
X189650000Y-96169215D01*
X189650000Y-102669215D01*
X196200500Y-102669215D01*
X196267539Y-102688900D01*
X196313294Y-102741704D01*
X196324500Y-102793215D01*
X196324500Y-104700500D01*
X196304815Y-104767539D01*
X196252011Y-104813294D01*
X196200500Y-104824500D01*
X139749500Y-104824500D01*
X139682461Y-104804815D01*
X139636706Y-104752011D01*
X139625500Y-104700500D01*
X139625500Y-73532135D01*
X140799500Y-73532135D01*
X140799500Y-75327870D01*
X140799501Y-75327876D01*
X140805908Y-75387483D01*
X140856202Y-75522328D01*
X140856206Y-75522335D01*
X140942452Y-75637544D01*
X140942455Y-75637547D01*
X141057664Y-75723793D01*
X141057671Y-75723797D01*
X141189082Y-75772810D01*
X141245016Y-75814681D01*
X141269433Y-75880145D01*
X141254582Y-75948418D01*
X141233431Y-75976673D01*
X141119889Y-76090215D01*
X140994951Y-76262179D01*
X140898444Y-76451585D01*
X140832753Y-76653760D01*
X140799500Y-76863713D01*
X140799500Y-77076286D01*
X140829343Y-77264711D01*
X140832754Y-77286243D01*
X140868358Y-77395821D01*
X140898444Y-77488414D01*
X140994951Y-77677820D01*
X141119890Y-77849786D01*
X141270213Y-78000109D01*
X141442182Y-78125050D01*
X141450946Y-78129516D01*
X141501742Y-78177491D01*
X141518536Y-78245312D01*
X141495998Y-78311447D01*
X141450946Y-78350484D01*
X141442182Y-78354949D01*
X141270213Y-78479890D01*
X141119890Y-78630213D01*
X140994951Y-78802179D01*
X140898444Y-78991585D01*
X140832753Y-79193760D01*
X140799500Y-79403713D01*
X140799500Y-79616286D01*
X140830135Y-79809711D01*
X140832754Y-79826243D01*
X140882977Y-79980814D01*
X140898444Y-80028414D01*
X140994951Y-80217820D01*
X141119890Y-80389786D01*
X141270213Y-80540109D01*
X141442182Y-80665050D01*
X141450946Y-80669516D01*
X141501742Y-80717491D01*
X141518536Y-80785312D01*
X141495998Y-80851447D01*
X141450946Y-80890484D01*
X141442182Y-80894949D01*
X141270213Y-81019890D01*
X141119890Y-81170213D01*
X140994951Y-81342179D01*
X140898444Y-81531585D01*
X140832753Y-81733760D01*
X140807961Y-81890292D01*
X140799500Y-81943713D01*
X140799500Y-82156287D01*
X140802973Y-82178213D01*
X140827567Y-82333497D01*
X140832754Y-82366243D01*
X140894354Y-82555828D01*
X140898444Y-82568414D01*
X140994951Y-82757820D01*
X141119890Y-82929786D01*
X141270213Y-83080109D01*
X141442182Y-83205050D01*
X141450946Y-83209516D01*
X141501742Y-83257491D01*
X141518536Y-83325312D01*
X141495998Y-83391447D01*
X141450946Y-83430484D01*
X141442182Y-83434949D01*
X141270213Y-83559890D01*
X141119890Y-83710213D01*
X140994951Y-83882179D01*
X140898444Y-84071585D01*
X140832753Y-84273760D01*
X140800042Y-84480289D01*
X140799500Y-84483713D01*
X140799500Y-84696287D01*
X140806520Y-84740609D01*
X140830931Y-84894738D01*
X140832754Y-84906243D01*
X140852336Y-84966511D01*
X140898444Y-85108414D01*
X140994951Y-85297820D01*
X141119890Y-85469786D01*
X141270213Y-85620109D01*
X141442182Y-85745050D01*
X141450946Y-85749516D01*
X141501742Y-85797491D01*
X141518536Y-85865312D01*
X141495998Y-85931447D01*
X141450946Y-85970484D01*
X141442182Y-85974949D01*
X141270213Y-86099890D01*
X141119890Y-86250213D01*
X140994951Y-86422179D01*
X140898444Y-86611585D01*
X140832753Y-86813760D01*
X140815056Y-86925495D01*
X140799500Y-87023713D01*
X140799500Y-87236287D01*
X140802769Y-87256924D01*
X140832740Y-87446158D01*
X140832754Y-87446243D01*
X140883961Y-87603842D01*
X140898444Y-87648414D01*
X140994951Y-87837820D01*
X141119890Y-88009786D01*
X141270213Y-88160109D01*
X141442182Y-88285050D01*
X141450946Y-88289516D01*
X141501742Y-88337491D01*
X141518536Y-88405312D01*
X141495998Y-88471447D01*
X141450946Y-88510484D01*
X141442182Y-88514949D01*
X141270213Y-88639890D01*
X141119890Y-88790213D01*
X140994951Y-88962179D01*
X140898444Y-89151585D01*
X140832753Y-89353760D01*
X140799500Y-89563713D01*
X140799500Y-89776286D01*
X140822650Y-89922453D01*
X140832754Y-89986243D01*
X140869878Y-90100499D01*
X140898444Y-90188414D01*
X140994951Y-90377820D01*
X141119890Y-90549786D01*
X141270213Y-90700109D01*
X141442182Y-90825050D01*
X141450946Y-90829516D01*
X141501742Y-90877491D01*
X141518536Y-90945312D01*
X141495998Y-91011447D01*
X141450946Y-91050484D01*
X141442182Y-91054949D01*
X141270213Y-91179890D01*
X141119890Y-91330213D01*
X140994951Y-91502179D01*
X140898444Y-91691585D01*
X140832753Y-91893760D01*
X140799500Y-92103713D01*
X140799500Y-92316286D01*
X140829343Y-92504711D01*
X140832754Y-92526243D01*
X140889262Y-92700157D01*
X140898444Y-92728414D01*
X140994951Y-92917820D01*
X141119890Y-93089786D01*
X141270213Y-93240109D01*
X141442182Y-93365050D01*
X141450946Y-93369516D01*
X141501742Y-93417491D01*
X141518536Y-93485312D01*
X141495998Y-93551447D01*
X141450946Y-93590484D01*
X141442182Y-93594949D01*
X141270213Y-93719890D01*
X141119890Y-93870213D01*
X140994951Y-94042179D01*
X140898444Y-94231585D01*
X140832753Y-94433760D01*
X140799500Y-94643713D01*
X140799500Y-94856286D01*
X140832344Y-95063658D01*
X140832754Y-95066243D01*
X140892635Y-95250538D01*
X140898444Y-95268414D01*
X140994951Y-95457820D01*
X141119890Y-95629786D01*
X141270213Y-95780109D01*
X141442182Y-95905050D01*
X141450946Y-95909516D01*
X141501742Y-95957491D01*
X141518536Y-96025312D01*
X141495998Y-96091447D01*
X141450946Y-96130484D01*
X141442182Y-96134949D01*
X141270213Y-96259890D01*
X141119890Y-96410213D01*
X140994951Y-96582179D01*
X140898444Y-96771585D01*
X140832753Y-96973760D01*
X140799500Y-97183713D01*
X140799500Y-97396286D01*
X140827757Y-97574698D01*
X140832754Y-97606243D01*
X140854945Y-97674541D01*
X140898444Y-97808414D01*
X140994951Y-97997820D01*
X141119890Y-98169786D01*
X141270213Y-98320109D01*
X141442179Y-98445048D01*
X141442181Y-98445049D01*
X141442184Y-98445051D01*
X141451493Y-98449794D01*
X141502290Y-98497766D01*
X141519087Y-98565587D01*
X141496552Y-98631722D01*
X141451505Y-98670760D01*
X141442446Y-98675376D01*
X141442440Y-98675380D01*
X141388282Y-98714727D01*
X141388282Y-98714728D01*
X142020591Y-99347037D01*
X141957007Y-99364075D01*
X141842993Y-99429901D01*
X141749901Y-99522993D01*
X141684075Y-99637007D01*
X141667037Y-99700591D01*
X141034728Y-99068282D01*
X141034727Y-99068282D01*
X140995380Y-99122439D01*
X140898904Y-99311782D01*
X140833242Y-99513869D01*
X140833242Y-99513872D01*
X140800000Y-99723753D01*
X140800000Y-99936246D01*
X140833242Y-100146127D01*
X140833242Y-100146130D01*
X140898904Y-100348217D01*
X140995375Y-100537550D01*
X141034728Y-100591716D01*
X141667036Y-99959407D01*
X141684075Y-100022993D01*
X141749901Y-100137007D01*
X141842993Y-100230099D01*
X141957007Y-100295925D01*
X142020590Y-100312962D01*
X141388282Y-100945269D01*
X141388282Y-100945270D01*
X141442452Y-100984626D01*
X141442451Y-100984626D01*
X141451495Y-100989234D01*
X141502292Y-101037208D01*
X141519087Y-101105029D01*
X141496550Y-101171164D01*
X141451499Y-101210202D01*
X141442182Y-101214949D01*
X141270213Y-101339890D01*
X141119890Y-101490213D01*
X140994951Y-101662179D01*
X140898444Y-101851585D01*
X140832753Y-102053760D01*
X140799500Y-102263713D01*
X140799500Y-102476287D01*
X140832754Y-102686243D01*
X140867511Y-102793215D01*
X140898444Y-102888414D01*
X140994951Y-103077820D01*
X141119890Y-103249786D01*
X141270213Y-103400109D01*
X141442179Y-103525048D01*
X141442181Y-103525049D01*
X141442184Y-103525051D01*
X141631588Y-103621557D01*
X141833757Y-103687246D01*
X142043713Y-103720500D01*
X142043714Y-103720500D01*
X142256286Y-103720500D01*
X142256287Y-103720500D01*
X142466243Y-103687246D01*
X142668412Y-103621557D01*
X142857816Y-103525051D01*
X142879789Y-103509086D01*
X143029786Y-103400109D01*
X143029788Y-103400106D01*
X143029792Y-103400104D01*
X143180104Y-103249792D01*
X143180106Y-103249788D01*
X143180109Y-103249786D01*
X143305048Y-103077820D01*
X143305047Y-103077820D01*
X143305051Y-103077816D01*
X143401557Y-102888412D01*
X143467246Y-102686243D01*
X143500500Y-102476287D01*
X143500500Y-102263713D01*
X143467246Y-102053757D01*
X143401557Y-101851588D01*
X143305051Y-101662184D01*
X143305049Y-101662181D01*
X143305048Y-101662179D01*
X143180109Y-101490213D01*
X143029786Y-101339890D01*
X142857817Y-101214949D01*
X142848504Y-101210204D01*
X142797707Y-101162230D01*
X142780912Y-101094409D01*
X142803449Y-101028274D01*
X142848507Y-100989232D01*
X142857555Y-100984622D01*
X142911716Y-100945270D01*
X142911717Y-100945270D01*
X142279408Y-100312962D01*
X142342993Y-100295925D01*
X142457007Y-100230099D01*
X142550099Y-100137007D01*
X142615925Y-100022993D01*
X142632962Y-99959408D01*
X143265270Y-100591717D01*
X143265270Y-100591716D01*
X143304622Y-100537554D01*
X143401095Y-100348217D01*
X143466757Y-100146130D01*
X143466757Y-100146127D01*
X143475404Y-100091533D01*
X146959499Y-100091533D01*
X146985458Y-100222030D01*
X146985461Y-100222040D01*
X147036376Y-100344961D01*
X147036386Y-100344979D01*
X147110301Y-100455601D01*
X147110307Y-100455609D01*
X147204390Y-100549692D01*
X147204398Y-100549698D01*
X147315020Y-100623613D01*
X147315023Y-100623614D01*
X147315031Y-100623620D01*
X147437964Y-100674540D01*
X147437968Y-100674540D01*
X147437969Y-100674541D01*
X147568466Y-100700500D01*
X147568469Y-100700500D01*
X147701533Y-100700500D01*
X147772893Y-100686304D01*
X149924500Y-100686304D01*
X149924500Y-100863695D01*
X149959103Y-101037658D01*
X149959106Y-101037667D01*
X150026983Y-101201540D01*
X150026990Y-101201553D01*
X150125535Y-101349034D01*
X150125538Y-101349038D01*
X150250961Y-101474461D01*
X150250965Y-101474464D01*
X150398446Y-101573009D01*
X150398459Y-101573016D01*
X150458816Y-101598016D01*
X150562334Y-101640894D01*
X150562336Y-101640894D01*
X150562341Y-101640896D01*
X150736304Y-101675499D01*
X150736307Y-101675500D01*
X150736309Y-101675500D01*
X150913693Y-101675500D01*
X150913694Y-101675499D01*
X150980660Y-101662179D01*
X151087658Y-101640896D01*
X151087661Y-101640894D01*
X151087666Y-101640894D01*
X151251547Y-101573013D01*
X151399035Y-101474464D01*
X151524464Y-101349035D01*
X151623013Y-101201547D01*
X151690894Y-101037666D01*
X151690986Y-101037208D01*
X151725499Y-100863695D01*
X151725500Y-100863693D01*
X151725500Y-100686306D01*
X151725499Y-100686304D01*
X151690896Y-100512341D01*
X151690893Y-100512332D01*
X151623016Y-100348459D01*
X151623009Y-100348446D01*
X151524464Y-100200965D01*
X151524461Y-100200961D01*
X151440033Y-100116533D01*
X154059499Y-100116533D01*
X154085458Y-100247030D01*
X154085461Y-100247040D01*
X154136376Y-100369961D01*
X154136386Y-100369979D01*
X154210301Y-100480601D01*
X154210307Y-100480609D01*
X154304390Y-100574692D01*
X154304398Y-100574698D01*
X154415020Y-100648613D01*
X154415023Y-100648614D01*
X154415031Y-100648620D01*
X154537964Y-100699540D01*
X154537968Y-100699540D01*
X154537969Y-100699541D01*
X154668466Y-100725500D01*
X154668469Y-100725500D01*
X154801533Y-100725500D01*
X154872893Y-100711304D01*
X157024500Y-100711304D01*
X157024500Y-100888695D01*
X157059103Y-101062658D01*
X157059106Y-101062667D01*
X157126983Y-101226540D01*
X157126990Y-101226553D01*
X157225535Y-101374034D01*
X157225538Y-101374038D01*
X157350961Y-101499461D01*
X157350965Y-101499464D01*
X157498446Y-101598009D01*
X157498459Y-101598016D01*
X157601978Y-101640894D01*
X157662334Y-101665894D01*
X157662336Y-101665894D01*
X157662341Y-101665896D01*
X157836304Y-101700499D01*
X157836307Y-101700500D01*
X157836309Y-101700500D01*
X158013693Y-101700500D01*
X158013694Y-101700499D01*
X158071682Y-101688964D01*
X158187658Y-101665896D01*
X158187661Y-101665894D01*
X158187666Y-101665894D01*
X158351547Y-101598013D01*
X158499035Y-101499464D01*
X158624464Y-101374035D01*
X158723013Y-101226547D01*
X158790894Y-101062666D01*
X158795869Y-101037658D01*
X158825499Y-100888695D01*
X158825500Y-100888693D01*
X158825500Y-100711306D01*
X158825499Y-100711304D01*
X158790896Y-100537341D01*
X158790893Y-100537332D01*
X158723016Y-100373459D01*
X158723009Y-100373446D01*
X158624464Y-100225965D01*
X158624461Y-100225961D01*
X158515033Y-100116533D01*
X161284499Y-100116533D01*
X161310458Y-100247030D01*
X161310461Y-100247040D01*
X161361376Y-100369961D01*
X161361386Y-100369979D01*
X161435301Y-100480601D01*
X161435307Y-100480609D01*
X161529390Y-100574692D01*
X161529398Y-100574698D01*
X161640020Y-100648613D01*
X161640023Y-100648614D01*
X161640031Y-100648620D01*
X161762964Y-100699540D01*
X161762968Y-100699540D01*
X161762969Y-100699541D01*
X161893466Y-100725500D01*
X161893469Y-100725500D01*
X162026533Y-100725500D01*
X162097893Y-100711304D01*
X164249500Y-100711304D01*
X164249500Y-100888695D01*
X164284103Y-101062658D01*
X164284106Y-101062667D01*
X164351983Y-101226540D01*
X164351990Y-101226553D01*
X164450535Y-101374034D01*
X164450538Y-101374038D01*
X164575961Y-101499461D01*
X164575965Y-101499464D01*
X164723446Y-101598009D01*
X164723459Y-101598016D01*
X164826978Y-101640894D01*
X164887334Y-101665894D01*
X164887336Y-101665894D01*
X164887341Y-101665896D01*
X165061304Y-101700499D01*
X165061307Y-101700500D01*
X165061309Y-101700500D01*
X165238693Y-101700500D01*
X165238694Y-101700499D01*
X165296682Y-101688964D01*
X165412658Y-101665896D01*
X165412661Y-101665894D01*
X165412666Y-101665894D01*
X165576547Y-101598013D01*
X165724035Y-101499464D01*
X165849464Y-101374035D01*
X165948013Y-101226547D01*
X166015894Y-101062666D01*
X166020869Y-101037658D01*
X166050499Y-100888695D01*
X166050500Y-100888693D01*
X166050500Y-100711306D01*
X166050499Y-100711304D01*
X166015896Y-100537341D01*
X166015893Y-100537332D01*
X165948016Y-100373459D01*
X165948009Y-100373446D01*
X165849464Y-100225965D01*
X165849461Y-100225961D01*
X165724038Y-100100538D01*
X165724034Y-100100535D01*
X165576553Y-100001990D01*
X165576540Y-100001983D01*
X165412667Y-99934106D01*
X165412658Y-99934103D01*
X165238694Y-99899500D01*
X165238691Y-99899500D01*
X165061309Y-99899500D01*
X165061306Y-99899500D01*
X164887341Y-99934103D01*
X164887332Y-99934106D01*
X164723459Y-100001983D01*
X164723446Y-100001990D01*
X164575965Y-100100535D01*
X164575961Y-100100538D01*
X164450538Y-100225961D01*
X164450535Y-100225965D01*
X164351990Y-100373446D01*
X164351983Y-100373459D01*
X164284106Y-100537332D01*
X164284103Y-100537341D01*
X164249500Y-100711304D01*
X162097893Y-100711304D01*
X162114325Y-100708035D01*
X162157036Y-100699540D01*
X162279969Y-100648620D01*
X162317395Y-100623613D01*
X162349565Y-100602118D01*
X162349570Y-100602114D01*
X162390606Y-100574695D01*
X162484695Y-100480606D01*
X162558620Y-100369969D01*
X162609540Y-100247036D01*
X162635500Y-100116531D01*
X162635500Y-99983469D01*
X162635500Y-99983466D01*
X162609541Y-99852969D01*
X162609540Y-99852968D01*
X162609540Y-99852964D01*
X162558620Y-99730031D01*
X162554425Y-99723753D01*
X162484698Y-99619398D01*
X162484692Y-99619390D01*
X162390609Y-99525307D01*
X162390601Y-99525301D01*
X162279979Y-99451386D01*
X162279972Y-99451382D01*
X162279969Y-99451380D01*
X162279965Y-99451378D01*
X162279961Y-99451376D01*
X162157040Y-99400461D01*
X162157030Y-99400458D01*
X162026533Y-99374500D01*
X162026531Y-99374500D01*
X161893469Y-99374500D01*
X161893467Y-99374500D01*
X161762969Y-99400458D01*
X161762959Y-99400461D01*
X161640038Y-99451376D01*
X161640020Y-99451386D01*
X161529398Y-99525301D01*
X161529390Y-99525307D01*
X161435307Y-99619390D01*
X161435301Y-99619398D01*
X161361386Y-99730020D01*
X161361376Y-99730038D01*
X161310461Y-99852959D01*
X161310458Y-99852969D01*
X161284500Y-99983466D01*
X161284500Y-99983469D01*
X161284500Y-100116531D01*
X161284500Y-100116533D01*
X161284499Y-100116533D01*
X158515033Y-100116533D01*
X158499035Y-100100535D01*
X158469018Y-100080479D01*
X158351552Y-100001990D01*
X158351540Y-100001983D01*
X158187667Y-99934106D01*
X158187658Y-99934103D01*
X158013694Y-99899500D01*
X158013691Y-99899500D01*
X157836309Y-99899500D01*
X157836306Y-99899500D01*
X157662341Y-99934103D01*
X157662332Y-99934106D01*
X157498459Y-100001983D01*
X157498446Y-100001990D01*
X157350965Y-100100535D01*
X157350961Y-100100538D01*
X157225538Y-100225961D01*
X157225535Y-100225965D01*
X157126990Y-100373446D01*
X157126983Y-100373459D01*
X157059106Y-100537332D01*
X157059103Y-100537341D01*
X157024500Y-100711304D01*
X154872893Y-100711304D01*
X154889325Y-100708035D01*
X154932036Y-100699540D01*
X155054969Y-100648620D01*
X155092395Y-100623613D01*
X155124565Y-100602118D01*
X155124570Y-100602114D01*
X155165606Y-100574695D01*
X155259695Y-100480606D01*
X155333620Y-100369969D01*
X155384540Y-100247036D01*
X155410500Y-100116531D01*
X155410500Y-99983469D01*
X155410500Y-99983466D01*
X155384541Y-99852969D01*
X155384540Y-99852968D01*
X155384540Y-99852964D01*
X155333620Y-99730031D01*
X155329425Y-99723753D01*
X155259698Y-99619398D01*
X155259692Y-99619390D01*
X155165609Y-99525307D01*
X155165601Y-99525301D01*
X155054979Y-99451386D01*
X155054972Y-99451382D01*
X155054969Y-99451380D01*
X155054965Y-99451378D01*
X155054961Y-99451376D01*
X154932040Y-99400461D01*
X154932030Y-99400458D01*
X154801533Y-99374500D01*
X154801531Y-99374500D01*
X154668469Y-99374500D01*
X154668467Y-99374500D01*
X154537969Y-99400458D01*
X154537959Y-99400461D01*
X154415038Y-99451376D01*
X154415020Y-99451386D01*
X154304398Y-99525301D01*
X154304390Y-99525307D01*
X154210307Y-99619390D01*
X154210301Y-99619398D01*
X154136386Y-99730020D01*
X154136376Y-99730038D01*
X154085461Y-99852959D01*
X154085458Y-99852969D01*
X154059500Y-99983466D01*
X154059500Y-99983469D01*
X154059500Y-100116531D01*
X154059500Y-100116533D01*
X154059499Y-100116533D01*
X151440033Y-100116533D01*
X151399036Y-100075536D01*
X151251553Y-99976990D01*
X151251540Y-99976983D01*
X151087667Y-99909106D01*
X151087658Y-99909103D01*
X150913694Y-99874500D01*
X150913691Y-99874500D01*
X150736309Y-99874500D01*
X150736306Y-99874500D01*
X150562341Y-99909103D01*
X150562332Y-99909106D01*
X150398459Y-99976983D01*
X150398446Y-99976990D01*
X150250965Y-100075535D01*
X150250961Y-100075538D01*
X150125538Y-100200961D01*
X150125535Y-100200965D01*
X150026990Y-100348446D01*
X150026983Y-100348459D01*
X149959106Y-100512332D01*
X149959103Y-100512341D01*
X149924500Y-100686304D01*
X147772893Y-100686304D01*
X147789325Y-100683035D01*
X147832036Y-100674540D01*
X147954969Y-100623620D01*
X147987155Y-100602114D01*
X148024565Y-100577118D01*
X148024570Y-100577114D01*
X148028186Y-100574698D01*
X148065606Y-100549695D01*
X148159695Y-100455606D01*
X148233620Y-100344969D01*
X148284540Y-100222036D01*
X148305527Y-100116531D01*
X148310500Y-100091533D01*
X148310500Y-99958466D01*
X148284541Y-99827969D01*
X148284540Y-99827968D01*
X148284540Y-99827964D01*
X148233620Y-99705031D01*
X148176399Y-99619394D01*
X148159698Y-99594398D01*
X148159692Y-99594390D01*
X148065609Y-99500307D01*
X148065601Y-99500301D01*
X147954979Y-99426386D01*
X147954972Y-99426382D01*
X147954969Y-99426380D01*
X147954965Y-99426378D01*
X147954961Y-99426376D01*
X147832040Y-99375461D01*
X147832030Y-99375458D01*
X147701533Y-99349500D01*
X147701531Y-99349500D01*
X147568469Y-99349500D01*
X147568467Y-99349500D01*
X147437969Y-99375458D01*
X147437959Y-99375461D01*
X147315038Y-99426376D01*
X147315020Y-99426386D01*
X147204398Y-99500301D01*
X147204390Y-99500307D01*
X147110307Y-99594390D01*
X147110301Y-99594398D01*
X147036386Y-99705020D01*
X147036376Y-99705038D01*
X146985461Y-99827959D01*
X146985458Y-99827969D01*
X146959500Y-99958466D01*
X146959500Y-99958469D01*
X146959500Y-100091531D01*
X146959500Y-100091533D01*
X146959499Y-100091533D01*
X143475404Y-100091533D01*
X143500000Y-99936243D01*
X143500000Y-99723753D01*
X143466757Y-99513872D01*
X143466757Y-99513869D01*
X143401095Y-99311782D01*
X143304624Y-99122449D01*
X143265270Y-99068282D01*
X143265269Y-99068282D01*
X142632962Y-99700590D01*
X142615925Y-99637007D01*
X142550099Y-99522993D01*
X142457007Y-99429901D01*
X142342993Y-99364075D01*
X142279409Y-99347037D01*
X142911716Y-98714728D01*
X142857547Y-98675373D01*
X142857547Y-98675372D01*
X142848500Y-98670763D01*
X142797706Y-98622788D01*
X142780912Y-98554966D01*
X142803451Y-98488832D01*
X142848508Y-98449793D01*
X142857816Y-98445051D01*
X142937007Y-98387515D01*
X143029786Y-98320109D01*
X143029788Y-98320106D01*
X143029792Y-98320104D01*
X143180104Y-98169792D01*
X143180106Y-98169788D01*
X143180109Y-98169786D01*
X143305048Y-97997820D01*
X143305047Y-97997820D01*
X143305051Y-97997816D01*
X143401557Y-97808412D01*
X143467246Y-97606243D01*
X143500500Y-97396287D01*
X143500500Y-97183713D01*
X143485900Y-97091533D01*
X146959499Y-97091533D01*
X146985458Y-97222030D01*
X146985461Y-97222040D01*
X147036376Y-97344961D01*
X147036386Y-97344979D01*
X147110301Y-97455601D01*
X147110307Y-97455609D01*
X147204390Y-97549692D01*
X147204398Y-97549698D01*
X147315020Y-97623613D01*
X147315023Y-97623614D01*
X147315031Y-97623620D01*
X147437964Y-97674540D01*
X147437968Y-97674540D01*
X147437969Y-97674541D01*
X147568466Y-97700500D01*
X147568469Y-97700500D01*
X147701533Y-97700500D01*
X147789325Y-97683035D01*
X147832036Y-97674540D01*
X147954969Y-97623620D01*
X148065606Y-97549695D01*
X148159695Y-97455606D01*
X148233620Y-97344969D01*
X148284540Y-97222036D01*
X148305527Y-97116533D01*
X154059499Y-97116533D01*
X154085458Y-97247030D01*
X154085461Y-97247040D01*
X154136376Y-97369961D01*
X154136386Y-97369979D01*
X154210301Y-97480601D01*
X154210307Y-97480609D01*
X154304390Y-97574692D01*
X154304398Y-97574698D01*
X154415020Y-97648613D01*
X154415023Y-97648614D01*
X154415031Y-97648620D01*
X154537964Y-97699540D01*
X154537968Y-97699540D01*
X154537969Y-97699541D01*
X154668466Y-97725500D01*
X154668469Y-97725500D01*
X154801533Y-97725500D01*
X154889325Y-97708035D01*
X154932036Y-97699540D01*
X155054969Y-97648620D01*
X155165606Y-97574695D01*
X155259695Y-97480606D01*
X155333620Y-97369969D01*
X155384540Y-97247036D01*
X155410500Y-97116533D01*
X161284499Y-97116533D01*
X161310458Y-97247030D01*
X161310461Y-97247040D01*
X161361376Y-97369961D01*
X161361386Y-97369979D01*
X161435301Y-97480601D01*
X161435307Y-97480609D01*
X161529390Y-97574692D01*
X161529398Y-97574698D01*
X161640020Y-97648613D01*
X161640023Y-97648614D01*
X161640031Y-97648620D01*
X161762964Y-97699540D01*
X161762968Y-97699540D01*
X161762969Y-97699541D01*
X161893466Y-97725500D01*
X161893469Y-97725500D01*
X162026533Y-97725500D01*
X162114325Y-97708035D01*
X162157036Y-97699540D01*
X162279969Y-97648620D01*
X162390606Y-97574695D01*
X162484695Y-97480606D01*
X162558620Y-97369969D01*
X162609540Y-97247036D01*
X162635500Y-97116531D01*
X162635500Y-96983469D01*
X162635500Y-96983466D01*
X162609541Y-96852969D01*
X162609540Y-96852968D01*
X162609540Y-96852964D01*
X162604541Y-96840896D01*
X162558623Y-96730038D01*
X162558622Y-96730037D01*
X162558620Y-96730031D01*
X162541920Y-96705038D01*
X162484698Y-96619398D01*
X162484692Y-96619390D01*
X162390609Y-96525307D01*
X162390601Y-96525301D01*
X162279979Y-96451386D01*
X162279972Y-96451382D01*
X162279969Y-96451380D01*
X162279965Y-96451378D01*
X162279961Y-96451376D01*
X162157040Y-96400461D01*
X162157030Y-96400458D01*
X162026533Y-96374500D01*
X162026531Y-96374500D01*
X161893469Y-96374500D01*
X161893467Y-96374500D01*
X161762969Y-96400458D01*
X161762959Y-96400461D01*
X161640038Y-96451376D01*
X161640020Y-96451386D01*
X161529398Y-96525301D01*
X161529390Y-96525307D01*
X161435307Y-96619390D01*
X161435301Y-96619398D01*
X161361386Y-96730020D01*
X161361376Y-96730038D01*
X161310461Y-96852959D01*
X161310458Y-96852969D01*
X161284500Y-96983466D01*
X161284500Y-96983469D01*
X161284500Y-97116531D01*
X161284500Y-97116533D01*
X161284499Y-97116533D01*
X155410500Y-97116533D01*
X155410500Y-97116531D01*
X155410500Y-96983469D01*
X155410500Y-96983466D01*
X155384541Y-96852969D01*
X155384540Y-96852968D01*
X155384540Y-96852964D01*
X155379541Y-96840896D01*
X155333623Y-96730038D01*
X155333622Y-96730037D01*
X155333620Y-96730031D01*
X155316920Y-96705038D01*
X155259698Y-96619398D01*
X155259692Y-96619390D01*
X155165609Y-96525307D01*
X155165601Y-96525301D01*
X155054979Y-96451386D01*
X155054972Y-96451382D01*
X155054969Y-96451380D01*
X155054965Y-96451378D01*
X155054961Y-96451376D01*
X154932040Y-96400461D01*
X154932030Y-96400458D01*
X154801533Y-96374500D01*
X154801531Y-96374500D01*
X154668469Y-96374500D01*
X154668467Y-96374500D01*
X154537969Y-96400458D01*
X154537959Y-96400461D01*
X154415038Y-96451376D01*
X154415020Y-96451386D01*
X154304398Y-96525301D01*
X154304390Y-96525307D01*
X154210307Y-96619390D01*
X154210301Y-96619398D01*
X154136386Y-96730020D01*
X154136376Y-96730038D01*
X154085461Y-96852959D01*
X154085458Y-96852969D01*
X154059500Y-96983466D01*
X154059500Y-96983469D01*
X154059500Y-97116531D01*
X154059500Y-97116533D01*
X154059499Y-97116533D01*
X148305527Y-97116533D01*
X148310500Y-97091531D01*
X148310500Y-96958469D01*
X148310500Y-96958466D01*
X148284541Y-96827969D01*
X148284540Y-96827968D01*
X148284540Y-96827964D01*
X148279541Y-96815896D01*
X148233623Y-96705038D01*
X148233622Y-96705037D01*
X148233620Y-96705031D01*
X148196491Y-96649464D01*
X148159698Y-96594398D01*
X148159692Y-96594390D01*
X148065609Y-96500307D01*
X148065601Y-96500301D01*
X147954979Y-96426386D01*
X147954972Y-96426382D01*
X147954969Y-96426380D01*
X147954965Y-96426378D01*
X147954961Y-96426376D01*
X147832040Y-96375461D01*
X147832030Y-96375458D01*
X147701533Y-96349500D01*
X147701531Y-96349500D01*
X147568469Y-96349500D01*
X147568467Y-96349500D01*
X147437969Y-96375458D01*
X147437959Y-96375461D01*
X147315038Y-96426376D01*
X147315020Y-96426386D01*
X147204398Y-96500301D01*
X147204390Y-96500307D01*
X147110307Y-96594390D01*
X147110301Y-96594398D01*
X147036386Y-96705020D01*
X147036376Y-96705038D01*
X146985461Y-96827959D01*
X146985458Y-96827969D01*
X146959500Y-96958466D01*
X146959500Y-96958469D01*
X146959500Y-97091531D01*
X146959500Y-97091533D01*
X146959499Y-97091533D01*
X143485900Y-97091533D01*
X143467246Y-96973757D01*
X143401557Y-96771588D01*
X143305051Y-96582184D01*
X143305049Y-96582181D01*
X143305048Y-96582179D01*
X143180109Y-96410213D01*
X143029786Y-96259890D01*
X142857820Y-96134951D01*
X142857115Y-96134591D01*
X142849054Y-96130485D01*
X142798259Y-96082512D01*
X142781463Y-96014692D01*
X142803999Y-95948556D01*
X142849054Y-95909515D01*
X142857816Y-95905051D01*
X142918029Y-95861304D01*
X149849500Y-95861304D01*
X149849500Y-96038695D01*
X149884103Y-96212658D01*
X149884106Y-96212667D01*
X149951983Y-96376540D01*
X149951990Y-96376553D01*
X150050535Y-96524034D01*
X150050538Y-96524038D01*
X150175961Y-96649461D01*
X150175965Y-96649464D01*
X150323446Y-96748009D01*
X150323459Y-96748016D01*
X150383816Y-96773016D01*
X150487334Y-96815894D01*
X150487336Y-96815894D01*
X150487341Y-96815896D01*
X150661304Y-96850499D01*
X150661307Y-96850500D01*
X150661309Y-96850500D01*
X150838693Y-96850500D01*
X150838694Y-96850499D01*
X150896682Y-96838964D01*
X151012658Y-96815896D01*
X151012661Y-96815894D01*
X151012666Y-96815894D01*
X151176547Y-96748013D01*
X151324035Y-96649464D01*
X151449464Y-96524035D01*
X151548013Y-96376547D01*
X151615894Y-96212666D01*
X151650500Y-96038691D01*
X151650500Y-95886304D01*
X156949500Y-95886304D01*
X156949500Y-96063695D01*
X156984103Y-96237658D01*
X156984106Y-96237667D01*
X157051983Y-96401540D01*
X157051990Y-96401553D01*
X157150535Y-96549034D01*
X157150538Y-96549038D01*
X157275961Y-96674461D01*
X157275965Y-96674464D01*
X157423446Y-96773009D01*
X157423459Y-96773016D01*
X157526978Y-96815894D01*
X157587334Y-96840894D01*
X157587336Y-96840894D01*
X157587341Y-96840896D01*
X157761304Y-96875499D01*
X157761307Y-96875500D01*
X157761309Y-96875500D01*
X157938693Y-96875500D01*
X157938694Y-96875499D01*
X157964315Y-96870402D01*
X158037933Y-96855760D01*
X158112658Y-96840896D01*
X158112661Y-96840894D01*
X158112666Y-96840894D01*
X158276547Y-96773013D01*
X158424035Y-96674464D01*
X158549464Y-96549035D01*
X158648013Y-96401547D01*
X158715894Y-96237666D01*
X158720869Y-96212658D01*
X158750499Y-96063695D01*
X158750500Y-96063693D01*
X158750500Y-95886306D01*
X158750499Y-95886304D01*
X164174500Y-95886304D01*
X164174500Y-96063695D01*
X164209103Y-96237658D01*
X164209106Y-96237667D01*
X164276983Y-96401540D01*
X164276990Y-96401553D01*
X164375535Y-96549034D01*
X164375538Y-96549038D01*
X164500961Y-96674461D01*
X164500965Y-96674464D01*
X164648446Y-96773009D01*
X164648459Y-96773016D01*
X164751978Y-96815894D01*
X164812334Y-96840894D01*
X164812336Y-96840894D01*
X164812341Y-96840896D01*
X164986304Y-96875499D01*
X164986307Y-96875500D01*
X164986309Y-96875500D01*
X165163693Y-96875500D01*
X165163694Y-96875499D01*
X165221682Y-96863964D01*
X165337658Y-96840896D01*
X165337661Y-96840894D01*
X165337666Y-96840894D01*
X165501547Y-96773013D01*
X165649035Y-96674464D01*
X165774464Y-96549035D01*
X165873013Y-96401547D01*
X165940894Y-96237666D01*
X165945869Y-96212658D01*
X165975499Y-96063695D01*
X165975500Y-96063693D01*
X165975500Y-95886306D01*
X165975499Y-95886304D01*
X165940896Y-95712341D01*
X165940893Y-95712332D01*
X165873016Y-95548459D01*
X165873009Y-95548446D01*
X165774464Y-95400965D01*
X165774461Y-95400961D01*
X165649038Y-95275538D01*
X165649034Y-95275535D01*
X165501553Y-95176990D01*
X165501541Y-95176983D01*
X165489815Y-95172127D01*
X165337667Y-95109106D01*
X165337658Y-95109103D01*
X165163694Y-95074500D01*
X165163691Y-95074500D01*
X164986309Y-95074500D01*
X164986306Y-95074500D01*
X164812341Y-95109103D01*
X164812332Y-95109106D01*
X164648459Y-95176983D01*
X164648446Y-95176990D01*
X164500965Y-95275535D01*
X164500961Y-95275538D01*
X164375538Y-95400961D01*
X164375535Y-95400965D01*
X164276990Y-95548446D01*
X164276983Y-95548459D01*
X164209106Y-95712332D01*
X164209103Y-95712341D01*
X164174500Y-95886304D01*
X158750499Y-95886304D01*
X158715896Y-95712341D01*
X158715893Y-95712332D01*
X158648016Y-95548459D01*
X158648009Y-95548446D01*
X158549464Y-95400965D01*
X158549461Y-95400961D01*
X158424038Y-95275538D01*
X158424034Y-95275535D01*
X158276553Y-95176990D01*
X158276540Y-95176983D01*
X158112667Y-95109106D01*
X158112658Y-95109103D01*
X157938694Y-95074500D01*
X157938691Y-95074500D01*
X157761309Y-95074500D01*
X157761306Y-95074500D01*
X157587341Y-95109103D01*
X157587332Y-95109106D01*
X157423459Y-95176983D01*
X157423446Y-95176990D01*
X157275965Y-95275535D01*
X157275961Y-95275538D01*
X157150538Y-95400961D01*
X157150535Y-95400965D01*
X157051990Y-95548446D01*
X157051983Y-95548459D01*
X156984106Y-95712332D01*
X156984103Y-95712341D01*
X156949500Y-95886304D01*
X151650500Y-95886304D01*
X151650500Y-95861309D01*
X151650500Y-95861306D01*
X151650499Y-95861304D01*
X151615896Y-95687341D01*
X151615893Y-95687332D01*
X151548016Y-95523459D01*
X151548009Y-95523446D01*
X151449464Y-95375965D01*
X151449461Y-95375961D01*
X151324038Y-95250538D01*
X151324034Y-95250535D01*
X151176553Y-95151990D01*
X151176540Y-95151983D01*
X151012667Y-95084106D01*
X151012658Y-95084103D01*
X150909847Y-95063653D01*
X175049500Y-95063653D01*
X175049500Y-95221346D01*
X175080261Y-95375989D01*
X175080264Y-95376001D01*
X175140602Y-95521672D01*
X175140609Y-95521685D01*
X175228210Y-95652788D01*
X175228213Y-95652792D01*
X175339707Y-95764286D01*
X175339711Y-95764289D01*
X175470814Y-95851890D01*
X175470827Y-95851897D01*
X175599147Y-95905048D01*
X175616503Y-95912237D01*
X175771153Y-95942999D01*
X175771156Y-95943000D01*
X175771158Y-95943000D01*
X175928844Y-95943000D01*
X175928845Y-95942999D01*
X176083497Y-95912237D01*
X176229179Y-95851894D01*
X176360289Y-95764289D01*
X176471789Y-95652789D01*
X176559394Y-95521679D01*
X176619737Y-95375997D01*
X176650500Y-95221342D01*
X176650500Y-95063658D01*
X176650500Y-95063655D01*
X176650499Y-95063653D01*
X176619738Y-94909010D01*
X176619737Y-94909003D01*
X176619735Y-94908998D01*
X176559397Y-94763327D01*
X176559390Y-94763314D01*
X176471789Y-94632211D01*
X176471786Y-94632207D01*
X176360292Y-94520713D01*
X176360288Y-94520710D01*
X176229185Y-94433109D01*
X176229172Y-94433102D01*
X176083501Y-94372764D01*
X176083489Y-94372761D01*
X175928845Y-94342000D01*
X175928842Y-94342000D01*
X175771158Y-94342000D01*
X175771155Y-94342000D01*
X175616510Y-94372761D01*
X175616498Y-94372764D01*
X175470827Y-94433102D01*
X175470814Y-94433109D01*
X175339711Y-94520710D01*
X175339707Y-94520713D01*
X175228213Y-94632207D01*
X175228210Y-94632211D01*
X175140609Y-94763314D01*
X175140602Y-94763327D01*
X175080264Y-94908998D01*
X175080261Y-94909010D01*
X175049500Y-95063653D01*
X150909847Y-95063653D01*
X150838694Y-95049500D01*
X150838691Y-95049500D01*
X150661309Y-95049500D01*
X150661306Y-95049500D01*
X150487341Y-95084103D01*
X150487332Y-95084106D01*
X150323459Y-95151983D01*
X150323446Y-95151990D01*
X150175965Y-95250535D01*
X150175961Y-95250538D01*
X150050538Y-95375961D01*
X150050535Y-95375965D01*
X149951990Y-95523446D01*
X149951983Y-95523459D01*
X149884106Y-95687332D01*
X149884103Y-95687341D01*
X149849500Y-95861304D01*
X142918029Y-95861304D01*
X142930981Y-95851894D01*
X143029786Y-95780109D01*
X143029788Y-95780106D01*
X143029792Y-95780104D01*
X143180104Y-95629792D01*
X143180106Y-95629788D01*
X143180109Y-95629786D01*
X143305048Y-95457820D01*
X143305047Y-95457820D01*
X143305051Y-95457816D01*
X143401557Y-95268412D01*
X143467246Y-95066243D01*
X143500500Y-94856287D01*
X143500500Y-94643713D01*
X143467246Y-94433757D01*
X143401557Y-94231588D01*
X143305051Y-94042184D01*
X143305049Y-94042181D01*
X143305048Y-94042179D01*
X143180109Y-93870213D01*
X143029786Y-93719890D01*
X142857820Y-93594951D01*
X142857115Y-93594591D01*
X142849054Y-93590485D01*
X142798259Y-93542512D01*
X142781463Y-93474692D01*
X142803999Y-93408556D01*
X142849054Y-93369515D01*
X142857816Y-93365051D01*
X142976471Y-93278844D01*
X143029786Y-93240109D01*
X143029788Y-93240106D01*
X143029792Y-93240104D01*
X143148743Y-93121153D01*
X183617000Y-93121153D01*
X183617000Y-93278846D01*
X183647761Y-93433489D01*
X183647764Y-93433501D01*
X183708102Y-93579172D01*
X183708109Y-93579185D01*
X183795710Y-93710288D01*
X183795713Y-93710292D01*
X183907207Y-93821786D01*
X183907211Y-93821789D01*
X184038314Y-93909390D01*
X184038327Y-93909397D01*
X184177967Y-93967237D01*
X184184003Y-93969737D01*
X184326085Y-93997999D01*
X184338653Y-94000499D01*
X184338656Y-94000500D01*
X184338658Y-94000500D01*
X184496344Y-94000500D01*
X184496345Y-94000499D01*
X184650997Y-93969737D01*
X184796679Y-93909394D01*
X184927789Y-93821789D01*
X185039289Y-93710289D01*
X185126894Y-93579179D01*
X185127933Y-93576672D01*
X185142082Y-93542512D01*
X185187237Y-93433497D01*
X185218000Y-93278842D01*
X185218000Y-93121158D01*
X185218000Y-93121155D01*
X185217999Y-93121153D01*
X185187237Y-92966504D01*
X185174666Y-92936155D01*
X185174665Y-92936153D01*
X185949500Y-92936153D01*
X185949500Y-93093846D01*
X185980261Y-93248489D01*
X185980264Y-93248501D01*
X186040602Y-93394172D01*
X186040609Y-93394185D01*
X186128210Y-93525288D01*
X186128213Y-93525292D01*
X186239707Y-93636786D01*
X186239711Y-93636789D01*
X186370814Y-93724390D01*
X186370827Y-93724397D01*
X186516498Y-93784735D01*
X186516503Y-93784737D01*
X186671153Y-93815499D01*
X186671156Y-93815500D01*
X186671158Y-93815500D01*
X186828844Y-93815500D01*
X186828845Y-93815499D01*
X186983497Y-93784737D01*
X187129179Y-93724394D01*
X187260289Y-93636789D01*
X187371789Y-93525289D01*
X187459394Y-93394179D01*
X187469611Y-93369514D01*
X187507168Y-93278842D01*
X187519737Y-93248497D01*
X187550500Y-93093842D01*
X187550500Y-92936158D01*
X187550500Y-92936155D01*
X187550499Y-92936153D01*
X187546852Y-92917819D01*
X187519737Y-92781503D01*
X187481714Y-92689707D01*
X187459397Y-92635827D01*
X187459390Y-92635814D01*
X187371789Y-92504711D01*
X187371786Y-92504707D01*
X187260292Y-92393213D01*
X187260288Y-92393210D01*
X187129185Y-92305609D01*
X187129172Y-92305602D01*
X186983501Y-92245264D01*
X186983489Y-92245261D01*
X186828845Y-92214500D01*
X186828842Y-92214500D01*
X186671158Y-92214500D01*
X186671155Y-92214500D01*
X186516510Y-92245261D01*
X186516498Y-92245264D01*
X186370827Y-92305602D01*
X186370814Y-92305609D01*
X186239711Y-92393210D01*
X186239707Y-92393213D01*
X186128213Y-92504707D01*
X186128210Y-92504711D01*
X186040609Y-92635814D01*
X186040602Y-92635827D01*
X185980264Y-92781498D01*
X185980261Y-92781510D01*
X185949500Y-92936153D01*
X185174665Y-92936153D01*
X185160331Y-92901547D01*
X185126897Y-92820827D01*
X185126890Y-92820814D01*
X185039289Y-92689711D01*
X185039286Y-92689707D01*
X184927792Y-92578213D01*
X184927788Y-92578210D01*
X184796685Y-92490609D01*
X184796672Y-92490602D01*
X184651001Y-92430264D01*
X184650989Y-92430261D01*
X184496345Y-92399500D01*
X184496342Y-92399500D01*
X184338658Y-92399500D01*
X184338655Y-92399500D01*
X184184010Y-92430261D01*
X184183998Y-92430264D01*
X184038327Y-92490602D01*
X184038314Y-92490609D01*
X183907211Y-92578210D01*
X183907207Y-92578213D01*
X183795713Y-92689707D01*
X183795710Y-92689711D01*
X183708109Y-92820814D01*
X183708102Y-92820827D01*
X183647764Y-92966498D01*
X183647761Y-92966510D01*
X183617000Y-93121153D01*
X143148743Y-93121153D01*
X143180104Y-93089792D01*
X143305051Y-92917816D01*
X143401557Y-92728412D01*
X143467246Y-92526243D01*
X143500500Y-92316287D01*
X143500500Y-92103713D01*
X143481880Y-91986153D01*
X188499500Y-91986153D01*
X188499500Y-92143846D01*
X188530261Y-92298489D01*
X188530264Y-92298501D01*
X188590602Y-92444172D01*
X188590609Y-92444185D01*
X188672071Y-92566100D01*
X188692949Y-92632777D01*
X188674465Y-92700157D01*
X188672071Y-92703882D01*
X188595609Y-92818314D01*
X188595602Y-92818327D01*
X188535264Y-92963998D01*
X188535261Y-92964010D01*
X188504500Y-93118653D01*
X188504500Y-93276346D01*
X188535261Y-93430989D01*
X188535264Y-93431001D01*
X188595602Y-93576672D01*
X188595609Y-93576685D01*
X188683210Y-93707788D01*
X188683213Y-93707792D01*
X188794707Y-93819286D01*
X188794711Y-93819289D01*
X188925814Y-93906890D01*
X188925827Y-93906897D01*
X189071498Y-93967235D01*
X189071503Y-93967237D01*
X189226153Y-93997999D01*
X189226156Y-93998000D01*
X189226158Y-93998000D01*
X189383844Y-93998000D01*
X189383845Y-93997999D01*
X189538497Y-93967237D01*
X189678136Y-93909397D01*
X189684172Y-93906897D01*
X189684172Y-93906896D01*
X189684179Y-93906894D01*
X189815289Y-93819289D01*
X189926789Y-93707789D01*
X190014394Y-93576679D01*
X190074737Y-93430997D01*
X190105500Y-93276342D01*
X190105500Y-93118658D01*
X190105500Y-93118655D01*
X190105499Y-93118653D01*
X190074737Y-92964003D01*
X190055606Y-92917816D01*
X190014397Y-92818327D01*
X190014395Y-92818323D01*
X190014394Y-92818321D01*
X189932927Y-92696398D01*
X189912050Y-92629722D01*
X189930534Y-92562342D01*
X189932889Y-92558676D01*
X190009394Y-92444179D01*
X190069737Y-92298497D01*
X190100500Y-92143842D01*
X190100500Y-91986158D01*
X190100500Y-91986155D01*
X190100499Y-91986153D01*
X190069738Y-91831510D01*
X190069737Y-91831503D01*
X190011782Y-91691585D01*
X190009397Y-91685827D01*
X190009390Y-91685814D01*
X189921789Y-91554711D01*
X189921786Y-91554707D01*
X189810292Y-91443213D01*
X189810288Y-91443210D01*
X189679185Y-91355609D01*
X189679172Y-91355602D01*
X189533501Y-91295264D01*
X189533489Y-91295261D01*
X189378845Y-91264500D01*
X189378842Y-91264500D01*
X189221158Y-91264500D01*
X189221155Y-91264500D01*
X189066510Y-91295261D01*
X189066498Y-91295264D01*
X188920827Y-91355602D01*
X188920814Y-91355609D01*
X188789711Y-91443210D01*
X188789707Y-91443213D01*
X188678213Y-91554707D01*
X188678210Y-91554711D01*
X188590609Y-91685814D01*
X188590602Y-91685827D01*
X188530264Y-91831498D01*
X188530261Y-91831510D01*
X188499500Y-91986153D01*
X143481880Y-91986153D01*
X143467246Y-91893757D01*
X143401557Y-91691588D01*
X143305051Y-91502184D01*
X143305049Y-91502181D01*
X143305048Y-91502179D01*
X143180109Y-91330213D01*
X143029786Y-91179890D01*
X142857820Y-91054951D01*
X142857115Y-91054591D01*
X142849054Y-91050485D01*
X142798259Y-91002512D01*
X142781463Y-90934692D01*
X142803999Y-90868556D01*
X142849054Y-90829515D01*
X142857816Y-90825051D01*
X142912540Y-90785292D01*
X143029786Y-90700109D01*
X143029788Y-90700106D01*
X143029792Y-90700104D01*
X143180104Y-90549792D01*
X143180106Y-90549788D01*
X143180109Y-90549786D01*
X143305048Y-90377820D01*
X143305047Y-90377820D01*
X143305051Y-90377816D01*
X143401557Y-90188412D01*
X143467246Y-89986243D01*
X143500500Y-89776287D01*
X143500500Y-89563713D01*
X143467246Y-89353757D01*
X143401557Y-89151588D01*
X143305051Y-88962184D01*
X143305049Y-88962181D01*
X143305048Y-88962179D01*
X143180109Y-88790213D01*
X143029786Y-88639890D01*
X142969586Y-88596153D01*
X163299500Y-88596153D01*
X163299500Y-88753846D01*
X163330261Y-88908489D01*
X163330264Y-88908501D01*
X163379574Y-89027548D01*
X163387043Y-89097018D01*
X163379574Y-89122452D01*
X163330264Y-89241498D01*
X163330261Y-89241510D01*
X163299500Y-89396153D01*
X163299500Y-89553846D01*
X163330261Y-89708489D01*
X163330264Y-89708501D01*
X163379575Y-89827549D01*
X163387044Y-89897018D01*
X163379575Y-89922453D01*
X163330264Y-90041501D01*
X163330261Y-90041513D01*
X163299500Y-90196156D01*
X163299500Y-90353849D01*
X163330261Y-90508492D01*
X163330264Y-90508504D01*
X163390602Y-90654175D01*
X163390609Y-90654188D01*
X163478210Y-90785291D01*
X163478213Y-90785295D01*
X163589707Y-90896789D01*
X163589711Y-90896792D01*
X163720814Y-90984393D01*
X163720827Y-90984400D01*
X163866498Y-91044738D01*
X163866503Y-91044740D01*
X164021153Y-91075502D01*
X164021156Y-91075503D01*
X164021158Y-91075503D01*
X164178844Y-91075503D01*
X164178845Y-91075502D01*
X164333497Y-91044740D01*
X164479179Y-90984397D01*
X164610289Y-90896792D01*
X164721789Y-90785292D01*
X164809394Y-90654182D01*
X164869737Y-90508500D01*
X164900500Y-90353845D01*
X164900500Y-90196161D01*
X164900500Y-90196158D01*
X164900499Y-90196156D01*
X164898959Y-90188412D01*
X164869737Y-90041506D01*
X164820423Y-89922452D01*
X164812955Y-89852984D01*
X164820424Y-89827549D01*
X164869737Y-89708497D01*
X164900500Y-89553842D01*
X164900500Y-89396158D01*
X164900500Y-89396155D01*
X164900499Y-89396153D01*
X164892066Y-89353757D01*
X164869737Y-89241503D01*
X164820425Y-89122452D01*
X164812956Y-89052983D01*
X164820425Y-89027548D01*
X164847501Y-88962179D01*
X164869737Y-88908497D01*
X164900500Y-88753842D01*
X164900500Y-88596158D01*
X164900500Y-88596155D01*
X164900499Y-88596153D01*
X164887393Y-88530264D01*
X164869737Y-88441503D01*
X164852546Y-88400000D01*
X164809397Y-88295827D01*
X164809390Y-88295814D01*
X164721789Y-88164711D01*
X164721786Y-88164707D01*
X164610292Y-88053213D01*
X164610288Y-88053210D01*
X164479185Y-87965609D01*
X164479172Y-87965602D01*
X164333501Y-87905264D01*
X164333489Y-87905261D01*
X164178845Y-87874500D01*
X164178842Y-87874500D01*
X164021158Y-87874500D01*
X164021155Y-87874500D01*
X163866510Y-87905261D01*
X163866498Y-87905264D01*
X163720827Y-87965602D01*
X163720814Y-87965609D01*
X163589711Y-88053210D01*
X163589707Y-88053213D01*
X163478213Y-88164707D01*
X163478210Y-88164711D01*
X163390609Y-88295814D01*
X163390602Y-88295827D01*
X163330264Y-88441498D01*
X163330261Y-88441510D01*
X163299500Y-88596153D01*
X142969586Y-88596153D01*
X142857820Y-88514951D01*
X142857115Y-88514591D01*
X142849054Y-88510485D01*
X142798259Y-88462512D01*
X142781463Y-88394692D01*
X142803999Y-88328556D01*
X142849054Y-88289515D01*
X142857816Y-88285051D01*
X142927540Y-88234394D01*
X143029786Y-88160109D01*
X143029788Y-88160106D01*
X143029792Y-88160104D01*
X143180104Y-88009792D01*
X143180106Y-88009788D01*
X143180109Y-88009786D01*
X143305048Y-87837820D01*
X143305047Y-87837820D01*
X143305051Y-87837816D01*
X143401557Y-87648412D01*
X143467246Y-87446243D01*
X143500500Y-87236287D01*
X143500500Y-87023713D01*
X143467246Y-86813757D01*
X143401557Y-86611588D01*
X143305051Y-86422184D01*
X143305049Y-86422181D01*
X143305048Y-86422179D01*
X143200371Y-86278102D01*
X143180109Y-86250213D01*
X143141200Y-86211304D01*
X165299500Y-86211304D01*
X165299500Y-86388695D01*
X165334103Y-86562658D01*
X165334106Y-86562667D01*
X165401983Y-86726540D01*
X165401990Y-86726553D01*
X165500535Y-86874034D01*
X165500538Y-86874038D01*
X165625961Y-86999461D01*
X165625965Y-86999464D01*
X165773446Y-87098009D01*
X165773459Y-87098016D01*
X165888856Y-87145814D01*
X165937334Y-87165894D01*
X165937336Y-87165894D01*
X165937341Y-87165896D01*
X166111304Y-87200499D01*
X166111307Y-87200500D01*
X166111309Y-87200500D01*
X166288693Y-87200500D01*
X166288694Y-87200499D01*
X166346682Y-87188964D01*
X166462658Y-87165896D01*
X166462661Y-87165894D01*
X166462666Y-87165894D01*
X166626547Y-87098013D01*
X166774035Y-86999464D01*
X166899464Y-86874035D01*
X166998013Y-86726547D01*
X167065894Y-86562666D01*
X167100500Y-86388691D01*
X167100500Y-86211309D01*
X167100500Y-86211306D01*
X167100499Y-86211304D01*
X167065896Y-86037341D01*
X167065893Y-86037332D01*
X166998016Y-85873459D01*
X166998009Y-85873446D01*
X166899464Y-85725965D01*
X166899461Y-85725961D01*
X166774038Y-85600538D01*
X166774034Y-85600535D01*
X166626553Y-85501990D01*
X166626540Y-85501983D01*
X166462667Y-85434106D01*
X166462658Y-85434103D01*
X166288694Y-85399500D01*
X166288691Y-85399500D01*
X166111309Y-85399500D01*
X166111306Y-85399500D01*
X165937341Y-85434103D01*
X165937332Y-85434106D01*
X165773459Y-85501983D01*
X165773446Y-85501990D01*
X165625965Y-85600535D01*
X165625961Y-85600538D01*
X165500538Y-85725961D01*
X165500535Y-85725965D01*
X165401990Y-85873446D01*
X165401983Y-85873459D01*
X165334106Y-86037332D01*
X165334103Y-86037341D01*
X165299500Y-86211304D01*
X143141200Y-86211304D01*
X143029786Y-86099890D01*
X142857820Y-85974951D01*
X142857115Y-85974591D01*
X142849054Y-85970485D01*
X142798259Y-85922512D01*
X142781463Y-85854692D01*
X142803999Y-85788556D01*
X142849054Y-85749515D01*
X142857816Y-85745051D01*
X142942533Y-85683501D01*
X143029786Y-85620109D01*
X143029788Y-85620106D01*
X143029792Y-85620104D01*
X143180104Y-85469792D01*
X143180106Y-85469788D01*
X143180109Y-85469786D01*
X143305048Y-85297820D01*
X143305047Y-85297820D01*
X143305051Y-85297816D01*
X143401557Y-85108412D01*
X143467246Y-84906243D01*
X143500500Y-84696287D01*
X143500500Y-84483713D01*
X143467246Y-84273757D01*
X143401557Y-84071588D01*
X143305051Y-83882184D01*
X143305049Y-83882181D01*
X143305048Y-83882179D01*
X143180109Y-83710213D01*
X143029786Y-83559890D01*
X142857820Y-83434951D01*
X142856719Y-83434390D01*
X142849054Y-83430485D01*
X142798259Y-83382512D01*
X142781463Y-83314692D01*
X142803999Y-83248556D01*
X142849054Y-83209515D01*
X142857816Y-83205051D01*
X142940526Y-83144959D01*
X143029786Y-83080109D01*
X143029788Y-83080106D01*
X143029792Y-83080104D01*
X143180104Y-82929792D01*
X143180106Y-82929788D01*
X143180109Y-82929786D01*
X143305048Y-82757820D01*
X143305047Y-82757820D01*
X143305051Y-82757816D01*
X143401557Y-82568412D01*
X143467246Y-82366243D01*
X143500500Y-82156287D01*
X143500500Y-82021153D01*
X168374500Y-82021153D01*
X168374500Y-82178846D01*
X168405261Y-82333489D01*
X168405264Y-82333501D01*
X168465602Y-82479172D01*
X168465609Y-82479185D01*
X168533656Y-82581024D01*
X168554534Y-82647702D01*
X168536049Y-82715082D01*
X168533656Y-82718805D01*
X168515612Y-82745809D01*
X168515602Y-82745827D01*
X168455264Y-82891498D01*
X168455261Y-82891510D01*
X168424500Y-83046153D01*
X168424500Y-83203846D01*
X168455261Y-83358489D01*
X168455264Y-83358501D01*
X168515602Y-83504172D01*
X168515609Y-83504185D01*
X168550304Y-83556109D01*
X168571182Y-83622786D01*
X168552698Y-83690167D01*
X168550304Y-83693891D01*
X168515609Y-83745814D01*
X168515602Y-83745827D01*
X168455264Y-83891498D01*
X168455261Y-83891510D01*
X168424500Y-84046153D01*
X168424500Y-84203846D01*
X168455261Y-84358489D01*
X168455264Y-84358501D01*
X168515602Y-84504172D01*
X168515609Y-84504185D01*
X168603210Y-84635288D01*
X168603213Y-84635292D01*
X168714707Y-84746786D01*
X168714711Y-84746789D01*
X168845814Y-84834390D01*
X168845827Y-84834397D01*
X168900206Y-84856921D01*
X168991503Y-84894737D01*
X169130830Y-84922451D01*
X169146153Y-84925499D01*
X169146156Y-84925500D01*
X169146158Y-84925500D01*
X169303844Y-84925500D01*
X169303845Y-84925499D01*
X169458497Y-84894737D01*
X169604179Y-84834394D01*
X169735289Y-84746789D01*
X169846789Y-84635289D01*
X169934394Y-84504179D01*
X169944290Y-84480289D01*
X169994735Y-84358501D01*
X169994737Y-84358497D01*
X170025500Y-84203842D01*
X170025500Y-84046158D01*
X170025500Y-84046155D01*
X170025499Y-84046153D01*
X169994737Y-83891503D01*
X169992583Y-83886302D01*
X169934396Y-83745825D01*
X169934394Y-83745822D01*
X169934394Y-83745821D01*
X169899694Y-83693889D01*
X169878816Y-83627215D01*
X169897300Y-83559835D01*
X169899676Y-83556136D01*
X169934394Y-83504179D01*
X169994737Y-83358497D01*
X170025500Y-83203842D01*
X170025500Y-83046158D01*
X170025500Y-83046155D01*
X170017388Y-83005375D01*
X170017388Y-83005374D01*
X170013787Y-82987270D01*
X171699499Y-82987270D01*
X171699499Y-83144963D01*
X171730260Y-83299606D01*
X171730263Y-83299618D01*
X171790601Y-83445289D01*
X171790608Y-83445302D01*
X171878209Y-83576405D01*
X171878212Y-83576409D01*
X171989706Y-83687903D01*
X171989710Y-83687906D01*
X172120813Y-83775507D01*
X172120826Y-83775514D01*
X172266497Y-83835852D01*
X172266502Y-83835854D01*
X172421152Y-83866616D01*
X172421155Y-83866617D01*
X172421157Y-83866617D01*
X172445500Y-83866617D01*
X172512539Y-83886302D01*
X172558294Y-83939106D01*
X172569500Y-83990617D01*
X172569500Y-84048846D01*
X172600261Y-84203489D01*
X172600264Y-84203501D01*
X172660602Y-84349172D01*
X172660609Y-84349185D01*
X172748212Y-84480292D01*
X172748691Y-84480875D01*
X172748845Y-84481239D01*
X172751595Y-84485354D01*
X172750814Y-84485875D01*
X172776000Y-84545187D01*
X172764204Y-84614054D01*
X172755935Y-84628425D01*
X172700609Y-84711225D01*
X172700602Y-84711238D01*
X172640264Y-84856909D01*
X172640261Y-84856921D01*
X172609500Y-85011564D01*
X172609500Y-85169257D01*
X172640261Y-85323900D01*
X172640264Y-85323912D01*
X172689575Y-85442960D01*
X172697044Y-85512429D01*
X172689575Y-85537864D01*
X172640264Y-85656912D01*
X172640261Y-85656924D01*
X172609500Y-85811567D01*
X172609500Y-85969260D01*
X172640261Y-86123903D01*
X172640264Y-86123915D01*
X172689574Y-86242962D01*
X172697043Y-86312432D01*
X172689574Y-86337866D01*
X172640264Y-86456912D01*
X172640261Y-86456924D01*
X172609500Y-86611567D01*
X172609500Y-86769260D01*
X172640261Y-86923903D01*
X172640264Y-86923915D01*
X172689574Y-87042962D01*
X172697043Y-87112432D01*
X172689574Y-87137866D01*
X172640264Y-87256912D01*
X172640261Y-87256924D01*
X172609500Y-87411567D01*
X172609500Y-87569260D01*
X172640261Y-87723903D01*
X172640264Y-87723915D01*
X172689574Y-87842962D01*
X172697043Y-87912432D01*
X172689574Y-87937866D01*
X172640264Y-88056912D01*
X172640261Y-88056924D01*
X172609500Y-88211567D01*
X172609500Y-88369260D01*
X172640261Y-88523903D01*
X172640264Y-88523915D01*
X172689489Y-88642755D01*
X172696958Y-88712224D01*
X172689489Y-88737659D01*
X172640264Y-88856498D01*
X172640261Y-88856510D01*
X172609500Y-89011153D01*
X172609500Y-89168846D01*
X172640261Y-89323489D01*
X172640264Y-89323501D01*
X172700602Y-89469172D01*
X172700609Y-89469185D01*
X172788210Y-89600288D01*
X172788213Y-89600292D01*
X172899707Y-89711786D01*
X172899711Y-89711789D01*
X173030814Y-89799390D01*
X173030827Y-89799397D01*
X173176498Y-89859735D01*
X173176503Y-89859737D01*
X173331153Y-89890499D01*
X173331156Y-89890500D01*
X173331158Y-89890500D01*
X173488844Y-89890500D01*
X173488845Y-89890499D01*
X173643497Y-89859737D01*
X173789179Y-89799394D01*
X173920289Y-89711789D01*
X174031789Y-89600289D01*
X174119394Y-89469179D01*
X174179737Y-89323497D01*
X174192146Y-89261110D01*
X174200095Y-89221153D01*
X176849500Y-89221153D01*
X176849500Y-89378846D01*
X176880261Y-89533489D01*
X176880264Y-89533501D01*
X176940602Y-89679172D01*
X176940609Y-89679185D01*
X177028210Y-89810288D01*
X177028213Y-89810292D01*
X177139707Y-89921786D01*
X177139711Y-89921789D01*
X177270814Y-90009390D01*
X177270827Y-90009397D01*
X177416498Y-90069735D01*
X177416503Y-90069737D01*
X177571153Y-90100499D01*
X177571156Y-90100500D01*
X177571158Y-90100500D01*
X177728844Y-90100500D01*
X177728845Y-90100499D01*
X177883497Y-90069737D01*
X178029179Y-90009394D01*
X178160289Y-89921789D01*
X178271789Y-89810289D01*
X178359394Y-89679179D01*
X178419737Y-89533497D01*
X178450500Y-89378842D01*
X178450500Y-89221158D01*
X178450500Y-89221155D01*
X178450499Y-89221153D01*
X178440094Y-89168844D01*
X178419737Y-89066503D01*
X178414137Y-89052983D01*
X178359397Y-88920827D01*
X178359390Y-88920814D01*
X178271789Y-88789711D01*
X178271786Y-88789707D01*
X178160292Y-88678213D01*
X178160288Y-88678210D01*
X178029185Y-88590609D01*
X178029172Y-88590602D01*
X177883501Y-88530264D01*
X177883489Y-88530261D01*
X177728845Y-88499500D01*
X177728842Y-88499500D01*
X177571158Y-88499500D01*
X177571155Y-88499500D01*
X177416510Y-88530261D01*
X177416498Y-88530264D01*
X177270827Y-88590602D01*
X177270814Y-88590609D01*
X177139711Y-88678210D01*
X177139707Y-88678213D01*
X177028213Y-88789707D01*
X177028210Y-88789711D01*
X176940609Y-88920814D01*
X176940602Y-88920827D01*
X176880264Y-89066498D01*
X176880261Y-89066510D01*
X176849500Y-89221153D01*
X174200095Y-89221153D01*
X174206118Y-89190875D01*
X174210499Y-89168846D01*
X174210500Y-89168844D01*
X174210500Y-89011155D01*
X174210499Y-89011153D01*
X174190079Y-88908497D01*
X174179737Y-88856503D01*
X174152071Y-88789711D01*
X174130511Y-88737659D01*
X174123042Y-88668190D01*
X174130511Y-88642755D01*
X174157635Y-88577268D01*
X174179737Y-88523911D01*
X174210500Y-88369256D01*
X174210500Y-88211572D01*
X174210500Y-88211569D01*
X174210499Y-88211567D01*
X174179738Y-88056924D01*
X174179737Y-88056917D01*
X174170780Y-88035292D01*
X174130425Y-87937866D01*
X174122956Y-87868397D01*
X174130425Y-87842962D01*
X174165414Y-87758489D01*
X174179737Y-87723911D01*
X174210500Y-87569256D01*
X174210500Y-87446153D01*
X180519500Y-87446153D01*
X180519500Y-87603846D01*
X180550261Y-87758489D01*
X180550264Y-87758501D01*
X180610602Y-87904172D01*
X180610609Y-87904185D01*
X180698210Y-88035288D01*
X180698213Y-88035292D01*
X180809707Y-88146786D01*
X180809711Y-88146789D01*
X180940814Y-88234390D01*
X180940827Y-88234397D01*
X181073893Y-88289514D01*
X181086503Y-88294737D01*
X181241153Y-88325499D01*
X181241156Y-88325500D01*
X181241158Y-88325500D01*
X181398844Y-88325500D01*
X181398845Y-88325499D01*
X181553497Y-88294737D01*
X181699179Y-88234394D01*
X181830289Y-88146789D01*
X181941789Y-88035289D01*
X182029394Y-87904179D01*
X182089737Y-87758497D01*
X182120500Y-87603842D01*
X182120500Y-87446158D01*
X182120500Y-87446155D01*
X182120499Y-87446153D01*
X182119128Y-87439257D01*
X182115527Y-87421153D01*
X186092000Y-87421153D01*
X186092000Y-87578846D01*
X186122761Y-87733489D01*
X186122764Y-87733501D01*
X186183102Y-87879172D01*
X186183109Y-87879185D01*
X186270710Y-88010288D01*
X186270713Y-88010292D01*
X186382207Y-88121786D01*
X186382211Y-88121789D01*
X186513314Y-88209390D01*
X186513327Y-88209397D01*
X186658998Y-88269735D01*
X186659003Y-88269737D01*
X186813653Y-88300499D01*
X186813656Y-88300500D01*
X186813658Y-88300500D01*
X186971344Y-88300500D01*
X186971345Y-88300499D01*
X187125997Y-88269737D01*
X187271679Y-88209394D01*
X187402789Y-88121789D01*
X187514289Y-88010289D01*
X187601894Y-87879179D01*
X187662237Y-87733497D01*
X187693000Y-87578842D01*
X187693000Y-87421158D01*
X187693000Y-87421155D01*
X187692999Y-87421153D01*
X187662238Y-87266510D01*
X187662237Y-87266503D01*
X187634898Y-87200500D01*
X187601896Y-87120825D01*
X187601894Y-87120822D01*
X187601894Y-87120821D01*
X187570944Y-87074502D01*
X187550066Y-87007827D01*
X187568550Y-86940447D01*
X187570924Y-86936751D01*
X187609394Y-86879179D01*
X187669737Y-86733497D01*
X187700500Y-86578842D01*
X187700500Y-86421158D01*
X187700500Y-86421155D01*
X187700499Y-86421153D01*
X187672044Y-86278102D01*
X187669737Y-86266503D01*
X187662990Y-86250213D01*
X187609397Y-86120827D01*
X187609395Y-86120823D01*
X187609394Y-86120821D01*
X187557991Y-86043891D01*
X187537113Y-85977214D01*
X187555597Y-85909834D01*
X187557991Y-85906109D01*
X187579811Y-85873453D01*
X187609394Y-85829179D01*
X187622520Y-85797491D01*
X187669735Y-85683501D01*
X187669737Y-85683497D01*
X187700500Y-85528842D01*
X187700500Y-85371158D01*
X187700500Y-85371155D01*
X187700499Y-85371153D01*
X187669738Y-85216510D01*
X187669737Y-85216503D01*
X187650167Y-85169257D01*
X187609397Y-85070827D01*
X187609390Y-85070814D01*
X187521789Y-84939711D01*
X187521786Y-84939707D01*
X187410292Y-84828213D01*
X187410288Y-84828210D01*
X187279185Y-84740609D01*
X187279172Y-84740602D01*
X187133501Y-84680264D01*
X187133489Y-84680261D01*
X186978845Y-84649500D01*
X186978842Y-84649500D01*
X186821158Y-84649500D01*
X186821155Y-84649500D01*
X186666510Y-84680261D01*
X186666498Y-84680264D01*
X186520827Y-84740602D01*
X186520814Y-84740609D01*
X186389711Y-84828210D01*
X186389707Y-84828213D01*
X186278213Y-84939707D01*
X186278210Y-84939711D01*
X186190609Y-85070814D01*
X186190602Y-85070827D01*
X186130264Y-85216498D01*
X186130261Y-85216510D01*
X186099500Y-85371153D01*
X186099500Y-85528846D01*
X186130261Y-85683489D01*
X186130264Y-85683501D01*
X186190602Y-85829172D01*
X186190612Y-85829190D01*
X186242008Y-85906110D01*
X186262886Y-85972787D01*
X186244401Y-86040167D01*
X186242008Y-86043890D01*
X186190612Y-86120809D01*
X186190602Y-86120827D01*
X186130264Y-86266498D01*
X186130261Y-86266510D01*
X186099500Y-86421153D01*
X186099500Y-86578846D01*
X186130261Y-86733489D01*
X186130264Y-86733501D01*
X186190602Y-86879172D01*
X186190605Y-86879177D01*
X186190606Y-86879179D01*
X186220495Y-86923911D01*
X186221554Y-86925495D01*
X186242432Y-86992173D01*
X186223948Y-87059553D01*
X186221555Y-87063277D01*
X186183108Y-87120817D01*
X186183102Y-87120828D01*
X186122764Y-87266498D01*
X186122761Y-87266510D01*
X186092000Y-87421153D01*
X182115527Y-87421153D01*
X182089738Y-87291508D01*
X182089737Y-87291507D01*
X182089737Y-87291503D01*
X182052043Y-87200500D01*
X182029397Y-87145827D01*
X182029390Y-87145814D01*
X181941789Y-87014711D01*
X181941786Y-87014707D01*
X181830292Y-86903213D01*
X181830288Y-86903210D01*
X181699185Y-86815609D01*
X181699172Y-86815602D01*
X181553501Y-86755264D01*
X181553489Y-86755261D01*
X181398845Y-86724500D01*
X181398842Y-86724500D01*
X181241158Y-86724500D01*
X181241155Y-86724500D01*
X181086510Y-86755261D01*
X181086498Y-86755264D01*
X180940827Y-86815602D01*
X180940814Y-86815609D01*
X180809711Y-86903210D01*
X180809707Y-86903213D01*
X180698213Y-87014707D01*
X180698210Y-87014711D01*
X180610609Y-87145814D01*
X180610602Y-87145827D01*
X180550264Y-87291498D01*
X180550261Y-87291510D01*
X180519500Y-87446153D01*
X174210500Y-87446153D01*
X174210500Y-87411572D01*
X174210500Y-87411569D01*
X174210499Y-87411567D01*
X174186618Y-87291510D01*
X174179737Y-87256917D01*
X174171192Y-87236287D01*
X174130425Y-87137866D01*
X174122956Y-87068397D01*
X174130425Y-87042962D01*
X174151462Y-86992173D01*
X174179737Y-86923911D01*
X174210500Y-86769256D01*
X174210500Y-86611572D01*
X174210500Y-86611569D01*
X174210499Y-86611567D01*
X174203990Y-86578844D01*
X174179737Y-86456917D01*
X174130425Y-86337866D01*
X174122956Y-86268397D01*
X174130425Y-86242962D01*
X174179735Y-86123915D01*
X174179737Y-86123911D01*
X174210500Y-85969256D01*
X174210500Y-85811572D01*
X174210500Y-85811569D01*
X174210499Y-85811567D01*
X174197267Y-85745048D01*
X174179737Y-85656917D01*
X174130423Y-85537863D01*
X174122955Y-85468395D01*
X174130424Y-85442960D01*
X174179737Y-85323908D01*
X174210500Y-85169253D01*
X174210500Y-85011569D01*
X174210500Y-85011566D01*
X174210499Y-85011564D01*
X174201536Y-84966503D01*
X174179737Y-84856914D01*
X174167574Y-84827549D01*
X174119397Y-84711238D01*
X174119390Y-84711225D01*
X174031787Y-84580119D01*
X174031317Y-84579546D01*
X174031164Y-84579186D01*
X174028405Y-84575057D01*
X174029187Y-84574533D01*
X174004000Y-84515238D01*
X174015788Y-84446370D01*
X174024064Y-84431986D01*
X174073165Y-84358501D01*
X174079394Y-84349179D01*
X174139737Y-84203497D01*
X174170500Y-84048842D01*
X174170500Y-83891158D01*
X174170500Y-83891155D01*
X174170499Y-83891153D01*
X174147495Y-83775507D01*
X174139737Y-83736503D01*
X174136564Y-83728842D01*
X174079397Y-83590827D01*
X174079390Y-83590814D01*
X174020520Y-83502709D01*
X173999642Y-83436031D01*
X174018127Y-83368651D01*
X174035942Y-83346136D01*
X174071786Y-83310292D01*
X174071789Y-83310289D01*
X174159394Y-83179179D01*
X174219737Y-83033497D01*
X174250500Y-82878842D01*
X174250500Y-82721158D01*
X174250500Y-82721155D01*
X174250499Y-82721153D01*
X174243691Y-82686926D01*
X174219737Y-82566503D01*
X174196452Y-82510288D01*
X174159397Y-82420827D01*
X174159390Y-82420814D01*
X174071789Y-82289711D01*
X174071786Y-82289707D01*
X173960292Y-82178213D01*
X173960288Y-82178210D01*
X173829185Y-82090609D01*
X173829172Y-82090602D01*
X173683501Y-82030264D01*
X173683489Y-82030261D01*
X173528845Y-81999500D01*
X173528842Y-81999500D01*
X173424500Y-81999500D01*
X173357461Y-81979815D01*
X173311706Y-81927011D01*
X173300500Y-81875500D01*
X173300500Y-81821155D01*
X173300499Y-81821153D01*
X173288173Y-81759185D01*
X173269737Y-81666503D01*
X173247783Y-81613501D01*
X173209397Y-81520827D01*
X173209390Y-81520814D01*
X173121789Y-81389711D01*
X173121786Y-81389707D01*
X173010292Y-81278213D01*
X173010288Y-81278210D01*
X172879185Y-81190609D01*
X172879172Y-81190602D01*
X172733501Y-81130264D01*
X172733489Y-81130261D01*
X172578845Y-81099500D01*
X172578842Y-81099500D01*
X172421158Y-81099500D01*
X172421155Y-81099500D01*
X172266510Y-81130261D01*
X172266498Y-81130264D01*
X172120827Y-81190602D01*
X172120814Y-81190609D01*
X171989711Y-81278210D01*
X171989707Y-81278213D01*
X171878213Y-81389707D01*
X171878210Y-81389711D01*
X171790609Y-81520814D01*
X171790602Y-81520827D01*
X171730264Y-81666498D01*
X171730261Y-81666510D01*
X171699500Y-81821153D01*
X171699500Y-81978846D01*
X171730261Y-82133489D01*
X171730264Y-82133501D01*
X171790602Y-82279172D01*
X171790609Y-82279185D01*
X171880801Y-82414166D01*
X171901679Y-82480844D01*
X171883194Y-82548224D01*
X171880801Y-82551947D01*
X171790611Y-82686926D01*
X171790601Y-82686944D01*
X171730263Y-82832615D01*
X171730260Y-82832627D01*
X171699499Y-82987270D01*
X170013787Y-82987270D01*
X169994738Y-82891510D01*
X169994737Y-82891503D01*
X169970345Y-82832615D01*
X169934397Y-82745827D01*
X169934390Y-82745814D01*
X169866342Y-82643974D01*
X169845464Y-82577297D01*
X169863948Y-82509917D01*
X169866285Y-82506279D01*
X169884394Y-82479179D01*
X169944737Y-82333497D01*
X169975500Y-82178842D01*
X169975500Y-82021158D01*
X169975500Y-82021155D01*
X169975499Y-82021153D01*
X169967276Y-81979815D01*
X169944737Y-81866503D01*
X169925955Y-81821158D01*
X169884397Y-81720827D01*
X169884390Y-81720814D01*
X169796789Y-81589711D01*
X169796786Y-81589707D01*
X169685292Y-81478213D01*
X169685288Y-81478210D01*
X169554185Y-81390609D01*
X169554172Y-81390602D01*
X169408501Y-81330264D01*
X169408489Y-81330261D01*
X169253845Y-81299500D01*
X169253842Y-81299500D01*
X169096158Y-81299500D01*
X169096155Y-81299500D01*
X168941510Y-81330261D01*
X168941498Y-81330264D01*
X168795827Y-81390602D01*
X168795814Y-81390609D01*
X168664711Y-81478210D01*
X168664707Y-81478213D01*
X168553213Y-81589707D01*
X168553210Y-81589711D01*
X168465609Y-81720814D01*
X168465602Y-81720827D01*
X168405264Y-81866498D01*
X168405261Y-81866510D01*
X168374500Y-82021153D01*
X143500500Y-82021153D01*
X143500500Y-81943713D01*
X143467246Y-81733757D01*
X143401557Y-81531588D01*
X143305051Y-81342184D01*
X143305049Y-81342181D01*
X143305048Y-81342179D01*
X143180109Y-81170213D01*
X143029786Y-81019890D01*
X142857820Y-80894951D01*
X142857115Y-80894591D01*
X142849054Y-80890485D01*
X142798259Y-80842512D01*
X142781463Y-80774692D01*
X142803999Y-80708556D01*
X142849054Y-80669515D01*
X142857816Y-80665051D01*
X142879789Y-80649086D01*
X143029786Y-80540109D01*
X143029788Y-80540106D01*
X143029792Y-80540104D01*
X143180104Y-80389792D01*
X143180106Y-80389788D01*
X143180109Y-80389786D01*
X143288096Y-80241153D01*
X169939500Y-80241153D01*
X169939500Y-80398846D01*
X169970261Y-80553489D01*
X169970264Y-80553501D01*
X170030602Y-80699172D01*
X170030609Y-80699185D01*
X170118210Y-80830288D01*
X170118213Y-80830292D01*
X170229707Y-80941786D01*
X170229711Y-80941789D01*
X170360814Y-81029390D01*
X170360827Y-81029397D01*
X170489478Y-81082685D01*
X170506503Y-81089737D01*
X170660635Y-81120396D01*
X170661153Y-81120499D01*
X170661156Y-81120500D01*
X170661158Y-81120500D01*
X170818844Y-81120500D01*
X170818845Y-81120499D01*
X170973497Y-81089737D01*
X171119179Y-81029394D01*
X171250289Y-80941789D01*
X171361789Y-80830289D01*
X171449394Y-80699179D01*
X171509737Y-80553497D01*
X171514375Y-80530176D01*
X171526117Y-80471153D01*
X173349500Y-80471153D01*
X173349500Y-80628846D01*
X173380261Y-80783489D01*
X173380264Y-80783501D01*
X173440602Y-80929172D01*
X173440609Y-80929185D01*
X173528210Y-81060288D01*
X173528213Y-81060292D01*
X173639707Y-81171786D01*
X173639711Y-81171789D01*
X173770814Y-81259390D01*
X173770827Y-81259397D01*
X173916498Y-81319735D01*
X173916503Y-81319737D01*
X174029326Y-81342179D01*
X174071153Y-81350499D01*
X174071156Y-81350500D01*
X174071158Y-81350500D01*
X174228844Y-81350500D01*
X174228845Y-81350499D01*
X174383497Y-81319737D01*
X174529179Y-81259394D01*
X174581110Y-81224694D01*
X174647785Y-81203816D01*
X174715165Y-81222300D01*
X174718863Y-81224676D01*
X174770821Y-81259394D01*
X174770823Y-81259395D01*
X174770825Y-81259396D01*
X174871649Y-81301158D01*
X174916503Y-81319737D01*
X175029326Y-81342179D01*
X175071153Y-81350499D01*
X175071156Y-81350500D01*
X175071158Y-81350500D01*
X175228844Y-81350500D01*
X175228845Y-81350499D01*
X175383497Y-81319737D01*
X175529179Y-81259394D01*
X175581110Y-81224694D01*
X175647785Y-81203816D01*
X175715165Y-81222300D01*
X175718863Y-81224676D01*
X175770821Y-81259394D01*
X175770823Y-81259395D01*
X175770825Y-81259396D01*
X175871649Y-81301158D01*
X175916503Y-81319737D01*
X176029326Y-81342179D01*
X176071153Y-81350499D01*
X176071156Y-81350500D01*
X176071158Y-81350500D01*
X176228844Y-81350500D01*
X176228845Y-81350499D01*
X176383497Y-81319737D01*
X176529179Y-81259394D01*
X176581110Y-81224694D01*
X176647785Y-81203816D01*
X176715165Y-81222300D01*
X176718863Y-81224676D01*
X176770821Y-81259394D01*
X176770823Y-81259395D01*
X176770825Y-81259396D01*
X176871649Y-81301158D01*
X176916503Y-81319737D01*
X177029326Y-81342179D01*
X177071153Y-81350499D01*
X177071156Y-81350500D01*
X177071158Y-81350500D01*
X177228844Y-81350500D01*
X177228845Y-81350499D01*
X177383497Y-81319737D01*
X177529179Y-81259394D01*
X177581110Y-81224694D01*
X177647785Y-81203816D01*
X177715165Y-81222300D01*
X177718863Y-81224676D01*
X177770821Y-81259394D01*
X177770823Y-81259395D01*
X177770825Y-81259396D01*
X177871649Y-81301158D01*
X177916503Y-81319737D01*
X178029326Y-81342179D01*
X178071153Y-81350499D01*
X178071156Y-81350500D01*
X178071158Y-81350500D01*
X178228844Y-81350500D01*
X178228845Y-81350499D01*
X178383497Y-81319737D01*
X178529179Y-81259394D01*
X178581110Y-81224694D01*
X178647785Y-81203816D01*
X178715165Y-81222300D01*
X178718863Y-81224676D01*
X178770821Y-81259394D01*
X178770823Y-81259395D01*
X178770825Y-81259396D01*
X178871649Y-81301158D01*
X178916503Y-81319737D01*
X179029326Y-81342179D01*
X179071153Y-81350499D01*
X179071156Y-81350500D01*
X179071158Y-81350500D01*
X179228844Y-81350500D01*
X179228845Y-81350499D01*
X179383497Y-81319737D01*
X179529179Y-81259394D01*
X179581110Y-81224694D01*
X179647785Y-81203816D01*
X179715165Y-81222300D01*
X179718863Y-81224676D01*
X179770821Y-81259394D01*
X179770823Y-81259395D01*
X179770825Y-81259396D01*
X179871649Y-81301158D01*
X179916503Y-81319737D01*
X180029326Y-81342179D01*
X180071153Y-81350499D01*
X180071156Y-81350500D01*
X180071158Y-81350500D01*
X180228844Y-81350500D01*
X180228845Y-81350499D01*
X180383497Y-81319737D01*
X180515476Y-81265069D01*
X180584943Y-81257601D01*
X180647423Y-81288876D01*
X180683075Y-81348965D01*
X180680581Y-81418790D01*
X180650610Y-81467311D01*
X180628210Y-81489711D01*
X180540609Y-81620814D01*
X180540602Y-81620827D01*
X180480264Y-81766498D01*
X180480261Y-81766510D01*
X180449500Y-81921153D01*
X180449500Y-82078846D01*
X180480261Y-82233489D01*
X180480264Y-82233501D01*
X180540602Y-82379172D01*
X180540609Y-82379185D01*
X180628210Y-82510288D01*
X180628213Y-82510292D01*
X180739707Y-82621786D01*
X180739711Y-82621789D01*
X180870814Y-82709390D01*
X180870818Y-82709392D01*
X180870821Y-82709394D01*
X180870826Y-82709396D01*
X180873345Y-82710440D01*
X180874460Y-82711339D01*
X180876191Y-82712264D01*
X180876015Y-82712592D01*
X180927747Y-82754282D01*
X180949811Y-82820576D01*
X180932531Y-82888275D01*
X180881393Y-82935885D01*
X180873345Y-82939560D01*
X180870826Y-82940603D01*
X180870814Y-82940609D01*
X180739711Y-83028210D01*
X180739707Y-83028213D01*
X180628213Y-83139707D01*
X180628210Y-83139711D01*
X180540609Y-83270814D01*
X180540602Y-83270827D01*
X180480264Y-83416498D01*
X180480261Y-83416510D01*
X180449500Y-83571153D01*
X180449500Y-83728846D01*
X180480261Y-83883489D01*
X180480264Y-83883501D01*
X180540604Y-84029177D01*
X180540605Y-84029179D01*
X180541899Y-84031115D01*
X180542264Y-84032282D01*
X180543476Y-84034549D01*
X180543045Y-84034778D01*
X180562773Y-84097794D01*
X180544285Y-84165173D01*
X180541899Y-84168885D01*
X180540605Y-84170820D01*
X180540604Y-84170822D01*
X180480264Y-84316498D01*
X180480261Y-84316510D01*
X180449500Y-84471153D01*
X180449500Y-84628846D01*
X180480260Y-84783488D01*
X180480262Y-84783493D01*
X180480263Y-84783497D01*
X180498510Y-84827549D01*
X180505978Y-84897018D01*
X180498511Y-84922447D01*
X180480263Y-84966503D01*
X180480262Y-84966506D01*
X180480260Y-84966511D01*
X180449500Y-85121153D01*
X180449500Y-85278846D01*
X180480261Y-85433489D01*
X180480264Y-85433501D01*
X180540602Y-85579172D01*
X180540609Y-85579185D01*
X180628210Y-85710288D01*
X180628213Y-85710292D01*
X180739707Y-85821786D01*
X180739711Y-85821789D01*
X180870814Y-85909390D01*
X180870827Y-85909397D01*
X181015351Y-85969260D01*
X181016503Y-85969737D01*
X181171153Y-86000499D01*
X181171156Y-86000500D01*
X181171158Y-86000500D01*
X181328844Y-86000500D01*
X181328845Y-86000499D01*
X181483497Y-85969737D01*
X181629179Y-85909394D01*
X181760289Y-85821789D01*
X181871789Y-85710289D01*
X181959394Y-85579179D01*
X182019737Y-85433497D01*
X182050500Y-85278842D01*
X182050500Y-85121158D01*
X182050500Y-85121155D01*
X182050499Y-85121153D01*
X182028701Y-85011569D01*
X182019737Y-84966503D01*
X182001490Y-84922453D01*
X181994021Y-84852985D01*
X182001491Y-84827546D01*
X182019735Y-84783502D01*
X182019735Y-84783501D01*
X182019737Y-84783497D01*
X182050500Y-84628842D01*
X182050500Y-84471158D01*
X182050500Y-84471155D01*
X182050499Y-84471153D01*
X182028090Y-84358497D01*
X182019737Y-84316503D01*
X182019735Y-84316498D01*
X181959397Y-84170827D01*
X181959394Y-84170822D01*
X181959394Y-84170821D01*
X181958103Y-84168889D01*
X181957737Y-84167723D01*
X181956525Y-84165454D01*
X181956955Y-84165223D01*
X181937226Y-84102214D01*
X181955710Y-84034834D01*
X181958100Y-84031115D01*
X181959394Y-84029179D01*
X182019737Y-83883497D01*
X182050500Y-83728842D01*
X182050500Y-83571158D01*
X182050500Y-83571155D01*
X182050499Y-83571153D01*
X182037177Y-83504179D01*
X182019737Y-83416503D01*
X181995712Y-83358501D01*
X181959397Y-83270827D01*
X181959390Y-83270814D01*
X181871789Y-83139711D01*
X181871786Y-83139707D01*
X181760292Y-83028213D01*
X181760288Y-83028210D01*
X181629185Y-82940609D01*
X181629175Y-82940604D01*
X181626659Y-82939562D01*
X181625543Y-82938662D01*
X181623809Y-82937736D01*
X181623984Y-82937407D01*
X181572255Y-82895723D01*
X181550188Y-82829429D01*
X181567466Y-82761729D01*
X181618602Y-82714118D01*
X181626659Y-82710438D01*
X181627222Y-82710204D01*
X181629179Y-82709394D01*
X181723826Y-82646153D01*
X185674500Y-82646153D01*
X185674500Y-82803846D01*
X185705261Y-82958489D01*
X185705264Y-82958501D01*
X185765602Y-83104172D01*
X185765609Y-83104185D01*
X185853210Y-83235288D01*
X185853213Y-83235292D01*
X185964707Y-83346786D01*
X185964711Y-83346789D01*
X186095814Y-83434390D01*
X186095827Y-83434397D01*
X186241498Y-83494735D01*
X186241503Y-83494737D01*
X186396153Y-83525499D01*
X186396156Y-83525500D01*
X186396158Y-83525500D01*
X186553844Y-83525500D01*
X186553845Y-83525499D01*
X186708497Y-83494737D01*
X186790049Y-83460956D01*
X186859516Y-83453488D01*
X186884944Y-83460954D01*
X186966503Y-83494737D01*
X187121153Y-83525499D01*
X187121156Y-83525500D01*
X187121158Y-83525500D01*
X187278844Y-83525500D01*
X187278845Y-83525499D01*
X187433497Y-83494737D01*
X187552876Y-83445289D01*
X187579172Y-83434397D01*
X187579172Y-83434396D01*
X187579179Y-83434394D01*
X187710289Y-83346789D01*
X187821789Y-83235289D01*
X187909394Y-83104179D01*
X187969737Y-82958497D01*
X188000500Y-82803842D01*
X188000500Y-82646158D01*
X188000500Y-82646155D01*
X188000499Y-82646153D01*
X187987544Y-82581024D01*
X187969737Y-82491503D01*
X187964629Y-82479172D01*
X187909397Y-82345827D01*
X187909390Y-82345814D01*
X187821789Y-82214711D01*
X187821786Y-82214707D01*
X187710292Y-82103213D01*
X187710288Y-82103210D01*
X187579185Y-82015609D01*
X187579172Y-82015602D01*
X187433501Y-81955264D01*
X187433489Y-81955261D01*
X187278845Y-81924500D01*
X187278842Y-81924500D01*
X187121158Y-81924500D01*
X187121155Y-81924500D01*
X186966511Y-81955260D01*
X186966501Y-81955263D01*
X186884952Y-81989042D01*
X186815483Y-81996511D01*
X186790048Y-81989042D01*
X186708498Y-81955263D01*
X186708488Y-81955260D01*
X186553845Y-81924500D01*
X186553842Y-81924500D01*
X186396158Y-81924500D01*
X186396155Y-81924500D01*
X186241510Y-81955261D01*
X186241498Y-81955264D01*
X186095827Y-82015602D01*
X186095814Y-82015609D01*
X185964711Y-82103210D01*
X185964707Y-82103213D01*
X185853213Y-82214707D01*
X185853210Y-82214711D01*
X185765609Y-82345814D01*
X185765602Y-82345827D01*
X185705264Y-82491498D01*
X185705261Y-82491510D01*
X185674500Y-82646153D01*
X181723826Y-82646153D01*
X181760289Y-82621789D01*
X181771789Y-82610289D01*
X181829694Y-82552385D01*
X181871786Y-82510292D01*
X181871789Y-82510289D01*
X181959394Y-82379179D01*
X182019737Y-82233497D01*
X182050500Y-82078842D01*
X182050500Y-81921158D01*
X182050500Y-81921155D01*
X182050499Y-81921153D01*
X182044360Y-81890289D01*
X182019737Y-81766503D01*
X182016703Y-81759179D01*
X181959397Y-81620827D01*
X181959390Y-81620814D01*
X181871789Y-81489711D01*
X181871786Y-81489707D01*
X181760292Y-81378213D01*
X181760288Y-81378210D01*
X181629185Y-81290609D01*
X181629172Y-81290602D01*
X181483501Y-81230264D01*
X181483489Y-81230261D01*
X181328845Y-81199500D01*
X181328842Y-81199500D01*
X181171158Y-81199500D01*
X181171155Y-81199500D01*
X181016510Y-81230261D01*
X181016498Y-81230264D01*
X180884524Y-81284929D01*
X180815054Y-81292398D01*
X180752575Y-81261122D01*
X180716924Y-81201033D01*
X180719418Y-81131208D01*
X180749390Y-81082687D01*
X180771789Y-81060289D01*
X180859394Y-80929179D01*
X180919737Y-80783497D01*
X180950500Y-80628842D01*
X180950500Y-80471158D01*
X180950500Y-80471155D01*
X180950499Y-80471153D01*
X180919738Y-80316509D01*
X180919737Y-80316503D01*
X180905097Y-80281158D01*
X180905095Y-80281153D01*
X182219500Y-80281153D01*
X182219500Y-80438846D01*
X182250261Y-80593489D01*
X182250264Y-80593501D01*
X182310602Y-80739172D01*
X182310609Y-80739185D01*
X182398210Y-80870288D01*
X182398213Y-80870292D01*
X182509707Y-80981786D01*
X182509711Y-80981789D01*
X182640814Y-81069390D01*
X182640827Y-81069397D01*
X182786498Y-81129735D01*
X182786503Y-81129737D01*
X182941153Y-81160499D01*
X182941156Y-81160500D01*
X182941158Y-81160500D01*
X183098844Y-81160500D01*
X183098845Y-81160499D01*
X183253497Y-81129737D01*
X183333522Y-81096590D01*
X183402991Y-81089121D01*
X183465470Y-81120396D01*
X183501122Y-81180485D01*
X183502591Y-81235342D01*
X183489500Y-81301153D01*
X183489500Y-81458846D01*
X183520261Y-81613489D01*
X183520264Y-81613501D01*
X183580602Y-81759172D01*
X183580609Y-81759185D01*
X183668210Y-81890288D01*
X183668213Y-81890292D01*
X183779707Y-82001786D01*
X183779711Y-82001789D01*
X183910814Y-82089390D01*
X183910827Y-82089397D01*
X184056498Y-82149735D01*
X184056503Y-82149737D01*
X184199661Y-82178213D01*
X184211153Y-82180499D01*
X184211156Y-82180500D01*
X184211158Y-82180500D01*
X184368844Y-82180500D01*
X184368845Y-82180499D01*
X184523497Y-82149737D01*
X184669179Y-82089394D01*
X184800289Y-82001789D01*
X184911789Y-81890289D01*
X184999394Y-81759179D01*
X185059737Y-81613497D01*
X185090500Y-81458842D01*
X185090500Y-81301158D01*
X185090500Y-81301155D01*
X185090499Y-81301153D01*
X185090170Y-81299500D01*
X185059737Y-81146503D01*
X185053010Y-81130263D01*
X184999397Y-81000827D01*
X184999390Y-81000814D01*
X184911789Y-80869711D01*
X184911786Y-80869707D01*
X184800292Y-80758213D01*
X184800288Y-80758210D01*
X184669185Y-80670609D01*
X184669172Y-80670602D01*
X184523501Y-80610264D01*
X184523489Y-80610261D01*
X184368845Y-80579500D01*
X184368842Y-80579500D01*
X184211158Y-80579500D01*
X184211155Y-80579500D01*
X184056510Y-80610261D01*
X184056502Y-80610263D01*
X183976476Y-80643410D01*
X183907006Y-80650877D01*
X183844528Y-80619602D01*
X183808876Y-80559512D01*
X183807408Y-80504658D01*
X183820500Y-80438842D01*
X183820500Y-80281158D01*
X183820500Y-80281155D01*
X183820499Y-80281153D01*
X183807901Y-80217820D01*
X183789737Y-80126503D01*
X183789735Y-80126498D01*
X183729397Y-79980827D01*
X183729390Y-79980814D01*
X183641789Y-79849711D01*
X183641786Y-79849707D01*
X183530292Y-79738213D01*
X183530288Y-79738210D01*
X183399185Y-79650609D01*
X183399172Y-79650602D01*
X183253501Y-79590264D01*
X183253489Y-79590261D01*
X183098845Y-79559500D01*
X183098842Y-79559500D01*
X182941158Y-79559500D01*
X182941155Y-79559500D01*
X182786510Y-79590261D01*
X182786498Y-79590264D01*
X182640827Y-79650602D01*
X182640814Y-79650609D01*
X182509711Y-79738210D01*
X182509707Y-79738213D01*
X182398213Y-79849707D01*
X182398210Y-79849711D01*
X182310609Y-79980814D01*
X182310602Y-79980827D01*
X182250264Y-80126498D01*
X182250261Y-80126510D01*
X182219500Y-80281153D01*
X180905095Y-80281153D01*
X180859397Y-80170827D01*
X180859390Y-80170814D01*
X180771789Y-80039711D01*
X180771786Y-80039707D01*
X180660292Y-79928213D01*
X180660288Y-79928210D01*
X180529185Y-79840609D01*
X180529172Y-79840602D01*
X180383501Y-79780264D01*
X180383489Y-79780261D01*
X180228845Y-79749500D01*
X180228842Y-79749500D01*
X180071158Y-79749500D01*
X180071155Y-79749500D01*
X179916510Y-79780261D01*
X179916498Y-79780264D01*
X179770827Y-79840602D01*
X179770814Y-79840609D01*
X179718891Y-79875304D01*
X179652214Y-79896182D01*
X179584833Y-79877698D01*
X179581109Y-79875304D01*
X179529185Y-79840609D01*
X179529172Y-79840602D01*
X179383501Y-79780264D01*
X179383489Y-79780261D01*
X179228845Y-79749500D01*
X179228842Y-79749500D01*
X179071158Y-79749500D01*
X179071155Y-79749500D01*
X178916510Y-79780261D01*
X178916498Y-79780264D01*
X178770827Y-79840602D01*
X178770814Y-79840609D01*
X178718891Y-79875304D01*
X178652214Y-79896182D01*
X178584833Y-79877698D01*
X178581109Y-79875304D01*
X178529185Y-79840609D01*
X178529172Y-79840602D01*
X178383501Y-79780264D01*
X178383489Y-79780261D01*
X178228845Y-79749500D01*
X178228842Y-79749500D01*
X178071158Y-79749500D01*
X178071155Y-79749500D01*
X177916510Y-79780261D01*
X177916498Y-79780264D01*
X177770827Y-79840602D01*
X177770814Y-79840609D01*
X177718891Y-79875304D01*
X177652214Y-79896182D01*
X177584833Y-79877698D01*
X177581109Y-79875304D01*
X177529185Y-79840609D01*
X177529172Y-79840602D01*
X177383501Y-79780264D01*
X177383489Y-79780261D01*
X177228845Y-79749500D01*
X177228842Y-79749500D01*
X177071158Y-79749500D01*
X177071155Y-79749500D01*
X176916510Y-79780261D01*
X176916498Y-79780264D01*
X176770827Y-79840602D01*
X176770814Y-79840609D01*
X176718891Y-79875304D01*
X176652214Y-79896182D01*
X176584833Y-79877698D01*
X176581109Y-79875304D01*
X176529185Y-79840609D01*
X176529172Y-79840602D01*
X176383501Y-79780264D01*
X176383489Y-79780261D01*
X176228845Y-79749500D01*
X176228842Y-79749500D01*
X176071158Y-79749500D01*
X176071155Y-79749500D01*
X175916510Y-79780261D01*
X175916498Y-79780264D01*
X175770827Y-79840602D01*
X175770814Y-79840609D01*
X175718891Y-79875304D01*
X175652214Y-79896182D01*
X175584833Y-79877698D01*
X175581109Y-79875304D01*
X175529185Y-79840609D01*
X175529172Y-79840602D01*
X175383501Y-79780264D01*
X175383489Y-79780261D01*
X175228845Y-79749500D01*
X175228842Y-79749500D01*
X175071158Y-79749500D01*
X175071155Y-79749500D01*
X174916510Y-79780261D01*
X174916498Y-79780264D01*
X174770827Y-79840602D01*
X174770814Y-79840609D01*
X174718891Y-79875304D01*
X174652214Y-79896182D01*
X174584833Y-79877698D01*
X174581109Y-79875304D01*
X174529185Y-79840609D01*
X174529172Y-79840602D01*
X174383501Y-79780264D01*
X174383489Y-79780261D01*
X174228845Y-79749500D01*
X174228842Y-79749500D01*
X174071158Y-79749500D01*
X174071155Y-79749500D01*
X173916510Y-79780261D01*
X173916498Y-79780264D01*
X173770827Y-79840602D01*
X173770814Y-79840609D01*
X173639711Y-79928210D01*
X173639707Y-79928213D01*
X173528213Y-80039707D01*
X173528210Y-80039711D01*
X173440609Y-80170814D01*
X173440602Y-80170827D01*
X173380264Y-80316498D01*
X173380261Y-80316510D01*
X173349500Y-80471153D01*
X171526117Y-80471153D01*
X171532140Y-80440874D01*
X171532140Y-80440873D01*
X171540499Y-80398846D01*
X171540500Y-80398844D01*
X171540500Y-80241155D01*
X171540499Y-80241153D01*
X171535857Y-80217816D01*
X171509737Y-80086503D01*
X171465965Y-79980827D01*
X171449397Y-79940827D01*
X171449390Y-79940814D01*
X171361789Y-79809711D01*
X171361786Y-79809707D01*
X171250292Y-79698213D01*
X171250288Y-79698210D01*
X171119185Y-79610609D01*
X171119172Y-79610602D01*
X170973501Y-79550264D01*
X170973489Y-79550261D01*
X170818845Y-79519500D01*
X170818842Y-79519500D01*
X170661158Y-79519500D01*
X170661155Y-79519500D01*
X170506510Y-79550261D01*
X170506498Y-79550264D01*
X170360827Y-79610602D01*
X170360814Y-79610609D01*
X170229711Y-79698210D01*
X170229707Y-79698213D01*
X170118213Y-79809707D01*
X170118210Y-79809711D01*
X170030609Y-79940814D01*
X170030602Y-79940827D01*
X169970264Y-80086498D01*
X169970261Y-80086510D01*
X169939500Y-80241153D01*
X143288096Y-80241153D01*
X143305050Y-80217817D01*
X143324945Y-80178772D01*
X143324945Y-80178771D01*
X143328996Y-80170821D01*
X143401557Y-80028412D01*
X143467246Y-79826243D01*
X143500500Y-79616287D01*
X143500500Y-79403713D01*
X143467246Y-79193757D01*
X143401557Y-78991588D01*
X143305051Y-78802184D01*
X143305049Y-78802181D01*
X143305048Y-78802179D01*
X143180109Y-78630213D01*
X143029786Y-78479890D01*
X142857820Y-78354951D01*
X142857115Y-78354591D01*
X142849054Y-78350485D01*
X142798259Y-78302512D01*
X142781463Y-78234692D01*
X142803999Y-78168556D01*
X142849054Y-78129515D01*
X142857816Y-78125051D01*
X142879789Y-78109086D01*
X143029786Y-78000109D01*
X143029788Y-78000106D01*
X143029792Y-78000104D01*
X143180104Y-77849792D01*
X143180106Y-77849788D01*
X143180109Y-77849786D01*
X143234899Y-77774371D01*
X143291728Y-77696153D01*
X172149500Y-77696153D01*
X172149500Y-77853846D01*
X172180261Y-78008489D01*
X172180264Y-78008501D01*
X172240602Y-78154172D01*
X172240609Y-78154185D01*
X172328210Y-78285288D01*
X172328213Y-78285292D01*
X172439707Y-78396786D01*
X172439711Y-78396789D01*
X172570814Y-78484390D01*
X172570827Y-78484397D01*
X172716498Y-78544735D01*
X172716503Y-78544737D01*
X172871153Y-78575499D01*
X172871156Y-78575500D01*
X172871158Y-78575500D01*
X173028844Y-78575500D01*
X173028845Y-78575499D01*
X173183497Y-78544737D01*
X173329179Y-78484394D01*
X173460289Y-78396789D01*
X173571789Y-78285289D01*
X173659394Y-78154179D01*
X173669611Y-78129514D01*
X173719735Y-78008501D01*
X173719737Y-78008497D01*
X173750500Y-77853842D01*
X173750500Y-77696158D01*
X173750500Y-77696155D01*
X173750499Y-77696153D01*
X173746852Y-77677819D01*
X173719737Y-77541503D01*
X173697746Y-77488412D01*
X173659397Y-77395827D01*
X173659390Y-77395814D01*
X173571789Y-77264711D01*
X173571786Y-77264707D01*
X173460292Y-77153213D01*
X173460288Y-77153210D01*
X173329185Y-77065609D01*
X173329172Y-77065602D01*
X173183501Y-77005264D01*
X173183489Y-77005261D01*
X173028845Y-76974500D01*
X173028842Y-76974500D01*
X172871158Y-76974500D01*
X172871155Y-76974500D01*
X172716510Y-77005261D01*
X172716498Y-77005264D01*
X172570827Y-77065602D01*
X172570814Y-77065609D01*
X172439711Y-77153210D01*
X172439707Y-77153213D01*
X172328213Y-77264707D01*
X172328210Y-77264711D01*
X172240609Y-77395814D01*
X172240602Y-77395827D01*
X172180264Y-77541498D01*
X172180261Y-77541510D01*
X172149500Y-77696153D01*
X143291728Y-77696153D01*
X143305051Y-77677816D01*
X143401557Y-77488412D01*
X143467246Y-77286243D01*
X143500500Y-77076287D01*
X143500500Y-76863713D01*
X143467246Y-76653757D01*
X143401557Y-76451588D01*
X143305051Y-76262184D01*
X143305049Y-76262181D01*
X143305048Y-76262179D01*
X143180109Y-76090213D01*
X143066569Y-75976673D01*
X143033084Y-75915350D01*
X143038068Y-75845658D01*
X143079940Y-75789725D01*
X143110915Y-75772810D01*
X143242331Y-75723796D01*
X143340910Y-75650000D01*
X146100000Y-75650000D01*
X152600000Y-75650000D01*
X152600000Y-74616447D01*
X158554500Y-74616447D01*
X158554500Y-74774140D01*
X158585261Y-74928783D01*
X158585264Y-74928795D01*
X158645602Y-75074466D01*
X158645609Y-75074479D01*
X158733210Y-75205582D01*
X158733213Y-75205586D01*
X158844707Y-75317080D01*
X158844711Y-75317083D01*
X158975814Y-75404684D01*
X158975827Y-75404691D01*
X159121498Y-75465029D01*
X159121503Y-75465031D01*
X159276153Y-75495793D01*
X159276156Y-75495794D01*
X159276158Y-75495794D01*
X159433844Y-75495794D01*
X159433845Y-75495793D01*
X159588497Y-75465031D01*
X159734179Y-75404688D01*
X159865289Y-75317083D01*
X159976789Y-75205583D01*
X160064394Y-75074473D01*
X160124737Y-74928791D01*
X160155500Y-74774136D01*
X160155500Y-74616452D01*
X160155500Y-74616449D01*
X160155499Y-74616447D01*
X160124738Y-74461804D01*
X160124737Y-74461797D01*
X160124735Y-74461792D01*
X160064397Y-74316121D01*
X160064390Y-74316108D01*
X159976789Y-74185005D01*
X159976786Y-74185001D01*
X159865292Y-74073507D01*
X159865288Y-74073504D01*
X159734185Y-73985903D01*
X159734172Y-73985896D01*
X159588501Y-73925558D01*
X159588489Y-73925555D01*
X159433845Y-73894794D01*
X159433842Y-73894794D01*
X159276158Y-73894794D01*
X159276155Y-73894794D01*
X159121510Y-73925555D01*
X159121498Y-73925558D01*
X158975827Y-73985896D01*
X158975814Y-73985903D01*
X158844711Y-74073504D01*
X158844707Y-74073507D01*
X158733213Y-74185001D01*
X158733210Y-74185005D01*
X158645609Y-74316108D01*
X158645602Y-74316121D01*
X158585264Y-74461792D01*
X158585261Y-74461804D01*
X158554500Y-74616447D01*
X152600000Y-74616447D01*
X152600000Y-72091447D01*
X158554500Y-72091447D01*
X158554500Y-72249140D01*
X158585261Y-72403783D01*
X158585264Y-72403795D01*
X158645602Y-72549466D01*
X158645609Y-72549479D01*
X158733210Y-72680582D01*
X158733213Y-72680586D01*
X158844707Y-72792080D01*
X158844711Y-72792083D01*
X158975814Y-72879684D01*
X158975827Y-72879691D01*
X159121498Y-72940029D01*
X159121503Y-72940031D01*
X159276153Y-72970793D01*
X159276156Y-72970794D01*
X159276158Y-72970794D01*
X159433844Y-72970794D01*
X159433845Y-72970793D01*
X159588497Y-72940031D01*
X159734179Y-72879688D01*
X159865289Y-72792083D01*
X159976789Y-72680583D01*
X160064394Y-72549473D01*
X160124737Y-72403791D01*
X160155500Y-72249136D01*
X160155500Y-72091452D01*
X160155500Y-72091449D01*
X160155499Y-72091447D01*
X160124738Y-71936804D01*
X160124737Y-71936797D01*
X160124735Y-71936792D01*
X160064397Y-71791121D01*
X160064390Y-71791108D01*
X159976789Y-71660005D01*
X159976786Y-71660001D01*
X159865292Y-71548507D01*
X159865288Y-71548504D01*
X159734185Y-71460903D01*
X159734172Y-71460896D01*
X159588501Y-71400558D01*
X159588489Y-71400555D01*
X159433845Y-71369794D01*
X159433842Y-71369794D01*
X159276158Y-71369794D01*
X159276155Y-71369794D01*
X159121510Y-71400555D01*
X159121498Y-71400558D01*
X158975827Y-71460896D01*
X158975814Y-71460903D01*
X158844711Y-71548504D01*
X158844707Y-71548507D01*
X158733213Y-71660001D01*
X158733210Y-71660005D01*
X158645609Y-71791108D01*
X158645602Y-71791121D01*
X158585264Y-71936792D01*
X158585261Y-71936804D01*
X158554500Y-72091447D01*
X152600000Y-72091447D01*
X152600000Y-69150000D01*
X146100000Y-69150000D01*
X146100000Y-75650000D01*
X143340910Y-75650000D01*
X143357546Y-75637546D01*
X143443796Y-75522331D01*
X143494091Y-75387483D01*
X143500500Y-75327873D01*
X143500499Y-73532128D01*
X143494091Y-73472517D01*
X143443796Y-73337669D01*
X143443795Y-73337668D01*
X143443793Y-73337664D01*
X143357547Y-73222455D01*
X143357544Y-73222452D01*
X143242335Y-73136206D01*
X143242328Y-73136202D01*
X143107482Y-73085908D01*
X143107483Y-73085908D01*
X143047883Y-73079501D01*
X143047881Y-73079500D01*
X143047873Y-73079500D01*
X143047864Y-73079500D01*
X141252129Y-73079500D01*
X141252123Y-73079501D01*
X141192516Y-73085908D01*
X141057671Y-73136202D01*
X141057664Y-73136206D01*
X140942455Y-73222452D01*
X140942452Y-73222455D01*
X140856206Y-73337664D01*
X140856202Y-73337671D01*
X140805908Y-73472517D01*
X140799501Y-73532116D01*
X140799501Y-73532123D01*
X140799500Y-73532135D01*
X139625500Y-73532135D01*
X139625500Y-68324500D01*
X139645185Y-68257461D01*
X139697989Y-68211706D01*
X139749500Y-68200500D01*
X196200500Y-68200500D01*
X196267539Y-68220185D01*
G37*
%TD.AperFunction*%
%TD*%
M02*
