M48
; DRILL file {KiCad 9.0.4} date 2026-01-29T02:10:05+0300
; FORMAT={-:-/ absolute / metric / decimal}
; #@! TF.CreationDate,2026-01-29T02:10:05+03:00
; #@! TF.GenerationSoftware,Kicad,Pcbnew,9.0.4
; #@! TF.FileFunction,Plated,1,4,PTH
FMAT,2
METRIC
; #@! TA.AperFunction,Plated,PTH,ViaDrill
T1C0.300
; #@! TA.AperFunction,Plated,PTH,ViaDrill
T2C0.400
; #@! TA.AperFunction,Plated,PTH,ComponentDrill
T3C1.000
%
G90
G05
T1
X159.355Y-72.17
X159.355Y-74.695
X160.605Y-72.17
X160.605Y-74.695
X164.1Y-88.675
X164.1Y-89.475
X164.1Y-90.275
X169.175Y-82.1
X169.225Y-83.125
X169.225Y-84.125
X169.825Y-80.85
X170.74Y-80.32
X172.375Y-80.725
X172.5Y-83.066
X172.5Y-81.9
X172.95Y-77.775
X173.37Y-83.97
X173.41Y-85.09
X173.41Y-85.89
X173.41Y-86.69
X173.41Y-87.49
X173.41Y-88.29
X173.41Y-89.09
X173.45Y-82.8
X174.15Y-80.55
X175.15Y-80.55
X175.85Y-95.142
X176.15Y-80.55
X177.15Y-80.55
X177.65Y-89.3
X178.15Y-80.55
X179.15Y-80.55
X180.15Y-80.55
X181.25Y-80.95
X181.25Y-82.0
X181.25Y-83.65
X181.25Y-84.55
X181.25Y-85.2
X181.25Y-86.4
X181.32Y-87.525
X183.02Y-80.36
X184.29Y-81.38
X184.4Y-92.075
X184.417Y-93.2
X186.475Y-82.725
X186.75Y-93.015
X186.892Y-87.5
X186.9Y-85.45
X186.9Y-86.5
X187.2Y-82.725
X189.3Y-92.065
X189.305Y-93.197
T2
X150.75Y-95.95
X150.825Y-100.775
X157.85Y-95.975
X157.925Y-100.8
X165.075Y-95.975
X165.15Y-100.8
X166.2Y-86.3
X185.63Y-94.83
T3
X142.15Y-74.43
X142.15Y-76.97
X142.15Y-79.51
X142.15Y-82.05
X142.15Y-84.59
X142.15Y-87.13
X142.15Y-89.67
X142.15Y-92.21
X142.15Y-94.75
X142.15Y-97.29
X142.15Y-99.83
X142.15Y-102.37
M30
