%TF.GenerationSoftware,KiCad,Pcbnew,9.0.4*%
%TF.CreationDate,2026-01-29T02:10:09+03:00*%
%TF.ProjectId,ADC,4144432e-6b69-4636-9164-5f7063625858,rev?*%
%TF.SameCoordinates,Original*%
%TF.FileFunction,Copper,L1,Top*%
%TF.FilePolarity,Positive*%
%FSLAX46Y46*%
G04 Gerber Fmt 4.6, Leading zero omitted, Abs format (unit mm)*
G04 Created by KiCad (PCBNEW 9.0.4) date 2026-01-29 02:10:09*
%MOMM*%
%LPD*%
G01*
G04 APERTURE LIST*
G04 Aperture macros list*
%AMRoundRect*
0 Rectangle with rounded corners*
0 $1 Rounding radius*
0 $2 $3 $4 $5 $6 $7 $8 $9 X,Y pos of 4 corners*
0 Add a 4 corners polygon primitive as box body*
4,1,4,$2,$3,$4,$5,$6,$7,$8,$9,$2,$3,0*
0 Add four circle primitives for the rounded corners*
1,1,$1+$1,$2,$3*
1,1,$1+$1,$4,$5*
1,1,$1+$1,$6,$7*
1,1,$1+$1,$8,$9*
0 Add four rect primitives between the rounded corners*
20,1,$1+$1,$2,$3,$4,$5,0*
20,1,$1+$1,$4,$5,$6,$7,0*
20,1,$1+$1,$6,$7,$8,$9,0*
20,1,$1+$1,$8,$9,$2,$3,0*%
G04 Aperture macros list end*
%TA.AperFunction,Conductor*%
%ADD10C,0.200000*%
%TD*%
%TA.AperFunction,SMDPad,CuDef*%
%ADD11RoundRect,0.023800X-0.756200X-0.116200X0.756200X-0.116200X0.756200X0.116200X-0.756200X0.116200X0*%
%TD*%
%TA.AperFunction,SMDPad,CuDef*%
%ADD12RoundRect,0.023800X-0.116200X-0.756200X0.116200X-0.756200X0.116200X0.756200X-0.116200X0.756200X0*%
%TD*%
%TA.AperFunction,SMDPad,CuDef*%
%ADD13RoundRect,0.200000X0.200000X0.275000X-0.200000X0.275000X-0.200000X-0.275000X0.200000X-0.275000X0*%
%TD*%
%TA.AperFunction,SMDPad,CuDef*%
%ADD14RoundRect,0.225000X0.250000X-0.225000X0.250000X0.225000X-0.250000X0.225000X-0.250000X-0.225000X0*%
%TD*%
%TA.AperFunction,SMDPad,CuDef*%
%ADD15RoundRect,0.150000X-0.500000X0.150000X-0.500000X-0.150000X0.500000X-0.150000X0.500000X0.150000X0*%
%TD*%
%TA.AperFunction,SMDPad,CuDef*%
%ADD16RoundRect,0.175000X-0.175000X0.350000X-0.175000X-0.350000X0.175000X-0.350000X0.175000X0.350000X0*%
%TD*%
%TA.AperFunction,SMDPad,CuDef*%
%ADD17RoundRect,0.225000X0.225000X0.250000X-0.225000X0.250000X-0.225000X-0.250000X0.225000X-0.250000X0*%
%TD*%
%TA.AperFunction,SMDPad,CuDef*%
%ADD18RoundRect,0.140000X0.140000X0.170000X-0.140000X0.170000X-0.140000X-0.170000X0.140000X-0.170000X0*%
%TD*%
%TA.AperFunction,SMDPad,CuDef*%
%ADD19RoundRect,0.135000X-0.135000X-0.185000X0.135000X-0.185000X0.135000X0.185000X-0.135000X0.185000X0*%
%TD*%
%TA.AperFunction,SMDPad,CuDef*%
%ADD20RoundRect,0.150000X-0.150000X-0.625000X0.150000X-0.625000X0.150000X0.625000X-0.150000X0.625000X0*%
%TD*%
%TA.AperFunction,SMDPad,CuDef*%
%ADD21RoundRect,0.250000X-0.350000X-0.650000X0.350000X-0.650000X0.350000X0.650000X-0.350000X0.650000X0*%
%TD*%
%TA.AperFunction,SMDPad,CuDef*%
%ADD22RoundRect,0.140000X-0.170000X0.140000X-0.170000X-0.140000X0.170000X-0.140000X0.170000X0.140000X0*%
%TD*%
%TA.AperFunction,SMDPad,CuDef*%
%ADD23RoundRect,0.140000X-0.140000X-0.170000X0.140000X-0.170000X0.140000X0.170000X-0.140000X0.170000X0*%
%TD*%
%TA.AperFunction,ComponentPad*%
%ADD24R,1.700000X1.700000*%
%TD*%
%TA.AperFunction,ComponentPad*%
%ADD25C,1.700000*%
%TD*%
%TA.AperFunction,SMDPad,CuDef*%
%ADD26RoundRect,0.150000X0.150000X0.700000X-0.150000X0.700000X-0.150000X-0.700000X0.150000X-0.700000X0*%
%TD*%
%TA.AperFunction,SMDPad,CuDef*%
%ADD27RoundRect,0.250000X0.250000X1.100000X-0.250000X1.100000X-0.250000X-1.100000X0.250000X-1.100000X0*%
%TD*%
%TA.AperFunction,SMDPad,CuDef*%
%ADD28RoundRect,0.155000X0.155000X-0.212500X0.155000X0.212500X-0.155000X0.212500X-0.155000X-0.212500X0*%
%TD*%
%TA.AperFunction,SMDPad,CuDef*%
%ADD29RoundRect,0.073750X-0.551250X-0.221250X0.551250X-0.221250X0.551250X0.221250X-0.551250X0.221250X0*%
%TD*%
%TA.AperFunction,ViaPad*%
%ADD30C,0.600000*%
%TD*%
%TA.AperFunction,ViaPad*%
%ADD31C,0.800000*%
%TD*%
%TA.AperFunction,Conductor*%
%ADD32C,0.300000*%
%TD*%
%TA.AperFunction,Conductor*%
%ADD33C,0.400000*%
%TD*%
%TA.AperFunction,Conductor*%
%ADD34C,0.250000*%
%TD*%
%TA.AperFunction,Conductor*%
%ADD35C,0.500000*%
%TD*%
G04 APERTURE END LIST*
%TO.N,+5V*%
D10*
X185075000Y-93775000D02*
X186150000Y-93775000D01*
X186150000Y-95050000D01*
X185075000Y-95050000D01*
X185075000Y-93775000D01*
%TA.AperFunction,Conductor*%
G36*
X185075000Y-93775000D02*
G01*
X186150000Y-93775000D01*
X186150000Y-95050000D01*
X185075000Y-95050000D01*
X185075000Y-93775000D01*
G37*
%TD.AperFunction*%
X181900000Y-86100000D02*
X183300000Y-86100000D01*
X183300000Y-86700000D01*
X181900000Y-86700000D01*
X181900000Y-86100000D01*
%TA.AperFunction,Conductor*%
G36*
X181900000Y-86100000D02*
G01*
X183300000Y-86100000D01*
X183300000Y-86700000D01*
X181900000Y-86700000D01*
X181900000Y-86100000D01*
G37*
%TD.AperFunction*%
%TO.N,GND*%
X186250000Y-82425000D02*
X187500000Y-82425000D01*
X187500000Y-84625000D01*
X186250000Y-84625000D01*
X186250000Y-82425000D01*
%TA.AperFunction,Conductor*%
G36*
X186250000Y-82425000D02*
G01*
X187500000Y-82425000D01*
X187500000Y-84625000D01*
X186250000Y-84625000D01*
X186250000Y-82425000D01*
G37*
%TD.AperFunction*%
X181800000Y-81600000D02*
X183300000Y-81600000D01*
X183300000Y-82200000D01*
X181800000Y-82200000D01*
X181800000Y-81600000D01*
%TA.AperFunction,Conductor*%
G36*
X181800000Y-81600000D02*
G01*
X183300000Y-81600000D01*
X183300000Y-82200000D01*
X181800000Y-82200000D01*
X181800000Y-81600000D01*
G37*
%TD.AperFunction*%
%TO.N,Net-(U1-REFCAPA)*%
X181800000Y-82600000D02*
X183300000Y-82600000D01*
X183300000Y-83200000D01*
X181800000Y-83200000D01*
X181800000Y-82600000D01*
%TA.AperFunction,Conductor*%
G36*
X181800000Y-82600000D02*
G01*
X183300000Y-82600000D01*
X183300000Y-83200000D01*
X181800000Y-83200000D01*
X181800000Y-82600000D01*
G37*
%TD.AperFunction*%
%TD*%
D11*
%TO.P,U1,1,AVCC*%
%TO.N,+5V*%
X171220000Y-81150000D03*
%TO.P,U1,2,AGND*%
%TO.N,GND*%
X171220000Y-81650000D03*
%TO.P,U1,3,OS0*%
%TO.N,Net-(U1-OS0)*%
X171220000Y-82150000D03*
%TO.P,U1,4,OS1*%
%TO.N,Net-(U1-OS1)*%
X171220000Y-82650000D03*
%TO.P,U1,5,OS2*%
%TO.N,Net-(U1-OS2)*%
X171220000Y-83150000D03*
%TO.P,U1,6,SER/BYTE_SEL/~{PAR}*%
%TO.N,GND*%
X171220000Y-83650000D03*
%TO.P,U1,7,~{STBY}*%
%TO.N,STBY*%
X171220000Y-84150000D03*
%TO.P,U1,8,RANGE*%
%TO.N,GND*%
X171220000Y-84650000D03*
%TO.P,U1,9,CONVST_A*%
%TO.N,CONVST*%
X171220000Y-85150000D03*
%TO.P,U1,10,CONVST_B*%
X171220000Y-85650000D03*
%TO.P,U1,11,RESET*%
%TO.N,RST*%
X171220000Y-86150000D03*
%TO.P,U1,12,SCLK/~{RD}*%
%TO.N,SCLK{slash}RD*%
X171220000Y-86650000D03*
%TO.P,U1,13,~{CS}*%
%TO.N,CS*%
X171220000Y-87150000D03*
%TO.P,U1,14,BUSY*%
%TO.N,BUSY*%
X171220000Y-87650000D03*
%TO.P,U1,15,FRTSDATA*%
%TO.N,FRSTDATA*%
X171220000Y-88150000D03*
%TO.P,U1,16,DB0*%
%TO.N,DB0*%
X171220000Y-88650000D03*
D12*
%TO.P,U1,17,DB1*%
%TO.N,DB1*%
X173150000Y-90580000D03*
%TO.P,U1,18,DB2*%
%TO.N,DB2*%
X173650000Y-90580000D03*
%TO.P,U1,19,DB3*%
%TO.N,DB3*%
X174150000Y-90580000D03*
%TO.P,U1,20,DB4*%
%TO.N,DB4*%
X174650000Y-90580000D03*
%TO.P,U1,21,DB5*%
%TO.N,DB5*%
X175150000Y-90580000D03*
%TO.P,U1,22,DB6*%
%TO.N,DB6*%
X175650000Y-90580000D03*
%TO.P,U1,23,VDRIVE*%
%TO.N,+3.3V*%
X176150000Y-90580000D03*
%TO.P,U1,24,DB7/DOUTA*%
%TO.N,DB7{slash}DOUTA*%
X176650000Y-90580000D03*
%TO.P,U1,25,DB8/DOUTB*%
%TO.N,DB8DOUTB*%
X177150000Y-90580000D03*
%TO.P,U1,26,AGND*%
%TO.N,GND*%
X177650000Y-90580000D03*
%TO.P,U1,27,DB9*%
%TO.N,DB9*%
X178150000Y-90580000D03*
%TO.P,U1,28,DB10*%
%TO.N,DB10*%
X178650000Y-90580000D03*
%TO.P,U1,29,DB11*%
%TO.N,DB11*%
X179150000Y-90580000D03*
%TO.P,U1,30,DB12*%
%TO.N,DB12*%
X179650000Y-90580000D03*
%TO.P,U1,31,DB13*%
%TO.N,DB13*%
X180150000Y-90580000D03*
%TO.P,U1,32,DB14/HBEN*%
%TO.N,DB14*%
X180650000Y-90580000D03*
D11*
%TO.P,U1,33,DB15/BYTE_SEL*%
%TO.N,DB15*%
X182580000Y-88650000D03*
%TO.P,U1,34,REF_SELECT*%
%TO.N,+3.3V*%
X182580000Y-88150000D03*
%TO.P,U1,35,AGND*%
%TO.N,GND*%
X182580000Y-87650000D03*
%TO.P,U1,36,REGCAP*%
%TO.N,Net-(C2-Pad2)*%
X182580000Y-87150000D03*
%TO.P,U1,37,AVCC*%
%TO.N,+5V*%
X182580000Y-86650000D03*
%TO.P,U1,38,AVCC*%
X182580000Y-86150000D03*
%TO.P,U1,39,REGCAP*%
%TO.N,Net-(C6-Pad2)*%
X182580000Y-85650000D03*
%TO.P,U1,40,AGND*%
%TO.N,GND*%
X182580000Y-85150000D03*
%TO.P,U1,41,AGND*%
X182580000Y-84650000D03*
%TO.P,U1,42,REFIN/REFOUT*%
%TO.N,REFIN{slash}REFOUT*%
X182580000Y-84150000D03*
%TO.P,U1,43,REFGND*%
%TO.N,GND*%
X182580000Y-83650000D03*
%TO.P,U1,44,REFCAPA*%
%TO.N,Net-(U1-REFCAPA)*%
X182580000Y-83150000D03*
%TO.P,U1,45,REFCAPB*%
X182580000Y-82650000D03*
%TO.P,U1,46,REFGND*%
%TO.N,GND*%
X182580000Y-82150000D03*
%TO.P,U1,47,AGND*%
X182580000Y-81650000D03*
%TO.P,U1,48,AVCC*%
%TO.N,+5V*%
X182580000Y-81150000D03*
D12*
%TO.P,U1,49,V1*%
%TO.N,V1*%
X180650000Y-79220000D03*
%TO.P,U1,50,V1GND*%
%TO.N,GND*%
X180150000Y-79220000D03*
%TO.P,U1,51,V2*%
%TO.N,V2*%
X179650000Y-79220000D03*
%TO.P,U1,52,V2GND*%
%TO.N,GND*%
X179150000Y-79220000D03*
%TO.P,U1,53,V3*%
%TO.N,V3*%
X178650000Y-79220000D03*
%TO.P,U1,54,V3GND*%
%TO.N,GND*%
X178150000Y-79220000D03*
%TO.P,U1,55,V4*%
%TO.N,V4*%
X177650000Y-79220000D03*
%TO.P,U1,56,V4GND*%
%TO.N,GND*%
X177150000Y-79220000D03*
%TO.P,U1,57,V5*%
%TO.N,V5*%
X176650000Y-79220000D03*
%TO.P,U1,58,V5GND*%
%TO.N,GND*%
X176150000Y-79220000D03*
%TO.P,U1,59,V6*%
%TO.N,V6*%
X175650000Y-79220000D03*
%TO.P,U1,60,V6GND*%
%TO.N,GND*%
X175150000Y-79220000D03*
%TO.P,U1,61,V7*%
%TO.N,V7*%
X174650000Y-79220000D03*
%TO.P,U1,62,V7GND*%
%TO.N,GND*%
X174150000Y-79220000D03*
%TO.P,U1,63,V8*%
%TO.N,V8*%
X173650000Y-79220000D03*
%TO.P,U1,64,V8GND*%
%TO.N,GND*%
X173150000Y-79220000D03*
%TD*%
D13*
%TO.P,R5,1*%
%TO.N,STBY*%
X168859000Y-85425000D03*
%TO.P,R5,2*%
%TO.N,GND*%
X167209000Y-85425000D03*
%TD*%
D14*
%TO.P,C7,1*%
%TO.N,Net-(U1-REFCAPA)*%
X185200000Y-82467500D03*
%TO.P,C7,2*%
%TO.N,GND*%
X185200000Y-80917500D03*
%TD*%
D15*
%TO.P,SW2,1,1*%
%TO.N,+3.3V*%
X156685000Y-96300000D03*
%TO.P,SW2,2,2*%
%TO.N,Net-(U1-OS1)*%
X156685000Y-99300000D03*
%TO.P,SW2,3,3*%
%TO.N,GND*%
X156685000Y-100800000D03*
D16*
%TO.P,SW2,SH*%
%TO.N,N/C*%
X155835000Y-94875000D03*
X153635000Y-94875000D03*
X155835000Y-102225000D03*
X153635000Y-102225000D03*
%TD*%
D13*
%TO.P,R4,1*%
%TO.N,RST*%
X168843000Y-87197000D03*
%TO.P,R4,2*%
%TO.N,GND*%
X167193000Y-87197000D03*
%TD*%
D17*
%TO.P,C3,1*%
%TO.N,GND*%
X186575000Y-83900000D03*
%TO.P,C3,2*%
%TO.N,REFIN{slash}REFOUT*%
X185025000Y-83900000D03*
%TD*%
D18*
%TO.P,C9,1*%
%TO.N,GND*%
X185897500Y-86500000D03*
%TO.P,C9,2*%
%TO.N,+5V*%
X184937500Y-86500000D03*
%TD*%
D19*
%TO.P,R1,1*%
%TO.N,OS0*%
X167290000Y-82100000D03*
%TO.P,R1,2*%
%TO.N,Net-(U1-OS0)*%
X168310000Y-82100000D03*
%TD*%
D15*
%TO.P,SW3,1,1*%
%TO.N,+3.3V*%
X163910000Y-96300000D03*
%TO.P,SW3,2,2*%
%TO.N,Net-(U1-OS2)*%
X163910000Y-99300000D03*
%TO.P,SW3,3,3*%
%TO.N,GND*%
X163910000Y-100800000D03*
D16*
%TO.P,SW3,SH*%
%TO.N,N/C*%
X163060000Y-94875000D03*
X160860000Y-94875000D03*
X163060000Y-102225000D03*
X160860000Y-102225000D03*
%TD*%
D20*
%TO.P,U4,1,1*%
%TO.N,DB0*%
X168250000Y-99775000D03*
%TO.P,U4,2,2*%
%TO.N,DB1*%
X169250000Y-99775000D03*
%TO.P,U4,3,3*%
%TO.N,DB2*%
X170250000Y-99775000D03*
%TO.P,U4,4,4*%
%TO.N,DB3*%
X171250000Y-99775000D03*
%TO.P,U4,5,5*%
%TO.N,DB4*%
X172250000Y-99775000D03*
%TO.P,U4,6,6*%
%TO.N,DB5*%
X173250000Y-99775000D03*
%TO.P,U4,7,7*%
%TO.N,DB6*%
X174250000Y-99775000D03*
%TO.P,U4,8,8*%
%TO.N,DB7{slash}DOUTA*%
X175250000Y-99775000D03*
D21*
%TO.P,U4,MP*%
%TO.N,N/C*%
X166950000Y-103650000D03*
X176550000Y-103650000D03*
%TD*%
D18*
%TO.P,C6,1*%
%TO.N,GND*%
X185897500Y-85450000D03*
%TO.P,C6,2*%
%TO.N,Net-(C6-Pad2)*%
X184937500Y-85450000D03*
%TD*%
%TO.P,C2,1*%
%TO.N,GND*%
X185890000Y-87500000D03*
%TO.P,C2,2*%
%TO.N,Net-(C2-Pad2)*%
X184930000Y-87500000D03*
%TD*%
%TO.P,C4,1*%
%TO.N,GND*%
X170737500Y-79525000D03*
%TO.P,C4,2*%
%TO.N,+5V*%
X169777500Y-79525000D03*
%TD*%
D22*
%TO.P,C12,1*%
%TO.N,+3.3V*%
X190122500Y-92152500D03*
%TO.P,C12,2*%
%TO.N,GND*%
X190122500Y-93112500D03*
%TD*%
D20*
%TO.P,U3,1,1*%
%TO.N,DB8DOUTB*%
X180200000Y-99775000D03*
%TO.P,U3,2,2*%
%TO.N,DB9*%
X181200000Y-99775000D03*
%TO.P,U3,3,3*%
%TO.N,DB10*%
X182200000Y-99775000D03*
%TO.P,U3,4,4*%
%TO.N,DB11*%
X183200000Y-99775000D03*
%TO.P,U3,5,5*%
%TO.N,DB12*%
X184200000Y-99775000D03*
%TO.P,U3,6,6*%
%TO.N,DB13*%
X185200000Y-99775000D03*
%TO.P,U3,7,7*%
%TO.N,DB14*%
X186200000Y-99775000D03*
%TO.P,U3,8,8*%
%TO.N,DB15*%
X187200000Y-99775000D03*
D21*
%TO.P,U3,MP*%
%TO.N,N/C*%
X178900000Y-103650000D03*
X188500000Y-103650000D03*
%TD*%
D19*
%TO.P,R3,1*%
%TO.N,OS2*%
X167290000Y-84100000D03*
%TO.P,R3,2*%
%TO.N,Net-(U1-OS2)*%
X168310000Y-84100000D03*
%TD*%
D23*
%TO.P,C8,1*%
%TO.N,GND*%
X183020000Y-79606250D03*
%TO.P,C8,2*%
%TO.N,+5V*%
X183980000Y-79606250D03*
%TD*%
D24*
%TO.P,J2,1,Pin_1*%
%TO.N,STBY*%
X142150000Y-74430000D03*
D25*
%TO.P,J2,2,Pin_2*%
%TO.N,CONVST*%
X142150000Y-76970000D03*
%TO.P,J2,3,Pin_3*%
%TO.N,RST*%
X142150000Y-79510000D03*
%TO.P,J2,4,Pin_4*%
%TO.N,SCLK{slash}RD*%
X142150000Y-82050000D03*
%TO.P,J2,5,Pin_5*%
%TO.N,OS0*%
X142150000Y-84590000D03*
%TO.P,J2,6,Pin_6*%
%TO.N,OS1*%
X142150000Y-87130000D03*
%TO.P,J2,7,Pin_7*%
%TO.N,OS2*%
X142150000Y-89670000D03*
%TO.P,J2,8,Pin_8*%
%TO.N,CS*%
X142150000Y-92210000D03*
%TO.P,J2,9,Pin_9*%
%TO.N,BUSY*%
X142150000Y-94750000D03*
%TO.P,J2,10,Pin_10*%
%TO.N,FRSTDATA*%
X142150000Y-97290000D03*
%TO.P,J2,11,Pin_11*%
%TO.N,+5V*%
X142150000Y-99830000D03*
%TO.P,J2,12,Pin_12*%
%TO.N,GND*%
X142150000Y-102370000D03*
%TD*%
D26*
%TO.P,U2,1,1*%
%TO.N,V1*%
X181330000Y-73320294D03*
%TO.P,U2,2,2*%
%TO.N,V2*%
X180080000Y-73320294D03*
%TO.P,U2,3,3*%
%TO.N,V3*%
X178830000Y-73320294D03*
%TO.P,U2,4,4*%
%TO.N,V4*%
X177580000Y-73320294D03*
%TO.P,U2,5,5*%
%TO.N,V5*%
X176330000Y-73320294D03*
%TO.P,U2,6,6*%
%TO.N,V6*%
X175080000Y-73320294D03*
%TO.P,U2,7,7*%
%TO.N,V7*%
X173830000Y-73320294D03*
%TO.P,U2,8,8*%
%TO.N,V8*%
X172580000Y-73320294D03*
D27*
%TO.P,U2,MP*%
%TO.N,N/C*%
X183180000Y-70120294D03*
X170730000Y-70120294D03*
%TD*%
D28*
%TO.P,C5,1*%
%TO.N,GND*%
X175850000Y-94367500D03*
%TO.P,C5,2*%
%TO.N,+3.3V*%
X175850000Y-93232500D03*
%TD*%
D15*
%TO.P,SW1,1,1*%
%TO.N,+3.3V*%
X149585000Y-96275000D03*
%TO.P,SW1,2,2*%
%TO.N,Net-(U1-OS0)*%
X149585000Y-99275000D03*
%TO.P,SW1,3,3*%
%TO.N,GND*%
X149585000Y-100775000D03*
D16*
%TO.P,SW1,SH*%
%TO.N,N/C*%
X148735000Y-94850000D03*
X146535000Y-94850000D03*
X148735000Y-102200000D03*
X146535000Y-102200000D03*
%TD*%
D29*
%TO.P,VR1,1,IN*%
%TO.N,+5V*%
X185620000Y-92075000D03*
%TO.P,VR1,2,GND*%
%TO.N,GND*%
X185620000Y-93025000D03*
%TO.P,VR1,3,EN*%
%TO.N,+5V*%
X185620000Y-93975000D03*
%TO.P,VR1,4*%
%TO.N,N/C*%
X188130000Y-93975000D03*
%TO.P,VR1,5,OUT*%
%TO.N,+3.3V*%
X188130000Y-92075000D03*
%TD*%
D26*
%TO.P,U5,1,1*%
%TO.N,+5V*%
X160605000Y-73420294D03*
%TO.P,U5,2,2*%
%TO.N,GND*%
X159355000Y-73420294D03*
D27*
%TO.P,U5,MP*%
%TO.N,N/C*%
X162455000Y-70220294D03*
X157505000Y-70220294D03*
%TD*%
D22*
%TO.P,C11,1*%
%TO.N,+5V*%
X183600000Y-92152500D03*
%TO.P,C11,2*%
%TO.N,GND*%
X183600000Y-93112500D03*
%TD*%
D19*
%TO.P,R2,1*%
%TO.N,OS1*%
X167290000Y-83100000D03*
%TO.P,R2,2*%
%TO.N,Net-(U1-OS1)*%
X168310000Y-83100000D03*
%TD*%
D30*
%TO.N,GND*%
X175850000Y-95142500D03*
X186892500Y-87500000D03*
D31*
X165150000Y-100800000D03*
D30*
X186750000Y-93015000D03*
X186900000Y-85450000D03*
X179150000Y-80550000D03*
X159355000Y-72170294D03*
X174150000Y-80550000D03*
D31*
X166200000Y-86300000D03*
D30*
X159355000Y-74695294D03*
X173370000Y-83970000D03*
X178150000Y-80550000D03*
X189305000Y-93197500D03*
X187200000Y-82725000D03*
X176150000Y-80550000D03*
X175150000Y-80550000D03*
X181250000Y-85200000D03*
X186475000Y-82725000D03*
X177650000Y-89300000D03*
X183020000Y-80360000D03*
D31*
X157925000Y-100800000D03*
D30*
X181320000Y-87525000D03*
X184417500Y-93200000D03*
X170740000Y-80320000D03*
X177150000Y-80550000D03*
D31*
X150825000Y-100775000D03*
D30*
X181250000Y-82000000D03*
X181250000Y-83650000D03*
X181250000Y-84550000D03*
X180150000Y-80550000D03*
X172499999Y-83066117D03*
X184290000Y-81380000D03*
X172500000Y-81900000D03*
X186900000Y-86500000D03*
X172950000Y-77775000D03*
%TO.N,+5V*%
X181250000Y-86400000D03*
X181250000Y-80950000D03*
X160605000Y-74695294D03*
X169825000Y-80850000D03*
X184400000Y-92075000D03*
X172375000Y-80725000D03*
X160605000Y-72170294D03*
D31*
X185630000Y-94830000D03*
%TO.N,+3.3V*%
X150750000Y-95950000D03*
D30*
X189300000Y-92065000D03*
D31*
X157850000Y-95975000D03*
X165075000Y-95975000D03*
D30*
%TO.N,Net-(U1-OS0)*%
X164100000Y-88675000D03*
X169175000Y-82100000D03*
%TO.N,Net-(U1-OS1)*%
X169225000Y-83125000D03*
X164100000Y-89475000D03*
%TO.N,Net-(U1-OS2)*%
X169225000Y-84125000D03*
X164100000Y-90275003D03*
%TO.N,STBY*%
X173450000Y-82800000D03*
%TO.N,BUSY*%
X173410000Y-88290414D03*
%TO.N,CONVST*%
X173410000Y-85090411D03*
%TO.N,CS*%
X173410000Y-87490414D03*
%TO.N,FRSTDATA*%
X173410000Y-89090000D03*
%TO.N,SCLK{slash}RD*%
X173410000Y-86690414D03*
%TO.N,RST*%
X173410000Y-85890414D03*
%TD*%
D32*
%TO.N,GND*%
X175850000Y-94367500D02*
X175850000Y-95142500D01*
D33*
X157925000Y-100800000D02*
X156685000Y-100800000D01*
X165150000Y-100800000D02*
X163910000Y-100800000D01*
D34*
X179150000Y-79220000D02*
X179150000Y-80550000D01*
X177650000Y-90580000D02*
X177650000Y-89300000D01*
X182580000Y-83650000D02*
X181300000Y-83650000D01*
X173150000Y-79220000D02*
X173150000Y-77975000D01*
X181350000Y-84650000D02*
X182580000Y-84650000D01*
D33*
X181350000Y-81900000D02*
X181250000Y-82000000D01*
D34*
X175150000Y-79220000D02*
X175150000Y-80550000D01*
D33*
X186750000Y-93015000D02*
X185630000Y-93015000D01*
D34*
X172250000Y-81650000D02*
X171220000Y-81650000D01*
D33*
X183010000Y-80350000D02*
X183020000Y-80360000D01*
X186900000Y-85450000D02*
X185985000Y-85450000D01*
D34*
X173130000Y-83970000D02*
X172450000Y-84650000D01*
D33*
X184545000Y-81125000D02*
X184290000Y-81380000D01*
D34*
X172500000Y-81900000D02*
X172250000Y-81650000D01*
X182580000Y-85150000D02*
X181300000Y-85150000D01*
D33*
X167097000Y-87197000D02*
X166200000Y-86300000D01*
X183720000Y-93200000D02*
X184417500Y-93200000D01*
D34*
X173386207Y-83953793D02*
X173370000Y-83970000D01*
X181320000Y-87525000D02*
X181445000Y-87650000D01*
X181300000Y-85150000D02*
X181250000Y-85200000D01*
X189307500Y-93200000D02*
X189305000Y-93197500D01*
D33*
X150825000Y-100775000D02*
X149585000Y-100775000D01*
X170740000Y-80320000D02*
X170740000Y-79520000D01*
D34*
X172500000Y-81900000D02*
X172500000Y-83237752D01*
D33*
X167075000Y-85425000D02*
X166200000Y-86300000D01*
D34*
X172087752Y-83650000D02*
X171220000Y-83650000D01*
X181250000Y-84550000D02*
X181350000Y-84650000D01*
D33*
X186892500Y-87500000D02*
X185977500Y-87500000D01*
D34*
X178150000Y-79220000D02*
X178150000Y-80550000D01*
D33*
X190122500Y-93200000D02*
X189307500Y-93200000D01*
X182550000Y-81900000D02*
X181350000Y-81900000D01*
X186900000Y-86500000D02*
X185985000Y-86500000D01*
D34*
X172500000Y-83237752D02*
X172087752Y-83650000D01*
X176150000Y-79220000D02*
X176150000Y-80550000D01*
D35*
X159355000Y-72170294D02*
X159355000Y-74695294D01*
D34*
X172450000Y-84650000D02*
X171220000Y-84650000D01*
X181445000Y-87650000D02*
X182580000Y-87650000D01*
X173370000Y-83970000D02*
X173130000Y-83970000D01*
D33*
X183010000Y-79606250D02*
X183010000Y-80350000D01*
X185200000Y-81125000D02*
X184545000Y-81125000D01*
D34*
X177150000Y-79220000D02*
X177150000Y-80550000D01*
X180150000Y-79220000D02*
X180150000Y-80550000D01*
X173150000Y-77975000D02*
X172950000Y-77775000D01*
X173386207Y-83947677D02*
X173386207Y-83953793D01*
X174150000Y-79220000D02*
X174150000Y-80550000D01*
%TO.N,+5V*%
X169825000Y-80850000D02*
X169707500Y-80732500D01*
X181250000Y-80950000D02*
X181450000Y-81150000D01*
X172250000Y-81150000D02*
X171220000Y-81150000D01*
D33*
X185620000Y-92075000D02*
X183610000Y-92075000D01*
D34*
X169825000Y-80850000D02*
X170125000Y-81150000D01*
D10*
X182600000Y-86400000D02*
X182700000Y-86500000D01*
D34*
X183550000Y-81150000D02*
X184067500Y-80632500D01*
X170125000Y-81150000D02*
X171220000Y-81150000D01*
X172375000Y-80725000D02*
X172375000Y-81025000D01*
D33*
X181200000Y-86400000D02*
X182600000Y-86400000D01*
D35*
X160605000Y-72170294D02*
X160605000Y-74695294D01*
D34*
X181450000Y-81150000D02*
X182580000Y-81150000D01*
X185620000Y-93975000D02*
X185620000Y-94820000D01*
X182580000Y-81150000D02*
X183550000Y-81150000D01*
X169707500Y-80732500D02*
X169707500Y-79542500D01*
X172375000Y-81025000D02*
X172250000Y-81150000D01*
X184067500Y-80632500D02*
X184067500Y-79900000D01*
X182700000Y-86500000D02*
X184850000Y-86500000D01*
%TO.N,Net-(C2-Pad2)*%
X184930000Y-87500000D02*
X184350000Y-87500000D01*
X184350000Y-87500000D02*
X184000000Y-87150000D01*
X184000000Y-87150000D02*
X182580000Y-87150000D01*
%TO.N,Net-(U1-REFCAPA)*%
X183550000Y-82900000D02*
X184190000Y-82260000D01*
X184190000Y-82260000D02*
X185200000Y-82260000D01*
X182600000Y-82900000D02*
X183550000Y-82900000D01*
%TO.N,REFIN{slash}REFOUT*%
X182580000Y-84150000D02*
X184762500Y-84150000D01*
D33*
%TO.N,+3.3V*%
X150425000Y-96275000D02*
X150750000Y-95950000D01*
D34*
X189300000Y-91350000D02*
X186100000Y-88150000D01*
X176150000Y-90580000D02*
X176150000Y-92932500D01*
D33*
X156685000Y-96300000D02*
X157525000Y-96300000D01*
X163910000Y-96300000D02*
X164750000Y-96300000D01*
X149585000Y-96275000D02*
X150425000Y-96275000D01*
D34*
X176150000Y-92932500D02*
X175850000Y-93232500D01*
D33*
X190122500Y-92065000D02*
X188447500Y-92065000D01*
X157525000Y-96300000D02*
X157850000Y-95975000D01*
D34*
X177325000Y-88150000D02*
X176150000Y-89325000D01*
X176150000Y-90580000D02*
X176150000Y-89325000D01*
X189300000Y-92065000D02*
X189300000Y-91350000D01*
X186100000Y-88150000D02*
X182580000Y-88150000D01*
X182580000Y-88150000D02*
X177325000Y-88150000D01*
D33*
X164750000Y-96300000D02*
X165075000Y-95975000D01*
D10*
%TO.N,Net-(U1-OS0)*%
X169175000Y-82100000D02*
X168397500Y-82100000D01*
D34*
X152185000Y-97750000D02*
X150660000Y-99275000D01*
X157960000Y-88675000D02*
X152185000Y-94450000D01*
X150660000Y-99275000D02*
X149585000Y-99275000D01*
X152185000Y-94450000D02*
X152185000Y-97750000D01*
D10*
X169225000Y-82150000D02*
X169175000Y-82100000D01*
X171220000Y-82150000D02*
X169225000Y-82150000D01*
D34*
X164100000Y-88675000D02*
X157960000Y-88675000D01*
%TO.N,OS0*%
X144640000Y-82100000D02*
X142150000Y-84590000D01*
X167202500Y-82100000D02*
X144640000Y-82100000D01*
%TO.N,Net-(U1-OS1)*%
X160603000Y-89478000D02*
X158985000Y-91096000D01*
X169225000Y-83125000D02*
X168422500Y-83125000D01*
X164100000Y-89475000D02*
X164097000Y-89478000D01*
X169225000Y-83125000D02*
X169700000Y-82650000D01*
X158985000Y-97000000D02*
X156685000Y-99300000D01*
X164097000Y-89478000D02*
X160603000Y-89478000D01*
X169700000Y-82650000D02*
X171220000Y-82650000D01*
X158985000Y-91096000D02*
X158985000Y-97000000D01*
%TO.N,OS1*%
X167202500Y-83100000D02*
X146180000Y-83100000D01*
X146180000Y-83100000D02*
X142150000Y-87130000D01*
%TO.N,Net-(U1-OS2)*%
X159985000Y-96942215D02*
X162342785Y-99300000D01*
X169225000Y-84125000D02*
X169225000Y-84075000D01*
X159985000Y-92075003D02*
X159985000Y-96942215D01*
X169225000Y-84075000D02*
X170150000Y-83150000D01*
X170150000Y-83150000D02*
X171220000Y-83150000D01*
X161785000Y-90275003D02*
X159985000Y-92075003D01*
X162342785Y-99300000D02*
X163910000Y-99300000D01*
X164100000Y-90275003D02*
X161785000Y-90275003D01*
X169225000Y-84125000D02*
X168422500Y-84125000D01*
%TO.N,OS2*%
X147720000Y-84100000D02*
X142150000Y-89670000D01*
X167202500Y-84100000D02*
X147720000Y-84100000D01*
%TO.N,DB1*%
X169250000Y-95350000D02*
X169250000Y-99775000D01*
X173150000Y-90580000D02*
X173150000Y-91450000D01*
X173150000Y-91450000D02*
X169250000Y-95350000D01*
%TO.N,DB2*%
X173650000Y-90580000D02*
X173650000Y-91600000D01*
X170250000Y-95000000D02*
X170250000Y-99775000D01*
X173650000Y-91600000D02*
X170250000Y-95000000D01*
%TO.N,STBY*%
X172300000Y-84150000D02*
X173450000Y-83000000D01*
X171220000Y-84150000D02*
X170134000Y-84150000D01*
X171150000Y-84150000D02*
X172300000Y-84150000D01*
X170134000Y-84150000D02*
X168859000Y-85425000D01*
X173450000Y-83000000D02*
X173450000Y-82800000D01*
%TO.N,DB9*%
X178150000Y-90580000D02*
X178150000Y-94400000D01*
X178150000Y-94400000D02*
X181200000Y-97450000D01*
X181200000Y-97450000D02*
X181200000Y-99775000D01*
%TO.N,DB6*%
X175650000Y-90580000D02*
X175650000Y-92250000D01*
X174250000Y-93650000D02*
X174250000Y-99775000D01*
X175650000Y-92250000D02*
X174250000Y-93650000D01*
%TO.N,DB15*%
X181200000Y-89000000D02*
X181200000Y-92047546D01*
X182580000Y-88650000D02*
X181550000Y-88650000D01*
X187200000Y-98047546D02*
X187200000Y-99775000D01*
X181550000Y-88650000D02*
X181200000Y-89000000D01*
X181200000Y-92047546D02*
X187200000Y-98047546D01*
%TO.N,BUSY*%
X172351471Y-87650000D02*
X172991885Y-88290414D01*
X171220000Y-87650000D02*
X172351471Y-87650000D01*
X172991885Y-88290414D02*
X173410000Y-88290414D01*
%TO.N,DB12*%
X179650000Y-90580000D02*
X179650000Y-93300000D01*
X184200000Y-97850000D02*
X184200000Y-99775000D01*
X179650000Y-93300000D02*
X184200000Y-97850000D01*
%TO.N,CONVST*%
X171220000Y-85650000D02*
X172200000Y-85650000D01*
X171220000Y-85150000D02*
X172700000Y-85150000D01*
X172759589Y-85090411D02*
X173410000Y-85090411D01*
X172200000Y-85650000D02*
X172759589Y-85090411D01*
%TO.N,V2*%
X179650000Y-79220000D02*
X179650000Y-77425000D01*
X180080000Y-76995000D02*
X180080000Y-73320294D01*
X179650000Y-77425000D02*
X180080000Y-76995000D01*
%TO.N,DB0*%
X170150000Y-88650000D02*
X168250000Y-90550000D01*
X168250000Y-90550000D02*
X168250000Y-99775000D01*
X171220000Y-88650000D02*
X170150000Y-88650000D01*
D10*
%TO.N,V4*%
X177650000Y-73390294D02*
X177580000Y-73320294D01*
D34*
X177650000Y-79220000D02*
X177650000Y-73390294D01*
%TO.N,CS*%
X171220000Y-87150000D02*
X172700000Y-87150000D01*
X172700000Y-87150000D02*
X173040414Y-87490414D01*
X173040414Y-87490414D02*
X173410000Y-87490414D01*
%TO.N,V6*%
X175650000Y-77000000D02*
X175080000Y-76430000D01*
X175080000Y-76430000D02*
X175080000Y-73320294D01*
X175650000Y-79220000D02*
X175650000Y-77000000D01*
%TO.N,DB3*%
X174150000Y-90580000D02*
X174150000Y-91750000D01*
X171250000Y-94650000D02*
X171250000Y-99775000D01*
X174150000Y-91750000D02*
X171250000Y-94650000D01*
%TO.N,V5*%
X176330000Y-77005000D02*
X176330000Y-73320294D01*
X176650000Y-77325000D02*
X176330000Y-77005000D01*
X176650000Y-79220000D02*
X176650000Y-77325000D01*
%TO.N,DB10*%
X178650000Y-94000000D02*
X182200000Y-97550000D01*
X182200000Y-97550000D02*
X182200000Y-99775000D01*
X178650000Y-90580000D02*
X178650000Y-94000000D01*
%TO.N,DB7{slash}DOUTA*%
X176650000Y-97325000D02*
X175250000Y-98725000D01*
X176650000Y-90580000D02*
X176650000Y-97325000D01*
X175250000Y-98725000D02*
X175250000Y-99775000D01*
%TO.N,DB13*%
X185200000Y-97900000D02*
X185200000Y-99775000D01*
X180150000Y-90580000D02*
X180150000Y-92850000D01*
X180150000Y-92850000D02*
X185200000Y-97900000D01*
%TO.N,V1*%
X180650000Y-79220000D02*
X180650000Y-77450000D01*
X181330000Y-76770000D02*
X181330000Y-73320294D01*
X180650000Y-77450000D02*
X181330000Y-76770000D01*
%TO.N,DB14*%
X180650000Y-92475240D02*
X186200000Y-98025240D01*
X186200000Y-98025240D02*
X186200000Y-99775000D01*
X180650000Y-90580000D02*
X180650000Y-92475240D01*
%TO.N,DB4*%
X174650000Y-90580000D02*
X174650000Y-91950000D01*
X172250000Y-94350000D02*
X172250000Y-99775000D01*
X174650000Y-91950000D02*
X172250000Y-94350000D01*
%TO.N,DB8DOUTB*%
X177150000Y-94250000D02*
X180200000Y-97300000D01*
X177150000Y-90580000D02*
X177150000Y-94250000D01*
X180200000Y-97300000D02*
X180200000Y-99775000D01*
%TO.N,DB11*%
X183200000Y-97700000D02*
X183200000Y-99775000D01*
X179150000Y-90580000D02*
X179150000Y-93650000D01*
X179150000Y-93650000D02*
X183200000Y-97700000D01*
%TO.N,FRSTDATA*%
X172215075Y-88150000D02*
X173155075Y-89090000D01*
X173155075Y-89090000D02*
X173410000Y-89090000D01*
X171220000Y-88150000D02*
X172215075Y-88150000D01*
%TO.N,V7*%
X174650000Y-79220000D02*
X174650000Y-77300000D01*
X174650000Y-77300000D02*
X173830000Y-76480000D01*
X173830000Y-76480000D02*
X173830000Y-73320294D01*
%TO.N,DB5*%
X175150000Y-90580000D02*
X175150000Y-92100000D01*
X175150000Y-92100000D02*
X173250000Y-94000000D01*
X173250000Y-94000000D02*
X173250000Y-99775000D01*
%TO.N,V3*%
X178830000Y-77070000D02*
X178830000Y-73320294D01*
X178650000Y-79220000D02*
X178650000Y-77250000D01*
X178650000Y-77250000D02*
X178830000Y-77070000D01*
%TO.N,V8*%
X173650000Y-79220000D02*
X173650000Y-77475000D01*
X172580000Y-76405000D02*
X172580000Y-73320294D01*
X173650000Y-77475000D02*
X172580000Y-76405000D01*
%TO.N,SCLK{slash}RD*%
X172740414Y-86690414D02*
X173410000Y-86690414D01*
X172700000Y-86650000D02*
X172740414Y-86690414D01*
X171220000Y-86650000D02*
X172700000Y-86650000D01*
%TO.N,RST*%
X172611057Y-85890414D02*
X173410000Y-85890414D01*
X171220000Y-86150000D02*
X172351471Y-86150000D01*
X171220000Y-86150000D02*
X169890000Y-86150000D01*
X169890000Y-86150000D02*
X168843000Y-87197000D01*
X172351471Y-86150000D02*
X172611057Y-85890414D01*
%TO.N,Net-(C6-Pad2)*%
X183700000Y-85450000D02*
X183500000Y-85650000D01*
X183500000Y-85650000D02*
X182580000Y-85650000D01*
X184850000Y-85450000D02*
X183700000Y-85450000D01*
%TD*%
M02*
