%TF.GenerationSoftware,KiCad,Pcbnew,9.0.4*%
%TF.CreationDate,2026-01-29T02:05:23+03:00*%
%TF.ProjectId,EMG sensors,454d4720-7365-46e7-936f-72732e6b6963,rev?*%
%TF.SameCoordinates,Original*%
%TF.FileFunction,Copper,L2,Inr*%
%TF.FilePolarity,Positive*%
%FSLAX46Y46*%
G04 Gerber Fmt 4.6, Leading zero omitted, Abs format (unit mm)*
G04 Created by KiCad (PCBNEW 9.0.4) date 2026-01-29 02:05:23*
%MOMM*%
%LPD*%
G01*
G04 APERTURE LIST*
G04 Aperture macros list*
%AMRoundRect*
0 Rectangle with rounded corners*
0 $1 Rounding radius*
0 $2 $3 $4 $5 $6 $7 $8 $9 X,Y pos of 4 corners*
0 Add a 4 corners polygon primitive as box body*
4,1,4,$2,$3,$4,$5,$6,$7,$8,$9,$2,$3,0*
0 Add four circle primitives for the rounded corners*
1,1,$1+$1,$2,$3*
1,1,$1+$1,$4,$5*
1,1,$1+$1,$6,$7*
1,1,$1+$1,$8,$9*
0 Add four rect primitives between the rounded corners*
20,1,$1+$1,$2,$3,$4,$5,0*
20,1,$1+$1,$4,$5,$6,$7,0*
20,1,$1+$1,$6,$7,$8,$9,0*
20,1,$1+$1,$8,$9,$2,$3,0*%
G04 Aperture macros list end*
%TA.AperFunction,ComponentPad*%
%ADD10C,3.000000*%
%TD*%
%TA.AperFunction,ComponentPad*%
%ADD11RoundRect,0.270000X-0.980000X-0.630000X0.980000X-0.630000X0.980000X0.630000X-0.980000X0.630000X0*%
%TD*%
%TA.AperFunction,ComponentPad*%
%ADD12R,1.218000X1.218000*%
%TD*%
%TA.AperFunction,ComponentPad*%
%ADD13C,1.218000*%
%TD*%
%TA.AperFunction,ComponentPad*%
%ADD14RoundRect,0.270000X0.980000X0.630000X-0.980000X0.630000X-0.980000X-0.630000X0.980000X-0.630000X0*%
%TD*%
%TA.AperFunction,ComponentPad*%
%ADD15C,4.000000*%
%TD*%
%TA.AperFunction,ViaPad*%
%ADD16C,0.800000*%
%TD*%
%TA.AperFunction,Conductor*%
%ADD17C,0.300000*%
%TD*%
G04 APERTURE END LIST*
D10*
%TO.N,Net-(J2-Pin_1)*%
%TO.C,J2*%
X119899300Y-102287500D03*
D11*
%TO.N,N/C*%
X109274300Y-99112500D03*
X109274300Y-105462500D03*
%TD*%
D12*
%TO.N,Net-(U5-NEGA)*%
%TO.C,VR1*%
X130221800Y-105587500D03*
D13*
X132761800Y-105587500D03*
%TO.N,INVERTED*%
X135301800Y-105587500D03*
%TD*%
D10*
%TO.N,/AEMG*%
%TO.C,J4*%
X142000000Y-101925000D03*
D14*
%TO.N,N/C*%
X152625000Y-105100000D03*
X152625000Y-98750000D03*
%TD*%
D15*
%TO.N,Vin2*%
%TO.C,U2*%
X151457000Y-110525000D03*
%TD*%
%TO.N,Vin1*%
%TO.C,U1*%
X112000000Y-110550000D03*
%TD*%
D16*
%TO.N,GND*%
X125200000Y-112150000D03*
X131850000Y-112525000D03*
X145770200Y-115410000D03*
X145770200Y-116240500D03*
X146960000Y-115410000D03*
X157950000Y-110800000D03*
X141200000Y-116290000D03*
X131850000Y-115300000D03*
X143527000Y-109939000D03*
X141156000Y-112131000D03*
X154950000Y-110800000D03*
X142300000Y-115438000D03*
X125250000Y-113600000D03*
X131850000Y-113443850D03*
X131850000Y-114375000D03*
X125450000Y-116687500D03*
X120562500Y-109770000D03*
X136075000Y-113586100D03*
X142300000Y-116290000D03*
X141156000Y-111031000D03*
X120275000Y-116687500D03*
%TO.N,non-filtered*%
X139607000Y-118067000D03*
X139607000Y-116010000D03*
%TO.N,/+2.5V*%
X136075000Y-115300000D03*
X145953000Y-117963000D03*
X122300000Y-109600000D03*
X154950000Y-109550000D03*
X116361800Y-110487750D03*
X115261800Y-109312500D03*
X117561800Y-109312500D03*
X157950000Y-109550000D03*
%TO.N,/-2.5V*%
X125250000Y-115325000D03*
X157950000Y-112050000D03*
X131642200Y-110925000D03*
X142122000Y-113728000D03*
X154950000Y-112050000D03*
%TD*%
D17*
%TO.N,non-filtered*%
X139607000Y-118067000D02*
X139607000Y-116010000D01*
%TD*%
%TA.AperFunction,Conductor*%
%TO.N,GND*%
G36*
X150428203Y-97470185D02*
G01*
X150473958Y-97522989D01*
X150483902Y-97592147D01*
X150474063Y-97625781D01*
X150440949Y-97698681D01*
X150385070Y-97920447D01*
X150374500Y-98054747D01*
X150374500Y-99445238D01*
X150374501Y-99445253D01*
X150380261Y-99518439D01*
X150385070Y-99579553D01*
X150440949Y-99801316D01*
X150488238Y-99905426D01*
X150535528Y-100009537D01*
X150535531Y-100009543D01*
X150665759Y-100197514D01*
X150665763Y-100197519D01*
X150665766Y-100197523D01*
X150827477Y-100359234D01*
X150827481Y-100359237D01*
X150827485Y-100359240D01*
X151015456Y-100489468D01*
X151015462Y-100489471D01*
X151015463Y-100489471D01*
X151015464Y-100489472D01*
X151223684Y-100584051D01*
X151445447Y-100639930D01*
X151579753Y-100650500D01*
X153670246Y-100650499D01*
X153804553Y-100639930D01*
X154026316Y-100584051D01*
X154234536Y-100489472D01*
X154234538Y-100489470D01*
X154234543Y-100489468D01*
X154422514Y-100359240D01*
X154422523Y-100359234D01*
X154584234Y-100197523D01*
X154630285Y-100131052D01*
X154714468Y-100009543D01*
X154714471Y-100009537D01*
X154714472Y-100009536D01*
X154809051Y-99801316D01*
X154864930Y-99579553D01*
X154875500Y-99445247D01*
X154875499Y-98202749D01*
X154883119Y-98176796D01*
X154887250Y-98150061D01*
X154892817Y-98143769D01*
X154895184Y-98135711D01*
X154915626Y-98117996D01*
X154933555Y-98097739D01*
X154941638Y-98095457D01*
X154947987Y-98089956D01*
X154974764Y-98086105D01*
X155000797Y-98078757D01*
X155012886Y-98080624D01*
X155017146Y-98080012D01*
X155035677Y-98084145D01*
X155173708Y-98126249D01*
X155180016Y-98128362D01*
X155838858Y-98369032D01*
X155845076Y-98371496D01*
X156489918Y-98647480D01*
X156495995Y-98650278D01*
X157124911Y-98960751D01*
X157130846Y-98963883D01*
X157367157Y-99096913D01*
X157742052Y-99307959D01*
X157747813Y-99311411D01*
X157958059Y-99445253D01*
X158218735Y-99611199D01*
X158339487Y-99688069D01*
X158345046Y-99691824D01*
X158507069Y-99807753D01*
X158915444Y-100099950D01*
X158920798Y-100104004D01*
X159468271Y-100542418D01*
X159473398Y-100546756D01*
X159995026Y-101012999D01*
X159996338Y-101014171D01*
X160001217Y-101018775D01*
X160498114Y-101513845D01*
X160502717Y-101518687D01*
X160912724Y-101974014D01*
X160972049Y-102039896D01*
X160976406Y-102045006D01*
X161416839Y-102590868D01*
X161420913Y-102596207D01*
X161831139Y-103165100D01*
X161834918Y-103170651D01*
X162213750Y-103760930D01*
X162217223Y-103766678D01*
X162563539Y-104376596D01*
X162566695Y-104382524D01*
X162879487Y-105010302D01*
X162882316Y-105016386D01*
X162966289Y-105210607D01*
X163160663Y-105660179D01*
X163163160Y-105666413D01*
X163406239Y-106324322D01*
X163408395Y-106330682D01*
X163615505Y-107000801D01*
X163617313Y-107007269D01*
X163787831Y-107687586D01*
X163789287Y-107694141D01*
X163922729Y-108382718D01*
X163923828Y-108389344D01*
X164019795Y-109084140D01*
X164020533Y-109090815D01*
X164078743Y-109789769D01*
X164079119Y-109796474D01*
X164099403Y-110497552D01*
X164099416Y-110504267D01*
X164081714Y-111205451D01*
X164081362Y-111212158D01*
X164025727Y-111911319D01*
X164025013Y-111917997D01*
X163931607Y-112613124D01*
X163930533Y-112619753D01*
X163799630Y-113308806D01*
X163798199Y-113315367D01*
X163630181Y-113996338D01*
X163628396Y-114002812D01*
X163423756Y-114673689D01*
X163421625Y-114680049D01*
X163346638Y-114885331D01*
X163180974Y-115338840D01*
X163178500Y-115345083D01*
X162902524Y-115989907D01*
X162899715Y-115996007D01*
X162589248Y-116624911D01*
X162586114Y-116630850D01*
X162242040Y-117242052D01*
X162238588Y-117247813D01*
X161861930Y-117839487D01*
X161858171Y-117845052D01*
X161450049Y-118415444D01*
X161445995Y-118420798D01*
X161007581Y-118968271D01*
X161003243Y-118973398D01*
X160535828Y-119496338D01*
X160531219Y-119501222D01*
X160036167Y-119998102D01*
X160031299Y-120002729D01*
X159510103Y-120472049D01*
X159504993Y-120476406D01*
X158959131Y-120916839D01*
X158953792Y-120920913D01*
X158384899Y-121331139D01*
X158379348Y-121334918D01*
X157789069Y-121713750D01*
X157783321Y-121717223D01*
X157173403Y-122063539D01*
X157167475Y-122066695D01*
X156539697Y-122379487D01*
X156533607Y-122382319D01*
X155889820Y-122660663D01*
X155883586Y-122663160D01*
X155225677Y-122906239D01*
X155219317Y-122908395D01*
X154549198Y-123115505D01*
X154542730Y-123117313D01*
X153862413Y-123287831D01*
X153855858Y-123289287D01*
X153167281Y-123422729D01*
X153160655Y-123423828D01*
X152465859Y-123519795D01*
X152459184Y-123520533D01*
X151760230Y-123578743D01*
X151753525Y-123579119D01*
X151050909Y-123599447D01*
X151047323Y-123599499D01*
X112123908Y-123599499D01*
X112115420Y-123599498D01*
X112114970Y-123599379D01*
X112051227Y-123599497D01*
X112050535Y-123599497D01*
X112050525Y-123599494D01*
X112047409Y-123599458D01*
X111344548Y-123581714D01*
X111337841Y-123581362D01*
X110638680Y-123525727D01*
X110632002Y-123525013D01*
X109936875Y-123431607D01*
X109930246Y-123430533D01*
X109241193Y-123299630D01*
X109234632Y-123298199D01*
X108553661Y-123130181D01*
X108547187Y-123128396D01*
X107876310Y-122923756D01*
X107869961Y-122921629D01*
X107211159Y-122680974D01*
X107204916Y-122678500D01*
X106560092Y-122402524D01*
X106553992Y-122399715D01*
X105925088Y-122089248D01*
X105919149Y-122086114D01*
X105307947Y-121742040D01*
X105302186Y-121738588D01*
X104710512Y-121361930D01*
X104704947Y-121358171D01*
X104134555Y-120950049D01*
X104129201Y-120945995D01*
X103581728Y-120507581D01*
X103576601Y-120503243D01*
X103053661Y-120035828D01*
X103048777Y-120031219D01*
X103020182Y-120002729D01*
X102551884Y-119536153D01*
X102547283Y-119531313D01*
X102077945Y-119010097D01*
X102073593Y-119004993D01*
X102048100Y-118973398D01*
X101821456Y-118692501D01*
X101633160Y-118459131D01*
X101629086Y-118453792D01*
X101218860Y-117884899D01*
X101215081Y-117879348D01*
X100836249Y-117289069D01*
X100832776Y-117283321D01*
X100486460Y-116673403D01*
X100483304Y-116667475D01*
X100187639Y-116074071D01*
X138956499Y-116074071D01*
X138981497Y-116199738D01*
X138981499Y-116199744D01*
X139030533Y-116318124D01*
X139030538Y-116318133D01*
X139101722Y-116424667D01*
X139101723Y-116424668D01*
X139101724Y-116424669D01*
X139170182Y-116493127D01*
X139203666Y-116554448D01*
X139206500Y-116580807D01*
X139206500Y-117496192D01*
X139186815Y-117563231D01*
X139170181Y-117583873D01*
X139101726Y-117652327D01*
X139101723Y-117652331D01*
X139030538Y-117758866D01*
X139030533Y-117758875D01*
X138981499Y-117877255D01*
X138981497Y-117877261D01*
X138956500Y-118002928D01*
X138956500Y-118002931D01*
X138956500Y-118131069D01*
X138956500Y-118131071D01*
X138956499Y-118131071D01*
X138981497Y-118256738D01*
X138981499Y-118256744D01*
X139030533Y-118375124D01*
X139030538Y-118375133D01*
X139101723Y-118481668D01*
X139101726Y-118481672D01*
X139192327Y-118572273D01*
X139192331Y-118572276D01*
X139298866Y-118643461D01*
X139298872Y-118643464D01*
X139298873Y-118643465D01*
X139417256Y-118692501D01*
X139417260Y-118692501D01*
X139417261Y-118692502D01*
X139542928Y-118717500D01*
X139542931Y-118717500D01*
X139671071Y-118717500D01*
X139755615Y-118700682D01*
X139796744Y-118692501D01*
X139915127Y-118643465D01*
X140021669Y-118572276D01*
X140112276Y-118481669D01*
X140183465Y-118375127D01*
X140232501Y-118256744D01*
X140240682Y-118215615D01*
X140257500Y-118131071D01*
X140257500Y-118027071D01*
X145302499Y-118027071D01*
X145327497Y-118152738D01*
X145327499Y-118152744D01*
X145376533Y-118271124D01*
X145376538Y-118271133D01*
X145447723Y-118377668D01*
X145447726Y-118377672D01*
X145538327Y-118468273D01*
X145538331Y-118468276D01*
X145644866Y-118539461D01*
X145644872Y-118539464D01*
X145644873Y-118539465D01*
X145763256Y-118588501D01*
X145763260Y-118588501D01*
X145763261Y-118588502D01*
X145888928Y-118613500D01*
X145888931Y-118613500D01*
X146017071Y-118613500D01*
X146101615Y-118596682D01*
X146142744Y-118588501D01*
X146261127Y-118539465D01*
X146367669Y-118468276D01*
X146458276Y-118377669D01*
X146529465Y-118271127D01*
X146578501Y-118152744D01*
X146603500Y-118027069D01*
X146603500Y-117898931D01*
X146603500Y-117898928D01*
X146578502Y-117773261D01*
X146578501Y-117773260D01*
X146578501Y-117773256D01*
X146529465Y-117654873D01*
X146529464Y-117654872D01*
X146529461Y-117654866D01*
X146458276Y-117548331D01*
X146458273Y-117548327D01*
X146367672Y-117457726D01*
X146367668Y-117457723D01*
X146261133Y-117386538D01*
X146261124Y-117386533D01*
X146142744Y-117337499D01*
X146142738Y-117337497D01*
X146017071Y-117312500D01*
X146017069Y-117312500D01*
X145888931Y-117312500D01*
X145888929Y-117312500D01*
X145763261Y-117337497D01*
X145763255Y-117337499D01*
X145644875Y-117386533D01*
X145644866Y-117386538D01*
X145538331Y-117457723D01*
X145538327Y-117457726D01*
X145447726Y-117548327D01*
X145447723Y-117548331D01*
X145376538Y-117654866D01*
X145376533Y-117654875D01*
X145327499Y-117773255D01*
X145327497Y-117773261D01*
X145302500Y-117898928D01*
X145302500Y-117898931D01*
X145302500Y-118027069D01*
X145302500Y-118027071D01*
X145302499Y-118027071D01*
X140257500Y-118027071D01*
X140257500Y-118002928D01*
X140240413Y-117917031D01*
X140240413Y-117917030D01*
X140237397Y-117901873D01*
X140232501Y-117877256D01*
X140183465Y-117758873D01*
X140183464Y-117758872D01*
X140183461Y-117758866D01*
X140112276Y-117652331D01*
X140112273Y-117652327D01*
X140043819Y-117583873D01*
X140010334Y-117522550D01*
X140007500Y-117496192D01*
X140007500Y-116580807D01*
X140027185Y-116513768D01*
X140043814Y-116493130D01*
X140112276Y-116424669D01*
X140183465Y-116318127D01*
X140232501Y-116199744D01*
X140257500Y-116074069D01*
X140257500Y-115945931D01*
X140257500Y-115945928D01*
X140232502Y-115820261D01*
X140232501Y-115820260D01*
X140232501Y-115820256D01*
X140183465Y-115701873D01*
X140183464Y-115701872D01*
X140183461Y-115701866D01*
X140112276Y-115595331D01*
X140112273Y-115595327D01*
X140021672Y-115504726D01*
X140021668Y-115504723D01*
X139915133Y-115433538D01*
X139915124Y-115433533D01*
X139796744Y-115384499D01*
X139796738Y-115384497D01*
X139671071Y-115359500D01*
X139671069Y-115359500D01*
X139542931Y-115359500D01*
X139542929Y-115359500D01*
X139417261Y-115384497D01*
X139417255Y-115384499D01*
X139298875Y-115433533D01*
X139298866Y-115433538D01*
X139192331Y-115504723D01*
X139192327Y-115504726D01*
X139101726Y-115595327D01*
X139101723Y-115595331D01*
X139030538Y-115701866D01*
X139030533Y-115701875D01*
X138981499Y-115820255D01*
X138981497Y-115820261D01*
X138956500Y-115945928D01*
X138956500Y-115945931D01*
X138956500Y-116074069D01*
X138956500Y-116074071D01*
X138956499Y-116074071D01*
X100187639Y-116074071D01*
X100170512Y-116039697D01*
X100167690Y-116033630D01*
X99889327Y-115389799D01*
X99889035Y-115389071D01*
X124599499Y-115389071D01*
X124624497Y-115514738D01*
X124624499Y-115514744D01*
X124673533Y-115633124D01*
X124673538Y-115633133D01*
X124744723Y-115739668D01*
X124744726Y-115739672D01*
X124835327Y-115830273D01*
X124835331Y-115830276D01*
X124941866Y-115901461D01*
X124941872Y-115901464D01*
X124941873Y-115901465D01*
X125060256Y-115950501D01*
X125060260Y-115950501D01*
X125060261Y-115950502D01*
X125185928Y-115975500D01*
X125185931Y-115975500D01*
X125314071Y-115975500D01*
X125398615Y-115958682D01*
X125439744Y-115950501D01*
X125558127Y-115901465D01*
X125664669Y-115830276D01*
X125755276Y-115739669D01*
X125826465Y-115633127D01*
X125875501Y-115514744D01*
X125883682Y-115473615D01*
X125900500Y-115389071D01*
X125900500Y-115364071D01*
X135424499Y-115364071D01*
X135449497Y-115489738D01*
X135449499Y-115489744D01*
X135498533Y-115608124D01*
X135498538Y-115608133D01*
X135569723Y-115714668D01*
X135569726Y-115714672D01*
X135660327Y-115805273D01*
X135660331Y-115805276D01*
X135766866Y-115876461D01*
X135766872Y-115876464D01*
X135766873Y-115876465D01*
X135885256Y-115925501D01*
X135885260Y-115925501D01*
X135885261Y-115925502D01*
X136010928Y-115950500D01*
X136010931Y-115950500D01*
X136139071Y-115950500D01*
X136223615Y-115933682D01*
X136264744Y-115925501D01*
X136383127Y-115876465D01*
X136383133Y-115876461D01*
X136442585Y-115836737D01*
X136467251Y-115820255D01*
X136489669Y-115805276D01*
X136580276Y-115714669D01*
X136651465Y-115608127D01*
X136700501Y-115489744D01*
X136720527Y-115389069D01*
X136725500Y-115364071D01*
X136725500Y-115235928D01*
X136700502Y-115110261D01*
X136700501Y-115110260D01*
X136700501Y-115110256D01*
X136651465Y-114991873D01*
X136651464Y-114991872D01*
X136651461Y-114991866D01*
X136580276Y-114885331D01*
X136580273Y-114885327D01*
X136489672Y-114794726D01*
X136489668Y-114794723D01*
X136383133Y-114723538D01*
X136383124Y-114723533D01*
X136264744Y-114674499D01*
X136264738Y-114674497D01*
X136139071Y-114649500D01*
X136139069Y-114649500D01*
X136010931Y-114649500D01*
X136010929Y-114649500D01*
X135885261Y-114674497D01*
X135885255Y-114674499D01*
X135766875Y-114723533D01*
X135766866Y-114723538D01*
X135660331Y-114794723D01*
X135660327Y-114794726D01*
X135569726Y-114885327D01*
X135569723Y-114885331D01*
X135498538Y-114991866D01*
X135498533Y-114991875D01*
X135449499Y-115110255D01*
X135449497Y-115110261D01*
X135424500Y-115235928D01*
X135424500Y-115235931D01*
X135424500Y-115364069D01*
X135424500Y-115364071D01*
X135424499Y-115364071D01*
X125900500Y-115364071D01*
X125900500Y-115260928D01*
X125900499Y-115260926D01*
X125899128Y-115254030D01*
X125875502Y-115135261D01*
X125875501Y-115135260D01*
X125875501Y-115135256D01*
X125826465Y-115016873D01*
X125826464Y-115016872D01*
X125826461Y-115016866D01*
X125755276Y-114910331D01*
X125755273Y-114910327D01*
X125664672Y-114819726D01*
X125664668Y-114819723D01*
X125558133Y-114748538D01*
X125558124Y-114748533D01*
X125439744Y-114699499D01*
X125439738Y-114699497D01*
X125314071Y-114674500D01*
X125314069Y-114674500D01*
X125185931Y-114674500D01*
X125185929Y-114674500D01*
X125060261Y-114699497D01*
X125060255Y-114699499D01*
X124941875Y-114748533D01*
X124941866Y-114748538D01*
X124835331Y-114819723D01*
X124835327Y-114819726D01*
X124744726Y-114910327D01*
X124744723Y-114910331D01*
X124673538Y-115016866D01*
X124673533Y-115016875D01*
X124624499Y-115135255D01*
X124624497Y-115135261D01*
X124599500Y-115260928D01*
X124599500Y-115260931D01*
X124599500Y-115389069D01*
X124599500Y-115389071D01*
X124599499Y-115389071D01*
X99889035Y-115389071D01*
X99886847Y-115383607D01*
X99643757Y-114725670D01*
X99641604Y-114719317D01*
X99635479Y-114699499D01*
X99434490Y-114049184D01*
X99432686Y-114042730D01*
X99369860Y-113792071D01*
X141471499Y-113792071D01*
X141496497Y-113917738D01*
X141496499Y-113917744D01*
X141545533Y-114036124D01*
X141545538Y-114036133D01*
X141616723Y-114142668D01*
X141616726Y-114142672D01*
X141707327Y-114233273D01*
X141707331Y-114233276D01*
X141813866Y-114304461D01*
X141813872Y-114304464D01*
X141813873Y-114304465D01*
X141932256Y-114353501D01*
X141932260Y-114353501D01*
X141932261Y-114353502D01*
X142057928Y-114378500D01*
X142057931Y-114378500D01*
X142186071Y-114378500D01*
X142270615Y-114361682D01*
X142311744Y-114353501D01*
X142430127Y-114304465D01*
X142536669Y-114233276D01*
X142627276Y-114142669D01*
X142698465Y-114036127D01*
X142747501Y-113917744D01*
X142755682Y-113876615D01*
X142772500Y-113792071D01*
X142772500Y-113663928D01*
X142747502Y-113538261D01*
X142747501Y-113538260D01*
X142747501Y-113538256D01*
X142698465Y-113419873D01*
X142698464Y-113419872D01*
X142698461Y-113419866D01*
X142627276Y-113313331D01*
X142627273Y-113313327D01*
X142536672Y-113222726D01*
X142536668Y-113222723D01*
X142430133Y-113151538D01*
X142430124Y-113151533D01*
X142311744Y-113102499D01*
X142311738Y-113102497D01*
X142186071Y-113077500D01*
X142186069Y-113077500D01*
X142057931Y-113077500D01*
X142057929Y-113077500D01*
X141932261Y-113102497D01*
X141932255Y-113102499D01*
X141813875Y-113151533D01*
X141813866Y-113151538D01*
X141707331Y-113222723D01*
X141707327Y-113222726D01*
X141616726Y-113313327D01*
X141616723Y-113313331D01*
X141545538Y-113419866D01*
X141545533Y-113419875D01*
X141496499Y-113538255D01*
X141496497Y-113538261D01*
X141471500Y-113663928D01*
X141471500Y-113663931D01*
X141471500Y-113792069D01*
X141471500Y-113792071D01*
X141471499Y-113792071D01*
X99369860Y-113792071D01*
X99262163Y-113362391D01*
X99260716Y-113355879D01*
X99127265Y-112667255D01*
X99126175Y-112660681D01*
X99030201Y-111965838D01*
X99029468Y-111959205D01*
X98971254Y-111260199D01*
X98970881Y-111253557D01*
X98950595Y-110552429D01*
X98950584Y-110545731D01*
X98954446Y-110392722D01*
X109199500Y-110392722D01*
X109199500Y-110707277D01*
X109234716Y-111019827D01*
X109234718Y-111019843D01*
X109304710Y-111326499D01*
X109304711Y-111326501D01*
X109408598Y-111623395D01*
X109545072Y-111906786D01*
X109545074Y-111906789D01*
X109712423Y-112173123D01*
X109908539Y-112419044D01*
X110130956Y-112641461D01*
X110376877Y-112837577D01*
X110643211Y-113004926D01*
X110926606Y-113141402D01*
X111223500Y-113245289D01*
X111530160Y-113315282D01*
X111842723Y-113350499D01*
X111842724Y-113350500D01*
X111842727Y-113350500D01*
X112157276Y-113350500D01*
X112157276Y-113350499D01*
X112469840Y-113315282D01*
X112776500Y-113245289D01*
X113073394Y-113141402D01*
X113356789Y-113004926D01*
X113623123Y-112837577D01*
X113869044Y-112641461D01*
X114091461Y-112419044D01*
X114287577Y-112173123D01*
X114454926Y-111906789D01*
X114591402Y-111623394D01*
X114695289Y-111326500D01*
X114765282Y-111019840D01*
X114800500Y-110707273D01*
X114800500Y-110551821D01*
X115711299Y-110551821D01*
X115736297Y-110677488D01*
X115736299Y-110677494D01*
X115785333Y-110795874D01*
X115785338Y-110795883D01*
X115856523Y-110902418D01*
X115856526Y-110902422D01*
X115947127Y-110993023D01*
X115947131Y-110993026D01*
X116053666Y-111064211D01*
X116053672Y-111064214D01*
X116053673Y-111064215D01*
X116172056Y-111113251D01*
X116172060Y-111113251D01*
X116172061Y-111113252D01*
X116297728Y-111138250D01*
X116297731Y-111138250D01*
X116425871Y-111138250D01*
X116544038Y-111114744D01*
X116551544Y-111113251D01*
X116669927Y-111064215D01*
X116776469Y-110993026D01*
X116780424Y-110989071D01*
X130991699Y-110989071D01*
X131016697Y-111114738D01*
X131016699Y-111114744D01*
X131065733Y-111233124D01*
X131065738Y-111233133D01*
X131136923Y-111339668D01*
X131136926Y-111339672D01*
X131227527Y-111430273D01*
X131227531Y-111430276D01*
X131334066Y-111501461D01*
X131334072Y-111501464D01*
X131334073Y-111501465D01*
X131452456Y-111550501D01*
X131452460Y-111550501D01*
X131452461Y-111550502D01*
X131578128Y-111575500D01*
X131578131Y-111575500D01*
X131706271Y-111575500D01*
X131790815Y-111558682D01*
X131831944Y-111550501D01*
X131950327Y-111501465D01*
X132056869Y-111430276D01*
X132147476Y-111339669D01*
X132218665Y-111233127D01*
X132267701Y-111114744D01*
X132286582Y-111019827D01*
X132292700Y-110989071D01*
X132292700Y-110860928D01*
X132267702Y-110735261D01*
X132267701Y-110735260D01*
X132267701Y-110735256D01*
X132218665Y-110616873D01*
X132218664Y-110616872D01*
X132218661Y-110616866D01*
X132147476Y-110510331D01*
X132147473Y-110510327D01*
X132056872Y-110419726D01*
X132056868Y-110419723D01*
X131979044Y-110367722D01*
X148656500Y-110367722D01*
X148656500Y-110682277D01*
X148691716Y-110994827D01*
X148691718Y-110994843D01*
X148761710Y-111301499D01*
X148761711Y-111301501D01*
X148865598Y-111598395D01*
X149002072Y-111881786D01*
X149020629Y-111911319D01*
X149169423Y-112148123D01*
X149189360Y-112173123D01*
X149361165Y-112388560D01*
X149365539Y-112394044D01*
X149587956Y-112616461D01*
X149833877Y-112812577D01*
X150100211Y-112979926D01*
X150383606Y-113116402D01*
X150680500Y-113220289D01*
X150987160Y-113290282D01*
X151299723Y-113325499D01*
X151299724Y-113325500D01*
X151299727Y-113325500D01*
X151614276Y-113325500D01*
X151614276Y-113325499D01*
X151926840Y-113290282D01*
X152233500Y-113220289D01*
X152530394Y-113116402D01*
X152813789Y-112979926D01*
X153080123Y-112812577D01*
X153326044Y-112616461D01*
X153548461Y-112394044D01*
X153744577Y-112148123D01*
X153765973Y-112114071D01*
X154299499Y-112114071D01*
X154324497Y-112239738D01*
X154324499Y-112239744D01*
X154373533Y-112358124D01*
X154373538Y-112358133D01*
X154444723Y-112464668D01*
X154444726Y-112464672D01*
X154535327Y-112555273D01*
X154535331Y-112555276D01*
X154641866Y-112626461D01*
X154641872Y-112626464D01*
X154641873Y-112626465D01*
X154760256Y-112675501D01*
X154760260Y-112675501D01*
X154760261Y-112675502D01*
X154885928Y-112700500D01*
X154885931Y-112700500D01*
X155014071Y-112700500D01*
X155098615Y-112683682D01*
X155139744Y-112675501D01*
X155258127Y-112626465D01*
X155364669Y-112555276D01*
X155455276Y-112464669D01*
X155526465Y-112358127D01*
X155575501Y-112239744D01*
X155593726Y-112148123D01*
X155600500Y-112114071D01*
X157299499Y-112114071D01*
X157324497Y-112239738D01*
X157324499Y-112239744D01*
X157373533Y-112358124D01*
X157373538Y-112358133D01*
X157444723Y-112464668D01*
X157444726Y-112464672D01*
X157535327Y-112555273D01*
X157535331Y-112555276D01*
X157641866Y-112626461D01*
X157641872Y-112626464D01*
X157641873Y-112626465D01*
X157760256Y-112675501D01*
X157760260Y-112675501D01*
X157760261Y-112675502D01*
X157885928Y-112700500D01*
X157885931Y-112700500D01*
X158014071Y-112700500D01*
X158098615Y-112683682D01*
X158139744Y-112675501D01*
X158258127Y-112626465D01*
X158364669Y-112555276D01*
X158455276Y-112464669D01*
X158526465Y-112358127D01*
X158575501Y-112239744D01*
X158593726Y-112148123D01*
X158600500Y-112114071D01*
X158600500Y-111985928D01*
X158575502Y-111860261D01*
X158575501Y-111860260D01*
X158575501Y-111860256D01*
X158526465Y-111741873D01*
X158526464Y-111741872D01*
X158526461Y-111741866D01*
X158455276Y-111635331D01*
X158455273Y-111635327D01*
X158364672Y-111544726D01*
X158364668Y-111544723D01*
X158258133Y-111473538D01*
X158258124Y-111473533D01*
X158139744Y-111424499D01*
X158139738Y-111424497D01*
X158014071Y-111399500D01*
X158014069Y-111399500D01*
X157885931Y-111399500D01*
X157885929Y-111399500D01*
X157760261Y-111424497D01*
X157760255Y-111424499D01*
X157641875Y-111473533D01*
X157641866Y-111473538D01*
X157535331Y-111544723D01*
X157535327Y-111544726D01*
X157444726Y-111635327D01*
X157444723Y-111635331D01*
X157373538Y-111741866D01*
X157373533Y-111741875D01*
X157324499Y-111860255D01*
X157324497Y-111860261D01*
X157299500Y-111985928D01*
X157299500Y-111985931D01*
X157299500Y-112114069D01*
X157299500Y-112114071D01*
X157299499Y-112114071D01*
X155600500Y-112114071D01*
X155600500Y-111985928D01*
X155575502Y-111860261D01*
X155575501Y-111860260D01*
X155575501Y-111860256D01*
X155526465Y-111741873D01*
X155526464Y-111741872D01*
X155526461Y-111741866D01*
X155455276Y-111635331D01*
X155455273Y-111635327D01*
X155364672Y-111544726D01*
X155364668Y-111544723D01*
X155258133Y-111473538D01*
X155258124Y-111473533D01*
X155139744Y-111424499D01*
X155139738Y-111424497D01*
X155014071Y-111399500D01*
X155014069Y-111399500D01*
X154885931Y-111399500D01*
X154885929Y-111399500D01*
X154760261Y-111424497D01*
X154760255Y-111424499D01*
X154641875Y-111473533D01*
X154641866Y-111473538D01*
X154535331Y-111544723D01*
X154535327Y-111544726D01*
X154444726Y-111635327D01*
X154444723Y-111635331D01*
X154373538Y-111741866D01*
X154373533Y-111741875D01*
X154324499Y-111860255D01*
X154324497Y-111860261D01*
X154299500Y-111985928D01*
X154299500Y-111985931D01*
X154299500Y-112114069D01*
X154299500Y-112114071D01*
X154299499Y-112114071D01*
X153765973Y-112114071D01*
X153911926Y-111881789D01*
X154048402Y-111598394D01*
X154152289Y-111301500D01*
X154222282Y-110994840D01*
X154257500Y-110682273D01*
X154257500Y-110367727D01*
X154227929Y-110105276D01*
X154222015Y-110052788D01*
X154234069Y-109983966D01*
X154281418Y-109932586D01*
X154349029Y-109914962D01*
X154415435Y-109936688D01*
X154441089Y-109960240D01*
X154444726Y-109964672D01*
X154535327Y-110055273D01*
X154535331Y-110055276D01*
X154641866Y-110126461D01*
X154641872Y-110126464D01*
X154641873Y-110126465D01*
X154760256Y-110175501D01*
X154760260Y-110175501D01*
X154760261Y-110175502D01*
X154885928Y-110200500D01*
X154885931Y-110200500D01*
X155014071Y-110200500D01*
X155105353Y-110182342D01*
X155139744Y-110175501D01*
X155258127Y-110126465D01*
X155364669Y-110055276D01*
X155455276Y-109964669D01*
X155526465Y-109858127D01*
X155575501Y-109739744D01*
X155590554Y-109664069D01*
X155600500Y-109614071D01*
X157299499Y-109614071D01*
X157324497Y-109739738D01*
X157324499Y-109739744D01*
X157373533Y-109858124D01*
X157373538Y-109858133D01*
X157444723Y-109964668D01*
X157444726Y-109964672D01*
X157535327Y-110055273D01*
X157535331Y-110055276D01*
X157641866Y-110126461D01*
X157641872Y-110126464D01*
X157641873Y-110126465D01*
X157760256Y-110175501D01*
X157760260Y-110175501D01*
X157760261Y-110175502D01*
X157885928Y-110200500D01*
X157885931Y-110200500D01*
X158014071Y-110200500D01*
X158105353Y-110182342D01*
X158139744Y-110175501D01*
X158258127Y-110126465D01*
X158364669Y-110055276D01*
X158455276Y-109964669D01*
X158526465Y-109858127D01*
X158575501Y-109739744D01*
X158590554Y-109664069D01*
X158600500Y-109614071D01*
X158600500Y-109485928D01*
X158575502Y-109360261D01*
X158575501Y-109360260D01*
X158575501Y-109360256D01*
X158537574Y-109268692D01*
X158526466Y-109241875D01*
X158526461Y-109241866D01*
X158455276Y-109135331D01*
X158455273Y-109135327D01*
X158364672Y-109044726D01*
X158364668Y-109044723D01*
X158258133Y-108973538D01*
X158258124Y-108973533D01*
X158139744Y-108924499D01*
X158139738Y-108924497D01*
X158014071Y-108899500D01*
X158014069Y-108899500D01*
X157885931Y-108899500D01*
X157885929Y-108899500D01*
X157760261Y-108924497D01*
X157760255Y-108924499D01*
X157641875Y-108973533D01*
X157641866Y-108973538D01*
X157535331Y-109044723D01*
X157535327Y-109044726D01*
X157444726Y-109135327D01*
X157444723Y-109135331D01*
X157373538Y-109241866D01*
X157373533Y-109241875D01*
X157324499Y-109360255D01*
X157324497Y-109360261D01*
X157299500Y-109485928D01*
X157299500Y-109485931D01*
X157299500Y-109614069D01*
X157299500Y-109614071D01*
X157299499Y-109614071D01*
X155600500Y-109614071D01*
X155600500Y-109485928D01*
X155575502Y-109360261D01*
X155575501Y-109360260D01*
X155575501Y-109360256D01*
X155537574Y-109268692D01*
X155526466Y-109241875D01*
X155526461Y-109241866D01*
X155455276Y-109135331D01*
X155455273Y-109135327D01*
X155364672Y-109044726D01*
X155364668Y-109044723D01*
X155258133Y-108973538D01*
X155258124Y-108973533D01*
X155139744Y-108924499D01*
X155139738Y-108924497D01*
X155014071Y-108899500D01*
X155014069Y-108899500D01*
X154885931Y-108899500D01*
X154885929Y-108899500D01*
X154760261Y-108924497D01*
X154760255Y-108924499D01*
X154641875Y-108973533D01*
X154641866Y-108973538D01*
X154535331Y-109044723D01*
X154535327Y-109044726D01*
X154444726Y-109135327D01*
X154444723Y-109135331D01*
X154373538Y-109241866D01*
X154373533Y-109241875D01*
X154324499Y-109360255D01*
X154324497Y-109360261D01*
X154301470Y-109476023D01*
X154269084Y-109537934D01*
X154208368Y-109572508D01*
X154138599Y-109568767D01*
X154081927Y-109527900D01*
X154062811Y-109492785D01*
X154048401Y-109451604D01*
X153911927Y-109168213D01*
X153891657Y-109135953D01*
X153744577Y-108901877D01*
X153548461Y-108655956D01*
X153326044Y-108433539D01*
X153080123Y-108237423D01*
X152813789Y-108070074D01*
X152813786Y-108070072D01*
X152530395Y-107933598D01*
X152233501Y-107829711D01*
X152233499Y-107829710D01*
X151926843Y-107759718D01*
X151926827Y-107759716D01*
X151614277Y-107724500D01*
X151614273Y-107724500D01*
X151299727Y-107724500D01*
X151299722Y-107724500D01*
X150987172Y-107759716D01*
X150987156Y-107759718D01*
X150680500Y-107829710D01*
X150680498Y-107829711D01*
X150383604Y-107933598D01*
X150100213Y-108070072D01*
X149833878Y-108237422D01*
X149587956Y-108433538D01*
X149365538Y-108655956D01*
X149169422Y-108901878D01*
X149002072Y-109168213D01*
X148865598Y-109451604D01*
X148761711Y-109748498D01*
X148761710Y-109748500D01*
X148691718Y-110055156D01*
X148691716Y-110055172D01*
X148656500Y-110367722D01*
X131979044Y-110367722D01*
X131950333Y-110348538D01*
X131950324Y-110348533D01*
X131831944Y-110299499D01*
X131831938Y-110299497D01*
X131706271Y-110274500D01*
X131706269Y-110274500D01*
X131578131Y-110274500D01*
X131578129Y-110274500D01*
X131452461Y-110299497D01*
X131452455Y-110299499D01*
X131334075Y-110348533D01*
X131334066Y-110348538D01*
X131227531Y-110419723D01*
X131227527Y-110419726D01*
X131136926Y-110510327D01*
X131136923Y-110510331D01*
X131065738Y-110616866D01*
X131065733Y-110616875D01*
X131016699Y-110735255D01*
X131016697Y-110735261D01*
X130991700Y-110860928D01*
X130991700Y-110860931D01*
X130991700Y-110989069D01*
X130991700Y-110989071D01*
X130991699Y-110989071D01*
X116780424Y-110989071D01*
X116867076Y-110902419D01*
X116938265Y-110795877D01*
X116987301Y-110677494D01*
X117012300Y-110551819D01*
X117012300Y-110423681D01*
X117012300Y-110423678D01*
X116987302Y-110298011D01*
X116987301Y-110298010D01*
X116987301Y-110298006D01*
X116938265Y-110179623D01*
X116938264Y-110179622D01*
X116938261Y-110179616D01*
X116867076Y-110073081D01*
X116867073Y-110073077D01*
X116776472Y-109982476D01*
X116776468Y-109982473D01*
X116669933Y-109911288D01*
X116669924Y-109911283D01*
X116551544Y-109862249D01*
X116551538Y-109862247D01*
X116425871Y-109837250D01*
X116425869Y-109837250D01*
X116297731Y-109837250D01*
X116297729Y-109837250D01*
X116172061Y-109862247D01*
X116172055Y-109862249D01*
X116053675Y-109911283D01*
X116053666Y-109911288D01*
X115947131Y-109982473D01*
X115947127Y-109982476D01*
X115856526Y-110073077D01*
X115856523Y-110073081D01*
X115785338Y-110179616D01*
X115785333Y-110179625D01*
X115736299Y-110298005D01*
X115736297Y-110298011D01*
X115711300Y-110423678D01*
X115711300Y-110423681D01*
X115711300Y-110551819D01*
X115711300Y-110551821D01*
X115711299Y-110551821D01*
X114800500Y-110551821D01*
X114800500Y-110392727D01*
X114765282Y-110080160D01*
X114749238Y-110009867D01*
X114753511Y-109940132D01*
X114794809Y-109883774D01*
X114860021Y-109858690D01*
X114928442Y-109872844D01*
X114939019Y-109879174D01*
X114953668Y-109888962D01*
X114953671Y-109888964D01*
X114953673Y-109888965D01*
X115072056Y-109938001D01*
X115072060Y-109938001D01*
X115072061Y-109938002D01*
X115197728Y-109963000D01*
X115197731Y-109963000D01*
X115325871Y-109963000D01*
X115410415Y-109946182D01*
X115451544Y-109938001D01*
X115569927Y-109888965D01*
X115676469Y-109817776D01*
X115767076Y-109727169D01*
X115838265Y-109620627D01*
X115887301Y-109502244D01*
X115912300Y-109376571D01*
X116911299Y-109376571D01*
X116936297Y-109502238D01*
X116936299Y-109502244D01*
X116985333Y-109620624D01*
X116985338Y-109620633D01*
X117056523Y-109727168D01*
X117056526Y-109727172D01*
X117147127Y-109817773D01*
X117147131Y-109817776D01*
X117253666Y-109888961D01*
X117253672Y-109888964D01*
X117253673Y-109888965D01*
X117372056Y-109938001D01*
X117372060Y-109938001D01*
X117372061Y-109938002D01*
X117497728Y-109963000D01*
X117497731Y-109963000D01*
X117625871Y-109963000D01*
X117710415Y-109946182D01*
X117751544Y-109938001D01*
X117869927Y-109888965D01*
X117976469Y-109817776D01*
X118067076Y-109727169D01*
X118109237Y-109664071D01*
X121649499Y-109664071D01*
X121674497Y-109789738D01*
X121674499Y-109789744D01*
X121723533Y-109908124D01*
X121723538Y-109908133D01*
X121794723Y-110014668D01*
X121794726Y-110014672D01*
X121885327Y-110105273D01*
X121885331Y-110105276D01*
X121991866Y-110176461D01*
X121991872Y-110176464D01*
X121991873Y-110176465D01*
X122110256Y-110225501D01*
X122110260Y-110225501D01*
X122110261Y-110225502D01*
X122235928Y-110250500D01*
X122235931Y-110250500D01*
X122364071Y-110250500D01*
X122448615Y-110233682D01*
X122489744Y-110225501D01*
X122608127Y-110176465D01*
X122714669Y-110105276D01*
X122805276Y-110014669D01*
X122876465Y-109908127D01*
X122925501Y-109789744D01*
X122937948Y-109727169D01*
X122950500Y-109664071D01*
X122950500Y-109535928D01*
X122925502Y-109410261D01*
X122925501Y-109410260D01*
X122925501Y-109410256D01*
X122876465Y-109291873D01*
X122876464Y-109291872D01*
X122876461Y-109291866D01*
X122805276Y-109185331D01*
X122805273Y-109185327D01*
X122714672Y-109094726D01*
X122714668Y-109094723D01*
X122608133Y-109023538D01*
X122608124Y-109023533D01*
X122489744Y-108974499D01*
X122489738Y-108974497D01*
X122364071Y-108949500D01*
X122364069Y-108949500D01*
X122235931Y-108949500D01*
X122235929Y-108949500D01*
X122110261Y-108974497D01*
X122110255Y-108974499D01*
X121991875Y-109023533D01*
X121991866Y-109023538D01*
X121885331Y-109094723D01*
X121885327Y-109094726D01*
X121794726Y-109185327D01*
X121794723Y-109185331D01*
X121723538Y-109291866D01*
X121723533Y-109291875D01*
X121674499Y-109410255D01*
X121674497Y-109410261D01*
X121649500Y-109535928D01*
X121649500Y-109535931D01*
X121649500Y-109664069D01*
X121649500Y-109664071D01*
X121649499Y-109664071D01*
X118109237Y-109664071D01*
X118138265Y-109620627D01*
X118187301Y-109502244D01*
X118212300Y-109376569D01*
X118212300Y-109248431D01*
X118212300Y-109248428D01*
X118187302Y-109122761D01*
X118187301Y-109122760D01*
X118187301Y-109122756D01*
X118138265Y-109004373D01*
X118138264Y-109004372D01*
X118138261Y-109004366D01*
X118067076Y-108897831D01*
X118067073Y-108897827D01*
X117976472Y-108807226D01*
X117976468Y-108807223D01*
X117869933Y-108736038D01*
X117869924Y-108736033D01*
X117751544Y-108686999D01*
X117751538Y-108686997D01*
X117625871Y-108662000D01*
X117625869Y-108662000D01*
X117497731Y-108662000D01*
X117497729Y-108662000D01*
X117372061Y-108686997D01*
X117372055Y-108686999D01*
X117253675Y-108736033D01*
X117253666Y-108736038D01*
X117147131Y-108807223D01*
X117147127Y-108807226D01*
X117056526Y-108897827D01*
X117056523Y-108897831D01*
X116985338Y-109004366D01*
X116985333Y-109004375D01*
X116936299Y-109122755D01*
X116936297Y-109122761D01*
X116911300Y-109248428D01*
X116911300Y-109248431D01*
X116911300Y-109376569D01*
X116911300Y-109376571D01*
X116911299Y-109376571D01*
X115912300Y-109376571D01*
X115912300Y-109376569D01*
X115912300Y-109248431D01*
X115912300Y-109248428D01*
X115887302Y-109122761D01*
X115887301Y-109122760D01*
X115887301Y-109122756D01*
X115838265Y-109004373D01*
X115838264Y-109004372D01*
X115838261Y-109004366D01*
X115767076Y-108897831D01*
X115767073Y-108897827D01*
X115676472Y-108807226D01*
X115676468Y-108807223D01*
X115569933Y-108736038D01*
X115569924Y-108736033D01*
X115451544Y-108686999D01*
X115451538Y-108686997D01*
X115325871Y-108662000D01*
X115325869Y-108662000D01*
X115197731Y-108662000D01*
X115197729Y-108662000D01*
X115072061Y-108686997D01*
X115072055Y-108686999D01*
X114953675Y-108736033D01*
X114953666Y-108736038D01*
X114847131Y-108807223D01*
X114847127Y-108807226D01*
X114756526Y-108897827D01*
X114756523Y-108897831D01*
X114685338Y-109004366D01*
X114685333Y-109004376D01*
X114638503Y-109117434D01*
X114594662Y-109171837D01*
X114528367Y-109193902D01*
X114460668Y-109176623D01*
X114418948Y-109135953D01*
X114418560Y-109135335D01*
X114287577Y-108926877D01*
X114091461Y-108680956D01*
X113869044Y-108458539D01*
X113623123Y-108262423D01*
X113356789Y-108095074D01*
X113356786Y-108095072D01*
X113073395Y-107958598D01*
X112776501Y-107854711D01*
X112776499Y-107854710D01*
X112469843Y-107784718D01*
X112469827Y-107784716D01*
X112157277Y-107749500D01*
X112157273Y-107749500D01*
X111842727Y-107749500D01*
X111842722Y-107749500D01*
X111530172Y-107784716D01*
X111530156Y-107784718D01*
X111223500Y-107854710D01*
X111223498Y-107854711D01*
X110926604Y-107958598D01*
X110643213Y-108095072D01*
X110376878Y-108262422D01*
X110130956Y-108458538D01*
X109908538Y-108680956D01*
X109712422Y-108926878D01*
X109545072Y-109193213D01*
X109408598Y-109476604D01*
X109304711Y-109773498D01*
X109304710Y-109773500D01*
X109234718Y-110080156D01*
X109234716Y-110080172D01*
X109199500Y-110392722D01*
X98954446Y-110392722D01*
X98954613Y-110386123D01*
X98954613Y-110386119D01*
X98955077Y-110367724D01*
X98968286Y-109844526D01*
X98968635Y-109837863D01*
X99024275Y-109138649D01*
X99024982Y-109132033D01*
X99118392Y-108436869D01*
X99119466Y-108430246D01*
X99250371Y-107741179D01*
X99251800Y-107734632D01*
X99254300Y-107724500D01*
X99419824Y-107053638D01*
X99421603Y-107047187D01*
X99424956Y-107036195D01*
X99626252Y-106376280D01*
X99628358Y-106369994D01*
X99869037Y-105711128D01*
X99871491Y-105704935D01*
X100147486Y-105060067D01*
X100150272Y-105054018D01*
X100291840Y-104767247D01*
X107023800Y-104767247D01*
X107023800Y-106157738D01*
X107023801Y-106157753D01*
X107031418Y-106254536D01*
X107034370Y-106292053D01*
X107090249Y-106513816D01*
X107119285Y-106577740D01*
X107184828Y-106722037D01*
X107184831Y-106722043D01*
X107315059Y-106910014D01*
X107315063Y-106910019D01*
X107315066Y-106910023D01*
X107476777Y-107071734D01*
X107476781Y-107071737D01*
X107476785Y-107071740D01*
X107664756Y-107201968D01*
X107664762Y-107201971D01*
X107664763Y-107201971D01*
X107664764Y-107201972D01*
X107872984Y-107296551D01*
X108094747Y-107352430D01*
X108229053Y-107363000D01*
X110319546Y-107362999D01*
X110453853Y-107352430D01*
X110675616Y-107296551D01*
X110883836Y-107201972D01*
X110883838Y-107201970D01*
X110883843Y-107201968D01*
X111061217Y-107079082D01*
X111071823Y-107071734D01*
X111233534Y-106910023D01*
X111282415Y-106839468D01*
X111363768Y-106722043D01*
X111363771Y-106722037D01*
X111363772Y-106722036D01*
X111458351Y-106513816D01*
X111514230Y-106292053D01*
X111524800Y-106157747D01*
X111524799Y-104920466D01*
X128612300Y-104920466D01*
X128612300Y-106254528D01*
X128612301Y-106254534D01*
X128622913Y-106373915D01*
X128678889Y-106569545D01*
X128678890Y-106569548D01*
X128678891Y-106569549D01*
X128773102Y-106749907D01*
X128807777Y-106792433D01*
X128901690Y-106907609D01*
X128995603Y-106984184D01*
X129059393Y-107036198D01*
X129239751Y-107130409D01*
X129435382Y-107186386D01*
X129554763Y-107197000D01*
X130888836Y-107196999D01*
X131008218Y-107186386D01*
X131203849Y-107130409D01*
X131384207Y-107036198D01*
X131541909Y-106907609D01*
X131578893Y-106862251D01*
X131636513Y-106822735D01*
X131706351Y-106820643D01*
X131747877Y-106840293D01*
X131918238Y-106964068D01*
X131989736Y-107000498D01*
X132143961Y-107079080D01*
X132143963Y-107079080D01*
X132143966Y-107079082D01*
X132273117Y-107121045D01*
X132384907Y-107157369D01*
X132635125Y-107197000D01*
X132635130Y-107197000D01*
X132888475Y-107197000D01*
X133138692Y-107157369D01*
X133379634Y-107079082D01*
X133605362Y-106964068D01*
X133810319Y-106815158D01*
X133944119Y-106681358D01*
X134005442Y-106647873D01*
X134075134Y-106652857D01*
X134119481Y-106681358D01*
X134253281Y-106815158D01*
X134458238Y-106964068D01*
X134529736Y-107000498D01*
X134683961Y-107079080D01*
X134683963Y-107079080D01*
X134683966Y-107079082D01*
X134813117Y-107121045D01*
X134924907Y-107157369D01*
X135175125Y-107197000D01*
X135175130Y-107197000D01*
X135428475Y-107197000D01*
X135678692Y-107157369D01*
X135919634Y-107079082D01*
X136145362Y-106964068D01*
X136350319Y-106815158D01*
X136529458Y-106636019D01*
X136678368Y-106431062D01*
X136793382Y-106205334D01*
X136871669Y-105964392D01*
X136889892Y-105849335D01*
X136911300Y-105714175D01*
X136911300Y-105460824D01*
X136871669Y-105210607D01*
X136822763Y-105060092D01*
X136793382Y-104969666D01*
X136793380Y-104969663D01*
X136793380Y-104969661D01*
X136707484Y-104801082D01*
X136678368Y-104743938D01*
X136529458Y-104538981D01*
X136350319Y-104359842D01*
X136145362Y-104210932D01*
X136129708Y-104202956D01*
X135919638Y-104095919D01*
X135678692Y-104017630D01*
X135428475Y-103978000D01*
X135428470Y-103978000D01*
X135175130Y-103978000D01*
X135175125Y-103978000D01*
X134924907Y-104017630D01*
X134683961Y-104095919D01*
X134458237Y-104210932D01*
X134253278Y-104359844D01*
X134119481Y-104493642D01*
X134058158Y-104527127D01*
X133988466Y-104522143D01*
X133944119Y-104493642D01*
X133810321Y-104359844D01*
X133810319Y-104359842D01*
X133605362Y-104210932D01*
X133589708Y-104202956D01*
X133379638Y-104095919D01*
X133138692Y-104017630D01*
X132888475Y-103978000D01*
X132888470Y-103978000D01*
X132635130Y-103978000D01*
X132635125Y-103978000D01*
X132384907Y-104017630D01*
X132143961Y-104095919D01*
X131918234Y-104210934D01*
X131747879Y-104334704D01*
X131682073Y-104358184D01*
X131614019Y-104342358D01*
X131578892Y-104312747D01*
X131541909Y-104267390D01*
X131384209Y-104138804D01*
X131384210Y-104138804D01*
X131384207Y-104138802D01*
X131203849Y-104044591D01*
X131203848Y-104044590D01*
X131203845Y-104044589D01*
X131086629Y-104011050D01*
X131008218Y-103988614D01*
X131008215Y-103988613D01*
X131008213Y-103988613D01*
X130941902Y-103982717D01*
X130888837Y-103978000D01*
X130888832Y-103978000D01*
X129554771Y-103978000D01*
X129554765Y-103978000D01*
X129554764Y-103978001D01*
X129543116Y-103979036D01*
X129435384Y-103988613D01*
X129239754Y-104044589D01*
X129231915Y-104048684D01*
X129059393Y-104138802D01*
X129059391Y-104138803D01*
X129059390Y-104138804D01*
X128901690Y-104267390D01*
X128784443Y-104411184D01*
X128773102Y-104425093D01*
X128719804Y-104527127D01*
X128678889Y-104605454D01*
X128622914Y-104801083D01*
X128622913Y-104801086D01*
X128612300Y-104920466D01*
X111524799Y-104920466D01*
X111524799Y-104767254D01*
X111514230Y-104632947D01*
X111458351Y-104411184D01*
X111363772Y-104202964D01*
X111363771Y-104202962D01*
X111363768Y-104202956D01*
X111233540Y-104014985D01*
X111233537Y-104014981D01*
X111233534Y-104014977D01*
X111071823Y-103853266D01*
X111071819Y-103853263D01*
X111071814Y-103853259D01*
X110883843Y-103723031D01*
X110883837Y-103723028D01*
X110728532Y-103652485D01*
X110675616Y-103628449D01*
X110453853Y-103572570D01*
X110319547Y-103562000D01*
X110319545Y-103562000D01*
X108229061Y-103562000D01*
X108229046Y-103562001D01*
X108094747Y-103572570D01*
X107872984Y-103628449D01*
X107664762Y-103723028D01*
X107664756Y-103723031D01*
X107476785Y-103853259D01*
X107476773Y-103853269D01*
X107315069Y-104014973D01*
X107315059Y-104014985D01*
X107184831Y-104202956D01*
X107184828Y-104202962D01*
X107090249Y-104411184D01*
X107034370Y-104632947D01*
X107023800Y-104767247D01*
X100291840Y-104767247D01*
X100460760Y-104425069D01*
X100463874Y-104419168D01*
X100807965Y-103807936D01*
X100811411Y-103802186D01*
X100817631Y-103792416D01*
X101188084Y-103210489D01*
X101191812Y-103204970D01*
X101599961Y-102634539D01*
X101603992Y-102629216D01*
X101990094Y-102147068D01*
X117398800Y-102147068D01*
X117398800Y-102427931D01*
X117430242Y-102706994D01*
X117430245Y-102707012D01*
X117492739Y-102980817D01*
X117492743Y-102980829D01*
X117585500Y-103245911D01*
X117707353Y-103498942D01*
X117707355Y-103498945D01*
X117856777Y-103736748D01*
X118031884Y-103956325D01*
X118230475Y-104154916D01*
X118450052Y-104330023D01*
X118687855Y-104479445D01*
X118940892Y-104601301D01*
X119139980Y-104670965D01*
X119205970Y-104694056D01*
X119205982Y-104694060D01*
X119479791Y-104756555D01*
X119479797Y-104756555D01*
X119479805Y-104756557D01*
X119665847Y-104777518D01*
X119758869Y-104787999D01*
X119758872Y-104788000D01*
X119758875Y-104788000D01*
X120039728Y-104788000D01*
X120039729Y-104787999D01*
X120182355Y-104771929D01*
X120318794Y-104756557D01*
X120318799Y-104756556D01*
X120318809Y-104756555D01*
X120592618Y-104694060D01*
X120857708Y-104601301D01*
X121110745Y-104479445D01*
X121348548Y-104330023D01*
X121568125Y-104154916D01*
X121766716Y-103956325D01*
X121941823Y-103736748D01*
X122091245Y-103498945D01*
X122213101Y-103245908D01*
X122305860Y-102980818D01*
X122368355Y-102707009D01*
X122399800Y-102427925D01*
X122399800Y-102147075D01*
X122368355Y-101867991D01*
X122349315Y-101784572D01*
X122349314Y-101784568D01*
X139499500Y-101784568D01*
X139499500Y-102065431D01*
X139530942Y-102344494D01*
X139530945Y-102344512D01*
X139593439Y-102618317D01*
X139593443Y-102618329D01*
X139686200Y-102883411D01*
X139808053Y-103136442D01*
X139829548Y-103170651D01*
X139957477Y-103374248D01*
X140132584Y-103593825D01*
X140331175Y-103792416D01*
X140550752Y-103967523D01*
X140788555Y-104116945D01*
X141041592Y-104238801D01*
X141174413Y-104285277D01*
X141306670Y-104331556D01*
X141306682Y-104331560D01*
X141580491Y-104394055D01*
X141580497Y-104394055D01*
X141580505Y-104394057D01*
X141746113Y-104412716D01*
X141859569Y-104425499D01*
X141859572Y-104425500D01*
X141859575Y-104425500D01*
X142140428Y-104425500D01*
X142140429Y-104425499D01*
X142283055Y-104409429D01*
X142324612Y-104404747D01*
X150374500Y-104404747D01*
X150374500Y-105795238D01*
X150374501Y-105795253D01*
X150374910Y-105800448D01*
X150385070Y-105929553D01*
X150440949Y-106151316D01*
X150465487Y-106205338D01*
X150535528Y-106359537D01*
X150535531Y-106359543D01*
X150665759Y-106547514D01*
X150665763Y-106547519D01*
X150665766Y-106547523D01*
X150827477Y-106709234D01*
X150827481Y-106709237D01*
X150827485Y-106709240D01*
X151015456Y-106839468D01*
X151015462Y-106839471D01*
X151015463Y-106839471D01*
X151015464Y-106839472D01*
X151223684Y-106934051D01*
X151445447Y-106989930D01*
X151579753Y-107000500D01*
X153670246Y-107000499D01*
X153804553Y-106989930D01*
X154026316Y-106934051D01*
X154234536Y-106839472D01*
X154234538Y-106839470D01*
X154234543Y-106839468D01*
X154422514Y-106709240D01*
X154422523Y-106709234D01*
X154584234Y-106547523D01*
X154664919Y-106431062D01*
X154714468Y-106359543D01*
X154714471Y-106359537D01*
X154714472Y-106359536D01*
X154809051Y-106151316D01*
X154864930Y-105929553D01*
X154875500Y-105795247D01*
X154875499Y-104404754D01*
X154864930Y-104270447D01*
X154809051Y-104048684D01*
X154714472Y-103840464D01*
X154714471Y-103840462D01*
X154714468Y-103840456D01*
X154584240Y-103652485D01*
X154584237Y-103652481D01*
X154584234Y-103652477D01*
X154422523Y-103490766D01*
X154422519Y-103490763D01*
X154422514Y-103490759D01*
X154234543Y-103360531D01*
X154234537Y-103360528D01*
X154130426Y-103313238D01*
X154026316Y-103265949D01*
X153804553Y-103210070D01*
X153670247Y-103199500D01*
X153670245Y-103199500D01*
X151579761Y-103199500D01*
X151579746Y-103199501D01*
X151445447Y-103210070D01*
X151223684Y-103265949D01*
X151015462Y-103360528D01*
X151015456Y-103360531D01*
X150827485Y-103490759D01*
X150827473Y-103490769D01*
X150665769Y-103652473D01*
X150665759Y-103652485D01*
X150535531Y-103840456D01*
X150535528Y-103840462D01*
X150440949Y-104048684D01*
X150385070Y-104270447D01*
X150374500Y-104404747D01*
X142324612Y-104404747D01*
X142419494Y-104394057D01*
X142419499Y-104394056D01*
X142419509Y-104394055D01*
X142693318Y-104331560D01*
X142740379Y-104315092D01*
X142825588Y-104285277D01*
X142876705Y-104267390D01*
X142958408Y-104238801D01*
X143211445Y-104116945D01*
X143449248Y-103967523D01*
X143668825Y-103792416D01*
X143867416Y-103593825D01*
X144042523Y-103374248D01*
X144191945Y-103136445D01*
X144313801Y-102883408D01*
X144406560Y-102618318D01*
X144469055Y-102344509D01*
X144500500Y-102065425D01*
X144500500Y-101784575D01*
X144479047Y-101594170D01*
X144469057Y-101505505D01*
X144469054Y-101505487D01*
X144406560Y-101231682D01*
X144406556Y-101231670D01*
X144352104Y-101076057D01*
X144313801Y-100966592D01*
X144191945Y-100713555D01*
X144042523Y-100475752D01*
X143867416Y-100256175D01*
X143668825Y-100057584D01*
X143449248Y-99882477D01*
X143211445Y-99733055D01*
X143211442Y-99733053D01*
X142958411Y-99611200D01*
X142693329Y-99518443D01*
X142693317Y-99518439D01*
X142419512Y-99455945D01*
X142419494Y-99455942D01*
X142140431Y-99424500D01*
X142140425Y-99424500D01*
X141859575Y-99424500D01*
X141859568Y-99424500D01*
X141580505Y-99455942D01*
X141580487Y-99455945D01*
X141306682Y-99518439D01*
X141306670Y-99518443D01*
X141041588Y-99611200D01*
X140788557Y-99733053D01*
X140550753Y-99882476D01*
X140331175Y-100057583D01*
X140132583Y-100256175D01*
X139957476Y-100475753D01*
X139808053Y-100713557D01*
X139686200Y-100966588D01*
X139593443Y-101231670D01*
X139593439Y-101231682D01*
X139530945Y-101505487D01*
X139530942Y-101505505D01*
X139499500Y-101784568D01*
X122349314Y-101784568D01*
X122305859Y-101594178D01*
X122305856Y-101594170D01*
X122224211Y-101360843D01*
X122213101Y-101329092D01*
X122091245Y-101076055D01*
X121941823Y-100838252D01*
X121766716Y-100618675D01*
X121568125Y-100420084D01*
X121348548Y-100244977D01*
X121164109Y-100129086D01*
X121110742Y-100095553D01*
X120857711Y-99973700D01*
X120592629Y-99880943D01*
X120592617Y-99880939D01*
X120318812Y-99818445D01*
X120318794Y-99818442D01*
X120039731Y-99787000D01*
X120039725Y-99787000D01*
X119758875Y-99787000D01*
X119758868Y-99787000D01*
X119479805Y-99818442D01*
X119479787Y-99818445D01*
X119205982Y-99880939D01*
X119205970Y-99880943D01*
X118940888Y-99973700D01*
X118687857Y-100095553D01*
X118450053Y-100244976D01*
X118230475Y-100420083D01*
X118031883Y-100618675D01*
X117856776Y-100838253D01*
X117707353Y-101076057D01*
X117585500Y-101329088D01*
X117492743Y-101594170D01*
X117492739Y-101594182D01*
X117430245Y-101867987D01*
X117430242Y-101868005D01*
X117398800Y-102147068D01*
X101990094Y-102147068D01*
X102042431Y-102081712D01*
X102046739Y-102076620D01*
X102514193Y-101553637D01*
X102518757Y-101548800D01*
X103013864Y-101051866D01*
X103018667Y-101047300D01*
X103539920Y-100577929D01*
X103544982Y-100573613D01*
X104090875Y-100133154D01*
X104096207Y-100129086D01*
X104665114Y-99718850D01*
X104670637Y-99715090D01*
X105260946Y-99336239D01*
X105266662Y-99332785D01*
X105876603Y-98986455D01*
X105882524Y-98983304D01*
X106510311Y-98670508D01*
X106516361Y-98667694D01*
X106850593Y-98523187D01*
X106919937Y-98514652D01*
X106982890Y-98544962D01*
X107019462Y-98604495D01*
X107023800Y-98637006D01*
X107023800Y-99807738D01*
X107023801Y-99807753D01*
X107029561Y-99880939D01*
X107034370Y-99942053D01*
X107090249Y-100163816D01*
X107132201Y-100256175D01*
X107184828Y-100372037D01*
X107184831Y-100372043D01*
X107315059Y-100560014D01*
X107315063Y-100560019D01*
X107315066Y-100560023D01*
X107476777Y-100721734D01*
X107476781Y-100721737D01*
X107476785Y-100721740D01*
X107664756Y-100851968D01*
X107664762Y-100851971D01*
X107664763Y-100851971D01*
X107664764Y-100851972D01*
X107872984Y-100946551D01*
X108094747Y-101002430D01*
X108229053Y-101013000D01*
X110319546Y-101012999D01*
X110453853Y-101002430D01*
X110675616Y-100946551D01*
X110883836Y-100851972D01*
X110883838Y-100851970D01*
X110883843Y-100851968D01*
X111071814Y-100721740D01*
X111071823Y-100721734D01*
X111233534Y-100560023D01*
X111291917Y-100475752D01*
X111363768Y-100372043D01*
X111363771Y-100372037D01*
X111363772Y-100372036D01*
X111458351Y-100163816D01*
X111514230Y-99942053D01*
X111524800Y-99807747D01*
X111524799Y-98417254D01*
X111514230Y-98282947D01*
X111458351Y-98061184D01*
X111363772Y-97852964D01*
X111363771Y-97852962D01*
X111363768Y-97852956D01*
X111233156Y-97664431D01*
X111211159Y-97598115D01*
X111228507Y-97530433D01*
X111279692Y-97482875D01*
X111331495Y-97469867D01*
X111999090Y-97450552D01*
X112002676Y-97450500D01*
X150361164Y-97450500D01*
X150428203Y-97470185D01*
G37*
%TD.AperFunction*%
%TD*%
M02*
