M48
; DRILL file {KiCad 9.0.4} date 2026-01-29T02:05:20+0300
; FORMAT={-:-/ absolute / metric / decimal}
; #@! TF.CreationDate,2026-01-29T02:05:20+03:00
; #@! TF.GenerationSoftware,Kicad,Pcbnew,9.0.4
; #@! TF.FileFunction,Plated,1,4,PTH
FMAT,2
METRIC
; #@! TA.AperFunction,Plated,PTH,ViaDrill
T1C0.400
; #@! TA.AperFunction,Plated,PTH,ComponentDrill
T2C0.700
; #@! TA.AperFunction,Plated,PTH,ComponentDrill
T3C0.710
; #@! TA.AperFunction,Plated,PTH,ComponentDrill
T4C1.800
; #@! TA.AperFunction,Plated,PTH,ComponentDrill
T5C2.000
%
G90
G05
T1
X115.262Y-109.312
X116.362Y-110.488
X117.562Y-109.312
X120.275Y-116.688
X120.562Y-109.77
X122.3Y-109.6
X125.2Y-112.15
X125.25Y-113.6
X125.25Y-115.325
X125.45Y-116.688
X131.642Y-110.925
X131.85Y-112.525
X131.85Y-113.444
X131.85Y-114.375
X131.85Y-115.3
X136.075Y-113.586
X136.075Y-115.3
X139.607Y-116.01
X139.607Y-118.067
X141.156Y-111.031
X141.156Y-112.131
X141.2Y-116.29
X142.122Y-113.728
X142.3Y-115.438
X142.3Y-116.29
X143.527Y-109.939
X145.77Y-115.41
X145.77Y-116.24
X145.953Y-117.963
X146.96Y-115.41
X154.95Y-109.55
X154.95Y-110.8
X154.95Y-112.05
X157.95Y-109.55
X157.95Y-110.8
X157.95Y-112.05
T3
X130.222Y-105.587
X132.762Y-105.587
X135.302Y-105.587
T4
X119.899Y-102.287
X142.0Y-101.925
T5
X112.0Y-110.55
X151.457Y-110.525
T2
G00X108.874Y-99.112
M15
G01X109.674Y-99.112
M16
G05
G00X108.874Y-105.462
M15
G01X109.674Y-105.462
M16
G05
G00X153.025Y-98.75
M15
G01X152.225Y-98.75
M16
G05
G00X153.025Y-105.1
M15
G01X152.225Y-105.1
M16
G05
M30
