%TF.GenerationSoftware,KiCad,Pcbnew,9.0.4*%
%TF.CreationDate,2026-01-29T02:05:24+03:00*%
%TF.ProjectId,EMG sensors,454d4720-7365-46e7-936f-72732e6b6963,rev?*%
%TF.SameCoordinates,Original*%
%TF.FileFunction,Legend,Bot*%
%TF.FilePolarity,Positive*%
%FSLAX46Y46*%
G04 Gerber Fmt 4.6, Leading zero omitted, Abs format (unit mm)*
G04 Created by KiCad (PCBNEW 9.0.4) date 2026-01-29 02:05:24*
%MOMM*%
%LPD*%
G01*
G04 APERTURE LIST*
%ADD10C,0.050000*%
%ADD11C,0.300000*%
%ADD12C,0.100000*%
G04 APERTURE END LIST*
D10*
X112000017Y-123900093D02*
X151050000Y-123900000D01*
X112000127Y-123900093D02*
G75*
G02*
X111950000Y-97149994I-49987J13375003D01*
G01*
X150950000Y-97150000D02*
G75*
G02*
X151000127Y-123900093I49990J-13375000D01*
G01*
X150950000Y-97150000D02*
X111950000Y-97150000D01*
D11*
X140766917Y-119804400D02*
X140552632Y-119875828D01*
X140552632Y-119875828D02*
X140195489Y-119875828D01*
X140195489Y-119875828D02*
X140052632Y-119804400D01*
X140052632Y-119804400D02*
X139981203Y-119732971D01*
X139981203Y-119732971D02*
X139909774Y-119590114D01*
X139909774Y-119590114D02*
X139909774Y-119447257D01*
X139909774Y-119447257D02*
X139981203Y-119304400D01*
X139981203Y-119304400D02*
X140052632Y-119232971D01*
X140052632Y-119232971D02*
X140195489Y-119161542D01*
X140195489Y-119161542D02*
X140481203Y-119090114D01*
X140481203Y-119090114D02*
X140624060Y-119018685D01*
X140624060Y-119018685D02*
X140695489Y-118947257D01*
X140695489Y-118947257D02*
X140766917Y-118804400D01*
X140766917Y-118804400D02*
X140766917Y-118661542D01*
X140766917Y-118661542D02*
X140695489Y-118518685D01*
X140695489Y-118518685D02*
X140624060Y-118447257D01*
X140624060Y-118447257D02*
X140481203Y-118375828D01*
X140481203Y-118375828D02*
X140124060Y-118375828D01*
X140124060Y-118375828D02*
X139909774Y-118447257D01*
X138695489Y-119804400D02*
X138838346Y-119875828D01*
X138838346Y-119875828D02*
X139124061Y-119875828D01*
X139124061Y-119875828D02*
X139266918Y-119804400D01*
X139266918Y-119804400D02*
X139338346Y-119661542D01*
X139338346Y-119661542D02*
X139338346Y-119090114D01*
X139338346Y-119090114D02*
X139266918Y-118947257D01*
X139266918Y-118947257D02*
X139124061Y-118875828D01*
X139124061Y-118875828D02*
X138838346Y-118875828D01*
X138838346Y-118875828D02*
X138695489Y-118947257D01*
X138695489Y-118947257D02*
X138624061Y-119090114D01*
X138624061Y-119090114D02*
X138624061Y-119232971D01*
X138624061Y-119232971D02*
X139338346Y-119375828D01*
X137981204Y-118875828D02*
X137981204Y-119875828D01*
X137981204Y-119018685D02*
X137909775Y-118947257D01*
X137909775Y-118947257D02*
X137766918Y-118875828D01*
X137766918Y-118875828D02*
X137552632Y-118875828D01*
X137552632Y-118875828D02*
X137409775Y-118947257D01*
X137409775Y-118947257D02*
X137338347Y-119090114D01*
X137338347Y-119090114D02*
X137338347Y-119875828D01*
X136695489Y-119804400D02*
X136552632Y-119875828D01*
X136552632Y-119875828D02*
X136266918Y-119875828D01*
X136266918Y-119875828D02*
X136124061Y-119804400D01*
X136124061Y-119804400D02*
X136052632Y-119661542D01*
X136052632Y-119661542D02*
X136052632Y-119590114D01*
X136052632Y-119590114D02*
X136124061Y-119447257D01*
X136124061Y-119447257D02*
X136266918Y-119375828D01*
X136266918Y-119375828D02*
X136481204Y-119375828D01*
X136481204Y-119375828D02*
X136624061Y-119304400D01*
X136624061Y-119304400D02*
X136695489Y-119161542D01*
X136695489Y-119161542D02*
X136695489Y-119090114D01*
X136695489Y-119090114D02*
X136624061Y-118947257D01*
X136624061Y-118947257D02*
X136481204Y-118875828D01*
X136481204Y-118875828D02*
X136266918Y-118875828D01*
X136266918Y-118875828D02*
X136124061Y-118947257D01*
X134766918Y-119875828D02*
X134766918Y-119090114D01*
X134766918Y-119090114D02*
X134838346Y-118947257D01*
X134838346Y-118947257D02*
X134981203Y-118875828D01*
X134981203Y-118875828D02*
X135266918Y-118875828D01*
X135266918Y-118875828D02*
X135409775Y-118947257D01*
X134766918Y-119804400D02*
X134909775Y-119875828D01*
X134909775Y-119875828D02*
X135266918Y-119875828D01*
X135266918Y-119875828D02*
X135409775Y-119804400D01*
X135409775Y-119804400D02*
X135481203Y-119661542D01*
X135481203Y-119661542D02*
X135481203Y-119518685D01*
X135481203Y-119518685D02*
X135409775Y-119375828D01*
X135409775Y-119375828D02*
X135266918Y-119304400D01*
X135266918Y-119304400D02*
X134909775Y-119304400D01*
X134909775Y-119304400D02*
X134766918Y-119232971D01*
X133338346Y-119875828D02*
X134052632Y-119875828D01*
X134052632Y-119875828D02*
X134052632Y-118375828D01*
X132838346Y-119875828D02*
X132838346Y-118875828D01*
X132838346Y-118375828D02*
X132909774Y-118447257D01*
X132909774Y-118447257D02*
X132838346Y-118518685D01*
X132838346Y-118518685D02*
X132766917Y-118447257D01*
X132766917Y-118447257D02*
X132838346Y-118375828D01*
X132838346Y-118375828D02*
X132838346Y-118518685D01*
X132124060Y-119875828D02*
X132124060Y-118875828D01*
X132124060Y-119018685D02*
X132052631Y-118947257D01*
X132052631Y-118947257D02*
X131909774Y-118875828D01*
X131909774Y-118875828D02*
X131695488Y-118875828D01*
X131695488Y-118875828D02*
X131552631Y-118947257D01*
X131552631Y-118947257D02*
X131481203Y-119090114D01*
X131481203Y-119090114D02*
X131481203Y-119875828D01*
X131481203Y-119090114D02*
X131409774Y-118947257D01*
X131409774Y-118947257D02*
X131266917Y-118875828D01*
X131266917Y-118875828D02*
X131052631Y-118875828D01*
X131052631Y-118875828D02*
X130909774Y-118947257D01*
X130909774Y-118947257D02*
X130838345Y-119090114D01*
X130838345Y-119090114D02*
X130838345Y-119875828D01*
X130124060Y-119875828D02*
X130124060Y-118375828D01*
X130124060Y-118947257D02*
X129981203Y-118875828D01*
X129981203Y-118875828D02*
X129695488Y-118875828D01*
X129695488Y-118875828D02*
X129552631Y-118947257D01*
X129552631Y-118947257D02*
X129481203Y-119018685D01*
X129481203Y-119018685D02*
X129409774Y-119161542D01*
X129409774Y-119161542D02*
X129409774Y-119590114D01*
X129409774Y-119590114D02*
X129481203Y-119732971D01*
X129481203Y-119732971D02*
X129552631Y-119804400D01*
X129552631Y-119804400D02*
X129695488Y-119875828D01*
X129695488Y-119875828D02*
X129981203Y-119875828D01*
X129981203Y-119875828D02*
X130124060Y-119804400D01*
X127695488Y-119804400D02*
X127552631Y-119875828D01*
X127552631Y-119875828D02*
X127266917Y-119875828D01*
X127266917Y-119875828D02*
X127124060Y-119804400D01*
X127124060Y-119804400D02*
X127052631Y-119661542D01*
X127052631Y-119661542D02*
X127052631Y-119590114D01*
X127052631Y-119590114D02*
X127124060Y-119447257D01*
X127124060Y-119447257D02*
X127266917Y-119375828D01*
X127266917Y-119375828D02*
X127481203Y-119375828D01*
X127481203Y-119375828D02*
X127624060Y-119304400D01*
X127624060Y-119304400D02*
X127695488Y-119161542D01*
X127695488Y-119161542D02*
X127695488Y-119090114D01*
X127695488Y-119090114D02*
X127624060Y-118947257D01*
X127624060Y-118947257D02*
X127481203Y-118875828D01*
X127481203Y-118875828D02*
X127266917Y-118875828D01*
X127266917Y-118875828D02*
X127124060Y-118947257D01*
X126409774Y-119090114D02*
X125909774Y-119090114D01*
X125695488Y-119875828D02*
X126409774Y-119875828D01*
X126409774Y-119875828D02*
X126409774Y-118375828D01*
X126409774Y-118375828D02*
X125695488Y-118375828D01*
X125052631Y-119875828D02*
X125052631Y-118375828D01*
X125052631Y-118375828D02*
X124552631Y-119447257D01*
X124552631Y-119447257D02*
X124052631Y-118375828D01*
X124052631Y-118375828D02*
X124052631Y-119875828D01*
X122552630Y-118447257D02*
X122695488Y-118375828D01*
X122695488Y-118375828D02*
X122909773Y-118375828D01*
X122909773Y-118375828D02*
X123124059Y-118447257D01*
X123124059Y-118447257D02*
X123266916Y-118590114D01*
X123266916Y-118590114D02*
X123338345Y-118732971D01*
X123338345Y-118732971D02*
X123409773Y-119018685D01*
X123409773Y-119018685D02*
X123409773Y-119232971D01*
X123409773Y-119232971D02*
X123338345Y-119518685D01*
X123338345Y-119518685D02*
X123266916Y-119661542D01*
X123266916Y-119661542D02*
X123124059Y-119804400D01*
X123124059Y-119804400D02*
X122909773Y-119875828D01*
X122909773Y-119875828D02*
X122766916Y-119875828D01*
X122766916Y-119875828D02*
X122552630Y-119804400D01*
X122552630Y-119804400D02*
X122481202Y-119732971D01*
X122481202Y-119732971D02*
X122481202Y-119232971D01*
X122481202Y-119232971D02*
X122766916Y-119232971D01*
X134438346Y-121175828D02*
X134081203Y-122175828D01*
X134081203Y-122175828D02*
X133724060Y-121175828D01*
X132866917Y-120675828D02*
X132724060Y-120675828D01*
X132724060Y-120675828D02*
X132581203Y-120747257D01*
X132581203Y-120747257D02*
X132509775Y-120818685D01*
X132509775Y-120818685D02*
X132438346Y-120961542D01*
X132438346Y-120961542D02*
X132366917Y-121247257D01*
X132366917Y-121247257D02*
X132366917Y-121604400D01*
X132366917Y-121604400D02*
X132438346Y-121890114D01*
X132438346Y-121890114D02*
X132509775Y-122032971D01*
X132509775Y-122032971D02*
X132581203Y-122104400D01*
X132581203Y-122104400D02*
X132724060Y-122175828D01*
X132724060Y-122175828D02*
X132866917Y-122175828D01*
X132866917Y-122175828D02*
X133009775Y-122104400D01*
X133009775Y-122104400D02*
X133081203Y-122032971D01*
X133081203Y-122032971D02*
X133152632Y-121890114D01*
X133152632Y-121890114D02*
X133224060Y-121604400D01*
X133224060Y-121604400D02*
X133224060Y-121247257D01*
X133224060Y-121247257D02*
X133152632Y-120961542D01*
X133152632Y-120961542D02*
X133081203Y-120818685D01*
X133081203Y-120818685D02*
X133009775Y-120747257D01*
X133009775Y-120747257D02*
X132866917Y-120675828D01*
X131724061Y-122032971D02*
X131652632Y-122104400D01*
X131652632Y-122104400D02*
X131724061Y-122175828D01*
X131724061Y-122175828D02*
X131795489Y-122104400D01*
X131795489Y-122104400D02*
X131724061Y-122032971D01*
X131724061Y-122032971D02*
X131724061Y-122175828D01*
X130366918Y-121175828D02*
X130366918Y-122175828D01*
X130724060Y-120604400D02*
X131081203Y-121675828D01*
X131081203Y-121675828D02*
X130152632Y-121675828D01*
D12*
X152218904Y-106822119D02*
X152218904Y-107631642D01*
X152218904Y-107631642D02*
X152171285Y-107726880D01*
X152171285Y-107726880D02*
X152123666Y-107774500D01*
X152123666Y-107774500D02*
X152028428Y-107822119D01*
X152028428Y-107822119D02*
X151837952Y-107822119D01*
X151837952Y-107822119D02*
X151742714Y-107774500D01*
X151742714Y-107774500D02*
X151695095Y-107726880D01*
X151695095Y-107726880D02*
X151647476Y-107631642D01*
X151647476Y-107631642D02*
X151647476Y-106822119D01*
X151218904Y-106917357D02*
X151171285Y-106869738D01*
X151171285Y-106869738D02*
X151076047Y-106822119D01*
X151076047Y-106822119D02*
X150837952Y-106822119D01*
X150837952Y-106822119D02*
X150742714Y-106869738D01*
X150742714Y-106869738D02*
X150695095Y-106917357D01*
X150695095Y-106917357D02*
X150647476Y-107012595D01*
X150647476Y-107012595D02*
X150647476Y-107107833D01*
X150647476Y-107107833D02*
X150695095Y-107250690D01*
X150695095Y-107250690D02*
X151266523Y-107822119D01*
X151266523Y-107822119D02*
X150647476Y-107822119D01*
X112761904Y-106407419D02*
X112761904Y-107216942D01*
X112761904Y-107216942D02*
X112714285Y-107312180D01*
X112714285Y-107312180D02*
X112666666Y-107359800D01*
X112666666Y-107359800D02*
X112571428Y-107407419D01*
X112571428Y-107407419D02*
X112380952Y-107407419D01*
X112380952Y-107407419D02*
X112285714Y-107359800D01*
X112285714Y-107359800D02*
X112238095Y-107312180D01*
X112238095Y-107312180D02*
X112190476Y-107216942D01*
X112190476Y-107216942D02*
X112190476Y-106407419D01*
X111190476Y-107407419D02*
X111761904Y-107407419D01*
X111476190Y-107407419D02*
X111476190Y-106407419D01*
X111476190Y-106407419D02*
X111571428Y-106550276D01*
X111571428Y-106550276D02*
X111666666Y-106645514D01*
X111666666Y-106645514D02*
X111761904Y-106693133D01*
M02*
