%TF.GenerationSoftware,KiCad,Pcbnew,9.0.4*%
%TF.CreationDate,2026-01-29T02:05:23+03:00*%
%TF.ProjectId,EMG sensors,454d4720-7365-46e7-936f-72732e6b6963,rev?*%
%TF.SameCoordinates,Original*%
%TF.FileFunction,Copper,L3,Inr*%
%TF.FilePolarity,Positive*%
%FSLAX46Y46*%
G04 Gerber Fmt 4.6, Leading zero omitted, Abs format (unit mm)*
G04 Created by KiCad (PCBNEW 9.0.4) date 2026-01-29 02:05:23*
%MOMM*%
%LPD*%
G01*
G04 APERTURE LIST*
G04 Aperture macros list*
%AMRoundRect*
0 Rectangle with rounded corners*
0 $1 Rounding radius*
0 $2 $3 $4 $5 $6 $7 $8 $9 X,Y pos of 4 corners*
0 Add a 4 corners polygon primitive as box body*
4,1,4,$2,$3,$4,$5,$6,$7,$8,$9,$2,$3,0*
0 Add four circle primitives for the rounded corners*
1,1,$1+$1,$2,$3*
1,1,$1+$1,$4,$5*
1,1,$1+$1,$6,$7*
1,1,$1+$1,$8,$9*
0 Add four rect primitives between the rounded corners*
20,1,$1+$1,$2,$3,$4,$5,0*
20,1,$1+$1,$4,$5,$6,$7,0*
20,1,$1+$1,$6,$7,$8,$9,0*
20,1,$1+$1,$8,$9,$2,$3,0*%
G04 Aperture macros list end*
%TA.AperFunction,ComponentPad*%
%ADD10C,3.000000*%
%TD*%
%TA.AperFunction,ComponentPad*%
%ADD11RoundRect,0.270000X-0.980000X-0.630000X0.980000X-0.630000X0.980000X0.630000X-0.980000X0.630000X0*%
%TD*%
%TA.AperFunction,ComponentPad*%
%ADD12R,1.218000X1.218000*%
%TD*%
%TA.AperFunction,ComponentPad*%
%ADD13C,1.218000*%
%TD*%
%TA.AperFunction,ComponentPad*%
%ADD14RoundRect,0.270000X0.980000X0.630000X-0.980000X0.630000X-0.980000X-0.630000X0.980000X-0.630000X0*%
%TD*%
%TA.AperFunction,ComponentPad*%
%ADD15C,4.000000*%
%TD*%
%TA.AperFunction,ViaPad*%
%ADD16C,0.800000*%
%TD*%
G04 APERTURE END LIST*
D10*
%TO.N,Net-(J2-Pin_1)*%
%TO.C,J2*%
X119899300Y-102287500D03*
D11*
%TO.N,N/C*%
X109274300Y-99112500D03*
X109274300Y-105462500D03*
%TD*%
D12*
%TO.N,Net-(U5-NEGA)*%
%TO.C,VR1*%
X130221800Y-105587500D03*
D13*
X132761800Y-105587500D03*
%TO.N,INVERTED*%
X135301800Y-105587500D03*
%TD*%
D10*
%TO.N,/AEMG*%
%TO.C,J4*%
X142000000Y-101925000D03*
D14*
%TO.N,N/C*%
X152625000Y-105100000D03*
X152625000Y-98750000D03*
%TD*%
D15*
%TO.N,Vin2*%
%TO.C,U2*%
X151457000Y-110525000D03*
%TD*%
%TO.N,Vin1*%
%TO.C,U1*%
X112000000Y-110550000D03*
%TD*%
D16*
%TO.N,GND*%
X125200000Y-112150000D03*
X131850000Y-112525000D03*
X145770200Y-115410000D03*
X145770200Y-116240500D03*
X146960000Y-115410000D03*
X157950000Y-110800000D03*
X141200000Y-116290000D03*
X131850000Y-115300000D03*
X143527000Y-109939000D03*
X141156000Y-112131000D03*
X154950000Y-110800000D03*
X142300000Y-115438000D03*
X125250000Y-113600000D03*
X131850000Y-113443850D03*
X131850000Y-114375000D03*
X125450000Y-116687500D03*
X120562500Y-109770000D03*
X136075000Y-113586100D03*
X142300000Y-116290000D03*
X141156000Y-111031000D03*
X120275000Y-116687500D03*
%TO.N,non-filtered*%
X139607000Y-118067000D03*
X139607000Y-116010000D03*
%TO.N,/+2.5V*%
X136075000Y-115300000D03*
X145953000Y-117963000D03*
X122300000Y-109600000D03*
X154950000Y-109550000D03*
X116361800Y-110487750D03*
X115261800Y-109312500D03*
X117561800Y-109312500D03*
X157950000Y-109550000D03*
%TO.N,/-2.5V*%
X125250000Y-115325000D03*
X157950000Y-112050000D03*
X131642200Y-110925000D03*
X142122000Y-113728000D03*
X154950000Y-112050000D03*
%TD*%
%TA.AperFunction,Conductor*%
%TO.N,/+2.5V*%
G36*
X150428203Y-97470185D02*
G01*
X150473958Y-97522989D01*
X150483902Y-97592147D01*
X150474063Y-97625781D01*
X150440949Y-97698681D01*
X150385070Y-97920447D01*
X150374500Y-98054747D01*
X150374500Y-99445238D01*
X150374501Y-99445253D01*
X150380261Y-99518439D01*
X150385070Y-99579553D01*
X150440949Y-99801316D01*
X150488238Y-99905426D01*
X150535528Y-100009537D01*
X150535531Y-100009543D01*
X150665759Y-100197514D01*
X150665763Y-100197519D01*
X150665766Y-100197523D01*
X150827477Y-100359234D01*
X150827481Y-100359237D01*
X150827485Y-100359240D01*
X151015456Y-100489468D01*
X151015462Y-100489471D01*
X151015463Y-100489471D01*
X151015464Y-100489472D01*
X151223684Y-100584051D01*
X151445447Y-100639930D01*
X151579753Y-100650500D01*
X153670246Y-100650499D01*
X153804553Y-100639930D01*
X154026316Y-100584051D01*
X154234536Y-100489472D01*
X154234538Y-100489470D01*
X154234543Y-100489468D01*
X154422514Y-100359240D01*
X154422523Y-100359234D01*
X154584234Y-100197523D01*
X154630285Y-100131052D01*
X154714468Y-100009543D01*
X154714471Y-100009537D01*
X154714472Y-100009536D01*
X154809051Y-99801316D01*
X154864930Y-99579553D01*
X154875500Y-99445247D01*
X154875499Y-98202749D01*
X154883119Y-98176796D01*
X154887250Y-98150061D01*
X154892817Y-98143769D01*
X154895184Y-98135711D01*
X154915626Y-98117996D01*
X154933555Y-98097739D01*
X154941638Y-98095457D01*
X154947987Y-98089956D01*
X154974764Y-98086105D01*
X155000797Y-98078757D01*
X155012886Y-98080624D01*
X155017146Y-98080012D01*
X155035677Y-98084145D01*
X155173708Y-98126249D01*
X155180016Y-98128362D01*
X155838858Y-98369032D01*
X155845076Y-98371496D01*
X156489918Y-98647480D01*
X156495995Y-98650278D01*
X157124911Y-98960751D01*
X157130846Y-98963883D01*
X157367157Y-99096913D01*
X157742052Y-99307959D01*
X157747813Y-99311411D01*
X157958059Y-99445253D01*
X158218735Y-99611199D01*
X158339487Y-99688069D01*
X158345046Y-99691824D01*
X158507069Y-99807753D01*
X158915444Y-100099950D01*
X158920798Y-100104004D01*
X159468271Y-100542418D01*
X159473398Y-100546756D01*
X159995026Y-101012999D01*
X159996338Y-101014171D01*
X160001217Y-101018775D01*
X160498114Y-101513845D01*
X160502717Y-101518687D01*
X160912724Y-101974014D01*
X160972049Y-102039896D01*
X160976406Y-102045006D01*
X161416839Y-102590868D01*
X161420913Y-102596207D01*
X161831139Y-103165100D01*
X161834918Y-103170651D01*
X162213750Y-103760930D01*
X162217223Y-103766678D01*
X162563539Y-104376596D01*
X162566695Y-104382524D01*
X162879487Y-105010302D01*
X162882316Y-105016386D01*
X162966289Y-105210607D01*
X163160663Y-105660179D01*
X163163160Y-105666413D01*
X163406239Y-106324322D01*
X163408395Y-106330682D01*
X163615505Y-107000801D01*
X163617313Y-107007269D01*
X163787831Y-107687586D01*
X163789287Y-107694141D01*
X163922729Y-108382718D01*
X163923828Y-108389344D01*
X164019795Y-109084140D01*
X164020533Y-109090815D01*
X164078743Y-109789769D01*
X164079119Y-109796474D01*
X164099403Y-110497552D01*
X164099416Y-110504267D01*
X164081714Y-111205451D01*
X164081362Y-111212158D01*
X164025727Y-111911319D01*
X164025013Y-111917997D01*
X163931607Y-112613124D01*
X163930533Y-112619753D01*
X163799630Y-113308806D01*
X163798199Y-113315367D01*
X163630181Y-113996338D01*
X163628396Y-114002812D01*
X163423756Y-114673689D01*
X163421625Y-114680049D01*
X163365559Y-114833535D01*
X163180974Y-115338840D01*
X163178500Y-115345083D01*
X162902524Y-115989907D01*
X162899715Y-115996007D01*
X162589248Y-116624911D01*
X162586114Y-116630850D01*
X162242040Y-117242052D01*
X162238588Y-117247813D01*
X161861930Y-117839487D01*
X161858171Y-117845052D01*
X161450049Y-118415444D01*
X161445995Y-118420798D01*
X161007581Y-118968271D01*
X161003243Y-118973398D01*
X160535828Y-119496338D01*
X160531219Y-119501222D01*
X160036167Y-119998102D01*
X160031299Y-120002729D01*
X159510103Y-120472049D01*
X159504993Y-120476406D01*
X158959131Y-120916839D01*
X158953792Y-120920913D01*
X158384899Y-121331139D01*
X158379348Y-121334918D01*
X157789069Y-121713750D01*
X157783321Y-121717223D01*
X157173403Y-122063539D01*
X157167475Y-122066695D01*
X156539697Y-122379487D01*
X156533607Y-122382319D01*
X155889820Y-122660663D01*
X155883586Y-122663160D01*
X155225677Y-122906239D01*
X155219317Y-122908395D01*
X154549198Y-123115505D01*
X154542730Y-123117313D01*
X153862413Y-123287831D01*
X153855858Y-123289287D01*
X153167281Y-123422729D01*
X153160655Y-123423828D01*
X152465859Y-123519795D01*
X152459184Y-123520533D01*
X151760230Y-123578743D01*
X151753525Y-123579119D01*
X151050909Y-123599447D01*
X151047323Y-123599499D01*
X112123908Y-123599499D01*
X112115420Y-123599498D01*
X112114970Y-123599379D01*
X112051227Y-123599497D01*
X112050535Y-123599497D01*
X112050525Y-123599494D01*
X112047409Y-123599458D01*
X111344548Y-123581714D01*
X111337841Y-123581362D01*
X110638680Y-123525727D01*
X110632002Y-123525013D01*
X109936875Y-123431607D01*
X109930246Y-123430533D01*
X109241193Y-123299630D01*
X109234632Y-123298199D01*
X108553661Y-123130181D01*
X108547187Y-123128396D01*
X107876310Y-122923756D01*
X107869961Y-122921629D01*
X107211159Y-122680974D01*
X107204916Y-122678500D01*
X106560092Y-122402524D01*
X106553992Y-122399715D01*
X105925088Y-122089248D01*
X105919149Y-122086114D01*
X105307947Y-121742040D01*
X105302186Y-121738588D01*
X104710512Y-121361930D01*
X104704947Y-121358171D01*
X104134555Y-120950049D01*
X104129201Y-120945995D01*
X103581728Y-120507581D01*
X103576601Y-120503243D01*
X103053661Y-120035828D01*
X103048777Y-120031219D01*
X103020182Y-120002729D01*
X102551884Y-119536153D01*
X102547283Y-119531313D01*
X102077945Y-119010097D01*
X102073593Y-119004993D01*
X102048100Y-118973398D01*
X101821456Y-118692501D01*
X101633160Y-118459131D01*
X101629086Y-118453792D01*
X101396374Y-118131071D01*
X138956499Y-118131071D01*
X138981497Y-118256738D01*
X138981499Y-118256744D01*
X139030533Y-118375124D01*
X139030538Y-118375133D01*
X139101723Y-118481668D01*
X139101726Y-118481672D01*
X139192327Y-118572273D01*
X139192331Y-118572276D01*
X139298866Y-118643461D01*
X139298872Y-118643464D01*
X139298873Y-118643465D01*
X139417256Y-118692501D01*
X139417260Y-118692501D01*
X139417261Y-118692502D01*
X139542928Y-118717500D01*
X139542931Y-118717500D01*
X139671071Y-118717500D01*
X139755615Y-118700682D01*
X139796744Y-118692501D01*
X139915127Y-118643465D01*
X140021669Y-118572276D01*
X140112276Y-118481669D01*
X140183465Y-118375127D01*
X140232501Y-118256744D01*
X140257500Y-118131069D01*
X140257500Y-118002931D01*
X140257500Y-118002928D01*
X140232502Y-117877261D01*
X140232501Y-117877260D01*
X140232501Y-117877256D01*
X140183465Y-117758873D01*
X140183464Y-117758872D01*
X140183461Y-117758866D01*
X140112276Y-117652331D01*
X140112273Y-117652327D01*
X140021672Y-117561726D01*
X140021668Y-117561723D01*
X139915133Y-117490538D01*
X139915124Y-117490533D01*
X139796744Y-117441499D01*
X139796738Y-117441497D01*
X139671071Y-117416500D01*
X139671069Y-117416500D01*
X139542931Y-117416500D01*
X139542929Y-117416500D01*
X139417261Y-117441497D01*
X139417255Y-117441499D01*
X139298875Y-117490533D01*
X139298866Y-117490538D01*
X139192331Y-117561723D01*
X139192327Y-117561726D01*
X139101726Y-117652327D01*
X139101723Y-117652331D01*
X139030538Y-117758866D01*
X139030533Y-117758875D01*
X138981499Y-117877255D01*
X138981497Y-117877261D01*
X138956500Y-118002928D01*
X138956500Y-118002931D01*
X138956500Y-118131069D01*
X138956500Y-118131071D01*
X138956499Y-118131071D01*
X101396374Y-118131071D01*
X101351878Y-118069365D01*
X101218860Y-117884899D01*
X101215081Y-117879348D01*
X100836249Y-117289069D01*
X100832776Y-117283321D01*
X100530845Y-116751571D01*
X119624499Y-116751571D01*
X119649497Y-116877238D01*
X119649499Y-116877244D01*
X119698533Y-116995624D01*
X119698538Y-116995633D01*
X119769723Y-117102168D01*
X119769726Y-117102172D01*
X119860327Y-117192773D01*
X119860331Y-117192776D01*
X119966866Y-117263961D01*
X119966872Y-117263964D01*
X119966873Y-117263965D01*
X120085256Y-117313001D01*
X120085260Y-117313001D01*
X120085261Y-117313002D01*
X120210928Y-117338000D01*
X120210931Y-117338000D01*
X120339071Y-117338000D01*
X120423615Y-117321182D01*
X120464744Y-117313001D01*
X120583127Y-117263965D01*
X120689669Y-117192776D01*
X120780276Y-117102169D01*
X120851465Y-116995627D01*
X120900501Y-116877244D01*
X120916806Y-116795276D01*
X120925500Y-116751571D01*
X120925500Y-116623428D01*
X120900502Y-116497761D01*
X120900501Y-116497760D01*
X120900501Y-116497756D01*
X120851465Y-116379373D01*
X120851464Y-116379372D01*
X120851461Y-116379366D01*
X120780276Y-116272831D01*
X120780273Y-116272827D01*
X120689672Y-116182226D01*
X120689668Y-116182223D01*
X120583133Y-116111038D01*
X120583124Y-116111033D01*
X120464744Y-116061999D01*
X120464738Y-116061997D01*
X120339071Y-116037000D01*
X120339069Y-116037000D01*
X120210931Y-116037000D01*
X120210929Y-116037000D01*
X120085261Y-116061997D01*
X120085255Y-116061999D01*
X119966875Y-116111033D01*
X119966866Y-116111038D01*
X119860331Y-116182223D01*
X119860327Y-116182226D01*
X119769726Y-116272827D01*
X119769723Y-116272831D01*
X119698538Y-116379366D01*
X119698533Y-116379375D01*
X119649499Y-116497755D01*
X119649497Y-116497761D01*
X119624500Y-116623428D01*
X119624500Y-116623431D01*
X119624500Y-116751569D01*
X119624500Y-116751571D01*
X119624499Y-116751571D01*
X100530845Y-116751571D01*
X100489392Y-116678566D01*
X100489391Y-116678564D01*
X100486464Y-116673409D01*
X100483304Y-116667475D01*
X100170512Y-116039697D01*
X100167690Y-116033630D01*
X99889327Y-115389799D01*
X99889035Y-115389071D01*
X124599499Y-115389071D01*
X124624497Y-115514738D01*
X124624499Y-115514744D01*
X124673533Y-115633124D01*
X124673538Y-115633133D01*
X124744723Y-115739668D01*
X124744726Y-115739672D01*
X124835327Y-115830273D01*
X124835331Y-115830276D01*
X124941866Y-115901461D01*
X124941875Y-115901466D01*
X125044624Y-115944026D01*
X125099027Y-115987867D01*
X125121092Y-116054161D01*
X125103813Y-116121860D01*
X125066063Y-116161688D01*
X125035334Y-116182221D01*
X125035327Y-116182226D01*
X124944726Y-116272827D01*
X124944723Y-116272831D01*
X124873538Y-116379366D01*
X124873533Y-116379375D01*
X124824499Y-116497755D01*
X124824497Y-116497761D01*
X124799500Y-116623428D01*
X124799500Y-116623431D01*
X124799500Y-116751569D01*
X124799500Y-116751571D01*
X124799499Y-116751571D01*
X124824497Y-116877238D01*
X124824499Y-116877244D01*
X124873533Y-116995624D01*
X124873538Y-116995633D01*
X124944723Y-117102168D01*
X124944726Y-117102172D01*
X125035327Y-117192773D01*
X125035331Y-117192776D01*
X125141866Y-117263961D01*
X125141872Y-117263964D01*
X125141873Y-117263965D01*
X125260256Y-117313001D01*
X125260260Y-117313001D01*
X125260261Y-117313002D01*
X125385928Y-117338000D01*
X125385931Y-117338000D01*
X125514071Y-117338000D01*
X125598615Y-117321182D01*
X125639744Y-117313001D01*
X125758127Y-117263965D01*
X125864669Y-117192776D01*
X125955276Y-117102169D01*
X126026465Y-116995627D01*
X126075501Y-116877244D01*
X126091806Y-116795276D01*
X126100500Y-116751571D01*
X126100500Y-116623428D01*
X126075502Y-116497761D01*
X126075501Y-116497760D01*
X126075501Y-116497756D01*
X126026465Y-116379373D01*
X126026464Y-116379372D01*
X126026461Y-116379366D01*
X125955276Y-116272831D01*
X125955273Y-116272827D01*
X125864672Y-116182226D01*
X125864668Y-116182223D01*
X125758133Y-116111038D01*
X125758123Y-116111033D01*
X125668890Y-116074071D01*
X138956499Y-116074071D01*
X138981497Y-116199738D01*
X138981499Y-116199744D01*
X139030533Y-116318124D01*
X139030538Y-116318133D01*
X139101723Y-116424668D01*
X139101726Y-116424672D01*
X139192327Y-116515273D01*
X139192331Y-116515276D01*
X139298866Y-116586461D01*
X139298872Y-116586464D01*
X139298873Y-116586465D01*
X139417256Y-116635501D01*
X139417260Y-116635501D01*
X139417261Y-116635502D01*
X139542928Y-116660500D01*
X139542931Y-116660500D01*
X139671071Y-116660500D01*
X139785518Y-116637734D01*
X139796744Y-116635501D01*
X139915127Y-116586465D01*
X140021669Y-116515276D01*
X140112276Y-116424669D01*
X140159448Y-116354071D01*
X140549499Y-116354071D01*
X140574497Y-116479738D01*
X140574499Y-116479744D01*
X140623533Y-116598124D01*
X140623538Y-116598133D01*
X140694723Y-116704668D01*
X140694726Y-116704672D01*
X140785327Y-116795273D01*
X140785331Y-116795276D01*
X140891866Y-116866461D01*
X140891872Y-116866464D01*
X140891873Y-116866465D01*
X141010256Y-116915501D01*
X141010260Y-116915501D01*
X141010261Y-116915502D01*
X141135928Y-116940500D01*
X141135931Y-116940500D01*
X141264071Y-116940500D01*
X141348615Y-116923682D01*
X141389744Y-116915501D01*
X141508127Y-116866465D01*
X141614669Y-116795276D01*
X141614672Y-116795273D01*
X141662319Y-116747627D01*
X141723642Y-116714142D01*
X141793334Y-116719126D01*
X141837681Y-116747627D01*
X141885327Y-116795273D01*
X141885331Y-116795276D01*
X141991866Y-116866461D01*
X141991872Y-116866464D01*
X141991873Y-116866465D01*
X142110256Y-116915501D01*
X142110260Y-116915501D01*
X142110261Y-116915502D01*
X142235928Y-116940500D01*
X142235931Y-116940500D01*
X142364071Y-116940500D01*
X142448615Y-116923682D01*
X142489744Y-116915501D01*
X142608127Y-116866465D01*
X142714669Y-116795276D01*
X142805276Y-116704669D01*
X142876465Y-116598127D01*
X142925501Y-116479744D01*
X142950500Y-116354069D01*
X142950500Y-116225931D01*
X142950500Y-116225928D01*
X142925502Y-116100261D01*
X142925501Y-116100260D01*
X142925501Y-116100256D01*
X142878948Y-115987867D01*
X142876466Y-115981875D01*
X142876460Y-115981864D01*
X142843737Y-115932892D01*
X142822858Y-115866215D01*
X142841342Y-115798834D01*
X142843737Y-115795108D01*
X142876460Y-115746135D01*
X142876461Y-115746132D01*
X142876465Y-115746127D01*
X142925501Y-115627744D01*
X142933682Y-115586615D01*
X142950500Y-115502071D01*
X142950500Y-115474071D01*
X145119699Y-115474071D01*
X145144697Y-115599738D01*
X145144699Y-115599744D01*
X145193733Y-115718124D01*
X145193741Y-115718138D01*
X145219280Y-115756360D01*
X145240158Y-115823037D01*
X145221673Y-115890417D01*
X145219280Y-115894140D01*
X145193741Y-115932361D01*
X145193733Y-115932375D01*
X145144699Y-116050755D01*
X145144697Y-116050761D01*
X145119700Y-116176428D01*
X145119700Y-116176431D01*
X145119700Y-116304569D01*
X145119700Y-116304571D01*
X145119699Y-116304571D01*
X145144697Y-116430238D01*
X145144699Y-116430244D01*
X145193733Y-116548624D01*
X145193738Y-116548633D01*
X145264923Y-116655168D01*
X145264926Y-116655172D01*
X145355527Y-116745773D01*
X145355531Y-116745776D01*
X145462066Y-116816961D01*
X145462072Y-116816964D01*
X145462073Y-116816965D01*
X145580456Y-116866001D01*
X145580460Y-116866001D01*
X145580461Y-116866002D01*
X145706128Y-116891000D01*
X145706131Y-116891000D01*
X145834271Y-116891000D01*
X145918815Y-116874182D01*
X145959944Y-116866001D01*
X146078327Y-116816965D01*
X146184869Y-116745776D01*
X146275476Y-116655169D01*
X146346665Y-116548627D01*
X146395701Y-116430244D01*
X146420700Y-116304569D01*
X146420700Y-116176431D01*
X146420700Y-116176428D01*
X146400089Y-116072816D01*
X146406316Y-116003225D01*
X146449178Y-115948047D01*
X146515068Y-115924802D01*
X146583065Y-115940869D01*
X146590597Y-115945522D01*
X146651866Y-115986461D01*
X146651875Y-115986466D01*
X146667621Y-115992988D01*
X146770256Y-116035501D01*
X146770260Y-116035501D01*
X146770261Y-116035502D01*
X146895928Y-116060500D01*
X146895931Y-116060500D01*
X147024071Y-116060500D01*
X147108615Y-116043682D01*
X147149744Y-116035501D01*
X147268127Y-115986465D01*
X147374669Y-115915276D01*
X147465276Y-115824669D01*
X147536465Y-115718127D01*
X147585501Y-115599744D01*
X147604402Y-115504724D01*
X147610500Y-115474071D01*
X147610500Y-115345928D01*
X147585502Y-115220261D01*
X147585501Y-115220260D01*
X147585501Y-115220256D01*
X147547574Y-115128692D01*
X147536466Y-115101875D01*
X147536461Y-115101866D01*
X147465276Y-114995331D01*
X147465273Y-114995327D01*
X147374672Y-114904726D01*
X147374668Y-114904723D01*
X147268133Y-114833538D01*
X147268124Y-114833533D01*
X147149744Y-114784499D01*
X147149738Y-114784497D01*
X147024071Y-114759500D01*
X147024069Y-114759500D01*
X146895931Y-114759500D01*
X146895929Y-114759500D01*
X146770261Y-114784497D01*
X146770255Y-114784499D01*
X146651875Y-114833533D01*
X146651866Y-114833538D01*
X146545331Y-114904723D01*
X146545327Y-114904726D01*
X146452781Y-114997273D01*
X146391458Y-115030758D01*
X146321766Y-115025774D01*
X146277419Y-114997273D01*
X146184872Y-114904726D01*
X146184868Y-114904723D01*
X146078333Y-114833538D01*
X146078324Y-114833533D01*
X145959944Y-114784499D01*
X145959938Y-114784497D01*
X145834271Y-114759500D01*
X145834269Y-114759500D01*
X145706131Y-114759500D01*
X145706129Y-114759500D01*
X145580461Y-114784497D01*
X145580455Y-114784499D01*
X145462075Y-114833533D01*
X145462066Y-114833538D01*
X145355531Y-114904723D01*
X145355527Y-114904726D01*
X145264926Y-114995327D01*
X145264923Y-114995331D01*
X145193738Y-115101866D01*
X145193733Y-115101875D01*
X145144699Y-115220255D01*
X145144697Y-115220261D01*
X145119700Y-115345928D01*
X145119700Y-115345931D01*
X145119700Y-115474069D01*
X145119700Y-115474071D01*
X145119699Y-115474071D01*
X142950500Y-115474071D01*
X142950500Y-115373929D01*
X142948531Y-115364032D01*
X142948531Y-115364031D01*
X142925502Y-115248261D01*
X142925501Y-115248260D01*
X142925501Y-115248256D01*
X142876465Y-115129873D01*
X142876464Y-115129872D01*
X142876461Y-115129866D01*
X142805276Y-115023331D01*
X142805273Y-115023327D01*
X142714672Y-114932726D01*
X142714668Y-114932723D01*
X142608133Y-114861538D01*
X142608124Y-114861533D01*
X142489744Y-114812499D01*
X142489738Y-114812497D01*
X142364071Y-114787500D01*
X142364069Y-114787500D01*
X142235931Y-114787500D01*
X142235929Y-114787500D01*
X142110261Y-114812497D01*
X142110255Y-114812499D01*
X141991875Y-114861533D01*
X141991866Y-114861538D01*
X141885331Y-114932723D01*
X141885327Y-114932726D01*
X141794726Y-115023327D01*
X141794723Y-115023331D01*
X141723538Y-115129866D01*
X141723533Y-115129875D01*
X141674499Y-115248255D01*
X141674497Y-115248261D01*
X141649500Y-115373928D01*
X141649500Y-115373929D01*
X141649500Y-115373931D01*
X141649500Y-115502069D01*
X141649500Y-115502071D01*
X141649499Y-115502071D01*
X141662775Y-115568808D01*
X141656548Y-115638400D01*
X141613685Y-115693577D01*
X141547795Y-115716822D01*
X141493705Y-115707561D01*
X141389744Y-115664499D01*
X141389738Y-115664497D01*
X141264071Y-115639500D01*
X141264069Y-115639500D01*
X141135931Y-115639500D01*
X141135929Y-115639500D01*
X141010261Y-115664497D01*
X141010255Y-115664499D01*
X140891875Y-115713533D01*
X140891866Y-115713538D01*
X140785331Y-115784723D01*
X140785327Y-115784726D01*
X140694726Y-115875327D01*
X140694723Y-115875331D01*
X140623538Y-115981866D01*
X140623533Y-115981875D01*
X140574499Y-116100255D01*
X140574497Y-116100261D01*
X140549500Y-116225928D01*
X140549500Y-116225931D01*
X140549500Y-116354069D01*
X140549500Y-116354071D01*
X140549499Y-116354071D01*
X140159448Y-116354071D01*
X140183465Y-116318127D01*
X140232501Y-116199744D01*
X140257500Y-116074069D01*
X140257500Y-115945931D01*
X140257500Y-115945928D01*
X140232502Y-115820261D01*
X140232501Y-115820260D01*
X140232501Y-115820256D01*
X140183465Y-115701873D01*
X140183464Y-115701872D01*
X140183461Y-115701866D01*
X140112276Y-115595331D01*
X140112273Y-115595327D01*
X140021672Y-115504726D01*
X140021668Y-115504723D01*
X139915133Y-115433538D01*
X139915124Y-115433533D01*
X139796744Y-115384499D01*
X139796738Y-115384497D01*
X139671071Y-115359500D01*
X139671069Y-115359500D01*
X139542931Y-115359500D01*
X139542929Y-115359500D01*
X139417261Y-115384497D01*
X139417255Y-115384499D01*
X139298875Y-115433533D01*
X139298866Y-115433538D01*
X139192331Y-115504723D01*
X139192327Y-115504726D01*
X139101726Y-115595327D01*
X139101723Y-115595331D01*
X139030538Y-115701866D01*
X139030533Y-115701875D01*
X138981499Y-115820255D01*
X138981497Y-115820261D01*
X138956500Y-115945928D01*
X138956500Y-115945931D01*
X138956500Y-116074069D01*
X138956500Y-116074071D01*
X138956499Y-116074071D01*
X125668890Y-116074071D01*
X125655375Y-116068473D01*
X125600972Y-116024632D01*
X125578907Y-115958337D01*
X125596187Y-115890638D01*
X125633939Y-115850809D01*
X125654999Y-115836737D01*
X125664669Y-115830276D01*
X125755276Y-115739669D01*
X125826465Y-115633127D01*
X125875501Y-115514744D01*
X125883682Y-115473615D01*
X125900500Y-115389071D01*
X125900500Y-115260928D01*
X125875502Y-115135261D01*
X125875501Y-115135260D01*
X125875501Y-115135256D01*
X125826465Y-115016873D01*
X125826464Y-115016872D01*
X125826461Y-115016866D01*
X125755276Y-114910331D01*
X125755273Y-114910327D01*
X125664672Y-114819726D01*
X125664668Y-114819723D01*
X125558133Y-114748538D01*
X125558124Y-114748533D01*
X125439744Y-114699499D01*
X125439738Y-114699497D01*
X125314071Y-114674500D01*
X125314069Y-114674500D01*
X125185931Y-114674500D01*
X125185929Y-114674500D01*
X125060261Y-114699497D01*
X125060255Y-114699499D01*
X124941875Y-114748533D01*
X124941866Y-114748538D01*
X124835331Y-114819723D01*
X124835327Y-114819726D01*
X124744726Y-114910327D01*
X124744723Y-114910331D01*
X124673538Y-115016866D01*
X124673533Y-115016875D01*
X124624499Y-115135255D01*
X124624497Y-115135261D01*
X124599500Y-115260928D01*
X124599500Y-115260931D01*
X124599500Y-115389069D01*
X124599500Y-115389071D01*
X124599499Y-115389071D01*
X99889035Y-115389071D01*
X99886847Y-115383607D01*
X99643757Y-114725670D01*
X99641604Y-114719317D01*
X99635479Y-114699499D01*
X99434490Y-114049184D01*
X99432686Y-114042730D01*
X99262163Y-113362391D01*
X99260716Y-113355879D01*
X99127265Y-112667255D01*
X99126175Y-112660681D01*
X99030201Y-111965838D01*
X99029468Y-111959205D01*
X98971254Y-111260199D01*
X98970881Y-111253557D01*
X98950595Y-110552429D01*
X98950584Y-110545731D01*
X98954446Y-110392722D01*
X109199500Y-110392722D01*
X109199500Y-110707277D01*
X109234716Y-111019827D01*
X109234718Y-111019843D01*
X109304710Y-111326499D01*
X109304711Y-111326501D01*
X109408598Y-111623395D01*
X109545072Y-111906786D01*
X109571305Y-111948535D01*
X109712423Y-112173123D01*
X109908539Y-112419044D01*
X110130956Y-112641461D01*
X110376877Y-112837577D01*
X110629386Y-112996239D01*
X110643213Y-113004927D01*
X110681849Y-113023533D01*
X110926606Y-113141402D01*
X111223500Y-113245289D01*
X111530160Y-113315282D01*
X111842723Y-113350499D01*
X111842724Y-113350500D01*
X111842727Y-113350500D01*
X112157276Y-113350500D01*
X112157276Y-113350499D01*
X112469840Y-113315282D01*
X112776500Y-113245289D01*
X113073394Y-113141402D01*
X113356789Y-113004926D01*
X113623123Y-112837577D01*
X113869044Y-112641461D01*
X114091461Y-112419044D01*
X114254922Y-112214071D01*
X124549499Y-112214071D01*
X124574497Y-112339738D01*
X124574499Y-112339744D01*
X124623533Y-112458124D01*
X124623538Y-112458133D01*
X124694723Y-112564668D01*
X124694726Y-112564672D01*
X124785327Y-112655273D01*
X124785331Y-112655276D01*
X124891866Y-112726461D01*
X124891879Y-112726468D01*
X124998892Y-112770794D01*
X125053296Y-112814635D01*
X125075361Y-112880929D01*
X125058082Y-112948628D01*
X125006945Y-112996239D01*
X124998893Y-112999916D01*
X124941876Y-113023533D01*
X124941866Y-113023538D01*
X124835331Y-113094723D01*
X124835327Y-113094726D01*
X124744726Y-113185327D01*
X124744723Y-113185331D01*
X124673538Y-113291866D01*
X124673533Y-113291875D01*
X124624499Y-113410255D01*
X124624497Y-113410261D01*
X124599500Y-113535928D01*
X124599500Y-113535931D01*
X124599500Y-113664069D01*
X124599500Y-113664071D01*
X124599499Y-113664071D01*
X124624497Y-113789738D01*
X124624499Y-113789744D01*
X124673533Y-113908124D01*
X124673538Y-113908133D01*
X124744723Y-114014668D01*
X124744726Y-114014672D01*
X124835327Y-114105273D01*
X124835331Y-114105276D01*
X124941866Y-114176461D01*
X124941872Y-114176464D01*
X124941873Y-114176465D01*
X125060256Y-114225501D01*
X125060260Y-114225501D01*
X125060261Y-114225502D01*
X125185928Y-114250500D01*
X125185931Y-114250500D01*
X125314071Y-114250500D01*
X125398615Y-114233682D01*
X125439744Y-114225501D01*
X125558127Y-114176465D01*
X125664669Y-114105276D01*
X125755276Y-114014669D01*
X125826465Y-113908127D01*
X125875501Y-113789744D01*
X125900500Y-113664069D01*
X125900500Y-113535931D01*
X125900500Y-113535928D01*
X125875502Y-113410261D01*
X125875501Y-113410260D01*
X125875501Y-113410256D01*
X125826465Y-113291873D01*
X125826464Y-113291872D01*
X125826461Y-113291866D01*
X125755276Y-113185331D01*
X125755273Y-113185327D01*
X125664672Y-113094726D01*
X125664668Y-113094723D01*
X125558133Y-113023538D01*
X125558123Y-113023533D01*
X125451106Y-112979205D01*
X125396703Y-112935364D01*
X125374638Y-112869070D01*
X125391917Y-112801370D01*
X125443055Y-112753760D01*
X125451081Y-112750094D01*
X125508127Y-112726465D01*
X125614669Y-112655276D01*
X125680874Y-112589071D01*
X131199499Y-112589071D01*
X131224497Y-112714738D01*
X131224499Y-112714744D01*
X131273533Y-112833124D01*
X131273538Y-112833133D01*
X131328597Y-112915534D01*
X131349475Y-112982212D01*
X131330990Y-113049592D01*
X131328597Y-113053316D01*
X131273538Y-113135716D01*
X131273533Y-113135725D01*
X131224499Y-113254105D01*
X131224497Y-113254111D01*
X131199500Y-113379778D01*
X131199500Y-113379781D01*
X131199500Y-113507919D01*
X131199500Y-113507921D01*
X131199499Y-113507921D01*
X131224497Y-113633588D01*
X131224499Y-113633594D01*
X131273533Y-113751974D01*
X131273538Y-113751983D01*
X131332706Y-113840534D01*
X131353584Y-113907212D01*
X131335099Y-113974592D01*
X131332706Y-113978316D01*
X131273538Y-114066866D01*
X131273533Y-114066875D01*
X131224499Y-114185255D01*
X131224497Y-114185261D01*
X131199500Y-114310928D01*
X131199500Y-114310931D01*
X131199500Y-114439069D01*
X131199500Y-114439071D01*
X131199499Y-114439071D01*
X131224497Y-114564738D01*
X131224499Y-114564744D01*
X131273533Y-114683124D01*
X131273537Y-114683131D01*
X131330652Y-114768610D01*
X131351529Y-114835287D01*
X131333044Y-114902667D01*
X131330652Y-114906390D01*
X131273537Y-114991868D01*
X131273533Y-114991875D01*
X131224499Y-115110255D01*
X131224497Y-115110261D01*
X131199500Y-115235928D01*
X131199500Y-115235931D01*
X131199500Y-115364069D01*
X131199500Y-115364071D01*
X131199499Y-115364071D01*
X131224497Y-115489738D01*
X131224499Y-115489744D01*
X131273533Y-115608124D01*
X131273538Y-115608133D01*
X131344723Y-115714668D01*
X131344726Y-115714672D01*
X131435327Y-115805273D01*
X131435331Y-115805276D01*
X131541866Y-115876461D01*
X131541872Y-115876464D01*
X131541873Y-115876465D01*
X131660256Y-115925501D01*
X131660260Y-115925501D01*
X131660261Y-115925502D01*
X131785928Y-115950500D01*
X131785931Y-115950500D01*
X131914071Y-115950500D01*
X132005257Y-115932361D01*
X132039744Y-115925501D01*
X132158127Y-115876465D01*
X132176782Y-115864000D01*
X132217585Y-115836737D01*
X132242251Y-115820255D01*
X132264669Y-115805276D01*
X132355276Y-115714669D01*
X132426465Y-115608127D01*
X132475501Y-115489744D01*
X132495527Y-115389069D01*
X132500500Y-115364071D01*
X132500500Y-115235928D01*
X132475502Y-115110261D01*
X132475501Y-115110260D01*
X132475501Y-115110256D01*
X132428702Y-114997273D01*
X132426466Y-114991875D01*
X132426461Y-114991866D01*
X132369348Y-114906391D01*
X132348470Y-114839714D01*
X132366954Y-114772333D01*
X132369348Y-114768609D01*
X132426461Y-114683133D01*
X132426462Y-114683131D01*
X132426465Y-114683127D01*
X132475501Y-114564744D01*
X132500500Y-114439069D01*
X132500500Y-114310931D01*
X132500500Y-114310928D01*
X132475502Y-114185261D01*
X132475501Y-114185260D01*
X132475501Y-114185256D01*
X132426465Y-114066873D01*
X132367292Y-113978315D01*
X132346415Y-113911639D01*
X132364899Y-113844259D01*
X132367293Y-113840534D01*
X132399676Y-113792069D01*
X132426465Y-113751977D01*
X132468635Y-113650171D01*
X135424499Y-113650171D01*
X135449497Y-113775838D01*
X135449499Y-113775844D01*
X135498533Y-113894224D01*
X135498538Y-113894233D01*
X135569723Y-114000768D01*
X135569726Y-114000772D01*
X135660327Y-114091373D01*
X135660331Y-114091376D01*
X135766866Y-114162561D01*
X135766872Y-114162564D01*
X135766873Y-114162565D01*
X135885256Y-114211601D01*
X135885260Y-114211601D01*
X135885261Y-114211602D01*
X136010928Y-114236600D01*
X136010931Y-114236600D01*
X136139071Y-114236600D01*
X136223615Y-114219782D01*
X136264744Y-114211601D01*
X136383127Y-114162565D01*
X136489669Y-114091376D01*
X136580276Y-114000769D01*
X136651465Y-113894227D01*
X136693780Y-113792071D01*
X141471499Y-113792071D01*
X141496497Y-113917738D01*
X141496499Y-113917744D01*
X141545533Y-114036124D01*
X141545538Y-114036133D01*
X141616723Y-114142668D01*
X141616726Y-114142672D01*
X141707327Y-114233273D01*
X141707331Y-114233276D01*
X141813866Y-114304461D01*
X141813872Y-114304464D01*
X141813873Y-114304465D01*
X141932256Y-114353501D01*
X141932260Y-114353501D01*
X141932261Y-114353502D01*
X142057928Y-114378500D01*
X142057931Y-114378500D01*
X142186071Y-114378500D01*
X142270615Y-114361682D01*
X142311744Y-114353501D01*
X142430127Y-114304465D01*
X142536669Y-114233276D01*
X142627276Y-114142669D01*
X142698465Y-114036127D01*
X142747501Y-113917744D01*
X142759282Y-113858519D01*
X142772500Y-113792071D01*
X142772500Y-113663928D01*
X142747502Y-113538261D01*
X142747501Y-113538260D01*
X142747501Y-113538256D01*
X142698465Y-113419873D01*
X142698464Y-113419872D01*
X142698461Y-113419866D01*
X142627276Y-113313331D01*
X142627273Y-113313327D01*
X142536672Y-113222726D01*
X142536668Y-113222723D01*
X142430133Y-113151538D01*
X142430124Y-113151533D01*
X142311744Y-113102499D01*
X142311738Y-113102497D01*
X142186071Y-113077500D01*
X142186069Y-113077500D01*
X142057931Y-113077500D01*
X142057929Y-113077500D01*
X141932261Y-113102497D01*
X141932255Y-113102499D01*
X141813875Y-113151533D01*
X141813866Y-113151538D01*
X141707331Y-113222723D01*
X141707327Y-113222726D01*
X141616726Y-113313327D01*
X141616723Y-113313331D01*
X141545538Y-113419866D01*
X141545533Y-113419875D01*
X141496499Y-113538255D01*
X141496497Y-113538261D01*
X141471500Y-113663928D01*
X141471500Y-113663931D01*
X141471500Y-113792069D01*
X141471500Y-113792071D01*
X141471499Y-113792071D01*
X136693780Y-113792071D01*
X136700501Y-113775844D01*
X136725500Y-113650169D01*
X136725500Y-113522031D01*
X136725500Y-113522028D01*
X136700502Y-113396361D01*
X136700501Y-113396360D01*
X136700501Y-113396356D01*
X136651465Y-113277973D01*
X136651464Y-113277972D01*
X136651461Y-113277966D01*
X136580276Y-113171431D01*
X136580273Y-113171427D01*
X136489672Y-113080826D01*
X136489668Y-113080823D01*
X136383133Y-113009638D01*
X136383124Y-113009633D01*
X136264744Y-112960599D01*
X136264738Y-112960597D01*
X136139071Y-112935600D01*
X136139069Y-112935600D01*
X136010931Y-112935600D01*
X136010929Y-112935600D01*
X135885261Y-112960597D01*
X135885255Y-112960599D01*
X135766875Y-113009633D01*
X135766866Y-113009638D01*
X135660331Y-113080823D01*
X135660327Y-113080826D01*
X135569726Y-113171427D01*
X135569723Y-113171431D01*
X135498538Y-113277966D01*
X135498533Y-113277975D01*
X135449499Y-113396355D01*
X135449497Y-113396361D01*
X135424500Y-113522028D01*
X135424500Y-113522031D01*
X135424500Y-113650169D01*
X135424500Y-113650171D01*
X135424499Y-113650171D01*
X132468635Y-113650171D01*
X132475501Y-113633594D01*
X132483682Y-113592465D01*
X132500500Y-113507921D01*
X132500500Y-113379778D01*
X132475502Y-113254111D01*
X132475501Y-113254110D01*
X132475501Y-113254106D01*
X132426465Y-113135723D01*
X132371400Y-113053313D01*
X132350524Y-112986639D01*
X132369008Y-112919259D01*
X132371373Y-112915577D01*
X132426465Y-112833127D01*
X132475501Y-112714744D01*
X132493062Y-112626461D01*
X132500500Y-112589071D01*
X132500500Y-112460928D01*
X132475502Y-112335261D01*
X132475501Y-112335260D01*
X132475501Y-112335256D01*
X132426465Y-112216873D01*
X132426464Y-112216872D01*
X132426461Y-112216866D01*
X132355276Y-112110331D01*
X132355273Y-112110327D01*
X132264672Y-112019726D01*
X132264668Y-112019723D01*
X132158133Y-111948538D01*
X132158124Y-111948533D01*
X132039744Y-111899499D01*
X132039738Y-111899497D01*
X131914071Y-111874500D01*
X131914069Y-111874500D01*
X131785931Y-111874500D01*
X131785929Y-111874500D01*
X131660261Y-111899497D01*
X131660255Y-111899499D01*
X131541875Y-111948533D01*
X131541866Y-111948538D01*
X131435331Y-112019723D01*
X131435327Y-112019726D01*
X131344726Y-112110327D01*
X131344723Y-112110331D01*
X131273538Y-112216866D01*
X131273533Y-112216875D01*
X131224499Y-112335255D01*
X131224497Y-112335261D01*
X131199500Y-112460928D01*
X131199500Y-112460931D01*
X131199500Y-112589069D01*
X131199500Y-112589071D01*
X131199499Y-112589071D01*
X125680874Y-112589071D01*
X125705276Y-112564669D01*
X125776465Y-112458127D01*
X125825501Y-112339744D01*
X125849942Y-112216875D01*
X125850500Y-112214071D01*
X125850500Y-112085928D01*
X125825502Y-111960261D01*
X125825501Y-111960260D01*
X125825501Y-111960256D01*
X125776465Y-111841873D01*
X125776464Y-111841872D01*
X125776461Y-111841866D01*
X125705276Y-111735331D01*
X125705273Y-111735327D01*
X125614672Y-111644726D01*
X125614668Y-111644723D01*
X125508133Y-111573538D01*
X125508124Y-111573533D01*
X125389744Y-111524499D01*
X125389738Y-111524497D01*
X125264071Y-111499500D01*
X125264069Y-111499500D01*
X125135931Y-111499500D01*
X125135929Y-111499500D01*
X125010261Y-111524497D01*
X125010255Y-111524499D01*
X124891875Y-111573533D01*
X124891866Y-111573538D01*
X124785331Y-111644723D01*
X124785327Y-111644726D01*
X124694726Y-111735327D01*
X124694723Y-111735331D01*
X124623538Y-111841866D01*
X124623533Y-111841875D01*
X124574499Y-111960255D01*
X124574497Y-111960261D01*
X124549500Y-112085928D01*
X124549500Y-112085931D01*
X124549500Y-112214069D01*
X124549500Y-112214071D01*
X124549499Y-112214071D01*
X114254922Y-112214071D01*
X114287577Y-112173123D01*
X114454926Y-111906789D01*
X114591402Y-111623394D01*
X114695289Y-111326500D01*
X114765282Y-111019840D01*
X114768749Y-110989071D01*
X130991699Y-110989071D01*
X131016697Y-111114738D01*
X131016699Y-111114744D01*
X131065733Y-111233124D01*
X131065738Y-111233133D01*
X131136923Y-111339668D01*
X131136926Y-111339672D01*
X131227527Y-111430273D01*
X131227531Y-111430276D01*
X131334066Y-111501461D01*
X131334075Y-111501466D01*
X131360892Y-111512574D01*
X131452456Y-111550501D01*
X131452460Y-111550501D01*
X131452461Y-111550502D01*
X131578128Y-111575500D01*
X131578131Y-111575500D01*
X131706271Y-111575500D01*
X131811126Y-111554642D01*
X131831944Y-111550501D01*
X131950327Y-111501465D01*
X132056869Y-111430276D01*
X132147476Y-111339669D01*
X132218665Y-111233127D01*
X132267701Y-111114744D01*
X132271614Y-111095071D01*
X140505499Y-111095071D01*
X140530497Y-111220738D01*
X140530499Y-111220744D01*
X140579533Y-111339124D01*
X140579538Y-111339133D01*
X140650723Y-111445668D01*
X140650726Y-111445672D01*
X140698373Y-111493319D01*
X140731858Y-111554642D01*
X140726874Y-111624334D01*
X140698373Y-111668681D01*
X140650726Y-111716327D01*
X140650723Y-111716331D01*
X140579538Y-111822866D01*
X140579533Y-111822875D01*
X140530499Y-111941255D01*
X140530497Y-111941261D01*
X140505500Y-112066928D01*
X140505500Y-112066931D01*
X140505500Y-112195069D01*
X140505500Y-112195071D01*
X140505499Y-112195071D01*
X140530497Y-112320738D01*
X140530499Y-112320744D01*
X140579533Y-112439124D01*
X140579538Y-112439133D01*
X140650723Y-112545668D01*
X140650726Y-112545672D01*
X140741327Y-112636273D01*
X140741331Y-112636276D01*
X140847866Y-112707461D01*
X140847875Y-112707466D01*
X140865446Y-112714744D01*
X140966256Y-112756501D01*
X140966260Y-112756501D01*
X140966261Y-112756502D01*
X141091928Y-112781500D01*
X141091931Y-112781500D01*
X141220071Y-112781500D01*
X141304615Y-112764682D01*
X141345744Y-112756501D01*
X141464127Y-112707465D01*
X141570669Y-112636276D01*
X141661276Y-112545669D01*
X141732465Y-112439127D01*
X141781501Y-112320744D01*
X141789682Y-112279615D01*
X141806500Y-112195071D01*
X141806500Y-112066928D01*
X141781502Y-111941261D01*
X141781501Y-111941260D01*
X141781501Y-111941256D01*
X141732465Y-111822873D01*
X141732464Y-111822872D01*
X141732461Y-111822866D01*
X141661276Y-111716331D01*
X141661273Y-111716327D01*
X141613627Y-111668681D01*
X141580142Y-111607358D01*
X141585126Y-111537666D01*
X141613627Y-111493319D01*
X141661273Y-111445672D01*
X141661276Y-111445669D01*
X141732465Y-111339127D01*
X141781501Y-111220744D01*
X141799505Y-111130233D01*
X141806500Y-111095071D01*
X141806500Y-110966928D01*
X141781502Y-110841261D01*
X141781501Y-110841260D01*
X141781501Y-110841256D01*
X141732465Y-110722873D01*
X141732464Y-110722872D01*
X141732461Y-110722866D01*
X141661276Y-110616331D01*
X141661273Y-110616327D01*
X141570672Y-110525726D01*
X141570668Y-110525723D01*
X141464133Y-110454538D01*
X141464124Y-110454533D01*
X141345744Y-110405499D01*
X141345738Y-110405497D01*
X141220071Y-110380500D01*
X141220069Y-110380500D01*
X141091931Y-110380500D01*
X141091929Y-110380500D01*
X140966261Y-110405497D01*
X140966255Y-110405499D01*
X140847875Y-110454533D01*
X140847866Y-110454538D01*
X140741331Y-110525723D01*
X140741327Y-110525726D01*
X140650726Y-110616327D01*
X140650723Y-110616331D01*
X140579538Y-110722866D01*
X140579533Y-110722875D01*
X140530499Y-110841255D01*
X140530497Y-110841261D01*
X140505500Y-110966928D01*
X140505500Y-110966931D01*
X140505500Y-111095069D01*
X140505500Y-111095071D01*
X140505499Y-111095071D01*
X132271614Y-111095071D01*
X132286582Y-111019827D01*
X132292700Y-110989071D01*
X132292700Y-110860928D01*
X132267702Y-110735261D01*
X132267701Y-110735260D01*
X132267701Y-110735256D01*
X132218665Y-110616873D01*
X132218664Y-110616872D01*
X132218661Y-110616866D01*
X132147476Y-110510331D01*
X132147473Y-110510327D01*
X132056872Y-110419726D01*
X132056868Y-110419723D01*
X131950333Y-110348538D01*
X131950324Y-110348533D01*
X131831944Y-110299499D01*
X131831938Y-110299497D01*
X131706271Y-110274500D01*
X131706269Y-110274500D01*
X131578131Y-110274500D01*
X131578129Y-110274500D01*
X131452461Y-110299497D01*
X131452455Y-110299499D01*
X131334075Y-110348533D01*
X131334066Y-110348538D01*
X131227531Y-110419723D01*
X131227527Y-110419726D01*
X131136926Y-110510327D01*
X131136923Y-110510331D01*
X131065738Y-110616866D01*
X131065733Y-110616875D01*
X131016699Y-110735255D01*
X131016697Y-110735261D01*
X130991700Y-110860928D01*
X130991700Y-110860931D01*
X130991700Y-110989069D01*
X130991700Y-110989071D01*
X130991699Y-110989071D01*
X114768749Y-110989071D01*
X114782833Y-110864071D01*
X114785438Y-110840955D01*
X114798743Y-110722866D01*
X114800500Y-110707273D01*
X114800500Y-110392727D01*
X114765282Y-110080160D01*
X114709114Y-109834071D01*
X119911999Y-109834071D01*
X119936997Y-109959738D01*
X119936999Y-109959744D01*
X119986033Y-110078124D01*
X119986038Y-110078133D01*
X120057223Y-110184668D01*
X120057226Y-110184672D01*
X120147827Y-110275273D01*
X120147831Y-110275276D01*
X120254366Y-110346461D01*
X120254375Y-110346466D01*
X120271765Y-110353669D01*
X120372756Y-110395501D01*
X120372760Y-110395501D01*
X120372761Y-110395502D01*
X120498428Y-110420500D01*
X120498431Y-110420500D01*
X120626571Y-110420500D01*
X120738474Y-110398240D01*
X120752244Y-110395501D01*
X120870627Y-110346465D01*
X120977169Y-110275276D01*
X121067776Y-110184669D01*
X121138965Y-110078127D01*
X121170054Y-110003071D01*
X142876499Y-110003071D01*
X142901497Y-110128738D01*
X142901499Y-110128744D01*
X142950533Y-110247124D01*
X142950538Y-110247133D01*
X143021723Y-110353668D01*
X143021726Y-110353672D01*
X143112327Y-110444273D01*
X143112331Y-110444276D01*
X143218866Y-110515461D01*
X143218872Y-110515464D01*
X143218873Y-110515465D01*
X143337256Y-110564501D01*
X143337260Y-110564501D01*
X143337261Y-110564502D01*
X143462928Y-110589500D01*
X143462931Y-110589500D01*
X143591071Y-110589500D01*
X143675615Y-110572682D01*
X143716744Y-110564501D01*
X143835127Y-110515465D01*
X143941669Y-110444276D01*
X144018223Y-110367722D01*
X148656500Y-110367722D01*
X148656500Y-110682277D01*
X148691716Y-110994827D01*
X148691718Y-110994843D01*
X148761710Y-111301499D01*
X148761711Y-111301501D01*
X148865598Y-111598395D01*
X149002072Y-111881786D01*
X149020629Y-111911319D01*
X149169423Y-112148123D01*
X149224251Y-112216875D01*
X149361165Y-112388560D01*
X149365539Y-112394044D01*
X149587956Y-112616461D01*
X149833877Y-112812577D01*
X150091574Y-112974499D01*
X150100213Y-112979927D01*
X150190762Y-113023533D01*
X150383606Y-113116402D01*
X150680500Y-113220289D01*
X150987160Y-113290282D01*
X151299723Y-113325499D01*
X151299724Y-113325500D01*
X151299727Y-113325500D01*
X151614276Y-113325500D01*
X151614276Y-113325499D01*
X151926840Y-113290282D01*
X152233500Y-113220289D01*
X152530394Y-113116402D01*
X152813789Y-112979926D01*
X153080123Y-112812577D01*
X153326044Y-112616461D01*
X153548461Y-112394044D01*
X153744577Y-112148123D01*
X153911926Y-111881789D01*
X154048402Y-111598394D01*
X154152289Y-111301500D01*
X154177462Y-111191208D01*
X154211569Y-111130233D01*
X154273230Y-111097374D01*
X154342867Y-111103069D01*
X154398371Y-111145508D01*
X154401454Y-111149912D01*
X154444723Y-111214668D01*
X154444726Y-111214672D01*
X154535327Y-111305273D01*
X154535334Y-111305278D01*
X154560207Y-111321899D01*
X154605012Y-111375512D01*
X154613718Y-111444837D01*
X154583562Y-111507864D01*
X154560207Y-111528101D01*
X154535334Y-111544721D01*
X154535327Y-111544726D01*
X154444726Y-111635327D01*
X154444723Y-111635331D01*
X154373538Y-111741866D01*
X154373533Y-111741875D01*
X154324499Y-111860255D01*
X154324497Y-111860261D01*
X154299500Y-111985928D01*
X154299500Y-111985931D01*
X154299500Y-112114069D01*
X154299500Y-112114071D01*
X154299499Y-112114071D01*
X154324497Y-112239738D01*
X154324499Y-112239744D01*
X154373533Y-112358124D01*
X154373538Y-112358133D01*
X154444723Y-112464668D01*
X154444726Y-112464672D01*
X154535327Y-112555273D01*
X154535331Y-112555276D01*
X154641866Y-112626461D01*
X154641875Y-112626466D01*
X154665559Y-112636276D01*
X154760256Y-112675501D01*
X154760260Y-112675501D01*
X154760261Y-112675502D01*
X154885928Y-112700500D01*
X154885931Y-112700500D01*
X155014071Y-112700500D01*
X155098615Y-112683682D01*
X155139744Y-112675501D01*
X155258127Y-112626465D01*
X155364669Y-112555276D01*
X155455276Y-112464669D01*
X155526465Y-112358127D01*
X155575501Y-112239744D01*
X155593726Y-112148123D01*
X155600500Y-112114071D01*
X155600500Y-111985928D01*
X155575502Y-111860261D01*
X155575501Y-111860260D01*
X155575501Y-111860256D01*
X155526465Y-111741873D01*
X155526464Y-111741872D01*
X155526461Y-111741866D01*
X155455276Y-111635331D01*
X155455273Y-111635327D01*
X155364672Y-111544726D01*
X155364668Y-111544723D01*
X155339793Y-111528102D01*
X155294988Y-111474490D01*
X155286281Y-111405165D01*
X155316435Y-111342137D01*
X155339793Y-111321898D01*
X155349235Y-111315588D01*
X155364669Y-111305276D01*
X155455276Y-111214669D01*
X155526465Y-111108127D01*
X155575501Y-110989744D01*
X155583682Y-110948615D01*
X155600500Y-110864071D01*
X157299499Y-110864071D01*
X157324497Y-110989738D01*
X157324499Y-110989744D01*
X157373533Y-111108124D01*
X157373538Y-111108133D01*
X157444723Y-111214668D01*
X157444726Y-111214672D01*
X157535327Y-111305273D01*
X157535334Y-111305278D01*
X157560207Y-111321899D01*
X157605012Y-111375512D01*
X157613718Y-111444837D01*
X157583562Y-111507864D01*
X157560207Y-111528101D01*
X157535334Y-111544721D01*
X157535327Y-111544726D01*
X157444726Y-111635327D01*
X157444723Y-111635331D01*
X157373538Y-111741866D01*
X157373533Y-111741875D01*
X157324499Y-111860255D01*
X157324497Y-111860261D01*
X157299500Y-111985928D01*
X157299500Y-111985931D01*
X157299500Y-112114069D01*
X157299500Y-112114071D01*
X157299499Y-112114071D01*
X157324497Y-112239738D01*
X157324499Y-112239744D01*
X157373533Y-112358124D01*
X157373538Y-112358133D01*
X157444723Y-112464668D01*
X157444726Y-112464672D01*
X157535327Y-112555273D01*
X157535331Y-112555276D01*
X157641866Y-112626461D01*
X157641875Y-112626466D01*
X157665559Y-112636276D01*
X157760256Y-112675501D01*
X157760260Y-112675501D01*
X157760261Y-112675502D01*
X157885928Y-112700500D01*
X157885931Y-112700500D01*
X158014071Y-112700500D01*
X158098615Y-112683682D01*
X158139744Y-112675501D01*
X158258127Y-112626465D01*
X158364669Y-112555276D01*
X158455276Y-112464669D01*
X158526465Y-112358127D01*
X158575501Y-112239744D01*
X158593726Y-112148123D01*
X158600500Y-112114071D01*
X158600500Y-111985928D01*
X158575502Y-111860261D01*
X158575501Y-111860260D01*
X158575501Y-111860256D01*
X158526465Y-111741873D01*
X158526464Y-111741872D01*
X158526461Y-111741866D01*
X158455276Y-111635331D01*
X158455273Y-111635327D01*
X158364672Y-111544726D01*
X158364668Y-111544723D01*
X158339793Y-111528102D01*
X158294988Y-111474490D01*
X158286281Y-111405165D01*
X158316435Y-111342137D01*
X158339793Y-111321898D01*
X158349235Y-111315588D01*
X158364669Y-111305276D01*
X158455276Y-111214669D01*
X158526465Y-111108127D01*
X158575501Y-110989744D01*
X158583682Y-110948615D01*
X158600500Y-110864071D01*
X158600500Y-110735928D01*
X158575502Y-110610261D01*
X158575501Y-110610260D01*
X158575501Y-110610256D01*
X158526465Y-110491873D01*
X158526464Y-110491872D01*
X158526461Y-110491866D01*
X158455276Y-110385331D01*
X158455273Y-110385327D01*
X158364672Y-110294726D01*
X158364668Y-110294723D01*
X158258133Y-110223538D01*
X158258124Y-110223533D01*
X158139744Y-110174499D01*
X158139738Y-110174497D01*
X158014071Y-110149500D01*
X158014069Y-110149500D01*
X157885931Y-110149500D01*
X157885929Y-110149500D01*
X157760261Y-110174497D01*
X157760255Y-110174499D01*
X157641875Y-110223533D01*
X157641866Y-110223538D01*
X157535331Y-110294723D01*
X157535327Y-110294726D01*
X157444726Y-110385327D01*
X157444723Y-110385331D01*
X157373538Y-110491866D01*
X157373533Y-110491875D01*
X157324499Y-110610255D01*
X157324497Y-110610261D01*
X157299500Y-110735928D01*
X157299500Y-110735931D01*
X157299500Y-110864069D01*
X157299500Y-110864071D01*
X157299499Y-110864071D01*
X155600500Y-110864071D01*
X155600500Y-110735928D01*
X155575502Y-110610261D01*
X155575501Y-110610260D01*
X155575501Y-110610256D01*
X155526465Y-110491873D01*
X155526464Y-110491872D01*
X155526461Y-110491866D01*
X155455276Y-110385331D01*
X155455273Y-110385327D01*
X155364672Y-110294726D01*
X155364668Y-110294723D01*
X155258133Y-110223538D01*
X155258124Y-110223533D01*
X155139744Y-110174499D01*
X155139738Y-110174497D01*
X155014071Y-110149500D01*
X155014069Y-110149500D01*
X154885931Y-110149500D01*
X154885929Y-110149500D01*
X154760261Y-110174497D01*
X154760255Y-110174499D01*
X154641875Y-110223533D01*
X154641866Y-110223538D01*
X154535331Y-110294723D01*
X154460313Y-110369741D01*
X154398989Y-110403225D01*
X154329298Y-110398240D01*
X154273364Y-110356369D01*
X154249412Y-110295942D01*
X154222284Y-110055174D01*
X154222281Y-110055156D01*
X154152289Y-109748500D01*
X154152288Y-109748498D01*
X154149593Y-109740794D01*
X154048402Y-109451606D01*
X153911926Y-109168211D01*
X153744577Y-108901877D01*
X153548461Y-108655956D01*
X153326044Y-108433539D01*
X153080123Y-108237423D01*
X152813789Y-108070074D01*
X152813786Y-108070072D01*
X152530395Y-107933598D01*
X152233501Y-107829711D01*
X152233499Y-107829710D01*
X151926843Y-107759718D01*
X151926827Y-107759716D01*
X151614277Y-107724500D01*
X151614273Y-107724500D01*
X151299727Y-107724500D01*
X151299722Y-107724500D01*
X150987172Y-107759716D01*
X150987156Y-107759718D01*
X150680500Y-107829710D01*
X150680498Y-107829711D01*
X150383604Y-107933598D01*
X150100213Y-108070072D01*
X149833878Y-108237422D01*
X149587956Y-108433538D01*
X149365538Y-108655956D01*
X149169422Y-108901878D01*
X149002072Y-109168213D01*
X148865598Y-109451604D01*
X148761711Y-109748498D01*
X148761710Y-109748500D01*
X148691718Y-110055156D01*
X148691716Y-110055172D01*
X148656500Y-110367722D01*
X144018223Y-110367722D01*
X144032276Y-110353669D01*
X144071661Y-110294726D01*
X144085175Y-110274500D01*
X144103465Y-110247127D01*
X144152501Y-110128744D01*
X144162570Y-110078124D01*
X144177500Y-110003071D01*
X144177500Y-109874928D01*
X144152502Y-109749261D01*
X144152501Y-109749260D01*
X144152501Y-109749256D01*
X144103465Y-109630873D01*
X144103464Y-109630872D01*
X144103461Y-109630866D01*
X144032276Y-109524331D01*
X144032273Y-109524327D01*
X143941672Y-109433726D01*
X143941668Y-109433723D01*
X143835133Y-109362538D01*
X143835124Y-109362533D01*
X143716744Y-109313499D01*
X143716738Y-109313497D01*
X143591071Y-109288500D01*
X143591069Y-109288500D01*
X143462931Y-109288500D01*
X143462929Y-109288500D01*
X143337261Y-109313497D01*
X143337255Y-109313499D01*
X143218875Y-109362533D01*
X143218866Y-109362538D01*
X143112331Y-109433723D01*
X143112327Y-109433726D01*
X143021726Y-109524327D01*
X143021723Y-109524331D01*
X142950538Y-109630866D01*
X142950533Y-109630875D01*
X142901499Y-109749255D01*
X142901497Y-109749261D01*
X142876500Y-109874928D01*
X142876500Y-109874931D01*
X142876500Y-110003069D01*
X142876500Y-110003071D01*
X142876499Y-110003071D01*
X121170054Y-110003071D01*
X121188001Y-109959744D01*
X121213000Y-109834069D01*
X121213000Y-109705931D01*
X121213000Y-109705928D01*
X121188002Y-109580261D01*
X121188001Y-109580260D01*
X121188001Y-109580256D01*
X121138965Y-109461873D01*
X121138964Y-109461872D01*
X121138961Y-109461866D01*
X121067776Y-109355331D01*
X121067773Y-109355327D01*
X120977172Y-109264726D01*
X120977168Y-109264723D01*
X120870633Y-109193538D01*
X120870624Y-109193533D01*
X120752244Y-109144499D01*
X120752238Y-109144497D01*
X120626571Y-109119500D01*
X120626569Y-109119500D01*
X120498431Y-109119500D01*
X120498429Y-109119500D01*
X120372761Y-109144497D01*
X120372755Y-109144499D01*
X120254375Y-109193533D01*
X120254366Y-109193538D01*
X120147831Y-109264723D01*
X120147827Y-109264726D01*
X120057226Y-109355327D01*
X120057223Y-109355331D01*
X119986038Y-109461866D01*
X119986033Y-109461875D01*
X119936999Y-109580255D01*
X119936997Y-109580261D01*
X119912000Y-109705928D01*
X119912000Y-109705931D01*
X119912000Y-109834069D01*
X119912000Y-109834071D01*
X119911999Y-109834071D01*
X114709114Y-109834071D01*
X114695289Y-109773500D01*
X114695287Y-109773492D01*
X114683850Y-109740807D01*
X114683845Y-109740794D01*
X114645382Y-109630873D01*
X114591402Y-109476606D01*
X114489364Y-109264723D01*
X114454927Y-109193213D01*
X114454926Y-109193211D01*
X114287577Y-108926877D01*
X114091461Y-108680956D01*
X113869044Y-108458539D01*
X113623123Y-108262423D01*
X113356789Y-108095074D01*
X113356786Y-108095072D01*
X113073395Y-107958598D01*
X112776501Y-107854711D01*
X112776499Y-107854710D01*
X112469843Y-107784718D01*
X112469827Y-107784716D01*
X112157277Y-107749500D01*
X112157273Y-107749500D01*
X111842727Y-107749500D01*
X111842722Y-107749500D01*
X111530172Y-107784716D01*
X111530156Y-107784718D01*
X111223500Y-107854710D01*
X111223498Y-107854711D01*
X110926604Y-107958598D01*
X110643213Y-108095072D01*
X110376878Y-108262422D01*
X110130956Y-108458538D01*
X109908538Y-108680956D01*
X109712422Y-108926878D01*
X109545072Y-109193213D01*
X109408598Y-109476604D01*
X109304711Y-109773498D01*
X109304710Y-109773500D01*
X109234718Y-110080156D01*
X109234716Y-110080172D01*
X109199500Y-110392722D01*
X98954446Y-110392722D01*
X98954613Y-110386123D01*
X98954613Y-110386119D01*
X98954755Y-110380500D01*
X98968286Y-109844526D01*
X98968635Y-109837863D01*
X99024275Y-109138649D01*
X99024982Y-109132033D01*
X99118392Y-108436869D01*
X99119466Y-108430246D01*
X99250371Y-107741179D01*
X99251800Y-107734632D01*
X99254300Y-107724500D01*
X99419824Y-107053638D01*
X99421603Y-107047187D01*
X99424956Y-107036195D01*
X99626252Y-106376280D01*
X99628358Y-106369994D01*
X99869037Y-105711128D01*
X99871491Y-105704935D01*
X100147486Y-105060067D01*
X100150272Y-105054018D01*
X100291840Y-104767247D01*
X107023800Y-104767247D01*
X107023800Y-106157738D01*
X107023801Y-106157753D01*
X107031418Y-106254536D01*
X107034370Y-106292053D01*
X107090249Y-106513816D01*
X107119285Y-106577740D01*
X107184828Y-106722037D01*
X107184831Y-106722043D01*
X107315059Y-106910014D01*
X107315063Y-106910019D01*
X107315066Y-106910023D01*
X107476777Y-107071734D01*
X107476781Y-107071737D01*
X107476785Y-107071740D01*
X107664756Y-107201968D01*
X107664762Y-107201971D01*
X107664763Y-107201971D01*
X107664764Y-107201972D01*
X107872984Y-107296551D01*
X108094747Y-107352430D01*
X108229053Y-107363000D01*
X110319546Y-107362999D01*
X110453853Y-107352430D01*
X110675616Y-107296551D01*
X110883836Y-107201972D01*
X110883838Y-107201970D01*
X110883843Y-107201968D01*
X111061217Y-107079082D01*
X111071823Y-107071734D01*
X111233534Y-106910023D01*
X111282415Y-106839468D01*
X111363768Y-106722043D01*
X111363771Y-106722037D01*
X111363772Y-106722036D01*
X111458351Y-106513816D01*
X111514230Y-106292053D01*
X111524800Y-106157747D01*
X111524799Y-104920466D01*
X128612300Y-104920466D01*
X128612300Y-106254528D01*
X128612301Y-106254534D01*
X128622913Y-106373915D01*
X128678889Y-106569545D01*
X128678890Y-106569548D01*
X128678891Y-106569549D01*
X128773102Y-106749907D01*
X128807777Y-106792433D01*
X128901690Y-106907609D01*
X128995603Y-106984184D01*
X129059393Y-107036198D01*
X129239751Y-107130409D01*
X129435382Y-107186386D01*
X129554763Y-107197000D01*
X130888836Y-107196999D01*
X131008218Y-107186386D01*
X131203849Y-107130409D01*
X131384207Y-107036198D01*
X131541909Y-106907609D01*
X131578893Y-106862251D01*
X131636513Y-106822735D01*
X131706351Y-106820643D01*
X131747877Y-106840293D01*
X131918238Y-106964068D01*
X131989736Y-107000498D01*
X132143961Y-107079080D01*
X132143963Y-107079080D01*
X132143966Y-107079082D01*
X132273117Y-107121045D01*
X132384907Y-107157369D01*
X132635125Y-107197000D01*
X132635130Y-107197000D01*
X132888475Y-107197000D01*
X133138692Y-107157369D01*
X133379634Y-107079082D01*
X133605362Y-106964068D01*
X133810319Y-106815158D01*
X133944119Y-106681358D01*
X134005442Y-106647873D01*
X134075134Y-106652857D01*
X134119481Y-106681358D01*
X134253281Y-106815158D01*
X134458238Y-106964068D01*
X134529736Y-107000498D01*
X134683961Y-107079080D01*
X134683963Y-107079080D01*
X134683966Y-107079082D01*
X134813117Y-107121045D01*
X134924907Y-107157369D01*
X135175125Y-107197000D01*
X135175130Y-107197000D01*
X135428475Y-107197000D01*
X135678692Y-107157369D01*
X135919634Y-107079082D01*
X136145362Y-106964068D01*
X136350319Y-106815158D01*
X136529458Y-106636019D01*
X136678368Y-106431062D01*
X136793382Y-106205334D01*
X136871669Y-105964392D01*
X136889892Y-105849335D01*
X136911300Y-105714175D01*
X136911300Y-105460824D01*
X136871669Y-105210607D01*
X136822763Y-105060092D01*
X136793382Y-104969666D01*
X136793380Y-104969663D01*
X136793380Y-104969661D01*
X136707484Y-104801082D01*
X136678368Y-104743938D01*
X136529458Y-104538981D01*
X136350319Y-104359842D01*
X136145362Y-104210932D01*
X136129708Y-104202956D01*
X135919638Y-104095919D01*
X135678692Y-104017630D01*
X135428475Y-103978000D01*
X135428470Y-103978000D01*
X135175130Y-103978000D01*
X135175125Y-103978000D01*
X134924907Y-104017630D01*
X134683961Y-104095919D01*
X134458237Y-104210932D01*
X134253278Y-104359844D01*
X134119481Y-104493642D01*
X134058158Y-104527127D01*
X133988466Y-104522143D01*
X133944119Y-104493642D01*
X133810321Y-104359844D01*
X133810319Y-104359842D01*
X133605362Y-104210932D01*
X133589708Y-104202956D01*
X133379638Y-104095919D01*
X133138692Y-104017630D01*
X132888475Y-103978000D01*
X132888470Y-103978000D01*
X132635130Y-103978000D01*
X132635125Y-103978000D01*
X132384907Y-104017630D01*
X132143961Y-104095919D01*
X131918234Y-104210934D01*
X131747879Y-104334704D01*
X131682073Y-104358184D01*
X131614019Y-104342358D01*
X131578892Y-104312747D01*
X131541909Y-104267390D01*
X131384209Y-104138804D01*
X131384210Y-104138804D01*
X131384207Y-104138802D01*
X131203849Y-104044591D01*
X131203848Y-104044590D01*
X131203845Y-104044589D01*
X131086629Y-104011050D01*
X131008218Y-103988614D01*
X131008215Y-103988613D01*
X131008213Y-103988613D01*
X130941902Y-103982717D01*
X130888837Y-103978000D01*
X130888832Y-103978000D01*
X129554771Y-103978000D01*
X129554765Y-103978000D01*
X129554764Y-103978001D01*
X129543116Y-103979036D01*
X129435384Y-103988613D01*
X129239754Y-104044589D01*
X129231915Y-104048684D01*
X129059393Y-104138802D01*
X129059391Y-104138803D01*
X129059390Y-104138804D01*
X128901690Y-104267390D01*
X128784443Y-104411184D01*
X128773102Y-104425093D01*
X128719804Y-104527127D01*
X128678889Y-104605454D01*
X128622914Y-104801083D01*
X128622913Y-104801086D01*
X128612300Y-104920466D01*
X111524799Y-104920466D01*
X111524799Y-104767254D01*
X111514230Y-104632947D01*
X111458351Y-104411184D01*
X111363772Y-104202964D01*
X111363771Y-104202962D01*
X111363768Y-104202956D01*
X111233540Y-104014985D01*
X111233537Y-104014981D01*
X111233534Y-104014977D01*
X111071823Y-103853266D01*
X111071819Y-103853263D01*
X111071814Y-103853259D01*
X110883843Y-103723031D01*
X110883837Y-103723028D01*
X110728532Y-103652485D01*
X110675616Y-103628449D01*
X110453853Y-103572570D01*
X110319547Y-103562000D01*
X110319545Y-103562000D01*
X108229061Y-103562000D01*
X108229046Y-103562001D01*
X108094747Y-103572570D01*
X107872984Y-103628449D01*
X107664762Y-103723028D01*
X107664756Y-103723031D01*
X107476785Y-103853259D01*
X107476773Y-103853269D01*
X107315069Y-104014973D01*
X107315059Y-104014985D01*
X107184831Y-104202956D01*
X107184828Y-104202962D01*
X107090249Y-104411184D01*
X107034370Y-104632947D01*
X107023800Y-104767247D01*
X100291840Y-104767247D01*
X100460760Y-104425069D01*
X100463874Y-104419168D01*
X100807965Y-103807936D01*
X100811411Y-103802186D01*
X100817631Y-103792416D01*
X101188084Y-103210489D01*
X101191812Y-103204970D01*
X101599961Y-102634539D01*
X101603992Y-102629216D01*
X101990094Y-102147068D01*
X117398800Y-102147068D01*
X117398800Y-102427931D01*
X117430242Y-102706994D01*
X117430245Y-102707012D01*
X117492739Y-102980817D01*
X117492743Y-102980829D01*
X117585500Y-103245911D01*
X117707353Y-103498942D01*
X117707355Y-103498945D01*
X117856777Y-103736748D01*
X118031884Y-103956325D01*
X118230475Y-104154916D01*
X118450052Y-104330023D01*
X118687855Y-104479445D01*
X118940892Y-104601301D01*
X119139980Y-104670965D01*
X119205970Y-104694056D01*
X119205982Y-104694060D01*
X119479791Y-104756555D01*
X119479797Y-104756555D01*
X119479805Y-104756557D01*
X119665847Y-104777518D01*
X119758869Y-104787999D01*
X119758872Y-104788000D01*
X119758875Y-104788000D01*
X120039728Y-104788000D01*
X120039729Y-104787999D01*
X120182355Y-104771929D01*
X120318794Y-104756557D01*
X120318799Y-104756556D01*
X120318809Y-104756555D01*
X120592618Y-104694060D01*
X120857708Y-104601301D01*
X121110745Y-104479445D01*
X121348548Y-104330023D01*
X121568125Y-104154916D01*
X121766716Y-103956325D01*
X121941823Y-103736748D01*
X122091245Y-103498945D01*
X122213101Y-103245908D01*
X122305860Y-102980818D01*
X122368355Y-102707009D01*
X122399800Y-102427925D01*
X122399800Y-102147075D01*
X122368355Y-101867991D01*
X122349315Y-101784572D01*
X122349314Y-101784568D01*
X139499500Y-101784568D01*
X139499500Y-102065431D01*
X139530942Y-102344494D01*
X139530945Y-102344512D01*
X139593439Y-102618317D01*
X139593443Y-102618329D01*
X139686200Y-102883411D01*
X139808053Y-103136442D01*
X139829548Y-103170651D01*
X139957477Y-103374248D01*
X140132584Y-103593825D01*
X140331175Y-103792416D01*
X140550752Y-103967523D01*
X140788555Y-104116945D01*
X141041592Y-104238801D01*
X141174413Y-104285277D01*
X141306670Y-104331556D01*
X141306682Y-104331560D01*
X141580491Y-104394055D01*
X141580497Y-104394055D01*
X141580505Y-104394057D01*
X141746113Y-104412716D01*
X141859569Y-104425499D01*
X141859572Y-104425500D01*
X141859575Y-104425500D01*
X142140428Y-104425500D01*
X142140429Y-104425499D01*
X142283055Y-104409429D01*
X142324612Y-104404747D01*
X150374500Y-104404747D01*
X150374500Y-105795238D01*
X150374501Y-105795253D01*
X150374910Y-105800448D01*
X150385070Y-105929553D01*
X150440949Y-106151316D01*
X150465487Y-106205338D01*
X150535528Y-106359537D01*
X150535531Y-106359543D01*
X150665759Y-106547514D01*
X150665763Y-106547519D01*
X150665766Y-106547523D01*
X150827477Y-106709234D01*
X150827481Y-106709237D01*
X150827485Y-106709240D01*
X151015456Y-106839468D01*
X151015462Y-106839471D01*
X151015463Y-106839471D01*
X151015464Y-106839472D01*
X151223684Y-106934051D01*
X151445447Y-106989930D01*
X151579753Y-107000500D01*
X153670246Y-107000499D01*
X153804553Y-106989930D01*
X154026316Y-106934051D01*
X154234536Y-106839472D01*
X154234538Y-106839470D01*
X154234543Y-106839468D01*
X154422514Y-106709240D01*
X154422523Y-106709234D01*
X154584234Y-106547523D01*
X154664919Y-106431062D01*
X154714468Y-106359543D01*
X154714471Y-106359537D01*
X154714472Y-106359536D01*
X154809051Y-106151316D01*
X154864930Y-105929553D01*
X154875500Y-105795247D01*
X154875499Y-104404754D01*
X154864930Y-104270447D01*
X154809051Y-104048684D01*
X154714472Y-103840464D01*
X154714471Y-103840462D01*
X154714468Y-103840456D01*
X154584240Y-103652485D01*
X154584237Y-103652481D01*
X154584234Y-103652477D01*
X154422523Y-103490766D01*
X154422519Y-103490763D01*
X154422514Y-103490759D01*
X154234543Y-103360531D01*
X154234537Y-103360528D01*
X154130426Y-103313238D01*
X154026316Y-103265949D01*
X153804553Y-103210070D01*
X153670247Y-103199500D01*
X153670245Y-103199500D01*
X151579761Y-103199500D01*
X151579746Y-103199501D01*
X151445447Y-103210070D01*
X151223684Y-103265949D01*
X151015462Y-103360528D01*
X151015456Y-103360531D01*
X150827485Y-103490759D01*
X150827473Y-103490769D01*
X150665769Y-103652473D01*
X150665759Y-103652485D01*
X150535531Y-103840456D01*
X150535528Y-103840462D01*
X150440949Y-104048684D01*
X150385070Y-104270447D01*
X150374500Y-104404747D01*
X142324612Y-104404747D01*
X142419494Y-104394057D01*
X142419499Y-104394056D01*
X142419509Y-104394055D01*
X142693318Y-104331560D01*
X142740379Y-104315092D01*
X142825588Y-104285277D01*
X142876705Y-104267390D01*
X142958408Y-104238801D01*
X143211445Y-104116945D01*
X143449248Y-103967523D01*
X143668825Y-103792416D01*
X143867416Y-103593825D01*
X144042523Y-103374248D01*
X144191945Y-103136445D01*
X144313801Y-102883408D01*
X144406560Y-102618318D01*
X144469055Y-102344509D01*
X144500500Y-102065425D01*
X144500500Y-101784575D01*
X144479047Y-101594170D01*
X144469057Y-101505505D01*
X144469054Y-101505487D01*
X144406560Y-101231682D01*
X144406556Y-101231670D01*
X144352104Y-101076057D01*
X144313801Y-100966592D01*
X144191945Y-100713555D01*
X144042523Y-100475752D01*
X143867416Y-100256175D01*
X143668825Y-100057584D01*
X143449248Y-99882477D01*
X143211445Y-99733055D01*
X143211442Y-99733053D01*
X142958411Y-99611200D01*
X142693329Y-99518443D01*
X142693317Y-99518439D01*
X142419512Y-99455945D01*
X142419494Y-99455942D01*
X142140431Y-99424500D01*
X142140425Y-99424500D01*
X141859575Y-99424500D01*
X141859568Y-99424500D01*
X141580505Y-99455942D01*
X141580487Y-99455945D01*
X141306682Y-99518439D01*
X141306670Y-99518443D01*
X141041588Y-99611200D01*
X140788557Y-99733053D01*
X140550753Y-99882476D01*
X140331175Y-100057583D01*
X140132583Y-100256175D01*
X139957476Y-100475753D01*
X139808053Y-100713557D01*
X139686200Y-100966588D01*
X139593443Y-101231670D01*
X139593439Y-101231682D01*
X139530945Y-101505487D01*
X139530942Y-101505505D01*
X139499500Y-101784568D01*
X122349314Y-101784568D01*
X122305859Y-101594178D01*
X122305856Y-101594170D01*
X122224211Y-101360843D01*
X122213101Y-101329092D01*
X122091245Y-101076055D01*
X121941823Y-100838252D01*
X121766716Y-100618675D01*
X121568125Y-100420084D01*
X121348548Y-100244977D01*
X121164109Y-100129086D01*
X121110742Y-100095553D01*
X120857711Y-99973700D01*
X120592629Y-99880943D01*
X120592617Y-99880939D01*
X120318812Y-99818445D01*
X120318794Y-99818442D01*
X120039731Y-99787000D01*
X120039725Y-99787000D01*
X119758875Y-99787000D01*
X119758868Y-99787000D01*
X119479805Y-99818442D01*
X119479787Y-99818445D01*
X119205982Y-99880939D01*
X119205970Y-99880943D01*
X118940888Y-99973700D01*
X118687857Y-100095553D01*
X118450053Y-100244976D01*
X118230475Y-100420083D01*
X118031883Y-100618675D01*
X117856776Y-100838253D01*
X117707353Y-101076057D01*
X117585500Y-101329088D01*
X117492743Y-101594170D01*
X117492739Y-101594182D01*
X117430245Y-101867987D01*
X117430242Y-101868005D01*
X117398800Y-102147068D01*
X101990094Y-102147068D01*
X102042431Y-102081712D01*
X102046739Y-102076620D01*
X102514193Y-101553637D01*
X102518757Y-101548800D01*
X103013864Y-101051866D01*
X103018667Y-101047300D01*
X103539920Y-100577929D01*
X103544982Y-100573613D01*
X104090875Y-100133154D01*
X104096207Y-100129086D01*
X104665114Y-99718850D01*
X104670637Y-99715090D01*
X105260946Y-99336239D01*
X105266662Y-99332785D01*
X105876603Y-98986455D01*
X105882524Y-98983304D01*
X106510311Y-98670508D01*
X106516361Y-98667694D01*
X106850593Y-98523187D01*
X106919937Y-98514652D01*
X106982890Y-98544962D01*
X107019462Y-98604495D01*
X107023800Y-98637006D01*
X107023800Y-99807738D01*
X107023801Y-99807753D01*
X107029561Y-99880939D01*
X107034370Y-99942053D01*
X107090249Y-100163816D01*
X107132201Y-100256175D01*
X107184828Y-100372037D01*
X107184831Y-100372043D01*
X107315059Y-100560014D01*
X107315063Y-100560019D01*
X107315066Y-100560023D01*
X107476777Y-100721734D01*
X107476781Y-100721737D01*
X107476785Y-100721740D01*
X107664756Y-100851968D01*
X107664762Y-100851971D01*
X107664763Y-100851971D01*
X107664764Y-100851972D01*
X107872984Y-100946551D01*
X108094747Y-101002430D01*
X108229053Y-101013000D01*
X110319546Y-101012999D01*
X110453853Y-101002430D01*
X110675616Y-100946551D01*
X110883836Y-100851972D01*
X110883838Y-100851970D01*
X110883843Y-100851968D01*
X111071814Y-100721740D01*
X111071823Y-100721734D01*
X111233534Y-100560023D01*
X111291917Y-100475752D01*
X111363768Y-100372043D01*
X111363771Y-100372037D01*
X111363772Y-100372036D01*
X111458351Y-100163816D01*
X111514230Y-99942053D01*
X111524800Y-99807747D01*
X111524799Y-98417254D01*
X111514230Y-98282947D01*
X111458351Y-98061184D01*
X111363772Y-97852964D01*
X111363771Y-97852962D01*
X111363768Y-97852956D01*
X111233156Y-97664431D01*
X111211159Y-97598115D01*
X111228507Y-97530433D01*
X111279692Y-97482875D01*
X111331495Y-97469867D01*
X111999090Y-97450552D01*
X112002676Y-97450500D01*
X150361164Y-97450500D01*
X150428203Y-97470185D01*
G37*
%TD.AperFunction*%
%TD*%
M02*
