%TF.GenerationSoftware,KiCad,Pcbnew,9.0.4*%
%TF.CreationDate,2026-01-29T02:18:11+03:00*%
%TF.ProjectId,BMS,424d532e-6b69-4636-9164-5f7063625858,rev?*%
%TF.SameCoordinates,Original*%
%TF.FileFunction,Legend,Top*%
%TF.FilePolarity,Positive*%
%FSLAX46Y46*%
G04 Gerber Fmt 4.6, Leading zero omitted, Abs format (unit mm)*
G04 Created by KiCad (PCBNEW 9.0.4) date 2026-01-29 02:18:11*
%MOMM*%
%LPD*%
G01*
G04 APERTURE LIST*
%ADD10C,0.200000*%
%ADD11C,0.120000*%
%ADD12C,0.150000*%
%ADD13C,0.127000*%
G04 APERTURE END LIST*
D10*
X124928680Y-129621320D02*
G75*
G02*
X121928680Y-126621320I20J3000020D01*
G01*
X185400000Y-126621320D02*
G75*
G02*
X182400000Y-129621300I-3000000J20D01*
G01*
X121928680Y-78000000D02*
G75*
G02*
X124928680Y-74999980I3000020J0D01*
G01*
X182400000Y-129621320D02*
X124928680Y-129621320D01*
X121928680Y-126621320D02*
X121928680Y-78000000D01*
X185400000Y-78000000D02*
X185400000Y-126621320D01*
X124928680Y-75000000D02*
X182400000Y-75000000D01*
X182400000Y-75000000D02*
G75*
G02*
X185400000Y-78000000I0J-3000000D01*
G01*
D11*
X140939999Y-111630926D02*
X140906666Y-111664260D01*
X140906666Y-111664260D02*
X140806666Y-111697593D01*
X140806666Y-111697593D02*
X140739999Y-111697593D01*
X140739999Y-111697593D02*
X140639999Y-111664260D01*
X140639999Y-111664260D02*
X140573333Y-111597593D01*
X140573333Y-111597593D02*
X140539999Y-111530926D01*
X140539999Y-111530926D02*
X140506666Y-111397593D01*
X140506666Y-111397593D02*
X140506666Y-111297593D01*
X140506666Y-111297593D02*
X140539999Y-111164260D01*
X140539999Y-111164260D02*
X140573333Y-111097593D01*
X140573333Y-111097593D02*
X140639999Y-111030926D01*
X140639999Y-111030926D02*
X140739999Y-110997593D01*
X140739999Y-110997593D02*
X140806666Y-110997593D01*
X140806666Y-110997593D02*
X140906666Y-111030926D01*
X140906666Y-111030926D02*
X140939999Y-111064260D01*
X141606666Y-111697593D02*
X141206666Y-111697593D01*
X141406666Y-111697593D02*
X141406666Y-110997593D01*
X141406666Y-110997593D02*
X141339999Y-111097593D01*
X141339999Y-111097593D02*
X141273333Y-111164260D01*
X141273333Y-111164260D02*
X141206666Y-111197593D01*
X141840000Y-110997593D02*
X142273333Y-110997593D01*
X142273333Y-110997593D02*
X142040000Y-111264260D01*
X142040000Y-111264260D02*
X142140000Y-111264260D01*
X142140000Y-111264260D02*
X142206666Y-111297593D01*
X142206666Y-111297593D02*
X142240000Y-111330926D01*
X142240000Y-111330926D02*
X142273333Y-111397593D01*
X142273333Y-111397593D02*
X142273333Y-111564260D01*
X142273333Y-111564260D02*
X142240000Y-111630926D01*
X142240000Y-111630926D02*
X142206666Y-111664260D01*
X142206666Y-111664260D02*
X142140000Y-111697593D01*
X142140000Y-111697593D02*
X141940000Y-111697593D01*
X141940000Y-111697593D02*
X141873333Y-111664260D01*
X141873333Y-111664260D02*
X141840000Y-111630926D01*
D12*
X156947142Y-113824819D02*
X156613809Y-113348628D01*
X156375714Y-113824819D02*
X156375714Y-112824819D01*
X156375714Y-112824819D02*
X156756666Y-112824819D01*
X156756666Y-112824819D02*
X156851904Y-112872438D01*
X156851904Y-112872438D02*
X156899523Y-112920057D01*
X156899523Y-112920057D02*
X156947142Y-113015295D01*
X156947142Y-113015295D02*
X156947142Y-113158152D01*
X156947142Y-113158152D02*
X156899523Y-113253390D01*
X156899523Y-113253390D02*
X156851904Y-113301009D01*
X156851904Y-113301009D02*
X156756666Y-113348628D01*
X156756666Y-113348628D02*
X156375714Y-113348628D01*
X157899523Y-113824819D02*
X157328095Y-113824819D01*
X157613809Y-113824819D02*
X157613809Y-112824819D01*
X157613809Y-112824819D02*
X157518571Y-112967676D01*
X157518571Y-112967676D02*
X157423333Y-113062914D01*
X157423333Y-113062914D02*
X157328095Y-113110533D01*
X158375714Y-113824819D02*
X158566190Y-113824819D01*
X158566190Y-113824819D02*
X158661428Y-113777200D01*
X158661428Y-113777200D02*
X158709047Y-113729580D01*
X158709047Y-113729580D02*
X158804285Y-113586723D01*
X158804285Y-113586723D02*
X158851904Y-113396247D01*
X158851904Y-113396247D02*
X158851904Y-113015295D01*
X158851904Y-113015295D02*
X158804285Y-112920057D01*
X158804285Y-112920057D02*
X158756666Y-112872438D01*
X158756666Y-112872438D02*
X158661428Y-112824819D01*
X158661428Y-112824819D02*
X158470952Y-112824819D01*
X158470952Y-112824819D02*
X158375714Y-112872438D01*
X158375714Y-112872438D02*
X158328095Y-112920057D01*
X158328095Y-112920057D02*
X158280476Y-113015295D01*
X158280476Y-113015295D02*
X158280476Y-113253390D01*
X158280476Y-113253390D02*
X158328095Y-113348628D01*
X158328095Y-113348628D02*
X158375714Y-113396247D01*
X158375714Y-113396247D02*
X158470952Y-113443866D01*
X158470952Y-113443866D02*
X158661428Y-113443866D01*
X158661428Y-113443866D02*
X158756666Y-113396247D01*
X158756666Y-113396247D02*
X158804285Y-113348628D01*
X158804285Y-113348628D02*
X158851904Y-113253390D01*
X155512233Y-78508019D02*
X155178900Y-78031828D01*
X154940805Y-78508019D02*
X154940805Y-77508019D01*
X154940805Y-77508019D02*
X155321757Y-77508019D01*
X155321757Y-77508019D02*
X155416995Y-77555638D01*
X155416995Y-77555638D02*
X155464614Y-77603257D01*
X155464614Y-77603257D02*
X155512233Y-77698495D01*
X155512233Y-77698495D02*
X155512233Y-77841352D01*
X155512233Y-77841352D02*
X155464614Y-77936590D01*
X155464614Y-77936590D02*
X155416995Y-77984209D01*
X155416995Y-77984209D02*
X155321757Y-78031828D01*
X155321757Y-78031828D02*
X154940805Y-78031828D01*
X156464614Y-78508019D02*
X155893186Y-78508019D01*
X156178900Y-78508019D02*
X156178900Y-77508019D01*
X156178900Y-77508019D02*
X156083662Y-77650876D01*
X156083662Y-77650876D02*
X155988424Y-77746114D01*
X155988424Y-77746114D02*
X155893186Y-77793733D01*
D11*
X140949999Y-114210926D02*
X140916666Y-114244260D01*
X140916666Y-114244260D02*
X140816666Y-114277593D01*
X140816666Y-114277593D02*
X140749999Y-114277593D01*
X140749999Y-114277593D02*
X140649999Y-114244260D01*
X140649999Y-114244260D02*
X140583333Y-114177593D01*
X140583333Y-114177593D02*
X140549999Y-114110926D01*
X140549999Y-114110926D02*
X140516666Y-113977593D01*
X140516666Y-113977593D02*
X140516666Y-113877593D01*
X140516666Y-113877593D02*
X140549999Y-113744260D01*
X140549999Y-113744260D02*
X140583333Y-113677593D01*
X140583333Y-113677593D02*
X140649999Y-113610926D01*
X140649999Y-113610926D02*
X140749999Y-113577593D01*
X140749999Y-113577593D02*
X140816666Y-113577593D01*
X140816666Y-113577593D02*
X140916666Y-113610926D01*
X140916666Y-113610926D02*
X140949999Y-113644260D01*
X141616666Y-114277593D02*
X141216666Y-114277593D01*
X141416666Y-114277593D02*
X141416666Y-113577593D01*
X141416666Y-113577593D02*
X141349999Y-113677593D01*
X141349999Y-113677593D02*
X141283333Y-113744260D01*
X141283333Y-113744260D02*
X141216666Y-113777593D01*
X142216666Y-113810926D02*
X142216666Y-114277593D01*
X142050000Y-113544260D02*
X141883333Y-114044260D01*
X141883333Y-114044260D02*
X142316666Y-114044260D01*
X158949999Y-118347593D02*
X158716666Y-118014260D01*
X158549999Y-118347593D02*
X158549999Y-117647593D01*
X158549999Y-117647593D02*
X158816666Y-117647593D01*
X158816666Y-117647593D02*
X158883333Y-117680926D01*
X158883333Y-117680926D02*
X158916666Y-117714260D01*
X158916666Y-117714260D02*
X158949999Y-117780926D01*
X158949999Y-117780926D02*
X158949999Y-117880926D01*
X158949999Y-117880926D02*
X158916666Y-117947593D01*
X158916666Y-117947593D02*
X158883333Y-117980926D01*
X158883333Y-117980926D02*
X158816666Y-118014260D01*
X158816666Y-118014260D02*
X158549999Y-118014260D01*
X159616666Y-118347593D02*
X159216666Y-118347593D01*
X159416666Y-118347593D02*
X159416666Y-117647593D01*
X159416666Y-117647593D02*
X159349999Y-117747593D01*
X159349999Y-117747593D02*
X159283333Y-117814260D01*
X159283333Y-117814260D02*
X159216666Y-117847593D01*
X160216666Y-117647593D02*
X160083333Y-117647593D01*
X160083333Y-117647593D02*
X160016666Y-117680926D01*
X160016666Y-117680926D02*
X159983333Y-117714260D01*
X159983333Y-117714260D02*
X159916666Y-117814260D01*
X159916666Y-117814260D02*
X159883333Y-117947593D01*
X159883333Y-117947593D02*
X159883333Y-118214260D01*
X159883333Y-118214260D02*
X159916666Y-118280926D01*
X159916666Y-118280926D02*
X159950000Y-118314260D01*
X159950000Y-118314260D02*
X160016666Y-118347593D01*
X160016666Y-118347593D02*
X160150000Y-118347593D01*
X160150000Y-118347593D02*
X160216666Y-118314260D01*
X160216666Y-118314260D02*
X160250000Y-118280926D01*
X160250000Y-118280926D02*
X160283333Y-118214260D01*
X160283333Y-118214260D02*
X160283333Y-118047593D01*
X160283333Y-118047593D02*
X160250000Y-117980926D01*
X160250000Y-117980926D02*
X160216666Y-117947593D01*
X160216666Y-117947593D02*
X160150000Y-117914260D01*
X160150000Y-117914260D02*
X160016666Y-117914260D01*
X160016666Y-117914260D02*
X159950000Y-117947593D01*
X159950000Y-117947593D02*
X159916666Y-117980926D01*
X159916666Y-117980926D02*
X159883333Y-118047593D01*
X155513333Y-89720926D02*
X155480000Y-89754260D01*
X155480000Y-89754260D02*
X155380000Y-89787593D01*
X155380000Y-89787593D02*
X155313333Y-89787593D01*
X155313333Y-89787593D02*
X155213333Y-89754260D01*
X155213333Y-89754260D02*
X155146667Y-89687593D01*
X155146667Y-89687593D02*
X155113333Y-89620926D01*
X155113333Y-89620926D02*
X155080000Y-89487593D01*
X155080000Y-89487593D02*
X155080000Y-89387593D01*
X155080000Y-89387593D02*
X155113333Y-89254260D01*
X155113333Y-89254260D02*
X155146667Y-89187593D01*
X155146667Y-89187593D02*
X155213333Y-89120926D01*
X155213333Y-89120926D02*
X155313333Y-89087593D01*
X155313333Y-89087593D02*
X155380000Y-89087593D01*
X155380000Y-89087593D02*
X155480000Y-89120926D01*
X155480000Y-89120926D02*
X155513333Y-89154260D01*
X156146667Y-89087593D02*
X155813333Y-89087593D01*
X155813333Y-89087593D02*
X155780000Y-89420926D01*
X155780000Y-89420926D02*
X155813333Y-89387593D01*
X155813333Y-89387593D02*
X155880000Y-89354260D01*
X155880000Y-89354260D02*
X156046667Y-89354260D01*
X156046667Y-89354260D02*
X156113333Y-89387593D01*
X156113333Y-89387593D02*
X156146667Y-89420926D01*
X156146667Y-89420926D02*
X156180000Y-89487593D01*
X156180000Y-89487593D02*
X156180000Y-89654260D01*
X156180000Y-89654260D02*
X156146667Y-89720926D01*
X156146667Y-89720926D02*
X156113333Y-89754260D01*
X156113333Y-89754260D02*
X156046667Y-89787593D01*
X156046667Y-89787593D02*
X155880000Y-89787593D01*
X155880000Y-89787593D02*
X155813333Y-89754260D01*
X155813333Y-89754260D02*
X155780000Y-89720926D01*
D12*
X158938095Y-124854819D02*
X158938095Y-125664342D01*
X158938095Y-125664342D02*
X158985714Y-125759580D01*
X158985714Y-125759580D02*
X159033333Y-125807200D01*
X159033333Y-125807200D02*
X159128571Y-125854819D01*
X159128571Y-125854819D02*
X159319047Y-125854819D01*
X159319047Y-125854819D02*
X159414285Y-125807200D01*
X159414285Y-125807200D02*
X159461904Y-125759580D01*
X159461904Y-125759580D02*
X159509523Y-125664342D01*
X159509523Y-125664342D02*
X159509523Y-124854819D01*
X160461904Y-124854819D02*
X159985714Y-124854819D01*
X159985714Y-124854819D02*
X159938095Y-125331009D01*
X159938095Y-125331009D02*
X159985714Y-125283390D01*
X159985714Y-125283390D02*
X160080952Y-125235771D01*
X160080952Y-125235771D02*
X160319047Y-125235771D01*
X160319047Y-125235771D02*
X160414285Y-125283390D01*
X160414285Y-125283390D02*
X160461904Y-125331009D01*
X160461904Y-125331009D02*
X160509523Y-125426247D01*
X160509523Y-125426247D02*
X160509523Y-125664342D01*
X160509523Y-125664342D02*
X160461904Y-125759580D01*
X160461904Y-125759580D02*
X160414285Y-125807200D01*
X160414285Y-125807200D02*
X160319047Y-125854819D01*
X160319047Y-125854819D02*
X160080952Y-125854819D01*
X160080952Y-125854819D02*
X159985714Y-125807200D01*
X159985714Y-125807200D02*
X159938095Y-125759580D01*
X159631880Y-99682857D02*
X159679500Y-99730476D01*
X159679500Y-99730476D02*
X159727119Y-99873333D01*
X159727119Y-99873333D02*
X159727119Y-99968571D01*
X159727119Y-99968571D02*
X159679500Y-100111428D01*
X159679500Y-100111428D02*
X159584261Y-100206666D01*
X159584261Y-100206666D02*
X159489023Y-100254285D01*
X159489023Y-100254285D02*
X159298547Y-100301904D01*
X159298547Y-100301904D02*
X159155690Y-100301904D01*
X159155690Y-100301904D02*
X158965214Y-100254285D01*
X158965214Y-100254285D02*
X158869976Y-100206666D01*
X158869976Y-100206666D02*
X158774738Y-100111428D01*
X158774738Y-100111428D02*
X158727119Y-99968571D01*
X158727119Y-99968571D02*
X158727119Y-99873333D01*
X158727119Y-99873333D02*
X158774738Y-99730476D01*
X158774738Y-99730476D02*
X158822357Y-99682857D01*
X159727119Y-98730476D02*
X159727119Y-99301904D01*
X159727119Y-99016190D02*
X158727119Y-99016190D01*
X158727119Y-99016190D02*
X158869976Y-99111428D01*
X158869976Y-99111428D02*
X158965214Y-99206666D01*
X158965214Y-99206666D02*
X159012833Y-99301904D01*
X159727119Y-97778095D02*
X159727119Y-98349523D01*
X159727119Y-98063809D02*
X158727119Y-98063809D01*
X158727119Y-98063809D02*
X158869976Y-98159047D01*
X158869976Y-98159047D02*
X158965214Y-98254285D01*
X158965214Y-98254285D02*
X159012833Y-98349523D01*
X140991667Y-120919700D02*
X141134524Y-120967319D01*
X141134524Y-120967319D02*
X141372619Y-120967319D01*
X141372619Y-120967319D02*
X141467857Y-120919700D01*
X141467857Y-120919700D02*
X141515476Y-120872080D01*
X141515476Y-120872080D02*
X141563095Y-120776842D01*
X141563095Y-120776842D02*
X141563095Y-120681604D01*
X141563095Y-120681604D02*
X141515476Y-120586366D01*
X141515476Y-120586366D02*
X141467857Y-120538747D01*
X141467857Y-120538747D02*
X141372619Y-120491128D01*
X141372619Y-120491128D02*
X141182143Y-120443509D01*
X141182143Y-120443509D02*
X141086905Y-120395890D01*
X141086905Y-120395890D02*
X141039286Y-120348271D01*
X141039286Y-120348271D02*
X140991667Y-120253033D01*
X140991667Y-120253033D02*
X140991667Y-120157795D01*
X140991667Y-120157795D02*
X141039286Y-120062557D01*
X141039286Y-120062557D02*
X141086905Y-120014938D01*
X141086905Y-120014938D02*
X141182143Y-119967319D01*
X141182143Y-119967319D02*
X141420238Y-119967319D01*
X141420238Y-119967319D02*
X141563095Y-120014938D01*
X141896429Y-119967319D02*
X142134524Y-120967319D01*
X142134524Y-120967319D02*
X142325000Y-120253033D01*
X142325000Y-120253033D02*
X142515476Y-120967319D01*
X142515476Y-120967319D02*
X142753572Y-119967319D01*
X143086905Y-120062557D02*
X143134524Y-120014938D01*
X143134524Y-120014938D02*
X143229762Y-119967319D01*
X143229762Y-119967319D02*
X143467857Y-119967319D01*
X143467857Y-119967319D02*
X143563095Y-120014938D01*
X143563095Y-120014938D02*
X143610714Y-120062557D01*
X143610714Y-120062557D02*
X143658333Y-120157795D01*
X143658333Y-120157795D02*
X143658333Y-120253033D01*
X143658333Y-120253033D02*
X143610714Y-120395890D01*
X143610714Y-120395890D02*
X143039286Y-120967319D01*
X143039286Y-120967319D02*
X143658333Y-120967319D01*
X183079819Y-107333333D02*
X183794104Y-107333333D01*
X183794104Y-107333333D02*
X183936961Y-107380952D01*
X183936961Y-107380952D02*
X184032200Y-107476190D01*
X184032200Y-107476190D02*
X184079819Y-107619047D01*
X184079819Y-107619047D02*
X184079819Y-107714285D01*
X184079819Y-106333333D02*
X184079819Y-106904761D01*
X184079819Y-106619047D02*
X183079819Y-106619047D01*
X183079819Y-106619047D02*
X183222676Y-106714285D01*
X183222676Y-106714285D02*
X183317914Y-106809523D01*
X183317914Y-106809523D02*
X183365533Y-106904761D01*
X166339700Y-101246428D02*
X166339700Y-100103571D01*
X166339700Y-113546428D02*
X166339700Y-112403571D01*
X166911128Y-112974999D02*
X165768271Y-112974999D01*
X146729819Y-91916666D02*
X146253628Y-92249999D01*
X146729819Y-92488094D02*
X145729819Y-92488094D01*
X145729819Y-92488094D02*
X145729819Y-92107142D01*
X145729819Y-92107142D02*
X145777438Y-92011904D01*
X145777438Y-92011904D02*
X145825057Y-91964285D01*
X145825057Y-91964285D02*
X145920295Y-91916666D01*
X145920295Y-91916666D02*
X146063152Y-91916666D01*
X146063152Y-91916666D02*
X146158390Y-91964285D01*
X146158390Y-91964285D02*
X146206009Y-92011904D01*
X146206009Y-92011904D02*
X146253628Y-92107142D01*
X146253628Y-92107142D02*
X146253628Y-92488094D01*
X146063152Y-91059523D02*
X146729819Y-91059523D01*
X145682200Y-91297618D02*
X146396485Y-91535713D01*
X146396485Y-91535713D02*
X146396485Y-90916666D01*
X145038771Y-77702930D02*
X144943042Y-77655066D01*
X144943042Y-77655066D02*
X144847314Y-77559338D01*
X144847314Y-77559338D02*
X144703721Y-77415745D01*
X144703721Y-77415745D02*
X144607992Y-77367880D01*
X144607992Y-77367880D02*
X144512264Y-77367880D01*
X144560128Y-77607202D02*
X144464400Y-77559338D01*
X144464400Y-77559338D02*
X144368671Y-77463609D01*
X144368671Y-77463609D02*
X144320807Y-77272152D01*
X144320807Y-77272152D02*
X144320807Y-76937102D01*
X144320807Y-76937102D02*
X144368671Y-76745645D01*
X144368671Y-76745645D02*
X144464400Y-76649916D01*
X144464400Y-76649916D02*
X144560128Y-76602052D01*
X144560128Y-76602052D02*
X144751585Y-76602052D01*
X144751585Y-76602052D02*
X144847314Y-76649916D01*
X144847314Y-76649916D02*
X144943042Y-76745645D01*
X144943042Y-76745645D02*
X144990907Y-76937102D01*
X144990907Y-76937102D02*
X144990907Y-77272152D01*
X144990907Y-77272152D02*
X144943042Y-77463609D01*
X144943042Y-77463609D02*
X144847314Y-77559338D01*
X144847314Y-77559338D02*
X144751585Y-77607202D01*
X144751585Y-77607202D02*
X144560128Y-77607202D01*
X145373821Y-76697780D02*
X145421685Y-76649916D01*
X145421685Y-76649916D02*
X145517414Y-76602052D01*
X145517414Y-76602052D02*
X145756735Y-76602052D01*
X145756735Y-76602052D02*
X145852464Y-76649916D01*
X145852464Y-76649916D02*
X145900328Y-76697780D01*
X145900328Y-76697780D02*
X145948192Y-76793509D01*
X145948192Y-76793509D02*
X145948192Y-76889238D01*
X145948192Y-76889238D02*
X145900328Y-77032830D01*
X145900328Y-77032830D02*
X145325956Y-77607202D01*
X145325956Y-77607202D02*
X145948192Y-77607202D01*
D11*
X150838855Y-101864285D02*
X150457902Y-102130952D01*
X150838855Y-102321428D02*
X150038855Y-102321428D01*
X150038855Y-102321428D02*
X150038855Y-102016666D01*
X150038855Y-102016666D02*
X150076950Y-101940476D01*
X150076950Y-101940476D02*
X150115045Y-101902381D01*
X150115045Y-101902381D02*
X150191236Y-101864285D01*
X150191236Y-101864285D02*
X150305521Y-101864285D01*
X150305521Y-101864285D02*
X150381712Y-101902381D01*
X150381712Y-101902381D02*
X150419807Y-101940476D01*
X150419807Y-101940476D02*
X150457902Y-102016666D01*
X150457902Y-102016666D02*
X150457902Y-102321428D01*
X150838855Y-101102381D02*
X150838855Y-101559524D01*
X150838855Y-101330952D02*
X150038855Y-101330952D01*
X150038855Y-101330952D02*
X150153140Y-101407143D01*
X150153140Y-101407143D02*
X150229331Y-101483333D01*
X150229331Y-101483333D02*
X150267426Y-101559524D01*
X150038855Y-100835714D02*
X150038855Y-100340476D01*
X150038855Y-100340476D02*
X150343617Y-100607142D01*
X150343617Y-100607142D02*
X150343617Y-100492857D01*
X150343617Y-100492857D02*
X150381712Y-100416666D01*
X150381712Y-100416666D02*
X150419807Y-100378571D01*
X150419807Y-100378571D02*
X150495998Y-100340476D01*
X150495998Y-100340476D02*
X150686474Y-100340476D01*
X150686474Y-100340476D02*
X150762664Y-100378571D01*
X150762664Y-100378571D02*
X150800760Y-100416666D01*
X150800760Y-100416666D02*
X150838855Y-100492857D01*
X150838855Y-100492857D02*
X150838855Y-100721428D01*
X150838855Y-100721428D02*
X150800760Y-100797619D01*
X150800760Y-100797619D02*
X150762664Y-100835714D01*
D12*
X151047495Y-118874819D02*
X151047495Y-119684342D01*
X151047495Y-119684342D02*
X151095114Y-119779580D01*
X151095114Y-119779580D02*
X151142733Y-119827200D01*
X151142733Y-119827200D02*
X151237971Y-119874819D01*
X151237971Y-119874819D02*
X151428447Y-119874819D01*
X151428447Y-119874819D02*
X151523685Y-119827200D01*
X151523685Y-119827200D02*
X151571304Y-119779580D01*
X151571304Y-119779580D02*
X151618923Y-119684342D01*
X151618923Y-119684342D02*
X151618923Y-118874819D01*
X152523685Y-118874819D02*
X152333209Y-118874819D01*
X152333209Y-118874819D02*
X152237971Y-118922438D01*
X152237971Y-118922438D02*
X152190352Y-118970057D01*
X152190352Y-118970057D02*
X152095114Y-119112914D01*
X152095114Y-119112914D02*
X152047495Y-119303390D01*
X152047495Y-119303390D02*
X152047495Y-119684342D01*
X152047495Y-119684342D02*
X152095114Y-119779580D01*
X152095114Y-119779580D02*
X152142733Y-119827200D01*
X152142733Y-119827200D02*
X152237971Y-119874819D01*
X152237971Y-119874819D02*
X152428447Y-119874819D01*
X152428447Y-119874819D02*
X152523685Y-119827200D01*
X152523685Y-119827200D02*
X152571304Y-119779580D01*
X152571304Y-119779580D02*
X152618923Y-119684342D01*
X152618923Y-119684342D02*
X152618923Y-119446247D01*
X152618923Y-119446247D02*
X152571304Y-119351009D01*
X152571304Y-119351009D02*
X152523685Y-119303390D01*
X152523685Y-119303390D02*
X152428447Y-119255771D01*
X152428447Y-119255771D02*
X152237971Y-119255771D01*
X152237971Y-119255771D02*
X152142733Y-119303390D01*
X152142733Y-119303390D02*
X152095114Y-119351009D01*
X152095114Y-119351009D02*
X152047495Y-119446247D01*
D11*
X158830833Y-89779526D02*
X158797500Y-89812860D01*
X158797500Y-89812860D02*
X158697500Y-89846193D01*
X158697500Y-89846193D02*
X158630833Y-89846193D01*
X158630833Y-89846193D02*
X158530833Y-89812860D01*
X158530833Y-89812860D02*
X158464167Y-89746193D01*
X158464167Y-89746193D02*
X158430833Y-89679526D01*
X158430833Y-89679526D02*
X158397500Y-89546193D01*
X158397500Y-89546193D02*
X158397500Y-89446193D01*
X158397500Y-89446193D02*
X158430833Y-89312860D01*
X158430833Y-89312860D02*
X158464167Y-89246193D01*
X158464167Y-89246193D02*
X158530833Y-89179526D01*
X158530833Y-89179526D02*
X158630833Y-89146193D01*
X158630833Y-89146193D02*
X158697500Y-89146193D01*
X158697500Y-89146193D02*
X158797500Y-89179526D01*
X158797500Y-89179526D02*
X158830833Y-89212860D01*
X159430833Y-89379526D02*
X159430833Y-89846193D01*
X159264167Y-89112860D02*
X159097500Y-89612860D01*
X159097500Y-89612860D02*
X159530833Y-89612860D01*
D12*
X123604819Y-115211904D02*
X124414342Y-115211904D01*
X124414342Y-115211904D02*
X124509580Y-115164285D01*
X124509580Y-115164285D02*
X124557200Y-115116666D01*
X124557200Y-115116666D02*
X124604819Y-115021428D01*
X124604819Y-115021428D02*
X124604819Y-114830952D01*
X124604819Y-114830952D02*
X124557200Y-114735714D01*
X124557200Y-114735714D02*
X124509580Y-114688095D01*
X124509580Y-114688095D02*
X124414342Y-114640476D01*
X124414342Y-114640476D02*
X123604819Y-114640476D01*
X123938152Y-113735714D02*
X124604819Y-113735714D01*
X123557200Y-113973809D02*
X124271485Y-114211904D01*
X124271485Y-114211904D02*
X124271485Y-113592857D01*
X149144642Y-108974819D02*
X148811309Y-108498628D01*
X148573214Y-108974819D02*
X148573214Y-107974819D01*
X148573214Y-107974819D02*
X148954166Y-107974819D01*
X148954166Y-107974819D02*
X149049404Y-108022438D01*
X149049404Y-108022438D02*
X149097023Y-108070057D01*
X149097023Y-108070057D02*
X149144642Y-108165295D01*
X149144642Y-108165295D02*
X149144642Y-108308152D01*
X149144642Y-108308152D02*
X149097023Y-108403390D01*
X149097023Y-108403390D02*
X149049404Y-108451009D01*
X149049404Y-108451009D02*
X148954166Y-108498628D01*
X148954166Y-108498628D02*
X148573214Y-108498628D01*
X150097023Y-108974819D02*
X149525595Y-108974819D01*
X149811309Y-108974819D02*
X149811309Y-107974819D01*
X149811309Y-107974819D02*
X149716071Y-108117676D01*
X149716071Y-108117676D02*
X149620833Y-108212914D01*
X149620833Y-108212914D02*
X149525595Y-108260533D01*
X150430357Y-107974819D02*
X151097023Y-107974819D01*
X151097023Y-107974819D02*
X150668452Y-108974819D01*
D11*
X158792093Y-86083066D02*
X158458760Y-86316399D01*
X158792093Y-86483066D02*
X158092093Y-86483066D01*
X158092093Y-86483066D02*
X158092093Y-86216399D01*
X158092093Y-86216399D02*
X158125426Y-86149733D01*
X158125426Y-86149733D02*
X158158760Y-86116399D01*
X158158760Y-86116399D02*
X158225426Y-86083066D01*
X158225426Y-86083066D02*
X158325426Y-86083066D01*
X158325426Y-86083066D02*
X158392093Y-86116399D01*
X158392093Y-86116399D02*
X158425426Y-86149733D01*
X158425426Y-86149733D02*
X158458760Y-86216399D01*
X158458760Y-86216399D02*
X158458760Y-86483066D01*
X158092093Y-85849733D02*
X158092093Y-85383066D01*
X158092093Y-85383066D02*
X158792093Y-85683066D01*
D12*
X145094819Y-95538094D02*
X144094819Y-95538094D01*
X144094819Y-95538094D02*
X144094819Y-95299999D01*
X144094819Y-95299999D02*
X144142438Y-95157142D01*
X144142438Y-95157142D02*
X144237676Y-95061904D01*
X144237676Y-95061904D02*
X144332914Y-95014285D01*
X144332914Y-95014285D02*
X144523390Y-94966666D01*
X144523390Y-94966666D02*
X144666247Y-94966666D01*
X144666247Y-94966666D02*
X144856723Y-95014285D01*
X144856723Y-95014285D02*
X144951961Y-95061904D01*
X144951961Y-95061904D02*
X145047200Y-95157142D01*
X145047200Y-95157142D02*
X145094819Y-95299999D01*
X145094819Y-95299999D02*
X145094819Y-95538094D01*
X145094819Y-94014285D02*
X145094819Y-94585713D01*
X145094819Y-94299999D02*
X144094819Y-94299999D01*
X144094819Y-94299999D02*
X144237676Y-94395237D01*
X144237676Y-94395237D02*
X144332914Y-94490475D01*
X144332914Y-94490475D02*
X144380533Y-94585713D01*
D11*
X155490093Y-86083066D02*
X155156760Y-86316399D01*
X155490093Y-86483066D02*
X154790093Y-86483066D01*
X154790093Y-86483066D02*
X154790093Y-86216399D01*
X154790093Y-86216399D02*
X154823426Y-86149733D01*
X154823426Y-86149733D02*
X154856760Y-86116399D01*
X154856760Y-86116399D02*
X154923426Y-86083066D01*
X154923426Y-86083066D02*
X155023426Y-86083066D01*
X155023426Y-86083066D02*
X155090093Y-86116399D01*
X155090093Y-86116399D02*
X155123426Y-86149733D01*
X155123426Y-86149733D02*
X155156760Y-86216399D01*
X155156760Y-86216399D02*
X155156760Y-86483066D01*
X154790093Y-85483066D02*
X154790093Y-85616399D01*
X154790093Y-85616399D02*
X154823426Y-85683066D01*
X154823426Y-85683066D02*
X154856760Y-85716399D01*
X154856760Y-85716399D02*
X154956760Y-85783066D01*
X154956760Y-85783066D02*
X155090093Y-85816399D01*
X155090093Y-85816399D02*
X155356760Y-85816399D01*
X155356760Y-85816399D02*
X155423426Y-85783066D01*
X155423426Y-85783066D02*
X155456760Y-85749733D01*
X155456760Y-85749733D02*
X155490093Y-85683066D01*
X155490093Y-85683066D02*
X155490093Y-85549733D01*
X155490093Y-85549733D02*
X155456760Y-85483066D01*
X155456760Y-85483066D02*
X155423426Y-85449733D01*
X155423426Y-85449733D02*
X155356760Y-85416399D01*
X155356760Y-85416399D02*
X155190093Y-85416399D01*
X155190093Y-85416399D02*
X155123426Y-85449733D01*
X155123426Y-85449733D02*
X155090093Y-85483066D01*
X155090093Y-85483066D02*
X155056760Y-85549733D01*
X155056760Y-85549733D02*
X155056760Y-85683066D01*
X155056760Y-85683066D02*
X155090093Y-85749733D01*
X155090093Y-85749733D02*
X155123426Y-85783066D01*
X155123426Y-85783066D02*
X155190093Y-85816399D01*
X156743967Y-101748855D02*
X156477300Y-101367902D01*
X156286824Y-101748855D02*
X156286824Y-100948855D01*
X156286824Y-100948855D02*
X156591586Y-100948855D01*
X156591586Y-100948855D02*
X156667776Y-100986950D01*
X156667776Y-100986950D02*
X156705871Y-101025045D01*
X156705871Y-101025045D02*
X156743967Y-101101236D01*
X156743967Y-101101236D02*
X156743967Y-101215521D01*
X156743967Y-101215521D02*
X156705871Y-101291712D01*
X156705871Y-101291712D02*
X156667776Y-101329807D01*
X156667776Y-101329807D02*
X156591586Y-101367902D01*
X156591586Y-101367902D02*
X156286824Y-101367902D01*
X157201109Y-101291712D02*
X157124919Y-101253617D01*
X157124919Y-101253617D02*
X157086824Y-101215521D01*
X157086824Y-101215521D02*
X157048728Y-101139331D01*
X157048728Y-101139331D02*
X157048728Y-101101236D01*
X157048728Y-101101236D02*
X157086824Y-101025045D01*
X157086824Y-101025045D02*
X157124919Y-100986950D01*
X157124919Y-100986950D02*
X157201109Y-100948855D01*
X157201109Y-100948855D02*
X157353490Y-100948855D01*
X157353490Y-100948855D02*
X157429681Y-100986950D01*
X157429681Y-100986950D02*
X157467776Y-101025045D01*
X157467776Y-101025045D02*
X157505871Y-101101236D01*
X157505871Y-101101236D02*
X157505871Y-101139331D01*
X157505871Y-101139331D02*
X157467776Y-101215521D01*
X157467776Y-101215521D02*
X157429681Y-101253617D01*
X157429681Y-101253617D02*
X157353490Y-101291712D01*
X157353490Y-101291712D02*
X157201109Y-101291712D01*
X157201109Y-101291712D02*
X157124919Y-101329807D01*
X157124919Y-101329807D02*
X157086824Y-101367902D01*
X157086824Y-101367902D02*
X157048728Y-101444093D01*
X157048728Y-101444093D02*
X157048728Y-101596474D01*
X157048728Y-101596474D02*
X157086824Y-101672664D01*
X157086824Y-101672664D02*
X157124919Y-101710760D01*
X157124919Y-101710760D02*
X157201109Y-101748855D01*
X157201109Y-101748855D02*
X157353490Y-101748855D01*
X157353490Y-101748855D02*
X157429681Y-101710760D01*
X157429681Y-101710760D02*
X157467776Y-101672664D01*
X157467776Y-101672664D02*
X157505871Y-101596474D01*
X157505871Y-101596474D02*
X157505871Y-101444093D01*
X157505871Y-101444093D02*
X157467776Y-101367902D01*
X157467776Y-101367902D02*
X157429681Y-101329807D01*
X157429681Y-101329807D02*
X157353490Y-101291712D01*
X157633333Y-94542593D02*
X157400000Y-94209260D01*
X157233333Y-94542593D02*
X157233333Y-93842593D01*
X157233333Y-93842593D02*
X157500000Y-93842593D01*
X157500000Y-93842593D02*
X157566667Y-93875926D01*
X157566667Y-93875926D02*
X157600000Y-93909260D01*
X157600000Y-93909260D02*
X157633333Y-93975926D01*
X157633333Y-93975926D02*
X157633333Y-94075926D01*
X157633333Y-94075926D02*
X157600000Y-94142593D01*
X157600000Y-94142593D02*
X157566667Y-94175926D01*
X157566667Y-94175926D02*
X157500000Y-94209260D01*
X157500000Y-94209260D02*
X157233333Y-94209260D01*
X157900000Y-93909260D02*
X157933333Y-93875926D01*
X157933333Y-93875926D02*
X158000000Y-93842593D01*
X158000000Y-93842593D02*
X158166667Y-93842593D01*
X158166667Y-93842593D02*
X158233333Y-93875926D01*
X158233333Y-93875926D02*
X158266667Y-93909260D01*
X158266667Y-93909260D02*
X158300000Y-93975926D01*
X158300000Y-93975926D02*
X158300000Y-94042593D01*
X158300000Y-94042593D02*
X158266667Y-94142593D01*
X158266667Y-94142593D02*
X157866667Y-94542593D01*
X157866667Y-94542593D02*
X158300000Y-94542593D01*
D12*
X159433333Y-97384580D02*
X159385714Y-97432200D01*
X159385714Y-97432200D02*
X159242857Y-97479819D01*
X159242857Y-97479819D02*
X159147619Y-97479819D01*
X159147619Y-97479819D02*
X159004762Y-97432200D01*
X159004762Y-97432200D02*
X158909524Y-97336961D01*
X158909524Y-97336961D02*
X158861905Y-97241723D01*
X158861905Y-97241723D02*
X158814286Y-97051247D01*
X158814286Y-97051247D02*
X158814286Y-96908390D01*
X158814286Y-96908390D02*
X158861905Y-96717914D01*
X158861905Y-96717914D02*
X158909524Y-96622676D01*
X158909524Y-96622676D02*
X159004762Y-96527438D01*
X159004762Y-96527438D02*
X159147619Y-96479819D01*
X159147619Y-96479819D02*
X159242857Y-96479819D01*
X159242857Y-96479819D02*
X159385714Y-96527438D01*
X159385714Y-96527438D02*
X159433333Y-96575057D01*
X159909524Y-97479819D02*
X160100000Y-97479819D01*
X160100000Y-97479819D02*
X160195238Y-97432200D01*
X160195238Y-97432200D02*
X160242857Y-97384580D01*
X160242857Y-97384580D02*
X160338095Y-97241723D01*
X160338095Y-97241723D02*
X160385714Y-97051247D01*
X160385714Y-97051247D02*
X160385714Y-96670295D01*
X160385714Y-96670295D02*
X160338095Y-96575057D01*
X160338095Y-96575057D02*
X160290476Y-96527438D01*
X160290476Y-96527438D02*
X160195238Y-96479819D01*
X160195238Y-96479819D02*
X160004762Y-96479819D01*
X160004762Y-96479819D02*
X159909524Y-96527438D01*
X159909524Y-96527438D02*
X159861905Y-96575057D01*
X159861905Y-96575057D02*
X159814286Y-96670295D01*
X159814286Y-96670295D02*
X159814286Y-96908390D01*
X159814286Y-96908390D02*
X159861905Y-97003628D01*
X159861905Y-97003628D02*
X159909524Y-97051247D01*
X159909524Y-97051247D02*
X160004762Y-97098866D01*
X160004762Y-97098866D02*
X160195238Y-97098866D01*
X160195238Y-97098866D02*
X160290476Y-97051247D01*
X160290476Y-97051247D02*
X160338095Y-97003628D01*
X160338095Y-97003628D02*
X160385714Y-96908390D01*
D11*
X151059524Y-103888855D02*
X151059524Y-103088855D01*
X151059524Y-103088855D02*
X151250000Y-103088855D01*
X151250000Y-103088855D02*
X151364286Y-103126950D01*
X151364286Y-103126950D02*
X151440476Y-103203140D01*
X151440476Y-103203140D02*
X151478571Y-103279331D01*
X151478571Y-103279331D02*
X151516667Y-103431712D01*
X151516667Y-103431712D02*
X151516667Y-103545998D01*
X151516667Y-103545998D02*
X151478571Y-103698379D01*
X151478571Y-103698379D02*
X151440476Y-103774569D01*
X151440476Y-103774569D02*
X151364286Y-103850760D01*
X151364286Y-103850760D02*
X151250000Y-103888855D01*
X151250000Y-103888855D02*
X151059524Y-103888855D01*
X152202381Y-103355521D02*
X152202381Y-103888855D01*
X152011905Y-103050760D02*
X151821428Y-103622188D01*
X151821428Y-103622188D02*
X152316667Y-103622188D01*
D12*
X149634580Y-98141666D02*
X149682200Y-98189285D01*
X149682200Y-98189285D02*
X149729819Y-98332142D01*
X149729819Y-98332142D02*
X149729819Y-98427380D01*
X149729819Y-98427380D02*
X149682200Y-98570237D01*
X149682200Y-98570237D02*
X149586961Y-98665475D01*
X149586961Y-98665475D02*
X149491723Y-98713094D01*
X149491723Y-98713094D02*
X149301247Y-98760713D01*
X149301247Y-98760713D02*
X149158390Y-98760713D01*
X149158390Y-98760713D02*
X148967914Y-98713094D01*
X148967914Y-98713094D02*
X148872676Y-98665475D01*
X148872676Y-98665475D02*
X148777438Y-98570237D01*
X148777438Y-98570237D02*
X148729819Y-98427380D01*
X148729819Y-98427380D02*
X148729819Y-98332142D01*
X148729819Y-98332142D02*
X148777438Y-98189285D01*
X148777438Y-98189285D02*
X148825057Y-98141666D01*
X149729819Y-97189285D02*
X149729819Y-97760713D01*
X149729819Y-97474999D02*
X148729819Y-97474999D01*
X148729819Y-97474999D02*
X148872676Y-97570237D01*
X148872676Y-97570237D02*
X148967914Y-97665475D01*
X148967914Y-97665475D02*
X149015533Y-97760713D01*
X152108333Y-87029580D02*
X152060714Y-87077200D01*
X152060714Y-87077200D02*
X151917857Y-87124819D01*
X151917857Y-87124819D02*
X151822619Y-87124819D01*
X151822619Y-87124819D02*
X151679762Y-87077200D01*
X151679762Y-87077200D02*
X151584524Y-86981961D01*
X151584524Y-86981961D02*
X151536905Y-86886723D01*
X151536905Y-86886723D02*
X151489286Y-86696247D01*
X151489286Y-86696247D02*
X151489286Y-86553390D01*
X151489286Y-86553390D02*
X151536905Y-86362914D01*
X151536905Y-86362914D02*
X151584524Y-86267676D01*
X151584524Y-86267676D02*
X151679762Y-86172438D01*
X151679762Y-86172438D02*
X151822619Y-86124819D01*
X151822619Y-86124819D02*
X151917857Y-86124819D01*
X151917857Y-86124819D02*
X152060714Y-86172438D01*
X152060714Y-86172438D02*
X152108333Y-86220057D01*
X152441667Y-86124819D02*
X153060714Y-86124819D01*
X153060714Y-86124819D02*
X152727381Y-86505771D01*
X152727381Y-86505771D02*
X152870238Y-86505771D01*
X152870238Y-86505771D02*
X152965476Y-86553390D01*
X152965476Y-86553390D02*
X153013095Y-86601009D01*
X153013095Y-86601009D02*
X153060714Y-86696247D01*
X153060714Y-86696247D02*
X153060714Y-86934342D01*
X153060714Y-86934342D02*
X153013095Y-87029580D01*
X153013095Y-87029580D02*
X152965476Y-87077200D01*
X152965476Y-87077200D02*
X152870238Y-87124819D01*
X152870238Y-87124819D02*
X152584524Y-87124819D01*
X152584524Y-87124819D02*
X152489286Y-87077200D01*
X152489286Y-87077200D02*
X152441667Y-87029580D01*
D11*
X147999999Y-94975926D02*
X147966666Y-95009260D01*
X147966666Y-95009260D02*
X147866666Y-95042593D01*
X147866666Y-95042593D02*
X147799999Y-95042593D01*
X147799999Y-95042593D02*
X147699999Y-95009260D01*
X147699999Y-95009260D02*
X147633333Y-94942593D01*
X147633333Y-94942593D02*
X147599999Y-94875926D01*
X147599999Y-94875926D02*
X147566666Y-94742593D01*
X147566666Y-94742593D02*
X147566666Y-94642593D01*
X147566666Y-94642593D02*
X147599999Y-94509260D01*
X147599999Y-94509260D02*
X147633333Y-94442593D01*
X147633333Y-94442593D02*
X147699999Y-94375926D01*
X147699999Y-94375926D02*
X147799999Y-94342593D01*
X147799999Y-94342593D02*
X147866666Y-94342593D01*
X147866666Y-94342593D02*
X147966666Y-94375926D01*
X147966666Y-94375926D02*
X147999999Y-94409260D01*
X148666666Y-95042593D02*
X148266666Y-95042593D01*
X148466666Y-95042593D02*
X148466666Y-94342593D01*
X148466666Y-94342593D02*
X148399999Y-94442593D01*
X148399999Y-94442593D02*
X148333333Y-94509260D01*
X148333333Y-94509260D02*
X148266666Y-94542593D01*
X149100000Y-94342593D02*
X149166666Y-94342593D01*
X149166666Y-94342593D02*
X149233333Y-94375926D01*
X149233333Y-94375926D02*
X149266666Y-94409260D01*
X149266666Y-94409260D02*
X149300000Y-94475926D01*
X149300000Y-94475926D02*
X149333333Y-94609260D01*
X149333333Y-94609260D02*
X149333333Y-94775926D01*
X149333333Y-94775926D02*
X149300000Y-94909260D01*
X149300000Y-94909260D02*
X149266666Y-94975926D01*
X149266666Y-94975926D02*
X149233333Y-95009260D01*
X149233333Y-95009260D02*
X149166666Y-95042593D01*
X149166666Y-95042593D02*
X149100000Y-95042593D01*
X149100000Y-95042593D02*
X149033333Y-95009260D01*
X149033333Y-95009260D02*
X149000000Y-94975926D01*
X149000000Y-94975926D02*
X148966666Y-94909260D01*
X148966666Y-94909260D02*
X148933333Y-94775926D01*
X148933333Y-94775926D02*
X148933333Y-94609260D01*
X148933333Y-94609260D02*
X148966666Y-94475926D01*
X148966666Y-94475926D02*
X149000000Y-94409260D01*
X149000000Y-94409260D02*
X149033333Y-94375926D01*
X149033333Y-94375926D02*
X149100000Y-94342593D01*
D12*
X164338667Y-115736200D02*
X164481524Y-115783819D01*
X164481524Y-115783819D02*
X164719619Y-115783819D01*
X164719619Y-115783819D02*
X164814857Y-115736200D01*
X164814857Y-115736200D02*
X164862476Y-115688580D01*
X164862476Y-115688580D02*
X164910095Y-115593342D01*
X164910095Y-115593342D02*
X164910095Y-115498104D01*
X164910095Y-115498104D02*
X164862476Y-115402866D01*
X164862476Y-115402866D02*
X164814857Y-115355247D01*
X164814857Y-115355247D02*
X164719619Y-115307628D01*
X164719619Y-115307628D02*
X164529143Y-115260009D01*
X164529143Y-115260009D02*
X164433905Y-115212390D01*
X164433905Y-115212390D02*
X164386286Y-115164771D01*
X164386286Y-115164771D02*
X164338667Y-115069533D01*
X164338667Y-115069533D02*
X164338667Y-114974295D01*
X164338667Y-114974295D02*
X164386286Y-114879057D01*
X164386286Y-114879057D02*
X164433905Y-114831438D01*
X164433905Y-114831438D02*
X164529143Y-114783819D01*
X164529143Y-114783819D02*
X164767238Y-114783819D01*
X164767238Y-114783819D02*
X164910095Y-114831438D01*
X165243429Y-114783819D02*
X165481524Y-115783819D01*
X165481524Y-115783819D02*
X165672000Y-115069533D01*
X165672000Y-115069533D02*
X165862476Y-115783819D01*
X165862476Y-115783819D02*
X166100572Y-114783819D01*
X166910095Y-115117152D02*
X166910095Y-115783819D01*
X166672000Y-114736200D02*
X166433905Y-115450485D01*
X166433905Y-115450485D02*
X167052952Y-115450485D01*
D11*
X155990833Y-92522593D02*
X155757500Y-92189260D01*
X155590833Y-92522593D02*
X155590833Y-91822593D01*
X155590833Y-91822593D02*
X155857500Y-91822593D01*
X155857500Y-91822593D02*
X155924167Y-91855926D01*
X155924167Y-91855926D02*
X155957500Y-91889260D01*
X155957500Y-91889260D02*
X155990833Y-91955926D01*
X155990833Y-91955926D02*
X155990833Y-92055926D01*
X155990833Y-92055926D02*
X155957500Y-92122593D01*
X155957500Y-92122593D02*
X155924167Y-92155926D01*
X155924167Y-92155926D02*
X155857500Y-92189260D01*
X155857500Y-92189260D02*
X155590833Y-92189260D01*
X156224167Y-91822593D02*
X156657500Y-91822593D01*
X156657500Y-91822593D02*
X156424167Y-92089260D01*
X156424167Y-92089260D02*
X156524167Y-92089260D01*
X156524167Y-92089260D02*
X156590833Y-92122593D01*
X156590833Y-92122593D02*
X156624167Y-92155926D01*
X156624167Y-92155926D02*
X156657500Y-92222593D01*
X156657500Y-92222593D02*
X156657500Y-92389260D01*
X156657500Y-92389260D02*
X156624167Y-92455926D01*
X156624167Y-92455926D02*
X156590833Y-92489260D01*
X156590833Y-92489260D02*
X156524167Y-92522593D01*
X156524167Y-92522593D02*
X156324167Y-92522593D01*
X156324167Y-92522593D02*
X156257500Y-92489260D01*
X156257500Y-92489260D02*
X156224167Y-92455926D01*
D12*
X123504819Y-107711904D02*
X124314342Y-107711904D01*
X124314342Y-107711904D02*
X124409580Y-107664285D01*
X124409580Y-107664285D02*
X124457200Y-107616666D01*
X124457200Y-107616666D02*
X124504819Y-107521428D01*
X124504819Y-107521428D02*
X124504819Y-107330952D01*
X124504819Y-107330952D02*
X124457200Y-107235714D01*
X124457200Y-107235714D02*
X124409580Y-107188095D01*
X124409580Y-107188095D02*
X124314342Y-107140476D01*
X124314342Y-107140476D02*
X123504819Y-107140476D01*
X123504819Y-106759523D02*
X123504819Y-106140476D01*
X123504819Y-106140476D02*
X123885771Y-106473809D01*
X123885771Y-106473809D02*
X123885771Y-106330952D01*
X123885771Y-106330952D02*
X123933390Y-106235714D01*
X123933390Y-106235714D02*
X123981009Y-106188095D01*
X123981009Y-106188095D02*
X124076247Y-106140476D01*
X124076247Y-106140476D02*
X124314342Y-106140476D01*
X124314342Y-106140476D02*
X124409580Y-106188095D01*
X124409580Y-106188095D02*
X124457200Y-106235714D01*
X124457200Y-106235714D02*
X124504819Y-106330952D01*
X124504819Y-106330952D02*
X124504819Y-106616666D01*
X124504819Y-106616666D02*
X124457200Y-106711904D01*
X124457200Y-106711904D02*
X124409580Y-106759523D01*
X140063333Y-77344819D02*
X139730000Y-76868628D01*
X139491905Y-77344819D02*
X139491905Y-76344819D01*
X139491905Y-76344819D02*
X139872857Y-76344819D01*
X139872857Y-76344819D02*
X139968095Y-76392438D01*
X139968095Y-76392438D02*
X140015714Y-76440057D01*
X140015714Y-76440057D02*
X140063333Y-76535295D01*
X140063333Y-76535295D02*
X140063333Y-76678152D01*
X140063333Y-76678152D02*
X140015714Y-76773390D01*
X140015714Y-76773390D02*
X139968095Y-76821009D01*
X139968095Y-76821009D02*
X139872857Y-76868628D01*
X139872857Y-76868628D02*
X139491905Y-76868628D01*
X140539524Y-77344819D02*
X140730000Y-77344819D01*
X140730000Y-77344819D02*
X140825238Y-77297200D01*
X140825238Y-77297200D02*
X140872857Y-77249580D01*
X140872857Y-77249580D02*
X140968095Y-77106723D01*
X140968095Y-77106723D02*
X141015714Y-76916247D01*
X141015714Y-76916247D02*
X141015714Y-76535295D01*
X141015714Y-76535295D02*
X140968095Y-76440057D01*
X140968095Y-76440057D02*
X140920476Y-76392438D01*
X140920476Y-76392438D02*
X140825238Y-76344819D01*
X140825238Y-76344819D02*
X140634762Y-76344819D01*
X140634762Y-76344819D02*
X140539524Y-76392438D01*
X140539524Y-76392438D02*
X140491905Y-76440057D01*
X140491905Y-76440057D02*
X140444286Y-76535295D01*
X140444286Y-76535295D02*
X140444286Y-76773390D01*
X140444286Y-76773390D02*
X140491905Y-76868628D01*
X140491905Y-76868628D02*
X140539524Y-76916247D01*
X140539524Y-76916247D02*
X140634762Y-76963866D01*
X140634762Y-76963866D02*
X140825238Y-76963866D01*
X140825238Y-76963866D02*
X140920476Y-76916247D01*
X140920476Y-76916247D02*
X140968095Y-76868628D01*
X140968095Y-76868628D02*
X141015714Y-76773390D01*
D11*
X154174524Y-104888855D02*
X154174524Y-104088855D01*
X154174524Y-104088855D02*
X154365000Y-104088855D01*
X154365000Y-104088855D02*
X154479286Y-104126950D01*
X154479286Y-104126950D02*
X154555476Y-104203140D01*
X154555476Y-104203140D02*
X154593571Y-104279331D01*
X154593571Y-104279331D02*
X154631667Y-104431712D01*
X154631667Y-104431712D02*
X154631667Y-104545998D01*
X154631667Y-104545998D02*
X154593571Y-104698379D01*
X154593571Y-104698379D02*
X154555476Y-104774569D01*
X154555476Y-104774569D02*
X154479286Y-104850760D01*
X154479286Y-104850760D02*
X154365000Y-104888855D01*
X154365000Y-104888855D02*
X154174524Y-104888855D01*
X154898333Y-104088855D02*
X155393571Y-104088855D01*
X155393571Y-104088855D02*
X155126905Y-104393617D01*
X155126905Y-104393617D02*
X155241190Y-104393617D01*
X155241190Y-104393617D02*
X155317381Y-104431712D01*
X155317381Y-104431712D02*
X155355476Y-104469807D01*
X155355476Y-104469807D02*
X155393571Y-104545998D01*
X155393571Y-104545998D02*
X155393571Y-104736474D01*
X155393571Y-104736474D02*
X155355476Y-104812664D01*
X155355476Y-104812664D02*
X155317381Y-104850760D01*
X155317381Y-104850760D02*
X155241190Y-104888855D01*
X155241190Y-104888855D02*
X155012619Y-104888855D01*
X155012619Y-104888855D02*
X154936428Y-104850760D01*
X154936428Y-104850760D02*
X154898333Y-104812664D01*
D12*
X157661905Y-121644819D02*
X157661905Y-120644819D01*
X157661905Y-120644819D02*
X157900000Y-120644819D01*
X157900000Y-120644819D02*
X158042857Y-120692438D01*
X158042857Y-120692438D02*
X158138095Y-120787676D01*
X158138095Y-120787676D02*
X158185714Y-120882914D01*
X158185714Y-120882914D02*
X158233333Y-121073390D01*
X158233333Y-121073390D02*
X158233333Y-121216247D01*
X158233333Y-121216247D02*
X158185714Y-121406723D01*
X158185714Y-121406723D02*
X158138095Y-121501961D01*
X158138095Y-121501961D02*
X158042857Y-121597200D01*
X158042857Y-121597200D02*
X157900000Y-121644819D01*
X157900000Y-121644819D02*
X157661905Y-121644819D01*
X158614286Y-120740057D02*
X158661905Y-120692438D01*
X158661905Y-120692438D02*
X158757143Y-120644819D01*
X158757143Y-120644819D02*
X158995238Y-120644819D01*
X158995238Y-120644819D02*
X159090476Y-120692438D01*
X159090476Y-120692438D02*
X159138095Y-120740057D01*
X159138095Y-120740057D02*
X159185714Y-120835295D01*
X159185714Y-120835295D02*
X159185714Y-120930533D01*
X159185714Y-120930533D02*
X159138095Y-121073390D01*
X159138095Y-121073390D02*
X158566667Y-121644819D01*
X158566667Y-121644819D02*
X159185714Y-121644819D01*
X161959580Y-94791666D02*
X162007200Y-94839285D01*
X162007200Y-94839285D02*
X162054819Y-94982142D01*
X162054819Y-94982142D02*
X162054819Y-95077380D01*
X162054819Y-95077380D02*
X162007200Y-95220237D01*
X162007200Y-95220237D02*
X161911961Y-95315475D01*
X161911961Y-95315475D02*
X161816723Y-95363094D01*
X161816723Y-95363094D02*
X161626247Y-95410713D01*
X161626247Y-95410713D02*
X161483390Y-95410713D01*
X161483390Y-95410713D02*
X161292914Y-95363094D01*
X161292914Y-95363094D02*
X161197676Y-95315475D01*
X161197676Y-95315475D02*
X161102438Y-95220237D01*
X161102438Y-95220237D02*
X161054819Y-95077380D01*
X161054819Y-95077380D02*
X161054819Y-94982142D01*
X161054819Y-94982142D02*
X161102438Y-94839285D01*
X161102438Y-94839285D02*
X161150057Y-94791666D01*
X161054819Y-94458332D02*
X161054819Y-93791666D01*
X161054819Y-93791666D02*
X162054819Y-94220237D01*
D11*
X145675926Y-114960000D02*
X145709260Y-114993333D01*
X145709260Y-114993333D02*
X145742593Y-115093333D01*
X145742593Y-115093333D02*
X145742593Y-115160000D01*
X145742593Y-115160000D02*
X145709260Y-115260000D01*
X145709260Y-115260000D02*
X145642593Y-115326667D01*
X145642593Y-115326667D02*
X145575926Y-115360000D01*
X145575926Y-115360000D02*
X145442593Y-115393333D01*
X145442593Y-115393333D02*
X145342593Y-115393333D01*
X145342593Y-115393333D02*
X145209260Y-115360000D01*
X145209260Y-115360000D02*
X145142593Y-115326667D01*
X145142593Y-115326667D02*
X145075926Y-115260000D01*
X145075926Y-115260000D02*
X145042593Y-115160000D01*
X145042593Y-115160000D02*
X145042593Y-115093333D01*
X145042593Y-115093333D02*
X145075926Y-114993333D01*
X145075926Y-114993333D02*
X145109260Y-114960000D01*
X145742593Y-114293333D02*
X145742593Y-114693333D01*
X145742593Y-114493333D02*
X145042593Y-114493333D01*
X145042593Y-114493333D02*
X145142593Y-114560000D01*
X145142593Y-114560000D02*
X145209260Y-114626667D01*
X145209260Y-114626667D02*
X145242593Y-114693333D01*
X145109260Y-114026666D02*
X145075926Y-113993333D01*
X145075926Y-113993333D02*
X145042593Y-113926666D01*
X145042593Y-113926666D02*
X145042593Y-113760000D01*
X145042593Y-113760000D02*
X145075926Y-113693333D01*
X145075926Y-113693333D02*
X145109260Y-113660000D01*
X145109260Y-113660000D02*
X145175926Y-113626666D01*
X145175926Y-113626666D02*
X145242593Y-113626666D01*
X145242593Y-113626666D02*
X145342593Y-113660000D01*
X145342593Y-113660000D02*
X145742593Y-114060000D01*
X145742593Y-114060000D02*
X145742593Y-113626666D01*
D12*
X144123809Y-108678628D02*
X144123809Y-109154819D01*
X143790476Y-108154819D02*
X144123809Y-108678628D01*
X144123809Y-108678628D02*
X144457142Y-108154819D01*
X145314285Y-109154819D02*
X144742857Y-109154819D01*
X145028571Y-109154819D02*
X145028571Y-108154819D01*
X145028571Y-108154819D02*
X144933333Y-108297676D01*
X144933333Y-108297676D02*
X144838095Y-108392914D01*
X144838095Y-108392914D02*
X144742857Y-108440533D01*
D11*
X162274999Y-121867593D02*
X162041666Y-121534260D01*
X161874999Y-121867593D02*
X161874999Y-121167593D01*
X161874999Y-121167593D02*
X162141666Y-121167593D01*
X162141666Y-121167593D02*
X162208333Y-121200926D01*
X162208333Y-121200926D02*
X162241666Y-121234260D01*
X162241666Y-121234260D02*
X162274999Y-121300926D01*
X162274999Y-121300926D02*
X162274999Y-121400926D01*
X162274999Y-121400926D02*
X162241666Y-121467593D01*
X162241666Y-121467593D02*
X162208333Y-121500926D01*
X162208333Y-121500926D02*
X162141666Y-121534260D01*
X162141666Y-121534260D02*
X161874999Y-121534260D01*
X162941666Y-121867593D02*
X162541666Y-121867593D01*
X162741666Y-121867593D02*
X162741666Y-121167593D01*
X162741666Y-121167593D02*
X162674999Y-121267593D01*
X162674999Y-121267593D02*
X162608333Y-121334260D01*
X162608333Y-121334260D02*
X162541666Y-121367593D01*
X163208333Y-121234260D02*
X163241666Y-121200926D01*
X163241666Y-121200926D02*
X163308333Y-121167593D01*
X163308333Y-121167593D02*
X163475000Y-121167593D01*
X163475000Y-121167593D02*
X163541666Y-121200926D01*
X163541666Y-121200926D02*
X163575000Y-121234260D01*
X163575000Y-121234260D02*
X163608333Y-121300926D01*
X163608333Y-121300926D02*
X163608333Y-121367593D01*
X163608333Y-121367593D02*
X163575000Y-121467593D01*
X163575000Y-121467593D02*
X163175000Y-121867593D01*
X163175000Y-121867593D02*
X163608333Y-121867593D01*
D12*
X177479819Y-93483333D02*
X178194104Y-93483333D01*
X178194104Y-93483333D02*
X178336961Y-93530952D01*
X178336961Y-93530952D02*
X178432200Y-93626190D01*
X178432200Y-93626190D02*
X178479819Y-93769047D01*
X178479819Y-93769047D02*
X178479819Y-93864285D01*
X177813152Y-92578571D02*
X178479819Y-92578571D01*
X177432200Y-92816666D02*
X178146485Y-93054761D01*
X178146485Y-93054761D02*
X178146485Y-92435714D01*
X159133333Y-91234580D02*
X159085714Y-91282200D01*
X159085714Y-91282200D02*
X158942857Y-91329819D01*
X158942857Y-91329819D02*
X158847619Y-91329819D01*
X158847619Y-91329819D02*
X158704762Y-91282200D01*
X158704762Y-91282200D02*
X158609524Y-91186961D01*
X158609524Y-91186961D02*
X158561905Y-91091723D01*
X158561905Y-91091723D02*
X158514286Y-90901247D01*
X158514286Y-90901247D02*
X158514286Y-90758390D01*
X158514286Y-90758390D02*
X158561905Y-90567914D01*
X158561905Y-90567914D02*
X158609524Y-90472676D01*
X158609524Y-90472676D02*
X158704762Y-90377438D01*
X158704762Y-90377438D02*
X158847619Y-90329819D01*
X158847619Y-90329819D02*
X158942857Y-90329819D01*
X158942857Y-90329819D02*
X159085714Y-90377438D01*
X159085714Y-90377438D02*
X159133333Y-90425057D01*
X159990476Y-90329819D02*
X159800000Y-90329819D01*
X159800000Y-90329819D02*
X159704762Y-90377438D01*
X159704762Y-90377438D02*
X159657143Y-90425057D01*
X159657143Y-90425057D02*
X159561905Y-90567914D01*
X159561905Y-90567914D02*
X159514286Y-90758390D01*
X159514286Y-90758390D02*
X159514286Y-91139342D01*
X159514286Y-91139342D02*
X159561905Y-91234580D01*
X159561905Y-91234580D02*
X159609524Y-91282200D01*
X159609524Y-91282200D02*
X159704762Y-91329819D01*
X159704762Y-91329819D02*
X159895238Y-91329819D01*
X159895238Y-91329819D02*
X159990476Y-91282200D01*
X159990476Y-91282200D02*
X160038095Y-91234580D01*
X160038095Y-91234580D02*
X160085714Y-91139342D01*
X160085714Y-91139342D02*
X160085714Y-90901247D01*
X160085714Y-90901247D02*
X160038095Y-90806009D01*
X160038095Y-90806009D02*
X159990476Y-90758390D01*
X159990476Y-90758390D02*
X159895238Y-90710771D01*
X159895238Y-90710771D02*
X159704762Y-90710771D01*
X159704762Y-90710771D02*
X159609524Y-90758390D01*
X159609524Y-90758390D02*
X159561905Y-90806009D01*
X159561905Y-90806009D02*
X159514286Y-90901247D01*
X138679667Y-97632200D02*
X138822524Y-97679819D01*
X138822524Y-97679819D02*
X139060619Y-97679819D01*
X139060619Y-97679819D02*
X139155857Y-97632200D01*
X139155857Y-97632200D02*
X139203476Y-97584580D01*
X139203476Y-97584580D02*
X139251095Y-97489342D01*
X139251095Y-97489342D02*
X139251095Y-97394104D01*
X139251095Y-97394104D02*
X139203476Y-97298866D01*
X139203476Y-97298866D02*
X139155857Y-97251247D01*
X139155857Y-97251247D02*
X139060619Y-97203628D01*
X139060619Y-97203628D02*
X138870143Y-97156009D01*
X138870143Y-97156009D02*
X138774905Y-97108390D01*
X138774905Y-97108390D02*
X138727286Y-97060771D01*
X138727286Y-97060771D02*
X138679667Y-96965533D01*
X138679667Y-96965533D02*
X138679667Y-96870295D01*
X138679667Y-96870295D02*
X138727286Y-96775057D01*
X138727286Y-96775057D02*
X138774905Y-96727438D01*
X138774905Y-96727438D02*
X138870143Y-96679819D01*
X138870143Y-96679819D02*
X139108238Y-96679819D01*
X139108238Y-96679819D02*
X139251095Y-96727438D01*
X139584429Y-96679819D02*
X139822524Y-97679819D01*
X139822524Y-97679819D02*
X140013000Y-96965533D01*
X140013000Y-96965533D02*
X140203476Y-97679819D01*
X140203476Y-97679819D02*
X140441572Y-96679819D01*
X141346333Y-97679819D02*
X140774905Y-97679819D01*
X141060619Y-97679819D02*
X141060619Y-96679819D01*
X141060619Y-96679819D02*
X140965381Y-96822676D01*
X140965381Y-96822676D02*
X140870143Y-96917914D01*
X140870143Y-96917914D02*
X140774905Y-96965533D01*
X115389819Y-92748333D02*
X116104104Y-92748333D01*
X116104104Y-92748333D02*
X116246961Y-92795952D01*
X116246961Y-92795952D02*
X116342200Y-92891190D01*
X116342200Y-92891190D02*
X116389819Y-93034047D01*
X116389819Y-93034047D02*
X116389819Y-93129285D01*
X115485057Y-92319761D02*
X115437438Y-92272142D01*
X115437438Y-92272142D02*
X115389819Y-92176904D01*
X115389819Y-92176904D02*
X115389819Y-91938809D01*
X115389819Y-91938809D02*
X115437438Y-91843571D01*
X115437438Y-91843571D02*
X115485057Y-91795952D01*
X115485057Y-91795952D02*
X115580295Y-91748333D01*
X115580295Y-91748333D02*
X115675533Y-91748333D01*
X115675533Y-91748333D02*
X115818390Y-91795952D01*
X115818390Y-91795952D02*
X116389819Y-92367380D01*
X116389819Y-92367380D02*
X116389819Y-91748333D01*
X132533866Y-86470951D02*
X132533866Y-85709047D01*
X136624700Y-97211428D02*
X136624700Y-96068571D01*
X137196128Y-96639999D02*
X136053271Y-96639999D01*
D11*
X142674999Y-90002593D02*
X142441666Y-89669260D01*
X142274999Y-90002593D02*
X142274999Y-89302593D01*
X142274999Y-89302593D02*
X142541666Y-89302593D01*
X142541666Y-89302593D02*
X142608333Y-89335926D01*
X142608333Y-89335926D02*
X142641666Y-89369260D01*
X142641666Y-89369260D02*
X142674999Y-89435926D01*
X142674999Y-89435926D02*
X142674999Y-89535926D01*
X142674999Y-89535926D02*
X142641666Y-89602593D01*
X142641666Y-89602593D02*
X142608333Y-89635926D01*
X142608333Y-89635926D02*
X142541666Y-89669260D01*
X142541666Y-89669260D02*
X142274999Y-89669260D01*
X143341666Y-90002593D02*
X142941666Y-90002593D01*
X143141666Y-90002593D02*
X143141666Y-89302593D01*
X143141666Y-89302593D02*
X143074999Y-89402593D01*
X143074999Y-89402593D02*
X143008333Y-89469260D01*
X143008333Y-89469260D02*
X142941666Y-89502593D01*
X144008333Y-90002593D02*
X143608333Y-90002593D01*
X143808333Y-90002593D02*
X143808333Y-89302593D01*
X143808333Y-89302593D02*
X143741666Y-89402593D01*
X143741666Y-89402593D02*
X143675000Y-89469260D01*
X143675000Y-89469260D02*
X143608333Y-89502593D01*
D12*
X148538095Y-90904819D02*
X148538095Y-91714342D01*
X148538095Y-91714342D02*
X148585714Y-91809580D01*
X148585714Y-91809580D02*
X148633333Y-91857200D01*
X148633333Y-91857200D02*
X148728571Y-91904819D01*
X148728571Y-91904819D02*
X148919047Y-91904819D01*
X148919047Y-91904819D02*
X149014285Y-91857200D01*
X149014285Y-91857200D02*
X149061904Y-91809580D01*
X149061904Y-91809580D02*
X149109523Y-91714342D01*
X149109523Y-91714342D02*
X149109523Y-90904819D01*
X149538095Y-91000057D02*
X149585714Y-90952438D01*
X149585714Y-90952438D02*
X149680952Y-90904819D01*
X149680952Y-90904819D02*
X149919047Y-90904819D01*
X149919047Y-90904819D02*
X150014285Y-90952438D01*
X150014285Y-90952438D02*
X150061904Y-91000057D01*
X150061904Y-91000057D02*
X150109523Y-91095295D01*
X150109523Y-91095295D02*
X150109523Y-91190533D01*
X150109523Y-91190533D02*
X150061904Y-91333390D01*
X150061904Y-91333390D02*
X149490476Y-91904819D01*
X149490476Y-91904819D02*
X150109523Y-91904819D01*
X153282142Y-109079819D02*
X152948809Y-108603628D01*
X152710714Y-109079819D02*
X152710714Y-108079819D01*
X152710714Y-108079819D02*
X153091666Y-108079819D01*
X153091666Y-108079819D02*
X153186904Y-108127438D01*
X153186904Y-108127438D02*
X153234523Y-108175057D01*
X153234523Y-108175057D02*
X153282142Y-108270295D01*
X153282142Y-108270295D02*
X153282142Y-108413152D01*
X153282142Y-108413152D02*
X153234523Y-108508390D01*
X153234523Y-108508390D02*
X153186904Y-108556009D01*
X153186904Y-108556009D02*
X153091666Y-108603628D01*
X153091666Y-108603628D02*
X152710714Y-108603628D01*
X154234523Y-109079819D02*
X153663095Y-109079819D01*
X153948809Y-109079819D02*
X153948809Y-108079819D01*
X153948809Y-108079819D02*
X153853571Y-108222676D01*
X153853571Y-108222676D02*
X153758333Y-108317914D01*
X153758333Y-108317914D02*
X153663095Y-108365533D01*
X154805952Y-108508390D02*
X154710714Y-108460771D01*
X154710714Y-108460771D02*
X154663095Y-108413152D01*
X154663095Y-108413152D02*
X154615476Y-108317914D01*
X154615476Y-108317914D02*
X154615476Y-108270295D01*
X154615476Y-108270295D02*
X154663095Y-108175057D01*
X154663095Y-108175057D02*
X154710714Y-108127438D01*
X154710714Y-108127438D02*
X154805952Y-108079819D01*
X154805952Y-108079819D02*
X154996428Y-108079819D01*
X154996428Y-108079819D02*
X155091666Y-108127438D01*
X155091666Y-108127438D02*
X155139285Y-108175057D01*
X155139285Y-108175057D02*
X155186904Y-108270295D01*
X155186904Y-108270295D02*
X155186904Y-108317914D01*
X155186904Y-108317914D02*
X155139285Y-108413152D01*
X155139285Y-108413152D02*
X155091666Y-108460771D01*
X155091666Y-108460771D02*
X154996428Y-108508390D01*
X154996428Y-108508390D02*
X154805952Y-108508390D01*
X154805952Y-108508390D02*
X154710714Y-108556009D01*
X154710714Y-108556009D02*
X154663095Y-108603628D01*
X154663095Y-108603628D02*
X154615476Y-108698866D01*
X154615476Y-108698866D02*
X154615476Y-108889342D01*
X154615476Y-108889342D02*
X154663095Y-108984580D01*
X154663095Y-108984580D02*
X154710714Y-109032200D01*
X154710714Y-109032200D02*
X154805952Y-109079819D01*
X154805952Y-109079819D02*
X154996428Y-109079819D01*
X154996428Y-109079819D02*
X155091666Y-109032200D01*
X155091666Y-109032200D02*
X155139285Y-108984580D01*
X155139285Y-108984580D02*
X155186904Y-108889342D01*
X155186904Y-108889342D02*
X155186904Y-108698866D01*
X155186904Y-108698866D02*
X155139285Y-108603628D01*
X155139285Y-108603628D02*
X155091666Y-108556009D01*
X155091666Y-108556009D02*
X154996428Y-108508390D01*
X147336642Y-88084819D02*
X147003309Y-87608628D01*
X146765214Y-88084819D02*
X146765214Y-87084819D01*
X146765214Y-87084819D02*
X147146166Y-87084819D01*
X147146166Y-87084819D02*
X147241404Y-87132438D01*
X147241404Y-87132438D02*
X147289023Y-87180057D01*
X147289023Y-87180057D02*
X147336642Y-87275295D01*
X147336642Y-87275295D02*
X147336642Y-87418152D01*
X147336642Y-87418152D02*
X147289023Y-87513390D01*
X147289023Y-87513390D02*
X147241404Y-87561009D01*
X147241404Y-87561009D02*
X147146166Y-87608628D01*
X147146166Y-87608628D02*
X146765214Y-87608628D01*
X148289023Y-88084819D02*
X147717595Y-88084819D01*
X148003309Y-88084819D02*
X148003309Y-87084819D01*
X148003309Y-87084819D02*
X147908071Y-87227676D01*
X147908071Y-87227676D02*
X147812833Y-87322914D01*
X147812833Y-87322914D02*
X147717595Y-87370533D01*
X148908071Y-87084819D02*
X149003309Y-87084819D01*
X149003309Y-87084819D02*
X149098547Y-87132438D01*
X149098547Y-87132438D02*
X149146166Y-87180057D01*
X149146166Y-87180057D02*
X149193785Y-87275295D01*
X149193785Y-87275295D02*
X149241404Y-87465771D01*
X149241404Y-87465771D02*
X149241404Y-87703866D01*
X149241404Y-87703866D02*
X149193785Y-87894342D01*
X149193785Y-87894342D02*
X149146166Y-87989580D01*
X149146166Y-87989580D02*
X149098547Y-88037200D01*
X149098547Y-88037200D02*
X149003309Y-88084819D01*
X149003309Y-88084819D02*
X148908071Y-88084819D01*
X148908071Y-88084819D02*
X148812833Y-88037200D01*
X148812833Y-88037200D02*
X148765214Y-87989580D01*
X148765214Y-87989580D02*
X148717595Y-87894342D01*
X148717595Y-87894342D02*
X148669976Y-87703866D01*
X148669976Y-87703866D02*
X148669976Y-87465771D01*
X148669976Y-87465771D02*
X148717595Y-87275295D01*
X148717595Y-87275295D02*
X148765214Y-87180057D01*
X148765214Y-87180057D02*
X148812833Y-87132438D01*
X148812833Y-87132438D02*
X148908071Y-87084819D01*
X135958327Y-79587930D02*
X135862598Y-79540066D01*
X135862598Y-79540066D02*
X135766870Y-79444338D01*
X135766870Y-79444338D02*
X135623277Y-79300745D01*
X135623277Y-79300745D02*
X135527548Y-79252880D01*
X135527548Y-79252880D02*
X135431820Y-79252880D01*
X135479684Y-79492202D02*
X135383956Y-79444338D01*
X135383956Y-79444338D02*
X135288227Y-79348609D01*
X135288227Y-79348609D02*
X135240363Y-79157152D01*
X135240363Y-79157152D02*
X135240363Y-78822102D01*
X135240363Y-78822102D02*
X135288227Y-78630645D01*
X135288227Y-78630645D02*
X135383956Y-78534916D01*
X135383956Y-78534916D02*
X135479684Y-78487052D01*
X135479684Y-78487052D02*
X135671141Y-78487052D01*
X135671141Y-78487052D02*
X135766870Y-78534916D01*
X135766870Y-78534916D02*
X135862598Y-78630645D01*
X135862598Y-78630645D02*
X135910463Y-78822102D01*
X135910463Y-78822102D02*
X135910463Y-79157152D01*
X135910463Y-79157152D02*
X135862598Y-79348609D01*
X135862598Y-79348609D02*
X135766870Y-79444338D01*
X135766870Y-79444338D02*
X135671141Y-79492202D01*
X135671141Y-79492202D02*
X135479684Y-79492202D01*
X136867748Y-79492202D02*
X136293377Y-79492202D01*
X136580562Y-79492202D02*
X136580562Y-78487052D01*
X136580562Y-78487052D02*
X136484834Y-78630645D01*
X136484834Y-78630645D02*
X136389105Y-78726373D01*
X136389105Y-78726373D02*
X136293377Y-78774238D01*
D11*
X155683333Y-96292593D02*
X155450000Y-95959260D01*
X155283333Y-96292593D02*
X155283333Y-95592593D01*
X155283333Y-95592593D02*
X155550000Y-95592593D01*
X155550000Y-95592593D02*
X155616667Y-95625926D01*
X155616667Y-95625926D02*
X155650000Y-95659260D01*
X155650000Y-95659260D02*
X155683333Y-95725926D01*
X155683333Y-95725926D02*
X155683333Y-95825926D01*
X155683333Y-95825926D02*
X155650000Y-95892593D01*
X155650000Y-95892593D02*
X155616667Y-95925926D01*
X155616667Y-95925926D02*
X155550000Y-95959260D01*
X155550000Y-95959260D02*
X155283333Y-95959260D01*
X156316667Y-95592593D02*
X155983333Y-95592593D01*
X155983333Y-95592593D02*
X155950000Y-95925926D01*
X155950000Y-95925926D02*
X155983333Y-95892593D01*
X155983333Y-95892593D02*
X156050000Y-95859260D01*
X156050000Y-95859260D02*
X156216667Y-95859260D01*
X156216667Y-95859260D02*
X156283333Y-95892593D01*
X156283333Y-95892593D02*
X156316667Y-95925926D01*
X156316667Y-95925926D02*
X156350000Y-95992593D01*
X156350000Y-95992593D02*
X156350000Y-96159260D01*
X156350000Y-96159260D02*
X156316667Y-96225926D01*
X156316667Y-96225926D02*
X156283333Y-96259260D01*
X156283333Y-96259260D02*
X156216667Y-96292593D01*
X156216667Y-96292593D02*
X156050000Y-96292593D01*
X156050000Y-96292593D02*
X155983333Y-96259260D01*
X155983333Y-96259260D02*
X155950000Y-96225926D01*
%TO.C,C13*%
X141552480Y-109640000D02*
X141271320Y-109640000D01*
X141552480Y-110660000D02*
X141271320Y-110660000D01*
%TO.C,R19*%
X159583641Y-115000000D02*
X159276359Y-115000000D01*
X159583641Y-115760000D02*
X159276359Y-115760000D01*
%TO.C,R1*%
X153501836Y-78973200D02*
X157855964Y-78973200D01*
X153501836Y-82393200D02*
X157855964Y-82393200D01*
%TO.C,C14*%
X141552480Y-112140000D02*
X141271320Y-112140000D01*
X141552480Y-113160000D02*
X141271320Y-113160000D01*
%TO.C,R16*%
X160550000Y-119013641D02*
X160550000Y-118706359D01*
X161310000Y-119013641D02*
X161310000Y-118706359D01*
%TO.C,C5*%
X155496920Y-87590000D02*
X155778080Y-87590000D01*
X155496920Y-88610000D02*
X155778080Y-88610000D01*
%TO.C,U5*%
X146350000Y-125377358D02*
X146350000Y-125762642D01*
X147210000Y-125377358D02*
X147210000Y-125762642D01*
X148890000Y-125377358D02*
X148890000Y-125762642D01*
X149750000Y-125377358D02*
X149750000Y-125762642D01*
X151430000Y-125377358D02*
X151430000Y-125762642D01*
X152290000Y-125377358D02*
X152290000Y-125762642D01*
X153970000Y-125377358D02*
X153970000Y-125762642D01*
X154830000Y-125377358D02*
X154830000Y-125762642D01*
%TO.C,C11*%
X156268552Y-98125000D02*
X154846048Y-98125000D01*
X156268552Y-99945000D02*
X154846048Y-99945000D01*
%TO.C,SW2*%
X140115000Y-115552500D02*
X141215000Y-115552500D01*
X140115000Y-117072500D02*
X140115000Y-117152500D01*
X143435000Y-115552500D02*
X144535000Y-115552500D01*
X144535000Y-117072500D02*
X144535000Y-117152500D01*
%TO.C,J1*%
X166765000Y-105785000D02*
X166765000Y-109525000D01*
X185185000Y-99215000D02*
X170875000Y-99215000D01*
X185185000Y-99215000D02*
X185185000Y-114935000D01*
X185185000Y-114935000D02*
X170875000Y-114935000D01*
X167352042Y-101208194D02*
G75*
G02*
X170875000Y-99215000I3522957J-2116805D01*
G01*
X170875000Y-114935000D02*
G75*
G02*
X166944587Y-112026648I0J4110000D01*
G01*
%TO.C,R4*%
X144560000Y-91621359D02*
X144560000Y-91928641D01*
X145320000Y-91621359D02*
X145320000Y-91928641D01*
D13*
%TO.C,Q2*%
X142524500Y-78725000D02*
X142739500Y-78725000D01*
X142524500Y-84725000D02*
X142524500Y-78725000D01*
X142649500Y-84725000D02*
X142524500Y-84725000D01*
X147499500Y-78725000D02*
X147674500Y-78725000D01*
X147674500Y-78725000D02*
X147674500Y-84725000D01*
X147674500Y-84725000D02*
X147499500Y-84725000D01*
D10*
X143257612Y-85675000D02*
G75*
G02*
X142941388Y-85675000I-158112J0D01*
G01*
X142941388Y-85675000D02*
G75*
G02*
X143257612Y-85675000I158112J0D01*
G01*
D11*
%TO.C,R13*%
X151570000Y-98586359D02*
X151570000Y-98893641D01*
X152330000Y-98586359D02*
X152330000Y-98893641D01*
%TO.C,U6*%
X151862500Y-111640000D02*
X149662500Y-111640000D01*
X151862500Y-111640000D02*
X154062500Y-111640000D01*
X151862500Y-118410000D02*
X149662500Y-118410000D01*
X151862500Y-118410000D02*
X154062500Y-118410000D01*
X148002500Y-112100000D02*
X147672500Y-112340000D01*
X147672500Y-111860000D01*
X148002500Y-112100000D01*
G36*
X148002500Y-112100000D02*
G01*
X147672500Y-112340000D01*
X147672500Y-111860000D01*
X148002500Y-112100000D01*
G37*
%TO.C,C4*%
X159153080Y-87590000D02*
X158871920Y-87590000D01*
X159153080Y-88610000D02*
X158871920Y-88610000D01*
%TO.C,U4*%
X122440000Y-112735000D02*
X122440000Y-116165000D01*
X125260000Y-111465000D02*
X126710000Y-111465000D01*
X125260000Y-117435000D02*
X126710000Y-117435000D01*
X126710000Y-111465000D02*
X126710000Y-113265000D01*
X126710000Y-113265000D02*
X127700000Y-113265000D01*
X126710000Y-117435000D02*
X126710000Y-115635000D01*
%TO.C,R17*%
X149941141Y-109570000D02*
X149633859Y-109570000D01*
X149941141Y-110330000D02*
X149633859Y-110330000D01*
%TO.C,R7*%
X156924500Y-85812759D02*
X156924500Y-86120041D01*
X157684500Y-85812759D02*
X157684500Y-86120041D01*
%TO.C,D1*%
X142515000Y-95500000D02*
X142515000Y-93540000D01*
X143715000Y-93540000D02*
X142515000Y-93540000D01*
X143715000Y-95500000D02*
X143715000Y-93540000D01*
%TO.C,R6*%
X153622500Y-85812759D02*
X153622500Y-86120041D01*
X154382500Y-85812759D02*
X154382500Y-86120041D01*
%TO.C,R8*%
X154806359Y-101000000D02*
X155113641Y-101000000D01*
X154806359Y-101760000D02*
X155113641Y-101760000D01*
%TO.C,R2*%
X155971359Y-93920000D02*
X156278641Y-93920000D01*
X155971359Y-94680000D02*
X156278641Y-94680000D01*
%TO.C,C9*%
X157390000Y-96315580D02*
X157390000Y-96034420D01*
X158410000Y-96315580D02*
X158410000Y-96034420D01*
%TO.C,D4*%
X151350000Y-101826250D02*
X151350000Y-99866250D01*
X152550000Y-99866250D02*
X151350000Y-99866250D01*
X152550000Y-101826250D02*
X152550000Y-99866250D01*
%TO.C,C1*%
X150140000Y-98115580D02*
X150140000Y-97834420D01*
X151160000Y-98115580D02*
X151160000Y-97834420D01*
%TO.C,C3*%
X152134420Y-87590000D02*
X152415580Y-87590000D01*
X152134420Y-88610000D02*
X152415580Y-88610000D01*
%TO.C,C10*%
X148917164Y-95415000D02*
X149132836Y-95415000D01*
X148917164Y-96135000D02*
X149132836Y-96135000D01*
%TO.C,SW4*%
X163462000Y-117769000D02*
X163462000Y-117689000D01*
X164562000Y-119289000D02*
X163462000Y-119289000D01*
X167882000Y-117769000D02*
X167882000Y-117689000D01*
X167882000Y-119289000D02*
X166782000Y-119289000D01*
%TO.C,R3*%
X155971359Y-92820000D02*
X156278641Y-92820000D01*
X155971359Y-93580000D02*
X156278641Y-93580000D01*
%TO.C,U3*%
X122440000Y-105235000D02*
X122440000Y-108665000D01*
X125260000Y-103965000D02*
X126710000Y-103965000D01*
X125260000Y-109935000D02*
X126710000Y-109935000D01*
X126710000Y-103965000D02*
X126710000Y-105765000D01*
X126710000Y-105765000D02*
X127700000Y-105765000D01*
X126710000Y-109935000D02*
X126710000Y-108135000D01*
%TO.C,R9*%
X139992742Y-77797500D02*
X140467258Y-77797500D01*
X139992742Y-78842500D02*
X140467258Y-78842500D01*
%TO.C,D3*%
X154070000Y-102410000D02*
X156030000Y-102410000D01*
X154070000Y-103610000D02*
X156030000Y-103610000D01*
X156030000Y-103610000D02*
X156030000Y-102410000D01*
%TO.C,D2*%
X156909400Y-118635000D02*
X156909400Y-120105000D01*
X156909400Y-120105000D02*
X159194400Y-120105000D01*
X159194400Y-118635000D02*
X156909400Y-118635000D01*
%TO.C,C7*%
X159565000Y-94765580D02*
X159565000Y-94484420D01*
X160585000Y-94765580D02*
X160585000Y-94484420D01*
%TO.C,C12*%
X146247500Y-114417164D02*
X146247500Y-114632836D01*
X146967500Y-114417164D02*
X146967500Y-114632836D01*
D13*
%TO.C,Y1*%
X143874400Y-111830000D02*
X143874400Y-110970000D01*
X145374400Y-111830000D02*
X145374400Y-110970000D01*
D10*
X143454400Y-113900000D02*
G75*
G02*
X143254400Y-113900000I-100000J0D01*
G01*
X143254400Y-113900000D02*
G75*
G02*
X143454400Y-113900000I100000J0D01*
G01*
D11*
%TO.C,R12*%
X162576359Y-119955000D02*
X162883641Y-119955000D01*
X162576359Y-120715000D02*
X162883641Y-120715000D01*
%TO.C,J4*%
X180215000Y-89540000D02*
X180215000Y-91340000D01*
X180215000Y-94960000D02*
X179225000Y-94960000D01*
X180215000Y-96760000D02*
X180215000Y-94960000D01*
X181665000Y-89540000D02*
X180215000Y-89540000D01*
X181665000Y-96760000D02*
X180215000Y-96760000D01*
X184485000Y-95490000D02*
X184485000Y-90810000D01*
%TO.C,C6*%
X159440580Y-91815000D02*
X159159420Y-91815000D01*
X159440580Y-92835000D02*
X159159420Y-92835000D01*
%TO.C,SW1*%
X138415000Y-92340000D02*
X138415000Y-91240000D01*
X138415000Y-95660000D02*
X138415000Y-94560000D01*
X139935000Y-91240000D02*
X140015000Y-91240000D01*
X139935000Y-95660000D02*
X140015000Y-95660000D01*
%TO.C,J2*%
X122200000Y-84630000D02*
X127810000Y-84630000D01*
X122200000Y-100350000D02*
X127810000Y-100350000D01*
X131920000Y-94940000D02*
X131920000Y-91200000D01*
X127810000Y-84630000D02*
G75*
G02*
X131332958Y-86623194I0J-4110000D01*
G01*
X131768718Y-97479900D02*
G75*
G02*
X127810000Y-100350000I-3918716J1239898D01*
G01*
%TO.C,R11*%
X142739500Y-91621359D02*
X142739500Y-91928641D01*
X143499500Y-91621359D02*
X143499500Y-91928641D01*
D13*
%TO.C,U2*%
X151100000Y-92450000D02*
X151100000Y-92760000D01*
X151100000Y-92450000D02*
X151410000Y-92450000D01*
X151100000Y-95950000D02*
X151100000Y-95640000D01*
X151100000Y-95950000D02*
X151410000Y-95950000D01*
X154600000Y-92450000D02*
X154290000Y-92450000D01*
X154600000Y-92450000D02*
X154600000Y-92760000D01*
D10*
X155450000Y-95200000D02*
G75*
G02*
X155250000Y-95200000I-100000J0D01*
G01*
X155250000Y-95200000D02*
G75*
G02*
X155450000Y-95200000I100000J0D01*
G01*
D11*
%TO.C,R18*%
X153783859Y-109570000D02*
X154091141Y-109570000D01*
X153783859Y-110330000D02*
X154091141Y-110330000D01*
%TO.C,R10*%
X148216758Y-85677500D02*
X147742242Y-85677500D01*
X148216758Y-86722500D02*
X147742242Y-86722500D01*
D13*
%TO.C,Q1*%
X135275000Y-80210000D02*
X141275000Y-80210000D01*
X135275000Y-80385000D02*
X135275000Y-80210000D01*
X135275000Y-85360000D02*
X135275000Y-85145000D01*
X141275000Y-80210000D02*
X141275000Y-80385000D01*
X141275000Y-85235000D02*
X141275000Y-85360000D01*
X141275000Y-85360000D02*
X135275000Y-85360000D01*
D10*
X142383112Y-84785000D02*
G75*
G02*
X142066888Y-84785000I-158112J0D01*
G01*
X142066888Y-84785000D02*
G75*
G02*
X142383112Y-84785000I158112J0D01*
G01*
D11*
%TO.C,R5*%
X155221359Y-96595000D02*
X155528641Y-96595000D01*
X155221359Y-97355000D02*
X155528641Y-97355000D01*
%TD*%
M02*
