%TF.GenerationSoftware,KiCad,Pcbnew,9.0.4*%
%TF.CreationDate,2026-01-29T02:18:11+03:00*%
%TF.ProjectId,BMS,424d532e-6b69-4636-9164-5f7063625858,rev?*%
%TF.SameCoordinates,Original*%
%TF.FileFunction,Copper,L1,Top*%
%TF.FilePolarity,Positive*%
%FSLAX46Y46*%
G04 Gerber Fmt 4.6, Leading zero omitted, Abs format (unit mm)*
G04 Created by KiCad (PCBNEW 9.0.4) date 2026-01-29 02:18:11*
%MOMM*%
%LPD*%
G01*
G04 APERTURE LIST*
G04 Aperture macros list*
%AMRoundRect*
0 Rectangle with rounded corners*
0 $1 Rounding radius*
0 $2 $3 $4 $5 $6 $7 $8 $9 X,Y pos of 4 corners*
0 Add a 4 corners polygon primitive as box body*
4,1,4,$2,$3,$4,$5,$6,$7,$8,$9,$2,$3,0*
0 Add four circle primitives for the rounded corners*
1,1,$1+$1,$2,$3*
1,1,$1+$1,$4,$5*
1,1,$1+$1,$6,$7*
1,1,$1+$1,$8,$9*
0 Add four rect primitives between the rounded corners*
20,1,$1+$1,$2,$3,$4,$5,0*
20,1,$1+$1,$4,$5,$6,$7,0*
20,1,$1+$1,$6,$7,$8,$9,0*
20,1,$1+$1,$8,$9,$2,$3,0*%
G04 Aperture macros list end*
%TA.AperFunction,Conductor*%
%ADD10C,0.200000*%
%TD*%
%TA.AperFunction,Conductor*%
%ADD11C,0.100000*%
%TD*%
%TA.AperFunction,SMDPad,CuDef*%
%ADD12RoundRect,0.225000X0.225000X0.250000X-0.225000X0.250000X-0.225000X-0.250000X0.225000X-0.250000X0*%
%TD*%
%TA.AperFunction,SMDPad,CuDef*%
%ADD13RoundRect,0.135000X0.135000X0.185000X-0.135000X0.185000X-0.135000X-0.185000X0.135000X-0.185000X0*%
%TD*%
%TA.AperFunction,SMDPad,CuDef*%
%ADD14RoundRect,0.250000X-0.362500X-1.425000X0.362500X-1.425000X0.362500X1.425000X-0.362500X1.425000X0*%
%TD*%
%TA.AperFunction,SMDPad,CuDef*%
%ADD15RoundRect,0.135000X0.185000X-0.135000X0.185000X0.135000X-0.185000X0.135000X-0.185000X-0.135000X0*%
%TD*%
%TA.AperFunction,SMDPad,CuDef*%
%ADD16RoundRect,0.225000X-0.225000X-0.250000X0.225000X-0.250000X0.225000X0.250000X-0.225000X0.250000X0*%
%TD*%
%TA.AperFunction,ComponentPad*%
%ADD17R,1.700000X1.700000*%
%TD*%
%TA.AperFunction,ComponentPad*%
%ADD18C,1.700000*%
%TD*%
%TA.AperFunction,SMDPad,CuDef*%
%ADD19RoundRect,0.250000X0.325000X0.650000X-0.325000X0.650000X-0.325000X-0.650000X0.325000X-0.650000X0*%
%TD*%
%TA.AperFunction,SMDPad,CuDef*%
%ADD20RoundRect,0.135000X-0.315000X-0.365000X0.315000X-0.365000X0.315000X0.365000X-0.315000X0.365000X0*%
%TD*%
%TA.AperFunction,SMDPad,CuDef*%
%ADD21RoundRect,0.082500X-0.767500X-0.192500X0.767500X-0.192500X0.767500X0.192500X-0.767500X0.192500X0*%
%TD*%
%TA.AperFunction,ComponentPad*%
%ADD22R,2.000000X0.900000*%
%TD*%
%TA.AperFunction,ComponentPad*%
%ADD23RoundRect,1.025000X-1.025000X1.025000X-1.025000X-1.025000X1.025000X-1.025000X1.025000X1.025000X0*%
%TD*%
%TA.AperFunction,ComponentPad*%
%ADD24C,4.100000*%
%TD*%
%TA.AperFunction,SMDPad,CuDef*%
%ADD25RoundRect,0.135000X-0.185000X0.135000X-0.185000X-0.135000X0.185000X-0.135000X0.185000X0.135000X0*%
%TD*%
%TA.AperFunction,SMDPad,CuDef*%
%ADD26R,0.600000X1.200000*%
%TD*%
%TA.AperFunction,SMDPad,CuDef*%
%ADD27R,3.300000X1.200000*%
%TD*%
%TA.AperFunction,SMDPad,CuDef*%
%ADD28R,4.510000X4.650000*%
%TD*%
%TA.AperFunction,SMDPad,CuDef*%
%ADD29RoundRect,0.100000X-0.637500X-0.100000X0.637500X-0.100000X0.637500X0.100000X-0.637500X0.100000X0*%
%TD*%
%TA.AperFunction,SMDPad,CuDef*%
%ADD30RoundRect,0.150000X-0.700000X0.150000X-0.700000X-0.150000X0.700000X-0.150000X0.700000X0.150000X0*%
%TD*%
%TA.AperFunction,SMDPad,CuDef*%
%ADD31RoundRect,0.250000X-1.100000X0.250000X-1.100000X-0.250000X1.100000X-0.250000X1.100000X0.250000X0*%
%TD*%
%TA.AperFunction,SMDPad,CuDef*%
%ADD32RoundRect,0.150000X0.200000X-0.150000X0.200000X0.150000X-0.200000X0.150000X-0.200000X-0.150000X0*%
%TD*%
%TA.AperFunction,SMDPad,CuDef*%
%ADD33RoundRect,0.135000X-0.135000X-0.185000X0.135000X-0.185000X0.135000X0.185000X-0.135000X0.185000X0*%
%TD*%
%TA.AperFunction,SMDPad,CuDef*%
%ADD34RoundRect,0.225000X0.250000X-0.225000X0.250000X0.225000X-0.250000X0.225000X-0.250000X-0.225000X0*%
%TD*%
%TA.AperFunction,SMDPad,CuDef*%
%ADD35RoundRect,0.140000X-0.140000X-0.170000X0.140000X-0.170000X0.140000X0.170000X-0.140000X0.170000X0*%
%TD*%
%TA.AperFunction,SMDPad,CuDef*%
%ADD36RoundRect,0.135000X0.315000X0.365000X-0.315000X0.365000X-0.315000X-0.365000X0.315000X-0.365000X0*%
%TD*%
%TA.AperFunction,SMDPad,CuDef*%
%ADD37RoundRect,0.082500X0.767500X0.192500X-0.767500X0.192500X-0.767500X-0.192500X0.767500X-0.192500X0*%
%TD*%
%TA.AperFunction,SMDPad,CuDef*%
%ADD38RoundRect,0.200000X-0.200000X-0.275000X0.200000X-0.275000X0.200000X0.275000X-0.200000X0.275000X0*%
%TD*%
%TA.AperFunction,SMDPad,CuDef*%
%ADD39RoundRect,0.150000X-0.150000X-0.200000X0.150000X-0.200000X0.150000X0.200000X-0.150000X0.200000X0*%
%TD*%
%TA.AperFunction,SMDPad,CuDef*%
%ADD40RoundRect,0.218750X-0.218750X-0.256250X0.218750X-0.256250X0.218750X0.256250X-0.218750X0.256250X0*%
%TD*%
%TA.AperFunction,SMDPad,CuDef*%
%ADD41RoundRect,0.140000X-0.170000X0.140000X-0.170000X-0.140000X0.170000X-0.140000X0.170000X0.140000X0*%
%TD*%
%TA.AperFunction,SMDPad,CuDef*%
%ADD42R,1.800000X1.000000*%
%TD*%
%TA.AperFunction,SMDPad,CuDef*%
%ADD43RoundRect,0.150000X0.700000X-0.150000X0.700000X0.150000X-0.700000X0.150000X-0.700000X-0.150000X0*%
%TD*%
%TA.AperFunction,SMDPad,CuDef*%
%ADD44RoundRect,0.250000X1.100000X-0.250000X1.100000X0.250000X-1.100000X0.250000X-1.100000X-0.250000X0*%
%TD*%
%TA.AperFunction,SMDPad,CuDef*%
%ADD45RoundRect,0.135000X0.365000X-0.315000X0.365000X0.315000X-0.365000X0.315000X-0.365000X-0.315000X0*%
%TD*%
%TA.AperFunction,SMDPad,CuDef*%
%ADD46RoundRect,0.082500X0.192500X-0.767500X0.192500X0.767500X-0.192500X0.767500X-0.192500X-0.767500X0*%
%TD*%
%TA.AperFunction,ComponentPad*%
%ADD47RoundRect,1.025000X1.025000X-1.025000X1.025000X1.025000X-1.025000X1.025000X-1.025000X-1.025000X0*%
%TD*%
%TA.AperFunction,SMDPad,CuDef*%
%ADD48RoundRect,0.048000X0.252000X0.072000X-0.252000X0.072000X-0.252000X-0.072000X0.252000X-0.072000X0*%
%TD*%
%TA.AperFunction,SMDPad,CuDef*%
%ADD49RoundRect,0.048000X0.072000X0.252000X-0.072000X0.252000X-0.072000X-0.252000X0.072000X-0.252000X0*%
%TD*%
%TA.AperFunction,SMDPad,CuDef*%
%ADD50RoundRect,0.051250X0.973750X0.973750X-0.973750X0.973750X-0.973750X-0.973750X0.973750X-0.973750X0*%
%TD*%
%TA.AperFunction,SMDPad,CuDef*%
%ADD51RoundRect,0.200000X0.200000X0.275000X-0.200000X0.275000X-0.200000X-0.275000X0.200000X-0.275000X0*%
%TD*%
%TA.AperFunction,SMDPad,CuDef*%
%ADD52R,1.200000X0.600000*%
%TD*%
%TA.AperFunction,SMDPad,CuDef*%
%ADD53R,1.200000X3.300000*%
%TD*%
%TA.AperFunction,SMDPad,CuDef*%
%ADD54R,4.650000X4.510000*%
%TD*%
%TA.AperFunction,ViaPad*%
%ADD55C,0.800000*%
%TD*%
%TA.AperFunction,ViaPad*%
%ADD56C,0.600000*%
%TD*%
%TA.AperFunction,Conductor*%
%ADD57C,0.400000*%
%TD*%
%TA.AperFunction,Conductor*%
%ADD58C,0.250000*%
%TD*%
%TA.AperFunction,Conductor*%
%ADD59C,0.300000*%
%TD*%
%TA.AperFunction,Conductor*%
%ADD60C,0.500000*%
%TD*%
%TA.AperFunction,Conductor*%
%ADD61C,0.600000*%
%TD*%
G04 APERTURE END LIST*
%TO.N,Net-(U2-SRP)*%
D10*
X157075000Y-86300000D02*
X157525000Y-86300000D01*
X157525000Y-88475000D01*
X157075000Y-88475000D01*
X157075000Y-86300000D01*
%TA.AperFunction,Conductor*%
G36*
X157075000Y-86300000D02*
G01*
X157525000Y-86300000D01*
X157525000Y-88475000D01*
X157075000Y-88475000D01*
X157075000Y-86300000D01*
G37*
%TD.AperFunction*%
%TO.N,Net-(Q1-G)*%
D11*
X140467258Y-77890000D02*
X141650000Y-77890000D01*
X141650000Y-81110000D01*
X140467258Y-81110000D01*
X140467258Y-77890000D01*
%TA.AperFunction,Conductor*%
G36*
X140467258Y-77890000D02*
G01*
X141650000Y-77890000D01*
X141650000Y-81110000D01*
X140467258Y-81110000D01*
X140467258Y-77890000D01*
G37*
%TD.AperFunction*%
%TO.N,Net-(Q2-G)*%
X146750000Y-83900000D02*
X147500000Y-83900000D01*
X147500000Y-86710000D01*
X146750000Y-86710000D01*
X146750000Y-83900000D01*
%TA.AperFunction,Conductor*%
G36*
X146750000Y-83900000D02*
G01*
X147500000Y-83900000D01*
X147500000Y-86710000D01*
X146750000Y-86710000D01*
X146750000Y-83900000D01*
G37*
%TD.AperFunction*%
%TO.N,SCL*%
D10*
X154071700Y-109550000D02*
X155425000Y-109550000D01*
X155425000Y-112200000D01*
X154071700Y-112200000D01*
X154071700Y-109550000D01*
%TA.AperFunction,Conductor*%
G36*
X154071700Y-109550000D02*
G01*
X155425000Y-109550000D01*
X155425000Y-112200000D01*
X154071700Y-112200000D01*
X154071700Y-109550000D01*
G37*
%TD.AperFunction*%
%TO.N,GND*%
X158060000Y-77933200D02*
X163560000Y-77933200D01*
X163560000Y-83571800D01*
X158060000Y-83571800D01*
X158060000Y-77933200D01*
%TA.AperFunction,Conductor*%
G36*
X158060000Y-77933200D02*
G01*
X163560000Y-77933200D01*
X163560000Y-83571800D01*
X158060000Y-83571800D01*
X158060000Y-77933200D01*
G37*
%TD.AperFunction*%
%TO.N,Net-(U2-SRN)*%
X152687500Y-87725000D02*
X155212500Y-87725000D01*
X155212500Y-88475000D01*
X152687500Y-88475000D01*
X152687500Y-87725000D01*
%TA.AperFunction,Conductor*%
G36*
X152687500Y-87725000D02*
G01*
X155212500Y-87725000D01*
X155212500Y-88475000D01*
X152687500Y-88475000D01*
X152687500Y-87725000D01*
G37*
%TD.AperFunction*%
%TO.N,GND*%
X156537700Y-97775000D02*
X158382300Y-97775000D01*
X158382300Y-100295000D01*
X156537700Y-100295000D01*
X156537700Y-97775000D01*
%TA.AperFunction,Conductor*%
G36*
X156537700Y-97775000D02*
G01*
X158382300Y-97775000D01*
X158382300Y-100295000D01*
X156537700Y-100295000D01*
X156537700Y-97775000D01*
G37*
%TD.AperFunction*%
%TO.N,SDA*%
X148325000Y-109550000D02*
X149675000Y-109550000D01*
X149675000Y-112200000D01*
X148325000Y-112200000D01*
X148325000Y-109550000D01*
%TA.AperFunction,Conductor*%
G36*
X148325000Y-109550000D02*
G01*
X149675000Y-109550000D01*
X149675000Y-112200000D01*
X148325000Y-112200000D01*
X148325000Y-109550000D01*
G37*
%TD.AperFunction*%
%TO.N,/PACK-*%
X132500000Y-79878200D02*
X139603710Y-79878200D01*
X139603710Y-85516800D01*
X132500000Y-85516800D01*
X132500000Y-79878200D01*
%TA.AperFunction,Conductor*%
G36*
X132500000Y-79878200D02*
G01*
X139603710Y-79878200D01*
X139603710Y-85516800D01*
X132500000Y-85516800D01*
X132500000Y-79878200D01*
G37*
%TD.AperFunction*%
%TO.N,Net-(U2-VC1)*%
X154700000Y-95801548D02*
X154451668Y-96050000D01*
X153325000Y-96050000D01*
X153325000Y-95650000D01*
X153925401Y-95650000D01*
X154300000Y-95275048D01*
X154300000Y-93675000D01*
X154700000Y-93675000D01*
X154700000Y-95801548D01*
%TA.AperFunction,Conductor*%
G36*
X154700000Y-95801548D02*
G01*
X154451668Y-96050000D01*
X153325000Y-96050000D01*
X153325000Y-95650000D01*
X153925401Y-95650000D01*
X154300000Y-95275048D01*
X154300000Y-93675000D01*
X154700000Y-93675000D01*
X154700000Y-95801548D01*
G37*
%TD.AperFunction*%
%TO.N,Net-(Q1-S)*%
X141756057Y-83396521D02*
X142350000Y-83925000D01*
X146100000Y-83900000D01*
X146100000Y-85100000D01*
X140525000Y-85100000D01*
X140525000Y-81800000D01*
X141762646Y-81800000D01*
X141756057Y-83396521D01*
%TA.AperFunction,Conductor*%
G36*
X141756057Y-83396521D02*
G01*
X142350000Y-83925000D01*
X146100000Y-83900000D01*
X146100000Y-85100000D01*
X140525000Y-85100000D01*
X140525000Y-81800000D01*
X141762646Y-81800000D01*
X141756057Y-83396521D01*
G37*
%TD.AperFunction*%
%TO.N,GND*%
X141575000Y-114700000D02*
X143075000Y-114700000D01*
X143075000Y-115875000D01*
X141575000Y-115875000D01*
X141575000Y-114700000D01*
%TA.AperFunction,Conductor*%
G36*
X141575000Y-114700000D02*
G01*
X143075000Y-114700000D01*
X143075000Y-115875000D01*
X141575000Y-115875000D01*
X141575000Y-114700000D01*
G37*
%TD.AperFunction*%
X151375000Y-93225000D02*
X150725000Y-93225000D01*
X150710000Y-93216428D01*
X150710000Y-92240000D01*
X151375000Y-92240000D01*
X151375000Y-93225000D01*
%TA.AperFunction,Conductor*%
G36*
X151375000Y-93225000D02*
G01*
X150725000Y-93225000D01*
X150710000Y-93216428D01*
X150710000Y-92240000D01*
X151375000Y-92240000D01*
X151375000Y-93225000D01*
G37*
%TD.AperFunction*%
%TO.N,Net-(U2-SRN)*%
X153775000Y-86300000D02*
X154225000Y-86300000D01*
X154225000Y-88475000D01*
X153775000Y-88475000D01*
X153775000Y-86300000D01*
%TA.AperFunction,Conductor*%
G36*
X153775000Y-86300000D02*
G01*
X154225000Y-86300000D01*
X154225000Y-88475000D01*
X153775000Y-88475000D01*
X153775000Y-86300000D01*
G37*
%TD.AperFunction*%
%TO.N,Net-(Q2-D)*%
X142935850Y-78425000D02*
X153304500Y-78425000D01*
X153304500Y-82920000D01*
X142935850Y-82920000D01*
X142935850Y-78425000D01*
%TA.AperFunction,Conductor*%
G36*
X142935850Y-78425000D02*
G01*
X153304500Y-78425000D01*
X153304500Y-82920000D01*
X142935850Y-82920000D01*
X142935850Y-78425000D01*
G37*
%TD.AperFunction*%
%TO.N,Net-(U2-REGSRC)*%
X151875000Y-97640000D02*
X150275000Y-97640000D01*
X150275000Y-96475000D01*
X150855000Y-96475000D01*
X150855000Y-95675000D01*
X151875000Y-95675000D01*
X151875000Y-97640000D01*
%TA.AperFunction,Conductor*%
G36*
X151875000Y-97640000D02*
G01*
X150275000Y-97640000D01*
X150275000Y-96475000D01*
X150855000Y-96475000D01*
X150855000Y-95675000D01*
X151875000Y-95675000D01*
X151875000Y-97640000D01*
G37*
%TD.AperFunction*%
%TO.N,Net-(Q2-D)*%
D11*
X148216758Y-82100000D02*
X149300000Y-82100000D01*
X149300000Y-86722500D01*
X148216758Y-86722500D01*
X148216758Y-82100000D01*
%TA.AperFunction,Conductor*%
G36*
X148216758Y-82100000D02*
G01*
X149300000Y-82100000D01*
X149300000Y-86722500D01*
X148216758Y-86722500D01*
X148216758Y-82100000D01*
G37*
%TD.AperFunction*%
%TO.N,GND*%
D10*
X138365000Y-92650000D02*
X139975000Y-92650000D01*
X139975000Y-94250000D01*
X138365000Y-94250000D01*
X138365000Y-92650000D01*
%TA.AperFunction,Conductor*%
G36*
X138365000Y-92650000D02*
G01*
X139975000Y-92650000D01*
X139975000Y-94250000D01*
X138365000Y-94250000D01*
X138365000Y-92650000D01*
G37*
%TD.AperFunction*%
%TO.N,Net-(U2-BAT)*%
X153410000Y-98185000D02*
X154670000Y-98185000D01*
X154670000Y-101760000D01*
X153410000Y-101760000D01*
X153410000Y-98185000D01*
%TA.AperFunction,Conductor*%
G36*
X153410000Y-98185000D02*
G01*
X154670000Y-98185000D01*
X154670000Y-101760000D01*
X153410000Y-101760000D01*
X153410000Y-98185000D01*
G37*
%TD.AperFunction*%
%TO.N,Net-(U2-SRP)*%
X156062500Y-87725000D02*
X158587500Y-87725000D01*
X158587500Y-88475000D01*
X156062500Y-88475000D01*
X156062500Y-87725000D01*
%TA.AperFunction,Conductor*%
G36*
X156062500Y-87725000D02*
G01*
X158587500Y-87725000D01*
X158587500Y-88475000D01*
X156062500Y-88475000D01*
X156062500Y-87725000D01*
G37*
%TD.AperFunction*%
%TD*%
D12*
%TO.P,C13,1*%
%TO.N,Net-(U6-PC14)*%
X142186900Y-110150000D03*
%TO.P,C13,2*%
%TO.N,GND*%
X140636900Y-110150000D03*
%TD*%
D13*
%TO.P,R19,1*%
%TO.N,+3.3V*%
X159940000Y-115380000D03*
%TO.P,R19,2*%
%TO.N,ALERT*%
X158920000Y-115380000D03*
%TD*%
D14*
%TO.P,R1,1*%
%TO.N,Net-(Q2-D)*%
X152716400Y-80683200D03*
%TO.P,R1,2*%
%TO.N,GND*%
X158641400Y-80683200D03*
%TD*%
D12*
%TO.P,C14,1*%
%TO.N,Net-(U6-PC15)*%
X142186900Y-112650000D03*
%TO.P,C14,2*%
%TO.N,GND*%
X140636900Y-112650000D03*
%TD*%
D15*
%TO.P,R16,1*%
%TO.N,Net-(D2-A)*%
X160930000Y-119370000D03*
%TO.P,R16,2*%
%TO.N,+3.3V*%
X160930000Y-118350000D03*
%TD*%
D16*
%TO.P,C5,1*%
%TO.N,Net-(U2-SRN)*%
X154862500Y-88100000D03*
%TO.P,C5,2*%
%TO.N,Net-(U2-SRP)*%
X156412500Y-88100000D03*
%TD*%
D17*
%TO.P,U5,1,1*%
%TO.N,PA5*%
X156940000Y-124300000D03*
D18*
%TO.P,U5,2,2*%
%TO.N,PA6*%
X156940000Y-126840000D03*
%TO.P,U5,3,3*%
%TO.N,PA11*%
X154400000Y-124300000D03*
%TO.P,U5,4,4*%
%TO.N,PA12*%
X154400000Y-126840000D03*
%TO.P,U5,5,5*%
%TO.N,SWCLK*%
X151860000Y-124300000D03*
%TO.P,U5,6,6*%
%TO.N,SWDIO*%
X151860000Y-126840000D03*
%TO.P,U5,7,7*%
%TO.N,PA1*%
X149320000Y-124300000D03*
%TO.P,U5,8,8*%
%TO.N,PA0*%
X149320000Y-126840000D03*
%TO.P,U5,9,9*%
%TO.N,PA3*%
X146780000Y-124300000D03*
%TO.P,U5,10,10*%
%TO.N,PA2*%
X146780000Y-126840000D03*
%TD*%
D19*
%TO.P,C11,1*%
%TO.N,GND*%
X157032300Y-99035000D03*
%TO.P,C11,2*%
%TO.N,Net-(U2-BAT)*%
X154082300Y-99035000D03*
%TD*%
D20*
%TO.P,SW2,1,1*%
%TO.N,Net-(U6-PF2)*%
X140275000Y-116312500D03*
X144375000Y-116312500D03*
%TO.P,SW2,2,2*%
%TO.N,GND*%
X140275000Y-117912500D03*
X144375000Y-117912500D03*
D21*
%TO.P,SW2,SH,B*%
X142325000Y-115687500D03*
%TD*%
D22*
%TO.P,J1,*%
%TO.N,*%
X174725000Y-100325000D03*
X174725000Y-113825000D03*
D23*
%TO.P,J1,1,1*%
%TO.N,GND*%
X168725000Y-103475000D03*
D24*
%TO.P,J1,2,2*%
%TO.N,/PACK+*%
X168725000Y-110675000D03*
%TD*%
D25*
%TO.P,R4,1*%
%TO.N,Net-(U2-TS)*%
X144940000Y-91265000D03*
%TO.P,R4,2*%
%TO.N,GND*%
X144940000Y-92285000D03*
%TD*%
D26*
%TO.P,Q2,1,G*%
%TO.N,Net-(Q2-G)*%
X147059500Y-84500000D03*
D27*
%TO.P,Q2,2,S*%
%TO.N,Net-(Q1-S)*%
X144439500Y-84500000D03*
D28*
%TO.P,Q2,3,D*%
%TO.N,Net-(Q2-D)*%
X145154500Y-80675000D03*
%TD*%
D25*
%TO.P,R13,1*%
%TO.N,Net-(U2-REGSRC)*%
X151950000Y-98230000D03*
%TO.P,R13,2*%
%TO.N,Net-(D4-K)*%
X151950000Y-99250000D03*
%TD*%
D29*
%TO.P,U6,1,PB7*%
%TO.N,SDA*%
X149000000Y-112100000D03*
%TO.P,U6,2,PC14*%
%TO.N,Net-(U6-PC14)*%
X149000000Y-112750000D03*
%TO.P,U6,3,PC15*%
%TO.N,Net-(U6-PC15)*%
X149000000Y-113400000D03*
%TO.P,U6,4,VDD*%
%TO.N,+3.3V*%
X149000000Y-114050000D03*
%TO.P,U6,5,VSS*%
%TO.N,GND*%
X149000000Y-114700000D03*
%TO.P,U6,6,PF2*%
%TO.N,Net-(U6-PF2)*%
X149000000Y-115350000D03*
%TO.P,U6,7,PA0*%
%TO.N,PA0*%
X149000000Y-116000000D03*
%TO.P,U6,8,PA1*%
%TO.N,PA1*%
X149000000Y-116650000D03*
%TO.P,U6,9,PA2*%
%TO.N,PA2*%
X149000000Y-117300000D03*
%TO.P,U6,10,PA3*%
%TO.N,PA3*%
X149000000Y-117950000D03*
%TO.P,U6,11,PA4*%
%TO.N,Net-(D2-K)*%
X154725000Y-117950000D03*
%TO.P,U6,12,PA5*%
%TO.N,PA5*%
X154725000Y-117300000D03*
%TO.P,U6,13,PA6*%
%TO.N,PA6*%
X154725000Y-116650000D03*
%TO.P,U6,14,PA7*%
%TO.N,PWROFF*%
X154725000Y-116000000D03*
%TO.P,U6,15,PA8*%
%TO.N,ALERT*%
X154725000Y-115350000D03*
%TO.P,U6,16,PA9/PA11*%
%TO.N,PA11*%
X154725000Y-114700000D03*
%TO.P,U6,17,PA10/PA12*%
%TO.N,PA12*%
X154725000Y-114050000D03*
%TO.P,U6,18,PA13*%
%TO.N,SWDIO*%
X154725000Y-113400000D03*
%TO.P,U6,19,PA14*%
%TO.N,SWCLK*%
X154725000Y-112750000D03*
%TO.P,U6,20,PB6*%
%TO.N,SCL*%
X154725000Y-112100000D03*
%TD*%
D12*
%TO.P,C4,1*%
%TO.N,GND*%
X159787500Y-88100000D03*
%TO.P,C4,2*%
%TO.N,Net-(U2-SRP)*%
X158237500Y-88100000D03*
%TD*%
D30*
%TO.P,U4,1,1*%
%TO.N,/PACK-*%
X126850000Y-113825000D03*
%TO.P,U4,2,2*%
%TO.N,/PACK+*%
X126850000Y-115075000D03*
D31*
%TO.P,U4,MP*%
%TO.N,N/C*%
X123650000Y-111975000D03*
X123650000Y-116925000D03*
%TD*%
D13*
%TO.P,R17,1*%
%TO.N,+3.3V*%
X150297500Y-109950000D03*
%TO.P,R17,2*%
%TO.N,SDA*%
X149277500Y-109950000D03*
%TD*%
D25*
%TO.P,R7,1*%
%TO.N,GND*%
X157304500Y-85456400D03*
%TO.P,R7,2*%
%TO.N,Net-(U2-SRP)*%
X157304500Y-86476400D03*
%TD*%
D32*
%TO.P,D1,1,K*%
%TO.N,Net-(D1-K)*%
X143115000Y-94100000D03*
%TO.P,D1,2,A*%
%TO.N,Net-(D1-A)*%
X143115000Y-95500000D03*
%TD*%
D25*
%TO.P,R6,1*%
%TO.N,Net-(Q2-D)*%
X154002500Y-85456400D03*
%TO.P,R6,2*%
%TO.N,Net-(U2-SRN)*%
X154002500Y-86476400D03*
%TD*%
D33*
%TO.P,R8,1*%
%TO.N,Net-(U2-BAT)*%
X154450000Y-101380000D03*
%TO.P,R8,2*%
%TO.N,Net-(D3-K)*%
X155470000Y-101380000D03*
%TD*%
%TO.P,R2,1*%
%TO.N,Net-(U2-VC1)*%
X155615000Y-94300000D03*
%TO.P,R2,2*%
%TO.N,Net-(J4-Pin_2)*%
X156635000Y-94300000D03*
%TD*%
D34*
%TO.P,C9,1*%
%TO.N,Net-(J4-Pin_1)*%
X157900000Y-96950000D03*
%TO.P,C9,2*%
%TO.N,Net-(J4-Pin_2)*%
X157900000Y-95400000D03*
%TD*%
D32*
%TO.P,D4,1,K*%
%TO.N,Net-(D4-K)*%
X151950000Y-100426250D03*
%TO.P,D4,2,A*%
%TO.N,/PACK+*%
X151950000Y-101826250D03*
%TD*%
D34*
%TO.P,C1,1*%
%TO.N,GND*%
X150650000Y-98750000D03*
%TO.P,C1,2*%
%TO.N,Net-(U2-REGSRC)*%
X150650000Y-97200000D03*
%TD*%
D16*
%TO.P,C3,1*%
%TO.N,GND*%
X151500000Y-88100000D03*
%TO.P,C3,2*%
%TO.N,Net-(U2-SRN)*%
X153050000Y-88100000D03*
%TD*%
D35*
%TO.P,C10,1*%
%TO.N,GND*%
X148545000Y-95775000D03*
%TO.P,C10,2*%
%TO.N,+3.3V*%
X149505000Y-95775000D03*
%TD*%
D36*
%TO.P,SW4,1,1*%
%TO.N,PWROFF*%
X167722000Y-118529000D03*
X163622000Y-118529000D03*
%TO.P,SW4,2,2*%
%TO.N,+3.3V*%
X167722000Y-116929000D03*
X163622000Y-116929000D03*
D37*
%TO.P,SW4,SH,B*%
%TO.N,GND*%
X165672000Y-119154000D03*
%TD*%
D33*
%TO.P,R3,1*%
%TO.N,Net-(U2-VC0)*%
X155615000Y-93200000D03*
%TO.P,R3,2*%
%TO.N,Net-(J4-Pin_3)*%
X156635000Y-93200000D03*
%TD*%
D30*
%TO.P,U3,1,1*%
%TO.N,/PACK-*%
X126850000Y-106325000D03*
%TO.P,U3,2,2*%
%TO.N,/PACK+*%
X126850000Y-107575000D03*
D31*
%TO.P,U3,MP*%
%TO.N,N/C*%
X123650000Y-104475000D03*
X123650000Y-109425000D03*
%TD*%
D38*
%TO.P,R9,1*%
%TO.N,/PACK-*%
X139405000Y-78320000D03*
%TO.P,R9,2*%
%TO.N,Net-(Q1-G)*%
X141055000Y-78320000D03*
%TD*%
D39*
%TO.P,D3,1,K*%
%TO.N,Net-(D3-K)*%
X155470000Y-103010000D03*
%TO.P,D3,2,A*%
%TO.N,/PACK+*%
X154070000Y-103010000D03*
%TD*%
D40*
%TO.P,D2,1,K*%
%TO.N,Net-(D2-K)*%
X157606900Y-119370000D03*
%TO.P,D2,2,A*%
%TO.N,Net-(D2-A)*%
X159181900Y-119370000D03*
%TD*%
D34*
%TO.P,C7,1*%
%TO.N,Net-(J4-Pin_2)*%
X160075000Y-95400000D03*
%TO.P,C7,2*%
%TO.N,GND*%
X160075000Y-93850000D03*
%TD*%
D41*
%TO.P,C12,1*%
%TO.N,+3.3V*%
X146607500Y-114045000D03*
%TO.P,C12,2*%
%TO.N,GND*%
X146607500Y-115005000D03*
%TD*%
D42*
%TO.P,Y1,1,1*%
%TO.N,Net-(U6-PC15)*%
X144624400Y-112650000D03*
%TO.P,Y1,2,2*%
%TO.N,Net-(U6-PC14)*%
X144624400Y-110150000D03*
%TD*%
D33*
%TO.P,R12,1*%
%TO.N,PWROFF*%
X162220000Y-120335000D03*
%TO.P,R12,2*%
%TO.N,GND*%
X163240000Y-120335000D03*
%TD*%
D43*
%TO.P,J4,1,Pin_1*%
%TO.N,Net-(J4-Pin_1)*%
X180075000Y-94400000D03*
%TO.P,J4,2,Pin_2*%
%TO.N,Net-(J4-Pin_2)*%
X180075000Y-93150000D03*
%TO.P,J4,3,Pin_3*%
%TO.N,Net-(J4-Pin_3)*%
X180075000Y-91900000D03*
D44*
%TO.P,J4,MP*%
%TO.N,N/C*%
X183275000Y-96250000D03*
X183275000Y-90050000D03*
%TD*%
D12*
%TO.P,C6,1*%
%TO.N,GND*%
X160075000Y-92325000D03*
%TO.P,C6,2*%
%TO.N,Net-(J4-Pin_3)*%
X158525000Y-92325000D03*
%TD*%
D45*
%TO.P,SW1,1,1*%
%TO.N,Net-(U2-VC1)*%
X139175000Y-95500000D03*
X139175000Y-91400000D03*
%TO.P,SW1,2,2*%
%TO.N,Net-(D1-A)*%
X140775000Y-95500000D03*
X140775000Y-91400000D03*
D46*
%TO.P,SW1,SH,B*%
%TO.N,GND*%
X138550000Y-93450000D03*
%TD*%
D22*
%TO.P,J2,*%
%TO.N,*%
X123960000Y-99240000D03*
X123960000Y-85740000D03*
D47*
%TO.P,J2,1,1*%
%TO.N,/PACK-*%
X129960000Y-88890000D03*
D24*
%TO.P,J2,2,2*%
%TO.N,/PACK+*%
X129960000Y-96090000D03*
%TD*%
D25*
%TO.P,R11,1*%
%TO.N,Net-(U2-TS)*%
X143119500Y-91265000D03*
%TO.P,R11,2*%
%TO.N,Net-(D1-K)*%
X143119500Y-92285000D03*
%TD*%
D48*
%TO.P,U2,1,VC3A*%
%TO.N,Net-(U2-VC1)*%
X154500000Y-95200000D03*
%TO.P,U2,2,VC3B*%
X154500000Y-94700000D03*
%TO.P,U2,3,VC2*%
X154500000Y-94200000D03*
%TO.P,U2,4,VC1*%
X154500000Y-93700000D03*
%TO.P,U2,5,VC0*%
%TO.N,Net-(U2-VC0)*%
X154500000Y-93200000D03*
D49*
%TO.P,U2,6,SRP*%
%TO.N,Net-(U2-SRP)*%
X153850000Y-92550000D03*
%TO.P,U2,7,SRN*%
%TO.N,Net-(U2-SRN)*%
X153350000Y-92550000D03*
%TO.P,U2,8,TS*%
%TO.N,Net-(U2-TS)*%
X152850000Y-92550000D03*
%TO.P,U2,9,DSG*%
%TO.N,Net-(Q1-G)*%
X152350000Y-92550000D03*
%TO.P,U2,10,CHG*%
%TO.N,Net-(Q2-G)*%
X151850000Y-92550000D03*
D48*
%TO.P,U2,11,VSS*%
%TO.N,GND*%
X151200000Y-93200000D03*
%TO.P,U2,12,SCL*%
%TO.N,SCL*%
X151200000Y-93700000D03*
%TO.P,U2,13,SDA*%
%TO.N,SDA*%
X151200000Y-94200000D03*
%TO.P,U2,14,ALERT*%
%TO.N,ALERT*%
X151200000Y-94700000D03*
%TO.P,U2,15,REGOUT*%
%TO.N,+3.3V*%
X151200000Y-95200000D03*
D49*
%TO.P,U2,16,REGSRC*%
%TO.N,Net-(U2-REGSRC)*%
X151850000Y-95850000D03*
%TO.P,U2,17,BAT*%
%TO.N,Net-(U2-BAT)*%
X152350000Y-95850000D03*
%TO.P,U2,18,VC5*%
%TO.N,Net-(U2-VC5)*%
X152850000Y-95850000D03*
%TO.P,U2,19,VC4A*%
%TO.N,Net-(U2-VC1)*%
X153350000Y-95850000D03*
%TO.P,U2,20,VC4B*%
X153850000Y-95850000D03*
D50*
%TO.P,U2,21,EXP*%
%TO.N,GND*%
X152850000Y-94200000D03*
%TD*%
D33*
%TO.P,R18,1*%
%TO.N,+3.3V*%
X153427500Y-109950000D03*
%TO.P,R18,2*%
%TO.N,SCL*%
X154447500Y-109950000D03*
%TD*%
D51*
%TO.P,R10,1*%
%TO.N,Net-(Q2-D)*%
X148804500Y-86200000D03*
%TO.P,R10,2*%
%TO.N,Net-(Q2-G)*%
X147154500Y-86200000D03*
%TD*%
D52*
%TO.P,Q1,1,G*%
%TO.N,Net-(Q1-G)*%
X141050000Y-80825000D03*
D53*
%TO.P,Q1,2,S*%
%TO.N,Net-(Q1-S)*%
X141050000Y-83445000D03*
D54*
%TO.P,Q1,3,D*%
%TO.N,/PACK-*%
X137225000Y-82730000D03*
%TD*%
D33*
%TO.P,R5,1*%
%TO.N,Net-(U2-VC5)*%
X154865000Y-96975000D03*
%TO.P,R5,2*%
%TO.N,Net-(J4-Pin_1)*%
X155885000Y-96975000D03*
%TD*%
D55*
%TO.N,+3.3V*%
X160930000Y-116920000D03*
X151850000Y-109075000D03*
%TO.N,GND*%
X163060000Y-78750000D03*
X163060000Y-82750000D03*
D56*
X159810000Y-89130000D03*
X150650000Y-99750000D03*
X158050000Y-99740000D03*
D55*
X139565000Y-93450000D03*
X158850000Y-93850000D03*
X144940000Y-93250000D03*
X162060000Y-81750000D03*
X163060000Y-81750000D03*
D56*
X142325000Y-114950000D03*
X147800000Y-95775000D03*
X141375000Y-117912500D03*
X143275000Y-117912500D03*
X158050000Y-98460000D03*
X150300000Y-115025000D03*
X139425000Y-112650000D03*
D55*
X162060000Y-78750000D03*
X162060000Y-82750000D03*
D56*
X147375000Y-114875000D03*
X151040000Y-92530000D03*
D55*
X161275000Y-92325000D03*
X162060000Y-80750000D03*
X163060000Y-79750000D03*
X165670000Y-120322000D03*
X162060000Y-79750000D03*
D56*
X139425000Y-110150000D03*
D55*
X163060000Y-80750000D03*
D56*
X151412500Y-89100000D03*
%TO.N,Net-(Q1-G)*%
X151839798Y-91035202D03*
D55*
X141054056Y-79495000D03*
D56*
%TO.N,ALERT*%
X157670000Y-115350000D03*
X149919907Y-94875000D03*
%TO.N,SCL*%
X148750000Y-93200000D03*
D55*
X154725000Y-111100000D03*
D56*
%TO.N,SDA*%
X147075000Y-94275000D03*
D55*
X149025000Y-111100000D03*
D56*
%TO.N,/PACK+*%
X125350000Y-107575000D03*
X125350000Y-115075000D03*
X128350000Y-115075000D03*
X128350000Y-107575000D03*
X152552300Y-103012300D03*
D55*
%TO.N,PWROFF*%
X162225000Y-118525000D03*
X156464400Y-116750000D03*
D56*
%TO.N,PA11*%
X153325000Y-115175000D03*
%TO.N,PA12*%
X153300000Y-114125000D03*
D55*
%TO.N,Net-(U2-VC1)*%
X137260000Y-93450000D03*
D56*
X154400000Y-95775000D03*
%TO.N,Net-(U2-TS)*%
X152675000Y-90850000D03*
X144040000Y-91265000D03*
D55*
%TO.N,/PACK-*%
X133000000Y-84700000D03*
X134000000Y-82700000D03*
X134000000Y-80700000D03*
X133000000Y-83700000D03*
D56*
X128350000Y-106325000D03*
D55*
X133000000Y-80700000D03*
D56*
X125350000Y-113825000D03*
X128350000Y-113825000D03*
D55*
X134000000Y-81700000D03*
X134000000Y-83700000D03*
D56*
X125350000Y-106325000D03*
D55*
X133000000Y-82700000D03*
X134000000Y-84700000D03*
X133000000Y-81700000D03*
%TD*%
D57*
%TO.N,+3.3V*%
X152552500Y-109075000D02*
X153427500Y-109950000D01*
X149950000Y-114050000D02*
X149000000Y-114050000D01*
X149000000Y-114050000D02*
X146612500Y-114050000D01*
X151850000Y-109075000D02*
X152552500Y-109075000D01*
D58*
X149505000Y-95775000D02*
X149974500Y-95775000D01*
D57*
X151850000Y-108470000D02*
X149505000Y-106125000D01*
D58*
X150549500Y-95200000D02*
X151200000Y-95200000D01*
D57*
X151850000Y-109075000D02*
X151172500Y-109075000D01*
D59*
X160936900Y-116926900D02*
X160930000Y-116920000D01*
D58*
X149974500Y-95775000D02*
X150549500Y-95200000D01*
D59*
X159940000Y-115380000D02*
X159940000Y-115930000D01*
D57*
X151850000Y-112150000D02*
X149950000Y-114050000D01*
X149505000Y-106125000D02*
X149505000Y-95775000D01*
X151850000Y-109075000D02*
X151850000Y-108470000D01*
D59*
X159940000Y-115930000D02*
X160930000Y-116920000D01*
D57*
X161000000Y-116921000D02*
X167714000Y-116921000D01*
X160936900Y-118343100D02*
X160936900Y-116926900D01*
X151850000Y-109075000D02*
X151850000Y-112150000D01*
X151172500Y-109075000D02*
X150297500Y-109950000D01*
%TO.N,GND*%
X147250000Y-115000000D02*
X146612500Y-115000000D01*
D60*
X139425000Y-112650000D02*
X140549400Y-112650000D01*
D59*
X149000000Y-114700000D02*
X147550000Y-114700000D01*
X147550000Y-114700000D02*
X147375000Y-114875000D01*
D58*
X144940000Y-93250000D02*
X144940000Y-92285000D01*
X151200000Y-93200000D02*
X151575044Y-93200000D01*
D57*
X147375000Y-114875000D02*
X147250000Y-115000000D01*
D58*
X151575044Y-93200000D02*
X151601044Y-93226000D01*
D61*
X159705900Y-81944100D02*
X157304500Y-84345500D01*
D57*
X161275000Y-92325000D02*
X160075000Y-92325000D01*
D58*
X151876000Y-93226000D02*
X152850000Y-94200000D01*
D60*
X159810000Y-88098600D02*
X159810000Y-89130000D01*
D57*
X148457500Y-95775000D02*
X147800000Y-95775000D01*
D59*
X165654000Y-120335000D02*
X165657000Y-120332000D01*
X138550000Y-93450000D02*
X139565000Y-93450000D01*
D57*
X165670000Y-120322000D02*
X165670000Y-119156000D01*
D61*
X157304500Y-84345500D02*
X157304500Y-85368900D01*
D57*
X163412500Y-120335000D02*
X165654000Y-120335000D01*
X160075000Y-93850000D02*
X160075000Y-92325000D01*
D60*
X151412500Y-88100000D02*
X151412500Y-89100000D01*
D58*
X151601044Y-93226000D02*
X151876000Y-93226000D01*
D57*
X160075000Y-93850000D02*
X158850000Y-93850000D01*
D60*
X140549400Y-110150000D02*
X139425000Y-110150000D01*
X141375000Y-117912500D02*
X140275000Y-117912500D01*
X144375000Y-117912500D02*
X141375000Y-117912500D01*
D59*
X149975000Y-114700000D02*
X150300000Y-115025000D01*
X149000000Y-114700000D02*
X149975000Y-114700000D01*
D60*
X150650000Y-98837500D02*
X150650000Y-99750000D01*
D58*
%TO.N,Net-(Q1-G)*%
X152350000Y-91545404D02*
X151839798Y-91035202D01*
X152350000Y-92550000D02*
X152350000Y-91545404D01*
%TO.N,Net-(Q2-G)*%
X151850000Y-92550000D02*
X151850000Y-92000000D01*
X147154500Y-87304500D02*
X147154500Y-86200000D01*
X151850000Y-92000000D02*
X147154500Y-87304500D01*
D59*
%TO.N,Net-(U6-PC14)*%
X148167893Y-112750000D02*
X149000000Y-112750000D01*
D60*
X144624400Y-110150000D02*
X142274400Y-110150000D01*
D59*
X148167893Y-112750000D02*
X145567893Y-110150000D01*
X145567893Y-110150000D02*
X144624400Y-110150000D01*
%TO.N,Net-(U6-PC15)*%
X149000000Y-113400000D02*
X147995726Y-113400000D01*
D60*
X144624400Y-112650000D02*
X142274400Y-112650000D01*
D59*
X147995726Y-113400000D02*
X147245726Y-112650000D01*
X147245726Y-112650000D02*
X144975000Y-112650000D01*
D58*
%TO.N,ALERT*%
X149919907Y-94875000D02*
X150094907Y-94700000D01*
D57*
X156500000Y-115350000D02*
X154725000Y-115350000D01*
X156500000Y-115350000D02*
X156510000Y-115360000D01*
X156510000Y-115360000D02*
X158880000Y-115360000D01*
D58*
X150094907Y-94700000D02*
X151200000Y-94700000D01*
%TO.N,SCL*%
X150066285Y-93700000D02*
X151200000Y-93700000D01*
X149566285Y-93200000D02*
X150066285Y-93700000D01*
X148750000Y-93200000D02*
X149566285Y-93200000D01*
%TO.N,SDA*%
X147075000Y-94275000D02*
X147150000Y-94200000D01*
X147150000Y-94200000D02*
X151200000Y-94200000D01*
D60*
%TO.N,Net-(U6-PF2)*%
X143975000Y-116712500D02*
X140675000Y-116712500D01*
X140675000Y-116712500D02*
X140275000Y-116312500D01*
D57*
X149000000Y-115350000D02*
X148100000Y-115350000D01*
X144380000Y-116307500D02*
X147142500Y-116307500D01*
X148100000Y-115350000D02*
X147142500Y-116307500D01*
D60*
%TO.N,/PACK+*%
X128350000Y-115075000D02*
X125350000Y-115075000D01*
D57*
X152552300Y-103012300D02*
X154067700Y-103012300D01*
X152552300Y-103012300D02*
X151960000Y-102420000D01*
X151960000Y-102420000D02*
X151960000Y-101836250D01*
X154067700Y-103012300D02*
X154070000Y-103010000D01*
D60*
X125350000Y-107575000D02*
X128350000Y-107575000D01*
D57*
X151960000Y-101836250D02*
X151950000Y-101826250D01*
D60*
%TO.N,Net-(D1-A)*%
X140775000Y-95500000D02*
X143115000Y-95500000D01*
X140775000Y-91400000D02*
X140775000Y-95500000D01*
D57*
%TO.N,Net-(D1-K)*%
X143119500Y-92260000D02*
X143119500Y-94095500D01*
%TO.N,Net-(D2-K)*%
X156099400Y-117950000D02*
X157519400Y-119370000D01*
X154725000Y-117950000D02*
X156099400Y-117950000D01*
%TO.N,Net-(D2-A)*%
X159181900Y-119370000D02*
X160930000Y-119370000D01*
%TO.N,PWROFF*%
X155714400Y-116000000D02*
X156464400Y-116750000D01*
D59*
X162217500Y-118532500D02*
X162225000Y-118525000D01*
X162220000Y-118530000D02*
X162225000Y-118525000D01*
X167671000Y-118478000D02*
X163673000Y-118478000D01*
D57*
X162220000Y-120335000D02*
X162220000Y-118530000D01*
X154725000Y-116000000D02*
X155714400Y-116000000D01*
X162225000Y-118525000D02*
X163618000Y-118525000D01*
D61*
%TO.N,Net-(Q2-D)*%
X152341900Y-81901900D02*
X154002500Y-83562500D01*
X154002500Y-83562500D02*
X154002500Y-85368900D01*
X151651900Y-81901900D02*
X152341900Y-81901900D01*
D59*
%TO.N,PA2*%
X148050000Y-120392978D02*
X148050000Y-125570000D01*
X150137500Y-118259878D02*
X148004400Y-120392978D01*
X149797378Y-117300000D02*
X150137500Y-117640122D01*
X150137500Y-117640122D02*
X150137500Y-118259878D01*
X148050000Y-125570000D02*
X146780000Y-126840000D01*
X149000000Y-117300000D02*
X149797378Y-117300000D01*
%TO.N,PA11*%
X153800000Y-114700000D02*
X153325000Y-115175000D01*
X154725000Y-114700000D02*
X153800000Y-114700000D01*
%TO.N,PA3*%
X148050000Y-117950000D02*
X146754400Y-119245600D01*
X146754400Y-119245600D02*
X146754400Y-124150000D01*
X149000000Y-117950000D02*
X148050000Y-117950000D01*
%TO.N,SWDIO*%
X153124400Y-125400000D02*
X151834400Y-126690000D01*
X152385400Y-114043832D02*
X152385400Y-118613413D01*
X153124400Y-119352413D02*
X153124400Y-125400000D01*
X152385400Y-118613413D02*
X153124400Y-119352413D01*
X154725000Y-113400000D02*
X153029232Y-113400000D01*
X153029232Y-113400000D02*
X152385400Y-114043832D01*
%TO.N,PA1*%
X150100000Y-116650000D02*
X150687500Y-117237500D01*
X149000000Y-116650000D02*
X150100000Y-116650000D01*
X150687500Y-117237500D02*
X150687500Y-118487696D01*
X149294400Y-119880796D02*
X149294400Y-124150000D01*
X150687500Y-118487696D02*
X149294400Y-119880796D01*
%TO.N,PA12*%
X153300000Y-114125000D02*
X153375000Y-114050000D01*
X153375000Y-114050000D02*
X154725000Y-114050000D01*
%TO.N,PA5*%
X156914400Y-121586778D02*
X156914400Y-124150000D01*
X153587500Y-118259878D02*
X156914400Y-121586778D01*
X154725000Y-117300000D02*
X153927622Y-117300000D01*
X153587500Y-117640122D02*
X153587500Y-118259878D01*
X153927622Y-117300000D02*
X153587500Y-117640122D01*
%TO.N,PA0*%
X149294400Y-126690000D02*
X150574400Y-125410000D01*
X150574400Y-125410000D02*
X150574400Y-119378614D01*
X150574400Y-119378614D02*
X151237500Y-118715514D01*
X151237500Y-116712500D02*
X150525000Y-116000000D01*
X150525000Y-116000000D02*
X149000000Y-116000000D01*
X151237500Y-118715514D02*
X151237500Y-116712500D01*
%TO.N,PA6*%
X155664400Y-121114596D02*
X155664400Y-125440000D01*
X153799805Y-116650000D02*
X153037500Y-117412305D01*
X153037500Y-118487696D02*
X155664400Y-121114596D01*
X154725000Y-116650000D02*
X153799805Y-116650000D01*
X153037500Y-117412305D02*
X153037500Y-118487696D01*
X155664400Y-125440000D02*
X156914400Y-126690000D01*
D57*
%TO.N,Net-(D4-K)*%
X151950000Y-100426250D02*
X151950000Y-99313750D01*
D59*
%TO.N,SWCLK*%
X151834400Y-124150000D02*
X151834400Y-113815600D01*
X151834400Y-113815600D02*
X152900000Y-112750000D01*
X152900000Y-112750000D02*
X154725000Y-112750000D01*
D58*
%TO.N,Net-(U2-REGSRC)*%
X151850000Y-98130000D02*
X151850000Y-97472500D01*
X151950000Y-98230000D02*
X151850000Y-98130000D01*
%TO.N,Net-(U2-SRN)*%
X153350000Y-88100000D02*
X153950000Y-88100000D01*
X153350000Y-92550000D02*
X153350000Y-88100000D01*
D59*
X153950000Y-88100000D02*
X154700000Y-88100000D01*
D58*
%TO.N,Net-(U2-SRP)*%
X153850000Y-91575000D02*
X157325000Y-88100000D01*
X153850000Y-92550000D02*
X153850000Y-91575000D01*
D57*
%TO.N,Net-(J4-Pin_3)*%
X158525000Y-92325000D02*
X157510000Y-92325000D01*
X163905500Y-91900000D02*
X163253000Y-91247500D01*
X179975000Y-91900000D02*
X163905500Y-91900000D01*
X159577500Y-91247500D02*
X158525000Y-92300000D01*
X163253000Y-91247500D02*
X159577500Y-91247500D01*
X157510000Y-92325000D02*
X156635000Y-93200000D01*
%TO.N,Net-(J4-Pin_2)*%
X160075000Y-95400000D02*
X157900000Y-95400000D01*
X166125000Y-93150000D02*
X163875000Y-95400000D01*
X166125000Y-93150000D02*
X179975000Y-93150000D01*
X163875000Y-95400000D02*
X160075000Y-95400000D01*
X157735000Y-95400000D02*
X156635000Y-94300000D01*
%TO.N,Net-(J4-Pin_1)*%
X165195500Y-96950000D02*
X157900000Y-96950000D01*
X157875000Y-96975000D02*
X155885000Y-96975000D01*
X179975000Y-94400000D02*
X167745500Y-94400000D01*
X167745500Y-94400000D02*
X165195500Y-96950000D01*
D58*
%TO.N,Net-(U2-BAT)*%
X154082300Y-98882300D02*
X154082300Y-99035000D01*
X152350000Y-97150000D02*
X154082300Y-98882300D01*
X152350000Y-95850000D02*
X152350000Y-97150000D01*
D59*
%TO.N,Net-(D3-K)*%
X155470000Y-103010000D02*
X155470000Y-101380000D01*
D57*
%TO.N,Net-(U2-VC1)*%
X139226000Y-91451000D02*
X138419000Y-91451000D01*
X138419000Y-91451000D02*
X137260000Y-92610000D01*
D58*
X155615000Y-94300000D02*
X154600000Y-94300000D01*
X154600000Y-94300000D02*
X154500000Y-94200000D01*
D57*
X138379000Y-95449000D02*
X137260000Y-94330000D01*
X137260000Y-92610000D02*
X137260000Y-93450000D01*
X137260000Y-94330000D02*
X137260000Y-93450000D01*
X139226000Y-95449000D02*
X138379000Y-95449000D01*
D58*
%TO.N,Net-(U2-VC0)*%
X155615000Y-93200000D02*
X154500000Y-93200000D01*
%TO.N,Net-(U2-TS)*%
X152675000Y-90850000D02*
X152850000Y-91025000D01*
X144940000Y-91265000D02*
X144040000Y-91265000D01*
X152850000Y-91025000D02*
X152850000Y-92550000D01*
X144040000Y-91265000D02*
X143119500Y-91265000D01*
D60*
%TO.N,/PACK-*%
X125350000Y-106325000D02*
X128350000Y-106325000D01*
X126850000Y-106325000D02*
X125350000Y-106325000D01*
X128350000Y-113825000D02*
X125350000Y-113825000D01*
D59*
X139405000Y-80550000D02*
X137225000Y-82730000D01*
D61*
X139405000Y-78320000D02*
X139405000Y-80550000D01*
D60*
X126850000Y-106325000D02*
X128350000Y-106325000D01*
D58*
%TO.N,Net-(U2-VC5)*%
X153550044Y-96975000D02*
X154865000Y-96975000D01*
X152850000Y-95850000D02*
X152850000Y-96274956D01*
X152850000Y-96274956D02*
X153550044Y-96975000D01*
%TD*%
M02*
