M48
; DRILL file {KiCad 9.0.4} date 2026-01-29T02:18:09+0300
; FORMAT={-:-/ absolute / metric / decimal}
; #@! TF.CreationDate,2026-01-29T02:18:09+03:00
; #@! TF.GenerationSoftware,Kicad,Pcbnew,9.0.4
; #@! TF.FileFunction,Plated,1,4,PTH
FMAT,2
METRIC
; #@! TA.AperFunction,Plated,PTH,ViaDrill
T1C0.300
; #@! TA.AperFunction,Plated,PTH,ViaDrill
T2C0.400
; #@! TA.AperFunction,Plated,PTH,ComponentDrill
T3C0.600
; #@! TA.AperFunction,Plated,PTH,ComponentDrill
T4C1.000
; #@! TA.AperFunction,Plated,PTH,ComponentDrill
T5C2.700
%
G90
G05
T1
X125.35Y-106.325
X125.35Y-107.575
X125.35Y-113.825
X125.35Y-115.075
X128.35Y-106.325
X128.35Y-107.575
X128.35Y-113.825
X128.35Y-115.075
X139.425Y-110.15
X139.425Y-112.65
X141.375Y-117.912
X142.325Y-114.95
X143.275Y-117.912
X144.04Y-91.265
X147.075Y-94.275
X147.375Y-114.875
X147.8Y-95.775
X148.75Y-93.2
X149.92Y-94.875
X150.3Y-115.025
X150.65Y-99.75
X151.04Y-92.53
X151.412Y-89.1
X151.84Y-91.035
X152.552Y-103.012
X152.675Y-90.85
X153.3Y-114.125
X153.325Y-115.175
X154.4Y-95.775
X157.67Y-115.35
X158.05Y-98.46
X158.05Y-99.74
X159.81Y-89.13
T2
X133.0Y-80.7
X133.0Y-81.7
X133.0Y-82.7
X133.0Y-83.7
X133.0Y-84.7
X134.0Y-80.7
X134.0Y-81.7
X134.0Y-82.7
X134.0Y-83.7
X134.0Y-84.7
X137.26Y-93.45
X139.565Y-93.45
X141.054Y-79.495
X144.94Y-93.25
X149.025Y-111.1
X151.85Y-109.075
X154.725Y-111.1
X156.464Y-116.75
X158.85Y-93.85
X160.93Y-116.92
X161.275Y-92.325
X162.06Y-78.75
X162.06Y-79.75
X162.06Y-80.75
X162.06Y-81.75
X162.06Y-82.75
X162.225Y-118.525
X163.06Y-78.75
X163.06Y-79.75
X163.06Y-80.75
X163.06Y-81.75
X163.06Y-82.75
X165.67Y-120.322
T4
X146.78Y-124.3
X146.78Y-126.84
X149.32Y-124.3
X149.32Y-126.84
X151.86Y-124.3
X151.86Y-126.84
X154.4Y-124.3
X154.4Y-126.84
X156.94Y-124.3
X156.94Y-126.84
T5
X129.96Y-88.89
X129.96Y-96.09
X168.725Y-103.475
X168.725Y-110.675
T3
G00X123.41Y-85.74
M15
G01X124.51Y-85.74
M16
G05
G00X123.41Y-99.24
M15
G01X124.51Y-99.24
M16
G05
G00X175.275Y-100.325
M15
G01X174.175Y-100.325
M16
G05
G00X175.275Y-113.825
M15
G01X174.175Y-113.825
M16
G05
M30
