%TF.GenerationSoftware,KiCad,Pcbnew,9.0.4*%
%TF.CreationDate,2026-01-29T02:18:11+03:00*%
%TF.ProjectId,BMS,424d532e-6b69-4636-9164-5f7063625858,rev?*%
%TF.SameCoordinates,Original*%
%TF.FileFunction,Copper,L2,Inr*%
%TF.FilePolarity,Positive*%
%FSLAX46Y46*%
G04 Gerber Fmt 4.6, Leading zero omitted, Abs format (unit mm)*
G04 Created by KiCad (PCBNEW 9.0.4) date 2026-01-29 02:18:11*
%MOMM*%
%LPD*%
G01*
G04 APERTURE LIST*
G04 Aperture macros list*
%AMRoundRect*
0 Rectangle with rounded corners*
0 $1 Rounding radius*
0 $2 $3 $4 $5 $6 $7 $8 $9 X,Y pos of 4 corners*
0 Add a 4 corners polygon primitive as box body*
4,1,4,$2,$3,$4,$5,$6,$7,$8,$9,$2,$3,0*
0 Add four circle primitives for the rounded corners*
1,1,$1+$1,$2,$3*
1,1,$1+$1,$4,$5*
1,1,$1+$1,$6,$7*
1,1,$1+$1,$8,$9*
0 Add four rect primitives between the rounded corners*
20,1,$1+$1,$2,$3,$4,$5,0*
20,1,$1+$1,$4,$5,$6,$7,0*
20,1,$1+$1,$6,$7,$8,$9,0*
20,1,$1+$1,$8,$9,$2,$3,0*%
G04 Aperture macros list end*
%TA.AperFunction,ComponentPad*%
%ADD10R,1.700000X1.700000*%
%TD*%
%TA.AperFunction,ComponentPad*%
%ADD11C,1.700000*%
%TD*%
%TA.AperFunction,ComponentPad*%
%ADD12R,2.000000X0.900000*%
%TD*%
%TA.AperFunction,ComponentPad*%
%ADD13RoundRect,1.025000X-1.025000X1.025000X-1.025000X-1.025000X1.025000X-1.025000X1.025000X1.025000X0*%
%TD*%
%TA.AperFunction,ComponentPad*%
%ADD14C,4.100000*%
%TD*%
%TA.AperFunction,ComponentPad*%
%ADD15RoundRect,1.025000X1.025000X-1.025000X1.025000X1.025000X-1.025000X1.025000X-1.025000X-1.025000X0*%
%TD*%
%TA.AperFunction,ViaPad*%
%ADD16C,0.800000*%
%TD*%
%TA.AperFunction,ViaPad*%
%ADD17C,0.600000*%
%TD*%
G04 APERTURE END LIST*
D10*
%TO.N,PA5*%
%TO.C,U5*%
X156940000Y-124300000D03*
D11*
%TO.N,PA6*%
X156940000Y-126840000D03*
%TO.N,PA11*%
X154400000Y-124300000D03*
%TO.N,PA12*%
X154400000Y-126840000D03*
%TO.N,SWCLK*%
X151860000Y-124300000D03*
%TO.N,SWDIO*%
X151860000Y-126840000D03*
%TO.N,PA1*%
X149320000Y-124300000D03*
%TO.N,PA0*%
X149320000Y-126840000D03*
%TO.N,PA3*%
X146780000Y-124300000D03*
%TO.N,PA2*%
X146780000Y-126840000D03*
%TD*%
D12*
%TO.N,*%
%TO.C,J1*%
X174725000Y-100325000D03*
X174725000Y-113825000D03*
D13*
%TO.N,GND*%
X168725000Y-103475000D03*
D14*
%TO.N,/PACK+*%
X168725000Y-110675000D03*
%TD*%
D12*
%TO.N,*%
%TO.C,J2*%
X123960000Y-99240000D03*
X123960000Y-85740000D03*
D15*
%TO.N,/PACK-*%
X129960000Y-88890000D03*
D14*
%TO.N,/PACK+*%
X129960000Y-96090000D03*
%TD*%
D16*
%TO.N,+3.3V*%
X160930000Y-116920000D03*
X151850000Y-109075000D03*
%TO.N,GND*%
X163060000Y-78750000D03*
X163060000Y-82750000D03*
D17*
X159810000Y-89130000D03*
X150650000Y-99750000D03*
X158050000Y-99740000D03*
D16*
X139565000Y-93450000D03*
X158850000Y-93850000D03*
X144940000Y-93250000D03*
X162060000Y-81750000D03*
X163060000Y-81750000D03*
D17*
X142325000Y-114950000D03*
X147800000Y-95775000D03*
X141375000Y-117912500D03*
X143275000Y-117912500D03*
X158050000Y-98460000D03*
X150300000Y-115025000D03*
X139425000Y-112650000D03*
D16*
X162060000Y-78750000D03*
X162060000Y-82750000D03*
D17*
X147375000Y-114875000D03*
X151040000Y-92530000D03*
D16*
X161275000Y-92325000D03*
X162060000Y-80750000D03*
X163060000Y-79750000D03*
X165670000Y-120322000D03*
X162060000Y-79750000D03*
D17*
X139425000Y-110150000D03*
D16*
X163060000Y-80750000D03*
D17*
X151412500Y-89100000D03*
%TO.N,Net-(Q1-G)*%
X151839798Y-91035202D03*
D16*
X141054056Y-79495000D03*
D17*
%TO.N,ALERT*%
X157670000Y-115350000D03*
X149919907Y-94875000D03*
%TO.N,SCL*%
X148750000Y-93200000D03*
D16*
X154725000Y-111100000D03*
D17*
%TO.N,SDA*%
X147075000Y-94275000D03*
D16*
X149025000Y-111100000D03*
D17*
%TO.N,/PACK+*%
X125350000Y-107575000D03*
X125350000Y-115075000D03*
X128350000Y-115075000D03*
X128350000Y-107575000D03*
X152552300Y-103012300D03*
D16*
%TO.N,PWROFF*%
X162225000Y-118525000D03*
X156464400Y-116750000D03*
D17*
%TO.N,PA11*%
X153325000Y-115175000D03*
%TO.N,PA12*%
X153300000Y-114125000D03*
D16*
%TO.N,Net-(U2-VC1)*%
X137260000Y-93450000D03*
D17*
X154400000Y-95775000D03*
%TO.N,Net-(U2-TS)*%
X152675000Y-90850000D03*
X144040000Y-91265000D03*
D16*
%TO.N,/PACK-*%
X133000000Y-84700000D03*
X134000000Y-82700000D03*
X134000000Y-80700000D03*
X133000000Y-83700000D03*
D17*
X128350000Y-106325000D03*
D16*
X133000000Y-80700000D03*
D17*
X125350000Y-113825000D03*
X128350000Y-113825000D03*
D16*
X134000000Y-81700000D03*
X134000000Y-83700000D03*
D17*
X125350000Y-106325000D03*
D16*
X133000000Y-82700000D03*
X134000000Y-84700000D03*
X133000000Y-81700000D03*
%TD*%
%TA.AperFunction,Conductor*%
%TO.N,GND*%
G36*
X175013039Y-75098865D02*
G01*
X175058794Y-75151669D01*
X175070000Y-75203180D01*
X175070000Y-85840000D01*
X185196820Y-85840000D01*
X185263859Y-85859685D01*
X185309614Y-85912489D01*
X185320820Y-85964000D01*
X185320820Y-118848000D01*
X185301135Y-118915039D01*
X185248331Y-118960794D01*
X185196820Y-118972000D01*
X174848680Y-118972000D01*
X174848680Y-129196820D01*
X174828995Y-129263859D01*
X174776191Y-129309614D01*
X174724680Y-129320820D01*
X135560136Y-129320820D01*
X135493097Y-129301135D01*
X135447342Y-129248331D01*
X135436136Y-129197097D01*
X135425003Y-124209448D01*
X145629500Y-124209448D01*
X145629500Y-124390551D01*
X145657829Y-124569410D01*
X145713787Y-124741636D01*
X145713788Y-124741639D01*
X145796006Y-124902997D01*
X145902441Y-125049494D01*
X145902445Y-125049499D01*
X146030500Y-125177554D01*
X146030505Y-125177558D01*
X146158287Y-125270396D01*
X146177006Y-125283996D01*
X146253094Y-125322765D01*
X146338360Y-125366211D01*
X146338363Y-125366212D01*
X146424476Y-125394191D01*
X146510591Y-125422171D01*
X146583639Y-125433740D01*
X146670678Y-125447527D01*
X146733813Y-125477456D01*
X146770744Y-125536768D01*
X146769746Y-125606631D01*
X146731136Y-125664863D01*
X146670678Y-125692473D01*
X146510589Y-125717829D01*
X146338363Y-125773787D01*
X146338360Y-125773788D01*
X146177002Y-125856006D01*
X146030505Y-125962441D01*
X146030500Y-125962445D01*
X145902445Y-126090500D01*
X145902441Y-126090505D01*
X145796006Y-126237002D01*
X145713788Y-126398360D01*
X145713787Y-126398363D01*
X145657829Y-126570589D01*
X145629500Y-126749448D01*
X145629500Y-126930551D01*
X145657829Y-127109410D01*
X145713787Y-127281636D01*
X145713788Y-127281639D01*
X145796006Y-127442997D01*
X145902441Y-127589494D01*
X145902445Y-127589499D01*
X146030500Y-127717554D01*
X146030505Y-127717558D01*
X146158287Y-127810396D01*
X146177006Y-127823996D01*
X146282484Y-127877740D01*
X146338360Y-127906211D01*
X146338363Y-127906212D01*
X146424476Y-127934191D01*
X146510591Y-127962171D01*
X146593429Y-127975291D01*
X146689449Y-127990500D01*
X146689454Y-127990500D01*
X146870551Y-127990500D01*
X146957259Y-127976765D01*
X147049409Y-127962171D01*
X147221639Y-127906211D01*
X147382994Y-127823996D01*
X147529501Y-127717553D01*
X147657553Y-127589501D01*
X147763996Y-127442994D01*
X147846211Y-127281639D01*
X147902171Y-127109409D01*
X147920562Y-126993291D01*
X147927527Y-126949321D01*
X147957456Y-126886186D01*
X148016768Y-126849255D01*
X148086630Y-126850253D01*
X148144863Y-126888863D01*
X148172473Y-126949321D01*
X148197829Y-127109410D01*
X148253787Y-127281636D01*
X148253788Y-127281639D01*
X148336006Y-127442997D01*
X148442441Y-127589494D01*
X148442445Y-127589499D01*
X148570500Y-127717554D01*
X148570505Y-127717558D01*
X148698287Y-127810396D01*
X148717006Y-127823996D01*
X148822484Y-127877740D01*
X148878360Y-127906211D01*
X148878363Y-127906212D01*
X148964476Y-127934191D01*
X149050591Y-127962171D01*
X149133429Y-127975291D01*
X149229449Y-127990500D01*
X149229454Y-127990500D01*
X149410551Y-127990500D01*
X149497259Y-127976765D01*
X149589409Y-127962171D01*
X149761639Y-127906211D01*
X149922994Y-127823996D01*
X150069501Y-127717553D01*
X150197553Y-127589501D01*
X150303996Y-127442994D01*
X150386211Y-127281639D01*
X150442171Y-127109409D01*
X150460562Y-126993291D01*
X150467527Y-126949321D01*
X150497456Y-126886186D01*
X150556768Y-126849255D01*
X150626630Y-126850253D01*
X150684863Y-126888863D01*
X150712473Y-126949321D01*
X150737829Y-127109410D01*
X150793787Y-127281636D01*
X150793788Y-127281639D01*
X150876006Y-127442997D01*
X150982441Y-127589494D01*
X150982445Y-127589499D01*
X151110500Y-127717554D01*
X151110505Y-127717558D01*
X151238287Y-127810396D01*
X151257006Y-127823996D01*
X151362484Y-127877740D01*
X151418360Y-127906211D01*
X151418363Y-127906212D01*
X151504476Y-127934191D01*
X151590591Y-127962171D01*
X151673429Y-127975291D01*
X151769449Y-127990500D01*
X151769454Y-127990500D01*
X151950551Y-127990500D01*
X152037259Y-127976765D01*
X152129409Y-127962171D01*
X152301639Y-127906211D01*
X152462994Y-127823996D01*
X152609501Y-127717553D01*
X152737553Y-127589501D01*
X152843996Y-127442994D01*
X152926211Y-127281639D01*
X152982171Y-127109409D01*
X153000562Y-126993291D01*
X153007527Y-126949321D01*
X153037456Y-126886186D01*
X153096768Y-126849255D01*
X153166630Y-126850253D01*
X153224863Y-126888863D01*
X153252473Y-126949321D01*
X153277829Y-127109410D01*
X153333787Y-127281636D01*
X153333788Y-127281639D01*
X153416006Y-127442997D01*
X153522441Y-127589494D01*
X153522445Y-127589499D01*
X153650500Y-127717554D01*
X153650505Y-127717558D01*
X153778287Y-127810396D01*
X153797006Y-127823996D01*
X153902484Y-127877740D01*
X153958360Y-127906211D01*
X153958363Y-127906212D01*
X154044476Y-127934191D01*
X154130591Y-127962171D01*
X154213429Y-127975291D01*
X154309449Y-127990500D01*
X154309454Y-127990500D01*
X154490551Y-127990500D01*
X154577259Y-127976765D01*
X154669409Y-127962171D01*
X154841639Y-127906211D01*
X155002994Y-127823996D01*
X155149501Y-127717553D01*
X155277553Y-127589501D01*
X155383996Y-127442994D01*
X155466211Y-127281639D01*
X155522171Y-127109409D01*
X155540562Y-126993291D01*
X155547527Y-126949321D01*
X155577456Y-126886186D01*
X155636768Y-126849255D01*
X155706630Y-126850253D01*
X155764863Y-126888863D01*
X155792473Y-126949321D01*
X155817829Y-127109410D01*
X155873787Y-127281636D01*
X155873788Y-127281639D01*
X155956006Y-127442997D01*
X156062441Y-127589494D01*
X156062445Y-127589499D01*
X156190500Y-127717554D01*
X156190505Y-127717558D01*
X156318287Y-127810396D01*
X156337006Y-127823996D01*
X156442484Y-127877740D01*
X156498360Y-127906211D01*
X156498363Y-127906212D01*
X156584476Y-127934191D01*
X156670591Y-127962171D01*
X156753429Y-127975291D01*
X156849449Y-127990500D01*
X156849454Y-127990500D01*
X157030551Y-127990500D01*
X157117259Y-127976765D01*
X157209409Y-127962171D01*
X157381639Y-127906211D01*
X157542994Y-127823996D01*
X157689501Y-127717553D01*
X157817553Y-127589501D01*
X157923996Y-127442994D01*
X158006211Y-127281639D01*
X158062171Y-127109409D01*
X158080562Y-126993291D01*
X158090500Y-126930551D01*
X158090500Y-126749448D01*
X158074019Y-126645397D01*
X158062171Y-126570591D01*
X158006211Y-126398361D01*
X158006211Y-126398360D01*
X157977740Y-126342484D01*
X157923996Y-126237006D01*
X157910396Y-126218287D01*
X157817558Y-126090505D01*
X157817554Y-126090500D01*
X157689499Y-125962445D01*
X157689494Y-125962441D01*
X157542997Y-125856006D01*
X157542996Y-125856005D01*
X157542994Y-125856004D01*
X157491300Y-125829664D01*
X157381639Y-125773788D01*
X157381636Y-125773787D01*
X157209410Y-125717829D01*
X157077728Y-125696972D01*
X157014594Y-125667042D01*
X156977663Y-125607731D01*
X156978661Y-125537868D01*
X157017271Y-125479636D01*
X157081235Y-125451522D01*
X157097120Y-125450499D01*
X157834864Y-125450499D01*
X157834879Y-125450497D01*
X157834882Y-125450497D01*
X157859987Y-125447586D01*
X157859988Y-125447585D01*
X157859991Y-125447585D01*
X157962765Y-125402206D01*
X158042206Y-125322765D01*
X158087585Y-125219991D01*
X158090500Y-125194865D01*
X158090499Y-123405136D01*
X158090497Y-123405117D01*
X158087586Y-123380012D01*
X158087585Y-123380010D01*
X158087585Y-123380009D01*
X158042206Y-123277235D01*
X157962765Y-123197794D01*
X157962763Y-123197793D01*
X157859992Y-123152415D01*
X157834865Y-123149500D01*
X156045143Y-123149500D01*
X156045117Y-123149502D01*
X156020012Y-123152413D01*
X156020008Y-123152415D01*
X155917235Y-123197793D01*
X155837794Y-123277234D01*
X155792415Y-123380006D01*
X155792415Y-123380008D01*
X155789500Y-123405131D01*
X155789500Y-124142871D01*
X155769815Y-124209910D01*
X155717011Y-124255665D01*
X155647853Y-124265609D01*
X155584297Y-124236584D01*
X155546523Y-124177806D01*
X155543027Y-124162269D01*
X155536107Y-124118585D01*
X155522171Y-124030591D01*
X155466211Y-123858361D01*
X155466211Y-123858360D01*
X155437740Y-123802484D01*
X155383996Y-123697006D01*
X155370396Y-123678287D01*
X155277558Y-123550505D01*
X155277554Y-123550500D01*
X155149499Y-123422445D01*
X155149494Y-123422441D01*
X155002997Y-123316006D01*
X155002996Y-123316005D01*
X155002994Y-123316004D01*
X154926906Y-123277235D01*
X154841639Y-123233788D01*
X154841636Y-123233787D01*
X154669410Y-123177829D01*
X154490551Y-123149500D01*
X154490546Y-123149500D01*
X154309454Y-123149500D01*
X154309449Y-123149500D01*
X154130589Y-123177829D01*
X153958363Y-123233787D01*
X153958360Y-123233788D01*
X153797002Y-123316006D01*
X153650505Y-123422441D01*
X153650500Y-123422445D01*
X153522445Y-123550500D01*
X153522441Y-123550505D01*
X153416006Y-123697002D01*
X153333788Y-123858360D01*
X153333787Y-123858363D01*
X153277829Y-124030589D01*
X153252473Y-124190678D01*
X153222544Y-124253813D01*
X153163232Y-124290744D01*
X153093369Y-124289746D01*
X153035137Y-124251136D01*
X153007527Y-124190678D01*
X152993740Y-124103639D01*
X152982171Y-124030591D01*
X152926211Y-123858361D01*
X152926211Y-123858360D01*
X152897740Y-123802484D01*
X152843996Y-123697006D01*
X152830396Y-123678287D01*
X152737558Y-123550505D01*
X152737554Y-123550500D01*
X152609499Y-123422445D01*
X152609494Y-123422441D01*
X152462997Y-123316006D01*
X152462996Y-123316005D01*
X152462994Y-123316004D01*
X152386906Y-123277235D01*
X152301639Y-123233788D01*
X152301636Y-123233787D01*
X152129410Y-123177829D01*
X151950551Y-123149500D01*
X151950546Y-123149500D01*
X151769454Y-123149500D01*
X151769449Y-123149500D01*
X151590589Y-123177829D01*
X151418363Y-123233787D01*
X151418360Y-123233788D01*
X151257002Y-123316006D01*
X151110505Y-123422441D01*
X151110500Y-123422445D01*
X150982445Y-123550500D01*
X150982441Y-123550505D01*
X150876006Y-123697002D01*
X150793788Y-123858360D01*
X150793787Y-123858363D01*
X150737829Y-124030589D01*
X150712473Y-124190678D01*
X150682544Y-124253813D01*
X150623232Y-124290744D01*
X150553369Y-124289746D01*
X150495137Y-124251136D01*
X150467527Y-124190678D01*
X150453740Y-124103639D01*
X150442171Y-124030591D01*
X150386211Y-123858361D01*
X150386211Y-123858360D01*
X150357740Y-123802484D01*
X150303996Y-123697006D01*
X150290396Y-123678287D01*
X150197558Y-123550505D01*
X150197554Y-123550500D01*
X150069499Y-123422445D01*
X150069494Y-123422441D01*
X149922997Y-123316006D01*
X149922996Y-123316005D01*
X149922994Y-123316004D01*
X149846906Y-123277235D01*
X149761639Y-123233788D01*
X149761636Y-123233787D01*
X149589410Y-123177829D01*
X149410551Y-123149500D01*
X149410546Y-123149500D01*
X149229454Y-123149500D01*
X149229449Y-123149500D01*
X149050589Y-123177829D01*
X148878363Y-123233787D01*
X148878360Y-123233788D01*
X148717002Y-123316006D01*
X148570505Y-123422441D01*
X148570500Y-123422445D01*
X148442445Y-123550500D01*
X148442441Y-123550505D01*
X148336006Y-123697002D01*
X148253788Y-123858360D01*
X148253787Y-123858363D01*
X148197829Y-124030589D01*
X148172473Y-124190678D01*
X148142544Y-124253813D01*
X148083232Y-124290744D01*
X148013369Y-124289746D01*
X147955137Y-124251136D01*
X147927527Y-124190678D01*
X147913740Y-124103639D01*
X147902171Y-124030591D01*
X147846211Y-123858361D01*
X147846211Y-123858360D01*
X147817740Y-123802484D01*
X147763996Y-123697006D01*
X147750396Y-123678287D01*
X147657558Y-123550505D01*
X147657554Y-123550500D01*
X147529499Y-123422445D01*
X147529494Y-123422441D01*
X147382997Y-123316006D01*
X147382996Y-123316005D01*
X147382994Y-123316004D01*
X147306906Y-123277235D01*
X147221639Y-123233788D01*
X147221636Y-123233787D01*
X147049410Y-123177829D01*
X146870551Y-123149500D01*
X146870546Y-123149500D01*
X146689454Y-123149500D01*
X146689449Y-123149500D01*
X146510589Y-123177829D01*
X146338363Y-123233787D01*
X146338360Y-123233788D01*
X146177002Y-123316006D01*
X146030505Y-123422441D01*
X146030500Y-123422445D01*
X145902445Y-123550500D01*
X145902441Y-123550505D01*
X145796006Y-123697002D01*
X145713788Y-123858360D01*
X145713787Y-123858363D01*
X145657829Y-124030589D01*
X145629500Y-124209448D01*
X135425003Y-124209448D01*
X135424993Y-124204859D01*
X135412468Y-118593995D01*
X161524499Y-118593995D01*
X161551418Y-118729322D01*
X161551421Y-118729332D01*
X161604221Y-118856804D01*
X161604228Y-118856817D01*
X161680885Y-118971541D01*
X161680888Y-118971545D01*
X161778454Y-119069111D01*
X161778458Y-119069114D01*
X161893182Y-119145771D01*
X161893195Y-119145778D01*
X162020667Y-119198578D01*
X162020672Y-119198580D01*
X162020676Y-119198580D01*
X162020677Y-119198581D01*
X162156004Y-119225500D01*
X162156007Y-119225500D01*
X162293995Y-119225500D01*
X162385041Y-119207389D01*
X162429328Y-119198580D01*
X162556811Y-119145775D01*
X162671542Y-119069114D01*
X162769114Y-118971542D01*
X162845775Y-118856811D01*
X162898580Y-118729328D01*
X162925500Y-118593993D01*
X162925500Y-118456007D01*
X162925500Y-118456004D01*
X162898581Y-118320677D01*
X162898580Y-118320676D01*
X162898580Y-118320672D01*
X162898578Y-118320667D01*
X162845778Y-118193195D01*
X162845771Y-118193182D01*
X162769114Y-118078458D01*
X162769111Y-118078454D01*
X162671545Y-117980888D01*
X162671541Y-117980885D01*
X162556817Y-117904228D01*
X162556804Y-117904221D01*
X162429332Y-117851421D01*
X162429322Y-117851418D01*
X162293995Y-117824500D01*
X162293993Y-117824500D01*
X162156007Y-117824500D01*
X162156005Y-117824500D01*
X162020677Y-117851418D01*
X162020667Y-117851421D01*
X161893195Y-117904221D01*
X161893182Y-117904228D01*
X161778458Y-117980885D01*
X161778454Y-117980888D01*
X161680888Y-118078454D01*
X161680885Y-118078458D01*
X161604228Y-118193182D01*
X161604221Y-118193195D01*
X161551421Y-118320667D01*
X161551418Y-118320677D01*
X161524500Y-118456004D01*
X161524500Y-118456007D01*
X161524500Y-118593993D01*
X161524500Y-118593995D01*
X161524499Y-118593995D01*
X135412468Y-118593995D01*
X135412147Y-118450192D01*
X135408506Y-116818995D01*
X155763899Y-116818995D01*
X155790818Y-116954322D01*
X155790821Y-116954332D01*
X155843621Y-117081804D01*
X155843628Y-117081817D01*
X155920285Y-117196541D01*
X155920288Y-117196545D01*
X156017854Y-117294111D01*
X156017858Y-117294114D01*
X156132582Y-117370771D01*
X156132595Y-117370778D01*
X156260067Y-117423578D01*
X156260072Y-117423580D01*
X156260076Y-117423580D01*
X156260077Y-117423581D01*
X156395404Y-117450500D01*
X156395407Y-117450500D01*
X156533395Y-117450500D01*
X156624441Y-117432389D01*
X156668728Y-117423580D01*
X156796211Y-117370775D01*
X156910942Y-117294114D01*
X157008514Y-117196542D01*
X157085175Y-117081811D01*
X157123621Y-116988995D01*
X160229499Y-116988995D01*
X160256418Y-117124322D01*
X160256421Y-117124332D01*
X160309221Y-117251804D01*
X160309228Y-117251817D01*
X160385885Y-117366541D01*
X160385888Y-117366545D01*
X160483454Y-117464111D01*
X160483458Y-117464114D01*
X160598182Y-117540771D01*
X160598195Y-117540778D01*
X160725667Y-117593578D01*
X160725672Y-117593580D01*
X160725676Y-117593580D01*
X160725677Y-117593581D01*
X160861004Y-117620500D01*
X160861007Y-117620500D01*
X160998995Y-117620500D01*
X161090041Y-117602389D01*
X161134328Y-117593580D01*
X161261811Y-117540775D01*
X161376542Y-117464114D01*
X161474114Y-117366542D01*
X161550775Y-117251811D01*
X161603580Y-117124328D01*
X161630500Y-116988993D01*
X161630500Y-116851007D01*
X161630500Y-116851004D01*
X161603581Y-116715677D01*
X161603580Y-116715676D01*
X161603580Y-116715672D01*
X161603578Y-116715667D01*
X161550778Y-116588195D01*
X161550771Y-116588182D01*
X161474114Y-116473458D01*
X161474111Y-116473454D01*
X161376545Y-116375888D01*
X161376541Y-116375885D01*
X161261817Y-116299228D01*
X161261804Y-116299221D01*
X161134332Y-116246421D01*
X161134322Y-116246418D01*
X160998995Y-116219500D01*
X160998993Y-116219500D01*
X160861007Y-116219500D01*
X160861005Y-116219500D01*
X160725677Y-116246418D01*
X160725667Y-116246421D01*
X160598195Y-116299221D01*
X160598182Y-116299228D01*
X160483458Y-116375885D01*
X160483454Y-116375888D01*
X160385888Y-116473454D01*
X160385885Y-116473458D01*
X160309228Y-116588182D01*
X160309221Y-116588195D01*
X160256421Y-116715667D01*
X160256418Y-116715677D01*
X160229500Y-116851004D01*
X160229500Y-116851007D01*
X160229500Y-116988993D01*
X160229500Y-116988995D01*
X160229499Y-116988995D01*
X157123621Y-116988995D01*
X157137980Y-116954328D01*
X157164900Y-116818993D01*
X157164900Y-116681007D01*
X157164900Y-116681004D01*
X157137981Y-116545677D01*
X157137980Y-116545676D01*
X157137980Y-116545672D01*
X157108068Y-116473458D01*
X157085178Y-116418195D01*
X157085171Y-116418182D01*
X157008514Y-116303458D01*
X157008511Y-116303454D01*
X156910945Y-116205888D01*
X156910941Y-116205885D01*
X156796217Y-116129228D01*
X156796204Y-116129221D01*
X156668732Y-116076421D01*
X156668722Y-116076418D01*
X156533395Y-116049500D01*
X156533393Y-116049500D01*
X156395407Y-116049500D01*
X156395405Y-116049500D01*
X156260077Y-116076418D01*
X156260067Y-116076421D01*
X156132595Y-116129221D01*
X156132582Y-116129228D01*
X156017858Y-116205885D01*
X156017854Y-116205888D01*
X155920288Y-116303454D01*
X155920285Y-116303458D01*
X155843628Y-116418182D01*
X155843621Y-116418195D01*
X155790821Y-116545667D01*
X155790818Y-116545677D01*
X155763900Y-116681004D01*
X155763900Y-116681007D01*
X155763900Y-116818993D01*
X155763900Y-116818995D01*
X155763899Y-116818995D01*
X135408506Y-116818995D01*
X135408185Y-116675192D01*
X135402317Y-114045943D01*
X152699500Y-114045943D01*
X152699500Y-114204057D01*
X152730532Y-114319868D01*
X152740423Y-114356783D01*
X152740426Y-114356790D01*
X152819475Y-114493709D01*
X152819481Y-114493717D01*
X152900583Y-114574819D01*
X152934068Y-114636142D01*
X152929084Y-114705834D01*
X152900583Y-114750181D01*
X152844481Y-114806282D01*
X152844475Y-114806290D01*
X152765426Y-114943209D01*
X152765423Y-114943216D01*
X152724500Y-115095943D01*
X152724500Y-115254057D01*
X152746571Y-115336425D01*
X152765423Y-115406783D01*
X152765426Y-115406790D01*
X152844475Y-115543709D01*
X152844479Y-115543714D01*
X152844480Y-115543716D01*
X152956284Y-115655520D01*
X152956286Y-115655521D01*
X152956290Y-115655524D01*
X153065745Y-115718717D01*
X153093216Y-115734577D01*
X153245943Y-115775500D01*
X153245945Y-115775500D01*
X153404055Y-115775500D01*
X153404057Y-115775500D01*
X153556784Y-115734577D01*
X153693716Y-115655520D01*
X153805520Y-115543716D01*
X153884577Y-115406784D01*
X153920975Y-115270943D01*
X157069500Y-115270943D01*
X157069500Y-115429056D01*
X157110423Y-115581783D01*
X157110426Y-115581790D01*
X157189475Y-115718709D01*
X157189479Y-115718714D01*
X157189480Y-115718716D01*
X157301284Y-115830520D01*
X157301286Y-115830521D01*
X157301290Y-115830524D01*
X157438209Y-115909573D01*
X157438216Y-115909577D01*
X157590943Y-115950500D01*
X157590945Y-115950500D01*
X157749055Y-115950500D01*
X157749057Y-115950500D01*
X157901784Y-115909577D01*
X158038716Y-115830520D01*
X158150520Y-115718716D01*
X158229577Y-115581784D01*
X158270500Y-115429057D01*
X158270500Y-115270943D01*
X158229577Y-115118216D01*
X158216718Y-115095943D01*
X158150524Y-114981290D01*
X158150518Y-114981282D01*
X158038717Y-114869481D01*
X158038709Y-114869475D01*
X157901790Y-114790426D01*
X157901786Y-114790424D01*
X157901784Y-114790423D01*
X157749057Y-114749500D01*
X157590943Y-114749500D01*
X157438216Y-114790423D01*
X157438209Y-114790426D01*
X157301290Y-114869475D01*
X157301282Y-114869481D01*
X157189481Y-114981282D01*
X157189475Y-114981290D01*
X157110426Y-115118209D01*
X157110423Y-115118216D01*
X157069500Y-115270943D01*
X153920975Y-115270943D01*
X153925500Y-115254057D01*
X153925500Y-115095943D01*
X153884577Y-114943216D01*
X153852091Y-114886948D01*
X153805524Y-114806290D01*
X153805518Y-114806282D01*
X153724417Y-114725181D01*
X153690932Y-114663858D01*
X153695916Y-114594166D01*
X153724417Y-114549819D01*
X153747031Y-114527205D01*
X153780520Y-114493716D01*
X153859577Y-114356784D01*
X153900500Y-114204057D01*
X153900500Y-114045943D01*
X153859577Y-113893216D01*
X153859573Y-113893209D01*
X153780524Y-113756290D01*
X153780518Y-113756282D01*
X153668717Y-113644481D01*
X153668709Y-113644475D01*
X153531790Y-113565426D01*
X153531786Y-113565424D01*
X153531784Y-113565423D01*
X153379057Y-113524500D01*
X153220943Y-113524500D01*
X153068216Y-113565423D01*
X153068209Y-113565426D01*
X152931290Y-113644475D01*
X152931282Y-113644481D01*
X152819481Y-113756282D01*
X152819475Y-113756290D01*
X152740426Y-113893209D01*
X152740423Y-113893216D01*
X152699500Y-114045943D01*
X135402317Y-114045943D01*
X135402299Y-114038093D01*
X135400718Y-113330131D01*
X173424500Y-113330131D01*
X173424500Y-114319856D01*
X173424502Y-114319882D01*
X173427413Y-114344987D01*
X173427415Y-114344991D01*
X173472793Y-114447764D01*
X173472794Y-114447765D01*
X173552235Y-114527206D01*
X173655009Y-114572585D01*
X173680135Y-114575500D01*
X175769864Y-114575499D01*
X175769879Y-114575497D01*
X175769882Y-114575497D01*
X175794987Y-114572586D01*
X175794988Y-114572585D01*
X175794991Y-114572585D01*
X175897765Y-114527206D01*
X175977206Y-114447765D01*
X176022585Y-114344991D01*
X176025500Y-114319865D01*
X176025499Y-113330136D01*
X176025116Y-113326831D01*
X176022586Y-113305012D01*
X176022585Y-113305010D01*
X176022585Y-113305009D01*
X175977206Y-113202235D01*
X175897765Y-113122794D01*
X175897763Y-113122793D01*
X175794992Y-113077415D01*
X175769865Y-113074500D01*
X173680143Y-113074500D01*
X173680117Y-113074502D01*
X173655012Y-113077413D01*
X173655008Y-113077415D01*
X173552235Y-113122793D01*
X173472794Y-113202234D01*
X173427415Y-113305006D01*
X173427415Y-113305008D01*
X173424500Y-113330131D01*
X135400718Y-113330131D01*
X135400711Y-113326831D01*
X135395895Y-111168995D01*
X148324499Y-111168995D01*
X148351418Y-111304322D01*
X148351421Y-111304332D01*
X148404221Y-111431804D01*
X148404228Y-111431817D01*
X148480885Y-111546541D01*
X148480888Y-111546545D01*
X148578454Y-111644111D01*
X148578458Y-111644114D01*
X148693182Y-111720771D01*
X148693195Y-111720778D01*
X148820667Y-111773578D01*
X148820672Y-111773580D01*
X148820676Y-111773580D01*
X148820677Y-111773581D01*
X148956004Y-111800500D01*
X148956007Y-111800500D01*
X149093995Y-111800500D01*
X149185041Y-111782389D01*
X149229328Y-111773580D01*
X149356811Y-111720775D01*
X149471542Y-111644114D01*
X149569114Y-111546542D01*
X149645775Y-111431811D01*
X149698580Y-111304328D01*
X149725500Y-111168995D01*
X154024499Y-111168995D01*
X154051418Y-111304322D01*
X154051421Y-111304332D01*
X154104221Y-111431804D01*
X154104228Y-111431817D01*
X154180885Y-111546541D01*
X154180888Y-111546545D01*
X154278454Y-111644111D01*
X154278458Y-111644114D01*
X154393182Y-111720771D01*
X154393195Y-111720778D01*
X154520667Y-111773578D01*
X154520672Y-111773580D01*
X154520676Y-111773580D01*
X154520677Y-111773581D01*
X154656004Y-111800500D01*
X154656007Y-111800500D01*
X154793995Y-111800500D01*
X154885041Y-111782389D01*
X154929328Y-111773580D01*
X155056811Y-111720775D01*
X155171542Y-111644114D01*
X155269114Y-111546542D01*
X155345775Y-111431811D01*
X155398580Y-111304328D01*
X155425500Y-111168993D01*
X155425500Y-111031007D01*
X155425500Y-111031004D01*
X155398581Y-110895677D01*
X155398580Y-110895676D01*
X155398580Y-110895672D01*
X155398578Y-110895667D01*
X155345778Y-110768195D01*
X155345771Y-110768182D01*
X155269114Y-110653458D01*
X155269111Y-110653454D01*
X155171545Y-110555888D01*
X155171541Y-110555885D01*
X155119252Y-110520946D01*
X166374500Y-110520946D01*
X166374500Y-110829053D01*
X166374501Y-110829069D01*
X166414717Y-111134542D01*
X166494464Y-111432162D01*
X166612376Y-111716826D01*
X166612381Y-111716837D01*
X166705014Y-111877280D01*
X166766438Y-111983670D01*
X166766440Y-111983673D01*
X166766441Y-111983674D01*
X166954007Y-112228115D01*
X166954013Y-112228122D01*
X167171877Y-112445986D01*
X167171883Y-112445991D01*
X167416330Y-112633562D01*
X167587830Y-112732578D01*
X167683162Y-112787618D01*
X167683167Y-112787620D01*
X167683170Y-112787622D01*
X167967836Y-112905535D01*
X168265456Y-112985282D01*
X168570940Y-113025500D01*
X168570947Y-113025500D01*
X168879053Y-113025500D01*
X168879060Y-113025500D01*
X169184544Y-112985282D01*
X169482164Y-112905535D01*
X169766830Y-112787622D01*
X170033670Y-112633562D01*
X170278117Y-112445991D01*
X170495991Y-112228117D01*
X170683562Y-111983670D01*
X170837622Y-111716830D01*
X170955535Y-111432164D01*
X171035282Y-111134544D01*
X171075500Y-110829060D01*
X171075500Y-110520940D01*
X171035282Y-110215456D01*
X170955535Y-109917836D01*
X170837622Y-109633170D01*
X170837620Y-109633167D01*
X170837618Y-109633162D01*
X170773175Y-109521545D01*
X170683562Y-109366330D01*
X170495991Y-109121883D01*
X170495986Y-109121877D01*
X170278122Y-108904013D01*
X170278115Y-108904007D01*
X170033674Y-108716441D01*
X170033673Y-108716440D01*
X170033670Y-108716438D01*
X169927280Y-108655014D01*
X169766837Y-108562381D01*
X169766826Y-108562376D01*
X169482162Y-108444464D01*
X169184542Y-108364717D01*
X168879069Y-108324501D01*
X168879066Y-108324500D01*
X168879060Y-108324500D01*
X168570940Y-108324500D01*
X168570934Y-108324500D01*
X168570930Y-108324501D01*
X168265457Y-108364717D01*
X167967837Y-108444464D01*
X167683173Y-108562376D01*
X167683162Y-108562381D01*
X167416325Y-108716441D01*
X167171884Y-108904007D01*
X167171877Y-108904013D01*
X166954013Y-109121877D01*
X166954007Y-109121884D01*
X166766441Y-109366325D01*
X166612381Y-109633162D01*
X166612376Y-109633173D01*
X166494464Y-109917837D01*
X166414717Y-110215457D01*
X166374501Y-110520930D01*
X166374500Y-110520946D01*
X155119252Y-110520946D01*
X155056817Y-110479228D01*
X155056804Y-110479221D01*
X154929332Y-110426421D01*
X154929322Y-110426418D01*
X154793995Y-110399500D01*
X154793993Y-110399500D01*
X154656007Y-110399500D01*
X154656005Y-110399500D01*
X154520677Y-110426418D01*
X154520667Y-110426421D01*
X154393195Y-110479221D01*
X154393182Y-110479228D01*
X154278458Y-110555885D01*
X154278454Y-110555888D01*
X154180888Y-110653454D01*
X154180885Y-110653458D01*
X154104228Y-110768182D01*
X154104221Y-110768195D01*
X154051421Y-110895667D01*
X154051418Y-110895677D01*
X154024500Y-111031004D01*
X154024500Y-111031007D01*
X154024500Y-111168993D01*
X154024500Y-111168995D01*
X154024499Y-111168995D01*
X149725500Y-111168995D01*
X149725500Y-111168993D01*
X149725500Y-111031007D01*
X149725500Y-111031004D01*
X149698581Y-110895677D01*
X149698580Y-110895676D01*
X149698580Y-110895672D01*
X149698578Y-110895667D01*
X149645778Y-110768195D01*
X149645771Y-110768182D01*
X149569114Y-110653458D01*
X149569111Y-110653454D01*
X149471545Y-110555888D01*
X149471541Y-110555885D01*
X149356817Y-110479228D01*
X149356804Y-110479221D01*
X149229332Y-110426421D01*
X149229322Y-110426418D01*
X149093995Y-110399500D01*
X149093993Y-110399500D01*
X148956007Y-110399500D01*
X148956005Y-110399500D01*
X148820677Y-110426418D01*
X148820667Y-110426421D01*
X148693195Y-110479221D01*
X148693182Y-110479228D01*
X148578458Y-110555885D01*
X148578454Y-110555888D01*
X148480888Y-110653454D01*
X148480885Y-110653458D01*
X148404228Y-110768182D01*
X148404221Y-110768195D01*
X148351421Y-110895667D01*
X148351418Y-110895677D01*
X148324500Y-111031004D01*
X148324500Y-111031007D01*
X148324500Y-111168993D01*
X148324500Y-111168995D01*
X148324499Y-111168995D01*
X135395895Y-111168995D01*
X135395574Y-111025192D01*
X135391375Y-109143995D01*
X151149499Y-109143995D01*
X151176418Y-109279322D01*
X151176421Y-109279332D01*
X151229221Y-109406804D01*
X151229228Y-109406817D01*
X151305885Y-109521541D01*
X151305888Y-109521545D01*
X151403454Y-109619111D01*
X151403458Y-109619114D01*
X151518182Y-109695771D01*
X151518195Y-109695778D01*
X151645667Y-109748578D01*
X151645672Y-109748580D01*
X151645676Y-109748580D01*
X151645677Y-109748581D01*
X151781004Y-109775500D01*
X151781007Y-109775500D01*
X151918995Y-109775500D01*
X152010041Y-109757389D01*
X152054328Y-109748580D01*
X152181811Y-109695775D01*
X152296542Y-109619114D01*
X152394114Y-109521542D01*
X152470775Y-109406811D01*
X152523580Y-109279328D01*
X152550500Y-109143993D01*
X152550500Y-109006007D01*
X152550500Y-109006004D01*
X152523581Y-108870677D01*
X152523580Y-108870676D01*
X152523580Y-108870672D01*
X152523578Y-108870667D01*
X152470778Y-108743195D01*
X152470771Y-108743182D01*
X152394114Y-108628458D01*
X152394111Y-108628454D01*
X152296545Y-108530888D01*
X152296541Y-108530885D01*
X152181817Y-108454228D01*
X152181804Y-108454221D01*
X152054332Y-108401421D01*
X152054322Y-108401418D01*
X151918995Y-108374500D01*
X151918993Y-108374500D01*
X151781007Y-108374500D01*
X151781005Y-108374500D01*
X151645677Y-108401418D01*
X151645667Y-108401421D01*
X151518195Y-108454221D01*
X151518182Y-108454228D01*
X151403458Y-108530885D01*
X151403454Y-108530888D01*
X151305888Y-108628454D01*
X151305885Y-108628458D01*
X151229228Y-108743182D01*
X151229221Y-108743195D01*
X151176421Y-108870667D01*
X151176418Y-108870677D01*
X151149500Y-109006004D01*
X151149500Y-109006007D01*
X151149500Y-109143993D01*
X151149500Y-109143995D01*
X151149499Y-109143995D01*
X135391375Y-109143995D01*
X135391054Y-109000192D01*
X135379723Y-103923915D01*
X135377512Y-102933243D01*
X151951800Y-102933243D01*
X151951800Y-103091356D01*
X151992723Y-103244083D01*
X151992726Y-103244090D01*
X152071775Y-103381009D01*
X152071779Y-103381014D01*
X152071780Y-103381016D01*
X152183584Y-103492820D01*
X152183586Y-103492821D01*
X152183590Y-103492824D01*
X152320509Y-103571873D01*
X152320516Y-103571877D01*
X152473243Y-103612800D01*
X152473245Y-103612800D01*
X152631355Y-103612800D01*
X152631357Y-103612800D01*
X152784084Y-103571877D01*
X152921016Y-103492820D01*
X153032820Y-103381016D01*
X153111877Y-103244084D01*
X153152800Y-103091357D01*
X153152800Y-102933243D01*
X153111877Y-102780516D01*
X153104331Y-102767446D01*
X153032824Y-102643590D01*
X153032818Y-102643582D01*
X152921017Y-102531781D01*
X152921016Y-102531780D01*
X152784084Y-102452723D01*
X152631357Y-102411800D01*
X152473243Y-102411800D01*
X152320516Y-102452723D01*
X152320509Y-102452726D01*
X152183590Y-102531775D01*
X152183582Y-102531781D01*
X152071781Y-102643582D01*
X152071775Y-102643590D01*
X151992726Y-102780509D01*
X151992723Y-102780516D01*
X151951800Y-102933243D01*
X135377512Y-102933243D01*
X135377494Y-102925393D01*
X135376276Y-102379731D01*
X166175000Y-102379731D01*
X166175000Y-102975000D01*
X167467986Y-102975000D01*
X167408242Y-103158874D01*
X167375000Y-103368753D01*
X167375000Y-103581247D01*
X167408242Y-103791126D01*
X167467986Y-103975000D01*
X166175000Y-103975000D01*
X166175000Y-104570268D01*
X166185215Y-104714958D01*
X166185217Y-104714968D01*
X166239313Y-104955165D01*
X166239315Y-104955172D01*
X166331244Y-105183585D01*
X166458620Y-105394289D01*
X166458627Y-105394299D01*
X166618153Y-105581846D01*
X166805700Y-105741372D01*
X166805710Y-105741379D01*
X167016414Y-105868755D01*
X167244827Y-105960684D01*
X167244834Y-105960686D01*
X167485031Y-106014782D01*
X167485041Y-106014784D01*
X167629731Y-106024999D01*
X167629734Y-106025000D01*
X168225000Y-106025000D01*
X168225000Y-104732014D01*
X168408874Y-104791758D01*
X168618753Y-104825000D01*
X168831247Y-104825000D01*
X169041126Y-104791758D01*
X169225000Y-104732014D01*
X169225000Y-106025000D01*
X169820266Y-106025000D01*
X169820268Y-106024999D01*
X169964958Y-106014784D01*
X169964968Y-106014782D01*
X170205165Y-105960686D01*
X170205172Y-105960684D01*
X170433585Y-105868755D01*
X170644289Y-105741379D01*
X170644299Y-105741372D01*
X170831846Y-105581846D01*
X170991372Y-105394299D01*
X170991379Y-105394289D01*
X171118755Y-105183585D01*
X171210684Y-104955172D01*
X171210686Y-104955165D01*
X171264782Y-104714968D01*
X171264784Y-104714958D01*
X171274999Y-104570268D01*
X171275000Y-104570266D01*
X171275000Y-103975000D01*
X169982014Y-103975000D01*
X170041758Y-103791126D01*
X170075000Y-103581247D01*
X170075000Y-103368753D01*
X170041758Y-103158874D01*
X169982014Y-102975000D01*
X171275000Y-102975000D01*
X171275000Y-102379734D01*
X171274999Y-102379731D01*
X171264784Y-102235041D01*
X171264782Y-102235031D01*
X171210686Y-101994834D01*
X171210684Y-101994827D01*
X171118755Y-101766414D01*
X170991379Y-101555710D01*
X170991372Y-101555700D01*
X170831846Y-101368153D01*
X170644299Y-101208627D01*
X170644289Y-101208620D01*
X170433585Y-101081244D01*
X170205172Y-100989315D01*
X170205165Y-100989313D01*
X169964968Y-100935217D01*
X169964958Y-100935215D01*
X169820268Y-100925000D01*
X169225000Y-100925000D01*
X169225000Y-102217985D01*
X169041126Y-102158242D01*
X168831247Y-102125000D01*
X168618753Y-102125000D01*
X168408874Y-102158242D01*
X168225000Y-102217985D01*
X168225000Y-100925000D01*
X167629731Y-100925000D01*
X167485041Y-100935215D01*
X167485031Y-100935217D01*
X167244834Y-100989313D01*
X167244827Y-100989315D01*
X167016414Y-101081244D01*
X166805710Y-101208620D01*
X166805700Y-101208627D01*
X166618153Y-101368153D01*
X166458627Y-101555700D01*
X166458620Y-101555710D01*
X166331244Y-101766414D01*
X166239315Y-101994827D01*
X166239313Y-101994834D01*
X166185217Y-102235031D01*
X166185215Y-102235041D01*
X166175000Y-102379731D01*
X135376276Y-102379731D01*
X135370584Y-99830131D01*
X173424500Y-99830131D01*
X173424500Y-100819856D01*
X173424502Y-100819882D01*
X173427413Y-100844987D01*
X173427415Y-100844991D01*
X173472793Y-100947764D01*
X173472794Y-100947765D01*
X173552235Y-101027206D01*
X173655009Y-101072585D01*
X173680135Y-101075500D01*
X175769864Y-101075499D01*
X175769879Y-101075497D01*
X175769882Y-101075497D01*
X175794987Y-101072586D01*
X175794988Y-101072585D01*
X175794991Y-101072585D01*
X175897765Y-101027206D01*
X175977206Y-100947765D01*
X176022585Y-100844991D01*
X176025500Y-100819865D01*
X176025499Y-99830136D01*
X176025116Y-99826831D01*
X176022586Y-99805012D01*
X176022585Y-99805010D01*
X176022585Y-99805009D01*
X175977206Y-99702235D01*
X175897765Y-99622794D01*
X175897763Y-99622793D01*
X175794992Y-99577415D01*
X175769865Y-99574500D01*
X173680143Y-99574500D01*
X173680117Y-99574502D01*
X173655012Y-99577413D01*
X173655008Y-99577415D01*
X173552235Y-99622793D01*
X173472794Y-99702234D01*
X173427415Y-99805006D01*
X173427415Y-99805008D01*
X173424500Y-99830131D01*
X135370584Y-99830131D01*
X135370577Y-99826831D01*
X135361357Y-95695943D01*
X153799500Y-95695943D01*
X153799500Y-95854057D01*
X153831948Y-95975152D01*
X153840423Y-96006783D01*
X153840426Y-96006790D01*
X153919475Y-96143709D01*
X153919479Y-96143714D01*
X153919480Y-96143716D01*
X154031284Y-96255520D01*
X154031286Y-96255521D01*
X154031290Y-96255524D01*
X154168209Y-96334573D01*
X154168216Y-96334577D01*
X154320943Y-96375500D01*
X154320945Y-96375500D01*
X154479055Y-96375500D01*
X154479057Y-96375500D01*
X154631784Y-96334577D01*
X154768716Y-96255520D01*
X154880520Y-96143716D01*
X154959577Y-96006784D01*
X155000500Y-95854057D01*
X155000500Y-95695943D01*
X154959577Y-95543216D01*
X154896855Y-95434577D01*
X154880524Y-95406290D01*
X154880518Y-95406282D01*
X154768717Y-95294481D01*
X154768709Y-95294475D01*
X154631790Y-95215426D01*
X154631786Y-95215424D01*
X154631784Y-95215423D01*
X154479057Y-95174500D01*
X154320943Y-95174500D01*
X154168216Y-95215423D01*
X154168209Y-95215426D01*
X154031290Y-95294475D01*
X154031282Y-95294481D01*
X153919481Y-95406282D01*
X153919475Y-95406290D01*
X153840426Y-95543209D01*
X153840423Y-95543216D01*
X153799500Y-95695943D01*
X135361357Y-95695943D01*
X135361339Y-95688093D01*
X135358008Y-94195943D01*
X146474500Y-94195943D01*
X146474500Y-94354057D01*
X146515289Y-94506282D01*
X146515423Y-94506783D01*
X146515426Y-94506790D01*
X146594475Y-94643709D01*
X146594479Y-94643714D01*
X146594480Y-94643716D01*
X146706284Y-94755520D01*
X146706286Y-94755521D01*
X146706290Y-94755524D01*
X146843209Y-94834573D01*
X146843216Y-94834577D01*
X146995943Y-94875500D01*
X146995945Y-94875500D01*
X147154055Y-94875500D01*
X147154057Y-94875500D01*
X147306784Y-94834577D01*
X147373701Y-94795943D01*
X149319407Y-94795943D01*
X149319407Y-94954056D01*
X149360330Y-95106783D01*
X149360333Y-95106790D01*
X149439382Y-95243709D01*
X149439386Y-95243714D01*
X149439387Y-95243716D01*
X149551191Y-95355520D01*
X149551193Y-95355521D01*
X149551197Y-95355524D01*
X149639128Y-95406290D01*
X149688123Y-95434577D01*
X149840850Y-95475500D01*
X149840852Y-95475500D01*
X149998962Y-95475500D01*
X149998964Y-95475500D01*
X150151691Y-95434577D01*
X150288623Y-95355520D01*
X150400427Y-95243716D01*
X150479484Y-95106784D01*
X150520407Y-94954057D01*
X150520407Y-94795943D01*
X150479484Y-94643216D01*
X150479480Y-94643209D01*
X150400431Y-94506290D01*
X150400425Y-94506282D01*
X150288624Y-94394481D01*
X150288616Y-94394475D01*
X150151697Y-94315426D01*
X150151693Y-94315424D01*
X150151691Y-94315423D01*
X149998964Y-94274500D01*
X149840850Y-94274500D01*
X149688123Y-94315423D01*
X149688116Y-94315426D01*
X149551197Y-94394475D01*
X149551189Y-94394481D01*
X149439388Y-94506282D01*
X149439382Y-94506290D01*
X149360333Y-94643209D01*
X149360330Y-94643216D01*
X149319407Y-94795943D01*
X147373701Y-94795943D01*
X147443716Y-94755520D01*
X147555520Y-94643716D01*
X147634577Y-94506784D01*
X147675500Y-94354057D01*
X147675500Y-94195943D01*
X147634577Y-94043216D01*
X147606228Y-93994114D01*
X147555524Y-93906290D01*
X147555518Y-93906282D01*
X147443717Y-93794481D01*
X147443709Y-93794475D01*
X147306790Y-93715426D01*
X147306786Y-93715424D01*
X147306784Y-93715423D01*
X147154057Y-93674500D01*
X146995943Y-93674500D01*
X146843216Y-93715423D01*
X146843209Y-93715426D01*
X146706290Y-93794475D01*
X146706282Y-93794481D01*
X146594481Y-93906282D01*
X146594475Y-93906290D01*
X146515426Y-94043209D01*
X146515423Y-94043216D01*
X146474500Y-94195943D01*
X135358008Y-94195943D01*
X135356497Y-93518995D01*
X136559499Y-93518995D01*
X136586418Y-93654322D01*
X136586421Y-93654332D01*
X136639221Y-93781804D01*
X136639228Y-93781817D01*
X136715885Y-93896541D01*
X136715888Y-93896545D01*
X136813454Y-93994111D01*
X136813458Y-93994114D01*
X136928182Y-94070771D01*
X136928195Y-94070778D01*
X137055667Y-94123578D01*
X137055672Y-94123580D01*
X137055676Y-94123580D01*
X137055677Y-94123581D01*
X137191004Y-94150500D01*
X137191007Y-94150500D01*
X137328995Y-94150500D01*
X137420041Y-94132389D01*
X137464328Y-94123580D01*
X137512275Y-94103719D01*
X137585825Y-94073255D01*
X137591804Y-94070778D01*
X137591804Y-94070777D01*
X137591811Y-94070775D01*
X137706542Y-93994114D01*
X137804114Y-93896542D01*
X137880775Y-93781811D01*
X137933580Y-93654328D01*
X137950609Y-93568717D01*
X137960500Y-93518995D01*
X137960500Y-93381004D01*
X137933581Y-93245677D01*
X137933580Y-93245676D01*
X137933580Y-93245672D01*
X137881916Y-93120943D01*
X148149500Y-93120943D01*
X148149500Y-93279057D01*
X148176818Y-93381007D01*
X148190423Y-93431783D01*
X148190426Y-93431790D01*
X148269475Y-93568709D01*
X148269479Y-93568714D01*
X148269480Y-93568716D01*
X148381284Y-93680520D01*
X148381286Y-93680521D01*
X148381290Y-93680524D01*
X148518209Y-93759573D01*
X148518216Y-93759577D01*
X148670943Y-93800500D01*
X148670945Y-93800500D01*
X148829055Y-93800500D01*
X148829057Y-93800500D01*
X148981784Y-93759577D01*
X149118716Y-93680520D01*
X149230520Y-93568716D01*
X149309577Y-93431784D01*
X149350500Y-93279057D01*
X149350500Y-93120943D01*
X149309577Y-92968216D01*
X149309573Y-92968209D01*
X149230524Y-92831290D01*
X149230518Y-92831282D01*
X149118717Y-92719481D01*
X149118709Y-92719475D01*
X148981790Y-92640426D01*
X148981786Y-92640424D01*
X148981784Y-92640423D01*
X148829057Y-92599500D01*
X148670943Y-92599500D01*
X148518216Y-92640423D01*
X148518209Y-92640426D01*
X148381290Y-92719475D01*
X148381282Y-92719481D01*
X148269481Y-92831282D01*
X148269475Y-92831290D01*
X148190426Y-92968209D01*
X148190423Y-92968216D01*
X148149500Y-93120943D01*
X137881916Y-93120943D01*
X137880778Y-93118195D01*
X137880771Y-93118182D01*
X137804114Y-93003458D01*
X137804111Y-93003454D01*
X137706545Y-92905888D01*
X137706541Y-92905885D01*
X137591817Y-92829228D01*
X137591804Y-92829221D01*
X137464332Y-92776421D01*
X137464322Y-92776418D01*
X137328995Y-92749500D01*
X137328993Y-92749500D01*
X137191007Y-92749500D01*
X137191005Y-92749500D01*
X137055677Y-92776418D01*
X137055667Y-92776421D01*
X136928195Y-92829221D01*
X136928182Y-92829228D01*
X136813458Y-92905885D01*
X136813454Y-92905888D01*
X136715888Y-93003454D01*
X136715885Y-93003458D01*
X136639228Y-93118182D01*
X136639221Y-93118195D01*
X136586421Y-93245667D01*
X136586418Y-93245677D01*
X136559500Y-93381004D01*
X136559500Y-93381007D01*
X136559500Y-93518993D01*
X136559500Y-93518995D01*
X136559499Y-93518995D01*
X135356497Y-93518995D01*
X135356176Y-93375192D01*
X135355500Y-93072189D01*
X135355500Y-91185943D01*
X143439500Y-91185943D01*
X143439500Y-91344057D01*
X143468022Y-91450500D01*
X143480423Y-91496783D01*
X143480426Y-91496790D01*
X143559475Y-91633709D01*
X143559479Y-91633714D01*
X143559480Y-91633716D01*
X143671284Y-91745520D01*
X143671286Y-91745521D01*
X143671290Y-91745524D01*
X143808209Y-91824573D01*
X143808216Y-91824577D01*
X143960943Y-91865500D01*
X143960945Y-91865500D01*
X144119055Y-91865500D01*
X144119057Y-91865500D01*
X144271784Y-91824577D01*
X144408716Y-91745520D01*
X144520520Y-91633716D01*
X144599577Y-91496784D01*
X144640500Y-91344057D01*
X144640500Y-91185943D01*
X144599577Y-91033216D01*
X144581708Y-91002265D01*
X144555081Y-90956145D01*
X151239298Y-90956145D01*
X151239298Y-91114259D01*
X151267288Y-91218717D01*
X151280221Y-91266985D01*
X151280224Y-91266992D01*
X151359273Y-91403911D01*
X151359277Y-91403916D01*
X151359278Y-91403918D01*
X151471082Y-91515722D01*
X151471084Y-91515723D01*
X151471088Y-91515726D01*
X151608007Y-91594775D01*
X151608014Y-91594779D01*
X151760741Y-91635702D01*
X151760743Y-91635702D01*
X151918853Y-91635702D01*
X151918855Y-91635702D01*
X152071582Y-91594779D01*
X152208514Y-91515722D01*
X152294434Y-91429802D01*
X152355757Y-91396317D01*
X152425449Y-91401301D01*
X152441542Y-91408883D01*
X152443209Y-91409573D01*
X152443216Y-91409577D01*
X152595943Y-91450500D01*
X152595945Y-91450500D01*
X152754055Y-91450500D01*
X152754057Y-91450500D01*
X152906784Y-91409577D01*
X153043716Y-91330520D01*
X153155520Y-91218716D01*
X153234577Y-91081784D01*
X153275500Y-90929057D01*
X153275500Y-90770943D01*
X153234577Y-90618216D01*
X153197893Y-90554677D01*
X153155524Y-90481290D01*
X153155518Y-90481282D01*
X153043717Y-90369481D01*
X153043709Y-90369475D01*
X152906790Y-90290426D01*
X152906786Y-90290424D01*
X152906784Y-90290423D01*
X152754057Y-90249500D01*
X152595943Y-90249500D01*
X152443216Y-90290423D01*
X152443209Y-90290426D01*
X152306290Y-90369475D01*
X152306282Y-90369481D01*
X152220362Y-90455400D01*
X152159039Y-90488884D01*
X152089347Y-90483899D01*
X152073263Y-90476322D01*
X152071584Y-90475626D01*
X152071582Y-90475625D01*
X151918855Y-90434702D01*
X151760741Y-90434702D01*
X151608014Y-90475625D01*
X151608007Y-90475628D01*
X151471088Y-90554677D01*
X151471080Y-90554683D01*
X151359279Y-90666484D01*
X151359273Y-90666492D01*
X151280224Y-90803411D01*
X151280221Y-90803418D01*
X151239298Y-90956145D01*
X144555081Y-90956145D01*
X144520522Y-90896287D01*
X144520518Y-90896282D01*
X144408717Y-90784481D01*
X144408709Y-90784475D01*
X144271790Y-90705426D01*
X144271786Y-90705424D01*
X144271784Y-90705423D01*
X144119057Y-90664500D01*
X143960943Y-90664500D01*
X143808216Y-90705423D01*
X143808209Y-90705426D01*
X143671290Y-90784475D01*
X143671282Y-90784481D01*
X143559481Y-90896282D01*
X143559475Y-90896290D01*
X143480426Y-91033209D01*
X143480423Y-91033216D01*
X143439500Y-91185943D01*
X135355500Y-91185943D01*
X135355500Y-79563995D01*
X140353555Y-79563995D01*
X140380474Y-79699322D01*
X140380477Y-79699332D01*
X140433277Y-79826804D01*
X140433284Y-79826817D01*
X140509941Y-79941541D01*
X140509944Y-79941545D01*
X140607510Y-80039111D01*
X140607514Y-80039114D01*
X140722238Y-80115771D01*
X140722251Y-80115778D01*
X140849723Y-80168578D01*
X140849728Y-80168580D01*
X140849732Y-80168580D01*
X140849733Y-80168581D01*
X140985060Y-80195500D01*
X140985063Y-80195500D01*
X141123051Y-80195500D01*
X141214097Y-80177389D01*
X141258384Y-80168580D01*
X141385867Y-80115775D01*
X141500598Y-80039114D01*
X141598170Y-79941542D01*
X141674831Y-79826811D01*
X141727636Y-79699328D01*
X141754556Y-79563993D01*
X141754556Y-79426007D01*
X141754556Y-79426004D01*
X141727637Y-79290677D01*
X141727636Y-79290676D01*
X141727636Y-79290672D01*
X141727634Y-79290667D01*
X141674834Y-79163195D01*
X141674827Y-79163182D01*
X141598170Y-79048458D01*
X141598167Y-79048454D01*
X141500601Y-78950888D01*
X141500597Y-78950885D01*
X141385873Y-78874228D01*
X141385860Y-78874221D01*
X141258388Y-78821421D01*
X141258378Y-78821418D01*
X141123051Y-78794500D01*
X141123049Y-78794500D01*
X140985063Y-78794500D01*
X140985061Y-78794500D01*
X140849733Y-78821418D01*
X140849723Y-78821421D01*
X140722251Y-78874221D01*
X140722238Y-78874228D01*
X140607514Y-78950885D01*
X140607510Y-78950888D01*
X140509944Y-79048454D01*
X140509941Y-79048458D01*
X140433284Y-79163182D01*
X140433277Y-79163195D01*
X140380477Y-79290667D01*
X140380474Y-79290677D01*
X140353556Y-79426004D01*
X140353556Y-79426007D01*
X140353556Y-79563993D01*
X140353556Y-79563995D01*
X140353555Y-79563995D01*
X135355500Y-79563995D01*
X135355500Y-75203180D01*
X135375185Y-75136141D01*
X135427989Y-75090386D01*
X135479500Y-75079180D01*
X174946000Y-75079180D01*
X175013039Y-75098865D01*
G37*
%TD.AperFunction*%
%TD*%
%TA.AperFunction,Conductor*%
%TO.N,/PACK-*%
G36*
X134793039Y-75098865D02*
G01*
X134838794Y-75151669D01*
X134850000Y-75203180D01*
X134850000Y-129196820D01*
X134830315Y-129263859D01*
X134777511Y-129309614D01*
X134726000Y-129320820D01*
X132624000Y-129320820D01*
X132556961Y-129301135D01*
X132511206Y-129248331D01*
X132500000Y-129196820D01*
X132500000Y-119572838D01*
X122353180Y-119572838D01*
X122286141Y-119553153D01*
X122240386Y-119500349D01*
X122229180Y-119448838D01*
X122229180Y-114996153D01*
X124549500Y-114996153D01*
X124549500Y-115153846D01*
X124580261Y-115308489D01*
X124580264Y-115308501D01*
X124640602Y-115454172D01*
X124640609Y-115454185D01*
X124728210Y-115585288D01*
X124728213Y-115585292D01*
X124839707Y-115696786D01*
X124839711Y-115696789D01*
X124970814Y-115784390D01*
X124970827Y-115784397D01*
X125116498Y-115844735D01*
X125116503Y-115844737D01*
X125271153Y-115875499D01*
X125271156Y-115875500D01*
X125271158Y-115875500D01*
X125428844Y-115875500D01*
X125428845Y-115875499D01*
X125583497Y-115844737D01*
X125729179Y-115784394D01*
X125860289Y-115696789D01*
X125971789Y-115585289D01*
X126059394Y-115454179D01*
X126119737Y-115308497D01*
X126150500Y-115153842D01*
X126150500Y-114996158D01*
X126150500Y-114996155D01*
X126150499Y-114996153D01*
X127549500Y-114996153D01*
X127549500Y-115153846D01*
X127580261Y-115308489D01*
X127580264Y-115308501D01*
X127640602Y-115454172D01*
X127640609Y-115454185D01*
X127728210Y-115585288D01*
X127728213Y-115585292D01*
X127839707Y-115696786D01*
X127839711Y-115696789D01*
X127970814Y-115784390D01*
X127970827Y-115784397D01*
X128116498Y-115844735D01*
X128116503Y-115844737D01*
X128271153Y-115875499D01*
X128271156Y-115875500D01*
X128271158Y-115875500D01*
X128428844Y-115875500D01*
X128428845Y-115875499D01*
X128583497Y-115844737D01*
X128729179Y-115784394D01*
X128860289Y-115696789D01*
X128971789Y-115585289D01*
X129059394Y-115454179D01*
X129119737Y-115308497D01*
X129150500Y-115153842D01*
X129150500Y-114996158D01*
X129150500Y-114996155D01*
X129150499Y-114996153D01*
X129119738Y-114841510D01*
X129119737Y-114841503D01*
X129119735Y-114841498D01*
X129059397Y-114695827D01*
X129059390Y-114695814D01*
X128971789Y-114564711D01*
X128971786Y-114564707D01*
X128860292Y-114453213D01*
X128860288Y-114453210D01*
X128729185Y-114365609D01*
X128729172Y-114365602D01*
X128583501Y-114305264D01*
X128583489Y-114305261D01*
X128428845Y-114274500D01*
X128428842Y-114274500D01*
X128271158Y-114274500D01*
X128271155Y-114274500D01*
X128116510Y-114305261D01*
X128116498Y-114305264D01*
X127970827Y-114365602D01*
X127970814Y-114365609D01*
X127839711Y-114453210D01*
X127839707Y-114453213D01*
X127728213Y-114564707D01*
X127728210Y-114564711D01*
X127640609Y-114695814D01*
X127640602Y-114695827D01*
X127580264Y-114841498D01*
X127580261Y-114841510D01*
X127549500Y-114996153D01*
X126150499Y-114996153D01*
X126119738Y-114841510D01*
X126119737Y-114841503D01*
X126119735Y-114841498D01*
X126059397Y-114695827D01*
X126059390Y-114695814D01*
X125971789Y-114564711D01*
X125971786Y-114564707D01*
X125860292Y-114453213D01*
X125860288Y-114453210D01*
X125729185Y-114365609D01*
X125729172Y-114365602D01*
X125583501Y-114305264D01*
X125583489Y-114305261D01*
X125428845Y-114274500D01*
X125428842Y-114274500D01*
X125271158Y-114274500D01*
X125271155Y-114274500D01*
X125116510Y-114305261D01*
X125116498Y-114305264D01*
X124970827Y-114365602D01*
X124970814Y-114365609D01*
X124839711Y-114453210D01*
X124839707Y-114453213D01*
X124728213Y-114564707D01*
X124728210Y-114564711D01*
X124640609Y-114695814D01*
X124640602Y-114695827D01*
X124580264Y-114841498D01*
X124580261Y-114841510D01*
X124549500Y-114996153D01*
X122229180Y-114996153D01*
X122229180Y-107496153D01*
X124549500Y-107496153D01*
X124549500Y-107653846D01*
X124580261Y-107808489D01*
X124580264Y-107808501D01*
X124640602Y-107954172D01*
X124640609Y-107954185D01*
X124728210Y-108085288D01*
X124728213Y-108085292D01*
X124839707Y-108196786D01*
X124839711Y-108196789D01*
X124970814Y-108284390D01*
X124970827Y-108284397D01*
X125116498Y-108344735D01*
X125116503Y-108344737D01*
X125271153Y-108375499D01*
X125271156Y-108375500D01*
X125271158Y-108375500D01*
X125428844Y-108375500D01*
X125428845Y-108375499D01*
X125583497Y-108344737D01*
X125729179Y-108284394D01*
X125860289Y-108196789D01*
X125971789Y-108085289D01*
X126059394Y-107954179D01*
X126119737Y-107808497D01*
X126150500Y-107653842D01*
X126150500Y-107496158D01*
X126150500Y-107496155D01*
X126150499Y-107496153D01*
X127549500Y-107496153D01*
X127549500Y-107653846D01*
X127580261Y-107808489D01*
X127580264Y-107808501D01*
X127640602Y-107954172D01*
X127640609Y-107954185D01*
X127728210Y-108085288D01*
X127728213Y-108085292D01*
X127839707Y-108196786D01*
X127839711Y-108196789D01*
X127970814Y-108284390D01*
X127970827Y-108284397D01*
X128116498Y-108344735D01*
X128116503Y-108344737D01*
X128271153Y-108375499D01*
X128271156Y-108375500D01*
X128271158Y-108375500D01*
X128428844Y-108375500D01*
X128428845Y-108375499D01*
X128583497Y-108344737D01*
X128729179Y-108284394D01*
X128860289Y-108196789D01*
X128971789Y-108085289D01*
X129059394Y-107954179D01*
X129119737Y-107808497D01*
X129150500Y-107653842D01*
X129150500Y-107496158D01*
X129150500Y-107496155D01*
X129150499Y-107496153D01*
X129119738Y-107341510D01*
X129119737Y-107341503D01*
X129119735Y-107341498D01*
X129059397Y-107195827D01*
X129059390Y-107195814D01*
X128971789Y-107064711D01*
X128971786Y-107064707D01*
X128860292Y-106953213D01*
X128860288Y-106953210D01*
X128729185Y-106865609D01*
X128729172Y-106865602D01*
X128583501Y-106805264D01*
X128583489Y-106805261D01*
X128428845Y-106774500D01*
X128428842Y-106774500D01*
X128271158Y-106774500D01*
X128271155Y-106774500D01*
X128116510Y-106805261D01*
X128116498Y-106805264D01*
X127970827Y-106865602D01*
X127970814Y-106865609D01*
X127839711Y-106953210D01*
X127839707Y-106953213D01*
X127728213Y-107064707D01*
X127728210Y-107064711D01*
X127640609Y-107195814D01*
X127640602Y-107195827D01*
X127580264Y-107341498D01*
X127580261Y-107341510D01*
X127549500Y-107496153D01*
X126150499Y-107496153D01*
X126119738Y-107341510D01*
X126119737Y-107341503D01*
X126119735Y-107341498D01*
X126059397Y-107195827D01*
X126059390Y-107195814D01*
X125971789Y-107064711D01*
X125971786Y-107064707D01*
X125860292Y-106953213D01*
X125860288Y-106953210D01*
X125729185Y-106865609D01*
X125729172Y-106865602D01*
X125583501Y-106805264D01*
X125583489Y-106805261D01*
X125428845Y-106774500D01*
X125428842Y-106774500D01*
X125271158Y-106774500D01*
X125271155Y-106774500D01*
X125116510Y-106805261D01*
X125116498Y-106805264D01*
X124970827Y-106865602D01*
X124970814Y-106865609D01*
X124839711Y-106953210D01*
X124839707Y-106953213D01*
X124728213Y-107064707D01*
X124728210Y-107064711D01*
X124640609Y-107195814D01*
X124640602Y-107195827D01*
X124580264Y-107341498D01*
X124580261Y-107341510D01*
X124549500Y-107496153D01*
X122229180Y-107496153D01*
X122229180Y-99850074D01*
X122248865Y-99783035D01*
X122301669Y-99737280D01*
X122370827Y-99727336D01*
X122434383Y-99756361D01*
X122469362Y-99806741D01*
X122516202Y-99932328D01*
X122516206Y-99932335D01*
X122602452Y-100047544D01*
X122602455Y-100047547D01*
X122717664Y-100133793D01*
X122717671Y-100133797D01*
X122852517Y-100184091D01*
X122852516Y-100184091D01*
X122859444Y-100184835D01*
X122912127Y-100190500D01*
X125007872Y-100190499D01*
X125067483Y-100184091D01*
X125202331Y-100133796D01*
X125317546Y-100047546D01*
X125403796Y-99932331D01*
X125454091Y-99797483D01*
X125460500Y-99737873D01*
X125460499Y-98742128D01*
X125454091Y-98682517D01*
X125438419Y-98640499D01*
X125403797Y-98547671D01*
X125403793Y-98547664D01*
X125317547Y-98432455D01*
X125317544Y-98432452D01*
X125202335Y-98346206D01*
X125202328Y-98346202D01*
X125067482Y-98295908D01*
X125067483Y-98295908D01*
X125007883Y-98289501D01*
X125007881Y-98289500D01*
X125007873Y-98289500D01*
X125007864Y-98289500D01*
X122912129Y-98289500D01*
X122912123Y-98289501D01*
X122852516Y-98295908D01*
X122717671Y-98346202D01*
X122717664Y-98346206D01*
X122602455Y-98432452D01*
X122602452Y-98432455D01*
X122516206Y-98547664D01*
X122516202Y-98547671D01*
X122469362Y-98673258D01*
X122427491Y-98729192D01*
X122362027Y-98753609D01*
X122293754Y-98738757D01*
X122244348Y-98689352D01*
X122229180Y-98629925D01*
X122229180Y-95946762D01*
X127409500Y-95946762D01*
X127409500Y-96233237D01*
X127441572Y-96517891D01*
X127505317Y-96797181D01*
X127505321Y-96797193D01*
X127599929Y-97067565D01*
X127599935Y-97067579D01*
X127724223Y-97325666D01*
X127724225Y-97325669D01*
X127876634Y-97568227D01*
X128055243Y-97792195D01*
X128257805Y-97994757D01*
X128481773Y-98173366D01*
X128724331Y-98325775D01*
X128982428Y-98450068D01*
X128982434Y-98450070D01*
X129252806Y-98544678D01*
X129252818Y-98544682D01*
X129532102Y-98608426D01*
X129532105Y-98608426D01*
X129532108Y-98608427D01*
X129532107Y-98608427D01*
X129674434Y-98624463D01*
X129816763Y-98640499D01*
X129816764Y-98640500D01*
X129816767Y-98640500D01*
X130103236Y-98640500D01*
X130103236Y-98640499D01*
X130308815Y-98617336D01*
X130387891Y-98608427D01*
X130387892Y-98608426D01*
X130387898Y-98608426D01*
X130667182Y-98544682D01*
X130937572Y-98450068D01*
X131195669Y-98325775D01*
X131438227Y-98173366D01*
X131662195Y-97994757D01*
X131864757Y-97792195D01*
X132043366Y-97568227D01*
X132195775Y-97325669D01*
X132320068Y-97067572D01*
X132414682Y-96797182D01*
X132478426Y-96517898D01*
X132510500Y-96233233D01*
X132510500Y-95946767D01*
X132478426Y-95662102D01*
X132414682Y-95382818D01*
X132320068Y-95112428D01*
X132195775Y-94854331D01*
X132043366Y-94611773D01*
X131864757Y-94387805D01*
X131662195Y-94185243D01*
X131438227Y-94006634D01*
X131195669Y-93854225D01*
X131195666Y-93854223D01*
X130937579Y-93729935D01*
X130937565Y-93729929D01*
X130667193Y-93635321D01*
X130667181Y-93635317D01*
X130387891Y-93571572D01*
X130387892Y-93571572D01*
X130103237Y-93539500D01*
X130103233Y-93539500D01*
X129816767Y-93539500D01*
X129816762Y-93539500D01*
X129532108Y-93571572D01*
X129252818Y-93635317D01*
X129252806Y-93635321D01*
X128982434Y-93729929D01*
X128982420Y-93729935D01*
X128724333Y-93854223D01*
X128481774Y-94006633D01*
X128257805Y-94185242D01*
X128055242Y-94387805D01*
X127876633Y-94611774D01*
X127724223Y-94854333D01*
X127599935Y-95112420D01*
X127599929Y-95112434D01*
X127505321Y-95382806D01*
X127505317Y-95382818D01*
X127441572Y-95662108D01*
X127409500Y-95946762D01*
X122229180Y-95946762D01*
X122229180Y-87794731D01*
X127410000Y-87794731D01*
X127410000Y-88390000D01*
X128702986Y-88390000D01*
X128643242Y-88573874D01*
X128610000Y-88783753D01*
X128610000Y-88996247D01*
X128643242Y-89206126D01*
X128702986Y-89390000D01*
X127410000Y-89390000D01*
X127410000Y-89985268D01*
X127420215Y-90129958D01*
X127420217Y-90129968D01*
X127474313Y-90370165D01*
X127474315Y-90370172D01*
X127566244Y-90598585D01*
X127693620Y-90809289D01*
X127693627Y-90809299D01*
X127853153Y-90996846D01*
X128040700Y-91156372D01*
X128040710Y-91156379D01*
X128251414Y-91283755D01*
X128479827Y-91375684D01*
X128479834Y-91375686D01*
X128720031Y-91429782D01*
X128720041Y-91429784D01*
X128864731Y-91439999D01*
X128864734Y-91440000D01*
X129460000Y-91440000D01*
X129460000Y-90147014D01*
X129643874Y-90206758D01*
X129853753Y-90240000D01*
X130066247Y-90240000D01*
X130276126Y-90206758D01*
X130460000Y-90147014D01*
X130460000Y-91440000D01*
X131055266Y-91440000D01*
X131055268Y-91439999D01*
X131199958Y-91429784D01*
X131199968Y-91429782D01*
X131440165Y-91375686D01*
X131440172Y-91375684D01*
X131668585Y-91283755D01*
X131879289Y-91156379D01*
X131879299Y-91156372D01*
X132066846Y-90996846D01*
X132226372Y-90809299D01*
X132226379Y-90809289D01*
X132353755Y-90598585D01*
X132445684Y-90370172D01*
X132445686Y-90370165D01*
X132499782Y-90129968D01*
X132499784Y-90129958D01*
X132509999Y-89985268D01*
X132510000Y-89985266D01*
X132510000Y-89390000D01*
X131217014Y-89390000D01*
X131276758Y-89206126D01*
X131310000Y-88996247D01*
X131310000Y-88783753D01*
X131276758Y-88573874D01*
X131217014Y-88390000D01*
X132510000Y-88390000D01*
X132510000Y-87794734D01*
X132509999Y-87794731D01*
X132499784Y-87650041D01*
X132499782Y-87650031D01*
X132445686Y-87409834D01*
X132445684Y-87409827D01*
X132353755Y-87181414D01*
X132226379Y-86970710D01*
X132226372Y-86970700D01*
X132066846Y-86783153D01*
X131879299Y-86623627D01*
X131879289Y-86623620D01*
X131668585Y-86496244D01*
X131440172Y-86404315D01*
X131440165Y-86404313D01*
X131199968Y-86350217D01*
X131199958Y-86350215D01*
X131055268Y-86340000D01*
X130460000Y-86340000D01*
X130460000Y-87632985D01*
X130276126Y-87573242D01*
X130066247Y-87540000D01*
X129853753Y-87540000D01*
X129643874Y-87573242D01*
X129460000Y-87632985D01*
X129460000Y-86340000D01*
X128864731Y-86340000D01*
X128720041Y-86350215D01*
X128720031Y-86350217D01*
X128479834Y-86404313D01*
X128479827Y-86404315D01*
X128251414Y-86496244D01*
X128040710Y-86623620D01*
X128040700Y-86623627D01*
X127853153Y-86783153D01*
X127693627Y-86970700D01*
X127693620Y-86970710D01*
X127566244Y-87181414D01*
X127474315Y-87409827D01*
X127474313Y-87409834D01*
X127420217Y-87650031D01*
X127420215Y-87650041D01*
X127410000Y-87794731D01*
X122229180Y-87794731D01*
X122229180Y-86350074D01*
X122248865Y-86283035D01*
X122301669Y-86237280D01*
X122370827Y-86227336D01*
X122434383Y-86256361D01*
X122469362Y-86306741D01*
X122516202Y-86432328D01*
X122516206Y-86432335D01*
X122602452Y-86547544D01*
X122602455Y-86547547D01*
X122717664Y-86633793D01*
X122717671Y-86633797D01*
X122852517Y-86684091D01*
X122852516Y-86684091D01*
X122859444Y-86684835D01*
X122912127Y-86690500D01*
X125007872Y-86690499D01*
X125067483Y-86684091D01*
X125202331Y-86633796D01*
X125317546Y-86547546D01*
X125403796Y-86432331D01*
X125454091Y-86297483D01*
X125460500Y-86237873D01*
X125460499Y-85242128D01*
X125454091Y-85182517D01*
X125403796Y-85047669D01*
X125366846Y-84998311D01*
X125342429Y-84932848D01*
X125357280Y-84864574D01*
X125406685Y-84815169D01*
X125466113Y-84800000D01*
X131750000Y-84800000D01*
X131750000Y-75203180D01*
X131769685Y-75136141D01*
X131822489Y-75090386D01*
X131874000Y-75079180D01*
X134726000Y-75079180D01*
X134793039Y-75098865D01*
G37*
%TD.AperFunction*%
%TD*%
M02*
