M48
; DRILL file {KiCad 9.0.4} date 2026-01-29T02:42:19+0300
; FORMAT={-:-/ absolute / metric / decimal}
; #@! TF.CreationDate,2026-01-29T02:42:19+03:00
; #@! TF.GenerationSoftware,Kicad,Pcbnew,9.0.4
; #@! TF.FileFunction,Plated,1,2,PTH
FMAT,2
METRIC
; #@! TA.AperFunction,Plated,PTH,ViaDrill
T1C0.400
; #@! TA.AperFunction,Plated,PTH,ViaDrill
T2C0.600
%
G90
G05
T1
X99.2Y-72.4
X102.2Y-72.42
X103.18Y-76.0
X105.1Y-76.3
X112.43Y-70.02
X114.4Y-71.025
X118.9Y-71.025
X120.1Y-58.45
X120.1Y-61.15
T2
X124.965Y-74.525
X124.975Y-67.075
X124.975Y-69.575
X124.975Y-72.175
X127.15Y-62.425
X127.16Y-64.315
X127.16Y-77.535
X127.17Y-79.425
X129.584Y-62.425
X129.594Y-64.315
X129.594Y-77.535
X129.604Y-79.425
X132.018Y-62.425
X132.028Y-64.315
X132.028Y-77.535
X132.038Y-79.425
X134.452Y-62.425
X134.462Y-64.315
X134.462Y-77.535
X134.472Y-79.425
X136.886Y-62.425
X136.896Y-64.315
X136.896Y-77.535
X136.9Y-67.035
X136.9Y-69.535
X136.9Y-72.135
X136.9Y-74.795
X136.906Y-79.425
X139.32Y-62.425
X139.33Y-64.315
X139.33Y-67.055
X139.33Y-69.642
X139.33Y-72.228
X139.33Y-74.815
X139.33Y-77.535
X139.34Y-79.425
M30
