%TF.GenerationSoftware,KiCad,Pcbnew,9.0.4*%
%TF.CreationDate,2026-01-29T02:42:16+03:00*%
%TF.ProjectId,Voltage supply of sEMG & ADC 2.0,566f6c74-6167-4652-9073-7570706c7920,rev?*%
%TF.SameCoordinates,Original*%
%TF.FileFunction,Copper,L1,Top*%
%TF.FilePolarity,Positive*%
%FSLAX46Y46*%
G04 Gerber Fmt 4.6, Leading zero omitted, Abs format (unit mm)*
G04 Created by KiCad (PCBNEW 9.0.4) date 2026-01-29 02:42:16*
%MOMM*%
%LPD*%
G01*
G04 APERTURE LIST*
G04 Aperture macros list*
%AMRoundRect*
0 Rectangle with rounded corners*
0 $1 Rounding radius*
0 $2 $3 $4 $5 $6 $7 $8 $9 X,Y pos of 4 corners*
0 Add a 4 corners polygon primitive as box body*
4,1,4,$2,$3,$4,$5,$6,$7,$8,$9,$2,$3,0*
0 Add four circle primitives for the rounded corners*
1,1,$1+$1,$2,$3*
1,1,$1+$1,$4,$5*
1,1,$1+$1,$6,$7*
1,1,$1+$1,$8,$9*
0 Add four rect primitives between the rounded corners*
20,1,$1+$1,$2,$3,$4,$5,0*
20,1,$1+$1,$4,$5,$6,$7,0*
20,1,$1+$1,$6,$7,$8,$9,0*
20,1,$1+$1,$8,$9,$2,$3,0*%
G04 Aperture macros list end*
%TA.AperFunction,Conductor*%
%ADD10C,0.200000*%
%TD*%
%TA.AperFunction,SMDPad,CuDef*%
%ADD11RoundRect,0.135000X-0.185000X0.135000X-0.185000X-0.135000X0.185000X-0.135000X0.185000X0.135000X0*%
%TD*%
%TA.AperFunction,SMDPad,CuDef*%
%ADD12RoundRect,0.150000X0.150000X0.700000X-0.150000X0.700000X-0.150000X-0.700000X0.150000X-0.700000X0*%
%TD*%
%TA.AperFunction,SMDPad,CuDef*%
%ADD13RoundRect,0.250000X0.250000X1.100000X-0.250000X1.100000X-0.250000X-1.100000X0.250000X-1.100000X0*%
%TD*%
%TA.AperFunction,SMDPad,CuDef*%
%ADD14RoundRect,0.250000X-0.475000X0.250000X-0.475000X-0.250000X0.475000X-0.250000X0.475000X0.250000X0*%
%TD*%
%TA.AperFunction,SMDPad,CuDef*%
%ADD15RoundRect,0.150000X-0.700000X0.150000X-0.700000X-0.150000X0.700000X-0.150000X0.700000X0.150000X0*%
%TD*%
%TA.AperFunction,SMDPad,CuDef*%
%ADD16RoundRect,0.250000X-1.100000X0.250000X-1.100000X-0.250000X1.100000X-0.250000X1.100000X0.250000X0*%
%TD*%
%TA.AperFunction,SMDPad,CuDef*%
%ADD17RoundRect,0.250000X0.475000X-0.250000X0.475000X0.250000X-0.475000X0.250000X-0.475000X-0.250000X0*%
%TD*%
%TA.AperFunction,SMDPad,CuDef*%
%ADD18RoundRect,0.150000X-0.825000X-0.150000X0.825000X-0.150000X0.825000X0.150000X-0.825000X0.150000X0*%
%TD*%
%TA.AperFunction,SMDPad,CuDef*%
%ADD19RoundRect,0.225000X0.250000X-0.225000X0.250000X0.225000X-0.250000X0.225000X-0.250000X-0.225000X0*%
%TD*%
%TA.AperFunction,SMDPad,CuDef*%
%ADD20RoundRect,0.200000X-0.200000X-0.275000X0.200000X-0.275000X0.200000X0.275000X-0.200000X0.275000X0*%
%TD*%
%TA.AperFunction,SMDPad,CuDef*%
%ADD21RoundRect,0.250000X-2.050000X-0.300000X2.050000X-0.300000X2.050000X0.300000X-2.050000X0.300000X0*%
%TD*%
%TA.AperFunction,SMDPad,CuDef*%
%ADD22RoundRect,0.250002X-4.449998X-5.149998X4.449998X-5.149998X4.449998X5.149998X-4.449998X5.149998X0*%
%TD*%
%TA.AperFunction,SMDPad,CuDef*%
%ADD23RoundRect,0.200000X-0.275000X0.200000X-0.275000X-0.200000X0.275000X-0.200000X0.275000X0.200000X0*%
%TD*%
%TA.AperFunction,ViaPad*%
%ADD24C,1.000000*%
%TD*%
%TA.AperFunction,ViaPad*%
%ADD25C,0.800000*%
%TD*%
%TA.AperFunction,Conductor*%
%ADD26C,0.600000*%
%TD*%
%TA.AperFunction,Conductor*%
%ADD27C,0.400000*%
%TD*%
%TA.AperFunction,Conductor*%
%ADD28C,0.500000*%
%TD*%
G04 APERTURE END LIST*
D10*
%TO.N,Net-(U2-ADJ)*%
X123975319Y-74950000D02*
X116808930Y-74950000D01*
X116246571Y-75474869D01*
X116225000Y-76575000D01*
X115425319Y-76575000D01*
X115425319Y-73900000D01*
X123975319Y-73900000D01*
X123975319Y-74950000D01*
%TA.AperFunction,Conductor*%
G36*
X123975319Y-74950000D02*
G01*
X116808930Y-74950000D01*
X116246571Y-75474869D01*
X116225000Y-76575000D01*
X115425319Y-76575000D01*
X115425319Y-73900000D01*
X123975319Y-73900000D01*
X123975319Y-74950000D01*
G37*
%TD.AperFunction*%
%TO.N,7.4V*%
X114975000Y-67050000D02*
X123975000Y-67050000D01*
X123975000Y-69775000D01*
X114975000Y-69775000D01*
X114975000Y-67050000D01*
%TA.AperFunction,Conductor*%
G36*
X114975000Y-67050000D02*
G01*
X123975000Y-67050000D01*
X123975000Y-69775000D01*
X114975000Y-69775000D01*
X114975000Y-67050000D01*
G37*
%TD.AperFunction*%
%TO.N,5V*%
X115447500Y-72200000D02*
X124050000Y-72200000D01*
X124050000Y-73225000D01*
X115447500Y-73225000D01*
X115447500Y-72200000D01*
%TA.AperFunction,Conductor*%
G36*
X115447500Y-72200000D02*
G01*
X124050000Y-72200000D01*
X124050000Y-73225000D01*
X115447500Y-73225000D01*
X115447500Y-72200000D01*
G37*
%TD.AperFunction*%
%TD*%
D11*
%TO.P,R4,1*%
%TO.N,Net-(U3-+)*%
X103180000Y-74080000D03*
%TO.P,R4,2*%
%TO.N,GND*%
X103180000Y-75100000D03*
%TD*%
D12*
%TO.P,J2,1,1*%
%TO.N,7.4V*%
X121350000Y-59800000D03*
%TO.P,J2,2,2*%
%TO.N,GND*%
X120100000Y-59800000D03*
D13*
%TO.P,J2,MP*%
%TO.N,N/C*%
X123200000Y-56600000D03*
X118250000Y-56600000D03*
%TD*%
D14*
%TO.P,C1,1*%
%TO.N,7.4V*%
X115625000Y-69025000D03*
%TO.P,C1,2*%
%TO.N,GND*%
X115625000Y-70925000D03*
%TD*%
D15*
%TO.P,J1,1,Pin_1*%
%TO.N,5V*%
X100750000Y-69920000D03*
%TO.P,J1,2,Pin_2*%
%TO.N,2.5V*%
X100750000Y-71170000D03*
%TO.P,J1,3,Pin_3*%
%TO.N,GND*%
X100750000Y-72420000D03*
D16*
%TO.P,J1,MP*%
%TO.N,N/C*%
X97550000Y-68070000D03*
X97550000Y-74270000D03*
%TD*%
D17*
%TO.P,C2,1*%
%TO.N,5V*%
X117675000Y-72825000D03*
%TO.P,C2,2*%
%TO.N,GND*%
X117675000Y-70925000D03*
%TD*%
D11*
%TO.P,R3,1*%
%TO.N,5V*%
X112420000Y-74070000D03*
%TO.P,R3,2*%
%TO.N,Net-(U3-+)*%
X112420000Y-75090000D03*
%TD*%
D18*
%TO.P,U3,1,NC*%
%TO.N,unconnected-(U3-NC-Pad1)*%
X105090000Y-71540000D03*
%TO.P,U3,2,-*%
%TO.N,2.5V*%
X105090000Y-72810000D03*
%TO.P,U3,3,+*%
%TO.N,Net-(U3-+)*%
X105090000Y-74080000D03*
%TO.P,U3,4,V-*%
%TO.N,GND*%
X105090000Y-75350000D03*
%TO.P,U3,5,NC*%
%TO.N,unconnected-(U3-NC-Pad5)*%
X110040000Y-75350000D03*
%TO.P,U3,6*%
%TO.N,2.5V*%
X110040000Y-74080000D03*
%TO.P,U3,7,V+*%
%TO.N,5V*%
X110040000Y-72810000D03*
%TO.P,U3,8,NC*%
%TO.N,unconnected-(U3-NC-Pad8)*%
X110040000Y-71540000D03*
%TD*%
D19*
%TO.P,C3,1*%
%TO.N,5V*%
X112430000Y-72790000D03*
%TO.P,C3,2*%
%TO.N,GND*%
X112430000Y-71240000D03*
%TD*%
D20*
%TO.P,R2,1*%
%TO.N,Net-(U2-ADJ)*%
X115825000Y-76100000D03*
%TO.P,R2,2*%
%TO.N,GND*%
X117475000Y-76100000D03*
%TD*%
D21*
%TO.P,U2,1,~{SHDN}*%
%TO.N,7.4V*%
X121750000Y-67625000D03*
%TO.P,U2,2,IN*%
X121750000Y-69325000D03*
%TO.P,U2,3,GND*%
%TO.N,GND*%
X121750000Y-71025000D03*
D22*
X130900000Y-71025000D03*
D21*
%TO.P,U2,4,OUT*%
%TO.N,5V*%
X121750000Y-72725000D03*
%TO.P,U2,5,ADJ*%
%TO.N,Net-(U2-ADJ)*%
X121750000Y-74425000D03*
%TD*%
D23*
%TO.P,R1,1*%
%TO.N,5V*%
X115825000Y-72800000D03*
%TO.P,R1,2*%
%TO.N,Net-(U2-ADJ)*%
X115825000Y-74450000D03*
%TD*%
D24*
%TO.N,GND*%
X129594000Y-77535000D03*
X134462000Y-64315000D03*
X132038000Y-79425000D03*
X136896000Y-64315000D03*
X127150000Y-62425000D03*
X132018000Y-62425000D03*
X132028000Y-64315000D03*
X132028000Y-77535000D03*
X139330000Y-64315000D03*
X127160000Y-64315000D03*
D25*
X120100000Y-61150000D03*
D24*
X129604000Y-79425000D03*
X139320000Y-62425000D03*
X127170000Y-79425000D03*
X136900000Y-67035000D03*
D25*
X105100000Y-76300000D03*
D24*
X136900000Y-74795000D03*
X136900000Y-69535000D03*
X139330000Y-77535000D03*
X136896000Y-77535000D03*
X124975000Y-69575000D03*
D25*
X118900000Y-71025000D03*
D24*
X136886000Y-62425000D03*
X139330000Y-67055000D03*
X124975000Y-67075000D03*
D25*
X102200000Y-72420000D03*
D24*
X129584000Y-62425000D03*
X134462000Y-77535000D03*
X136900000Y-72135000D03*
X134472000Y-79425000D03*
X127160000Y-77535000D03*
X139330000Y-69641667D03*
D25*
X120100000Y-58450000D03*
D24*
X139340000Y-79425000D03*
D25*
X112430000Y-70020000D03*
D24*
X139330000Y-72228333D03*
X136906000Y-79425000D03*
X124975000Y-72175000D03*
X129594000Y-64315000D03*
D25*
X114400000Y-71025000D03*
X99200000Y-72400000D03*
D24*
X124965000Y-74525000D03*
X134452000Y-62425000D03*
D25*
X103180000Y-76000000D03*
D24*
X139330000Y-74815000D03*
%TD*%
D26*
%TO.N,7.4V*%
X121750000Y-67625000D02*
X121300000Y-67175000D01*
X121350000Y-59800000D02*
X121350000Y-67225000D01*
D27*
X121350000Y-67225000D02*
X121750000Y-67625000D01*
D26*
%TO.N,5V*%
X108710000Y-72810000D02*
X105820000Y-69920000D01*
D27*
X112430000Y-74060000D02*
X112420000Y-74070000D01*
X112430000Y-72790000D02*
X112430000Y-74060000D01*
D26*
X112410000Y-72810000D02*
X108710000Y-72810000D01*
X115825000Y-72800000D02*
X112430000Y-72800000D01*
X105820000Y-69920000D02*
X100750000Y-69920000D01*
X112430000Y-72790000D02*
X112410000Y-72810000D01*
X112430000Y-72800000D02*
X112420000Y-72810000D01*
%TO.N,2.5V*%
X110040000Y-74080000D02*
X108080000Y-74080000D01*
X108080000Y-74080000D02*
X106810000Y-72810000D01*
X104020000Y-72810000D02*
X102380000Y-71170000D01*
X106810000Y-72810000D02*
X105090000Y-72810000D01*
X105090000Y-72810000D02*
X104020000Y-72810000D01*
X102380000Y-71170000D02*
X100750000Y-71170000D01*
D28*
%TO.N,Net-(U3-+)*%
X105090000Y-74080000D02*
X103180000Y-74080000D01*
X106650000Y-74080000D02*
X105090000Y-74080000D01*
X111780000Y-76370000D02*
X108940000Y-76370000D01*
X112420000Y-75730000D02*
X111780000Y-76370000D01*
X112420000Y-75090000D02*
X112420000Y-75730000D01*
X108940000Y-76370000D02*
X106650000Y-74080000D01*
%TD*%
%TA.AperFunction,Conductor*%
%TO.N,GND*%
G36*
X146814111Y-54720185D02*
G01*
X146859866Y-54772989D01*
X146869810Y-54842147D01*
X146840785Y-54905703D01*
X146782007Y-54943477D01*
X146768604Y-54946616D01*
X146757491Y-54948575D01*
X146757480Y-54948577D01*
X146560832Y-55001269D01*
X146390533Y-55046901D01*
X146390530Y-55046902D01*
X146390529Y-55046902D01*
X146191123Y-55119480D01*
X146033550Y-55176833D01*
X146033546Y-55176834D01*
X146033540Y-55176837D01*
X145689257Y-55337378D01*
X145689242Y-55337386D01*
X145360259Y-55527325D01*
X145360233Y-55527341D01*
X145049058Y-55745228D01*
X144758041Y-55989421D01*
X144489421Y-56258041D01*
X144245228Y-56549058D01*
X144027341Y-56860233D01*
X144027325Y-56860259D01*
X143837386Y-57189242D01*
X143837378Y-57189257D01*
X143676837Y-57533540D01*
X143577910Y-57805338D01*
X143546901Y-57890533D01*
X143504090Y-58050305D01*
X143448577Y-58257480D01*
X143448575Y-58257491D01*
X143382610Y-58631598D01*
X143382610Y-58631602D01*
X143349500Y-59010049D01*
X143349500Y-59389950D01*
X143382610Y-59768397D01*
X143382610Y-59768401D01*
X143413312Y-59942519D01*
X143448577Y-60142518D01*
X143546901Y-60509467D01*
X143676833Y-60866450D01*
X143676836Y-60866457D01*
X143676837Y-60866459D01*
X143837378Y-61210742D01*
X143837383Y-61210751D01*
X144027330Y-61539749D01*
X144027334Y-61539755D01*
X144027341Y-61539766D01*
X144245228Y-61850941D01*
X144321599Y-61941956D01*
X144489419Y-62141956D01*
X144758044Y-62410581D01*
X144810708Y-62454771D01*
X145049058Y-62654771D01*
X145360233Y-62872658D01*
X145360240Y-62872662D01*
X145360251Y-62872670D01*
X145620911Y-63023162D01*
X145689242Y-63062613D01*
X145689257Y-63062621D01*
X145842271Y-63133972D01*
X146033550Y-63223167D01*
X146390533Y-63353099D01*
X146757482Y-63451423D01*
X147131605Y-63517390D01*
X147510051Y-63550499D01*
X147510052Y-63550500D01*
X147510053Y-63550500D01*
X147889948Y-63550500D01*
X147889948Y-63550499D01*
X148268395Y-63517390D01*
X148642518Y-63451423D01*
X149009467Y-63353099D01*
X149366450Y-63223167D01*
X149710751Y-63062617D01*
X150039749Y-62872670D01*
X150350940Y-62654772D01*
X150641956Y-62410581D01*
X150910581Y-62141956D01*
X151154772Y-61850940D01*
X151372670Y-61539749D01*
X151562617Y-61210751D01*
X151723167Y-60866450D01*
X151783979Y-60699369D01*
X151825405Y-60643108D01*
X151890673Y-60618173D01*
X151959062Y-60632483D01*
X152008857Y-60681495D01*
X152024500Y-60741783D01*
X152024500Y-79505981D01*
X152004815Y-79573020D01*
X151952011Y-79618775D01*
X151882853Y-79628719D01*
X151819297Y-79599694D01*
X151788118Y-79558386D01*
X151662621Y-79289258D01*
X151662613Y-79289242D01*
X151650688Y-79268588D01*
X151472670Y-78960251D01*
X151472662Y-78960240D01*
X151472658Y-78960233D01*
X151254771Y-78649058D01*
X151010578Y-78358041D01*
X150741958Y-78089421D01*
X150450941Y-77845228D01*
X150139766Y-77627341D01*
X150139755Y-77627334D01*
X150139749Y-77627330D01*
X149966535Y-77527325D01*
X149810757Y-77437386D01*
X149810742Y-77437378D01*
X149466459Y-77276837D01*
X149466457Y-77276836D01*
X149466450Y-77276833D01*
X149109467Y-77146901D01*
X148876832Y-77084566D01*
X148742519Y-77048577D01*
X148742508Y-77048575D01*
X148368399Y-76982610D01*
X147989950Y-76949500D01*
X147989947Y-76949500D01*
X147610053Y-76949500D01*
X147610049Y-76949500D01*
X147231602Y-76982610D01*
X147231598Y-76982610D01*
X146857491Y-77048575D01*
X146857480Y-77048577D01*
X146660832Y-77101269D01*
X146490533Y-77146901D01*
X146490530Y-77146902D01*
X146490529Y-77146902D01*
X146291123Y-77219480D01*
X146133550Y-77276833D01*
X146133546Y-77276834D01*
X146133540Y-77276837D01*
X145789257Y-77437378D01*
X145789242Y-77437386D01*
X145460259Y-77627325D01*
X145460233Y-77627341D01*
X145149058Y-77845228D01*
X144858041Y-78089421D01*
X144589421Y-78358041D01*
X144345228Y-78649058D01*
X144127341Y-78960233D01*
X144127325Y-78960259D01*
X143937386Y-79289242D01*
X143937378Y-79289257D01*
X143776837Y-79633540D01*
X143776834Y-79633546D01*
X143776833Y-79633550D01*
X143719480Y-79791123D01*
X143646902Y-79990529D01*
X143646902Y-79990531D01*
X143548577Y-80357480D01*
X143548575Y-80357491D01*
X143482610Y-80731598D01*
X143482610Y-80731602D01*
X143449500Y-81110049D01*
X143449500Y-81489950D01*
X143482610Y-81868397D01*
X143482610Y-81868401D01*
X143548575Y-82242508D01*
X143548577Y-82242518D01*
X143646901Y-82609467D01*
X143776833Y-82966450D01*
X143776836Y-82966457D01*
X143776837Y-82966459D01*
X143937378Y-83310742D01*
X143937383Y-83310751D01*
X144127330Y-83639749D01*
X144127334Y-83639755D01*
X144127341Y-83639766D01*
X144345228Y-83950941D01*
X144505509Y-84141956D01*
X144589419Y-84241956D01*
X144858044Y-84510581D01*
X144979046Y-84612113D01*
X145149058Y-84754771D01*
X145460233Y-84972658D01*
X145460240Y-84972662D01*
X145460251Y-84972670D01*
X145616037Y-85062613D01*
X145789242Y-85162613D01*
X145789257Y-85162621D01*
X145919088Y-85223162D01*
X146133550Y-85323167D01*
X146231942Y-85358979D01*
X146288205Y-85400405D01*
X146313140Y-85465673D01*
X146298830Y-85534062D01*
X146249818Y-85583858D01*
X146189530Y-85599500D01*
X101331758Y-85599500D01*
X101264719Y-85579815D01*
X101218964Y-85527011D01*
X101209020Y-85457853D01*
X101238045Y-85394297D01*
X101296823Y-85356523D01*
X101299663Y-85355726D01*
X101299830Y-85355680D01*
X101309467Y-85353099D01*
X101666450Y-85223167D01*
X102010751Y-85062617D01*
X102339749Y-84872670D01*
X102650940Y-84654772D01*
X102941956Y-84410581D01*
X103210581Y-84141956D01*
X103454772Y-83850940D01*
X103672670Y-83539749D01*
X103862617Y-83210751D01*
X104023167Y-82866450D01*
X104153099Y-82509467D01*
X104251423Y-82142518D01*
X104317390Y-81768395D01*
X104350500Y-81389947D01*
X104350500Y-81010053D01*
X104317390Y-80631605D01*
X104251423Y-80257482D01*
X104153099Y-79890533D01*
X104023167Y-79533550D01*
X103909252Y-79289258D01*
X103862621Y-79189257D01*
X103862613Y-79189242D01*
X103850688Y-79168588D01*
X103672670Y-78860251D01*
X103672662Y-78860240D01*
X103672658Y-78860233D01*
X103454771Y-78549058D01*
X103210578Y-78258041D01*
X102941958Y-77989421D01*
X102650941Y-77745228D01*
X102339766Y-77527341D01*
X102339755Y-77527334D01*
X102339749Y-77527330D01*
X102242004Y-77470897D01*
X102010757Y-77337386D01*
X102010742Y-77337378D01*
X101666459Y-77176837D01*
X101666457Y-77176836D01*
X101666450Y-77176833D01*
X101309467Y-77046901D01*
X101076832Y-76984566D01*
X100942519Y-76948577D01*
X100942508Y-76948575D01*
X100568399Y-76882610D01*
X100189950Y-76849500D01*
X100189947Y-76849500D01*
X99810053Y-76849500D01*
X99810049Y-76849500D01*
X99431602Y-76882610D01*
X99431598Y-76882610D01*
X99057491Y-76948575D01*
X99057480Y-76948577D01*
X98860832Y-77001269D01*
X98690533Y-77046901D01*
X98690530Y-77046902D01*
X98690529Y-77046902D01*
X98491123Y-77119480D01*
X98333550Y-77176833D01*
X98333546Y-77176834D01*
X98333540Y-77176837D01*
X97989257Y-77337378D01*
X97989242Y-77337386D01*
X97660259Y-77527325D01*
X97660233Y-77527341D01*
X97349058Y-77745228D01*
X97058041Y-77989421D01*
X96789421Y-78258041D01*
X96545228Y-78549058D01*
X96327341Y-78860233D01*
X96327325Y-78860259D01*
X96137386Y-79189242D01*
X96137378Y-79189257D01*
X95976837Y-79533540D01*
X95976834Y-79533546D01*
X95976833Y-79533550D01*
X95941020Y-79631942D01*
X95899595Y-79688205D01*
X95834327Y-79713140D01*
X95765938Y-79698830D01*
X95716142Y-79649818D01*
X95700500Y-79589530D01*
X95700500Y-73973085D01*
X95959500Y-73973085D01*
X95959500Y-73973092D01*
X95959500Y-73973093D01*
X95959500Y-74566912D01*
X95959501Y-74566918D01*
X95965780Y-74625335D01*
X96015069Y-74757485D01*
X96015070Y-74757487D01*
X96015071Y-74757489D01*
X96099597Y-74870403D01*
X96212511Y-74954929D01*
X96344665Y-75004219D01*
X96403085Y-75010500D01*
X98696914Y-75010499D01*
X98755335Y-75004219D01*
X98887489Y-74954929D01*
X99000403Y-74870403D01*
X99084929Y-74757489D01*
X99134219Y-74625335D01*
X99140500Y-74566915D01*
X99140499Y-73973086D01*
X99134219Y-73914665D01*
X99128749Y-73900000D01*
X99084930Y-73782514D01*
X99084929Y-73782511D01*
X99000403Y-73669597D01*
X98901323Y-73595427D01*
X98887492Y-73585073D01*
X98887490Y-73585072D01*
X98887489Y-73585071D01*
X98887487Y-73585070D01*
X98887485Y-73585069D01*
X98755338Y-73535782D01*
X98755337Y-73535781D01*
X98755335Y-73535781D01*
X98696915Y-73529500D01*
X98696905Y-73529500D01*
X96403087Y-73529500D01*
X96403081Y-73529501D01*
X96344664Y-73535780D01*
X96212514Y-73585069D01*
X96212507Y-73585073D01*
X96099597Y-73669597D01*
X96015073Y-73782507D01*
X96015069Y-73782514D01*
X95967758Y-73909364D01*
X95965781Y-73914665D01*
X95959500Y-73973085D01*
X95700500Y-73973085D01*
X95700500Y-69739264D01*
X99659500Y-69739264D01*
X99659500Y-70100739D01*
X99673981Y-70192170D01*
X99673981Y-70192171D01*
X99730142Y-70302392D01*
X99730145Y-70302396D01*
X99817603Y-70389854D01*
X99817605Y-70389855D01*
X99817609Y-70389859D01*
X99905253Y-70434515D01*
X99956048Y-70482490D01*
X99972843Y-70550311D01*
X99950305Y-70616446D01*
X99905253Y-70655483D01*
X99817609Y-70700141D01*
X99817608Y-70700142D01*
X99817603Y-70700145D01*
X99730145Y-70787603D01*
X99730142Y-70787608D01*
X99673981Y-70897827D01*
X99673981Y-70897828D01*
X99659500Y-70989264D01*
X99659500Y-71350739D01*
X99673981Y-71442170D01*
X99673981Y-71442171D01*
X99730142Y-71552392D01*
X99730145Y-71552396D01*
X99817603Y-71639854D01*
X99817605Y-71639855D01*
X99817609Y-71639859D01*
X99927825Y-71696017D01*
X99927826Y-71696017D01*
X99927828Y-71696018D01*
X99962947Y-71701579D01*
X100019265Y-71710500D01*
X100664399Y-71710499D01*
X100664409Y-71710500D01*
X100678842Y-71710500D01*
X102104755Y-71710500D01*
X102171794Y-71730185D01*
X102192436Y-71746819D01*
X103583151Y-73137533D01*
X103583158Y-73137546D01*
X103583161Y-73137544D01*
X103587491Y-73141874D01*
X103587492Y-73141875D01*
X103688125Y-73242508D01*
X103766261Y-73287620D01*
X103811374Y-73313666D01*
X103931024Y-73345725D01*
X103990684Y-73382090D01*
X104021213Y-73444937D01*
X104012918Y-73514312D01*
X103968433Y-73568190D01*
X103901881Y-73589465D01*
X103898930Y-73589500D01*
X103521472Y-73589500D01*
X103519036Y-73588936D01*
X103517132Y-73589424D01*
X103507912Y-73586362D01*
X103483527Y-73580720D01*
X103482830Y-73582978D01*
X103473629Y-73580135D01*
X103473626Y-73580134D01*
X103473625Y-73580134D01*
X103400636Y-73569500D01*
X102959364Y-73569500D01*
X102886375Y-73580134D01*
X102886373Y-73580134D01*
X102886371Y-73580135D01*
X102773789Y-73635172D01*
X102685172Y-73723789D01*
X102630135Y-73836371D01*
X102630134Y-73836373D01*
X102630134Y-73836375D01*
X102619500Y-73909364D01*
X102619500Y-74250636D01*
X102630134Y-74323625D01*
X102630134Y-74323626D01*
X102630135Y-74323628D01*
X102685172Y-74436210D01*
X102773789Y-74524827D01*
X102881572Y-74577518D01*
X102886375Y-74579866D01*
X102959364Y-74590500D01*
X102959370Y-74590500D01*
X103400630Y-74590500D01*
X103400636Y-74590500D01*
X103473625Y-74579866D01*
X103473629Y-74579863D01*
X103482830Y-74577022D01*
X103483527Y-74579279D01*
X103521472Y-74570500D01*
X104043349Y-74570500D01*
X104099643Y-74584014D01*
X104142825Y-74606017D01*
X104142826Y-74606017D01*
X104142828Y-74606018D01*
X104177947Y-74611579D01*
X104234265Y-74620500D01*
X105945734Y-74620499D01*
X105945739Y-74620499D01*
X105945739Y-74620498D01*
X105991454Y-74613258D01*
X106037170Y-74606018D01*
X106037170Y-74606017D01*
X106037175Y-74606017D01*
X106072423Y-74588056D01*
X106080357Y-74584015D01*
X106136651Y-74570500D01*
X106395466Y-74570500D01*
X106462505Y-74590185D01*
X106483147Y-74606819D01*
X108638826Y-76762498D01*
X108750674Y-76827074D01*
X108875424Y-76860500D01*
X108875426Y-76860500D01*
X111844574Y-76860500D01*
X111844576Y-76860500D01*
X111969326Y-76827074D01*
X112081174Y-76762498D01*
X112812498Y-76031174D01*
X112877074Y-75919326D01*
X112910500Y-75794576D01*
X112910500Y-75665424D01*
X112910500Y-75483747D01*
X112923100Y-75429286D01*
X112969865Y-75333627D01*
X112969864Y-75333627D01*
X112969866Y-75333625D01*
X112980500Y-75260636D01*
X112980500Y-74919364D01*
X112969866Y-74846375D01*
X112958919Y-74823983D01*
X112914827Y-74733789D01*
X112848719Y-74667681D01*
X112815234Y-74606358D01*
X112820218Y-74536666D01*
X112848719Y-74492319D01*
X112914825Y-74426212D01*
X112914827Y-74426210D01*
X112951022Y-74352171D01*
X112969866Y-74313625D01*
X112980500Y-74240636D01*
X112980500Y-73899364D01*
X112969866Y-73826375D01*
X112967518Y-73821572D01*
X112914827Y-73713789D01*
X112906819Y-73705781D01*
X112892115Y-73678853D01*
X112875523Y-73653035D01*
X112874631Y-73646834D01*
X112873334Y-73644458D01*
X112870500Y-73618100D01*
X112870500Y-73515552D01*
X112890185Y-73448513D01*
X112920865Y-73415782D01*
X112990041Y-73364729D01*
X113055670Y-73340759D01*
X113063674Y-73340500D01*
X115049417Y-73340500D01*
X115116456Y-73360185D01*
X115156805Y-73402501D01*
X115175031Y-73434071D01*
X115205372Y-73464412D01*
X115238857Y-73525735D01*
X115233873Y-73595427D01*
X115197399Y-73647081D01*
X115160652Y-73677916D01*
X115160648Y-73677920D01*
X115100656Y-73781829D01*
X115100654Y-73781834D01*
X115079819Y-73899997D01*
X115079819Y-76575004D01*
X115085067Y-76634992D01*
X115085068Y-76634997D01*
X115126104Y-76747746D01*
X115126108Y-76747751D01*
X115171820Y-76802229D01*
X115203236Y-76839668D01*
X115307151Y-76899664D01*
X115425319Y-76920500D01*
X115425321Y-76920500D01*
X116225000Y-76920500D01*
X116278314Y-76916362D01*
X116391851Y-76877541D01*
X116485264Y-76802229D01*
X116547285Y-76699510D01*
X116570434Y-76581773D01*
X116588111Y-75680172D01*
X116609106Y-75613536D01*
X116627475Y-75591961D01*
X116909382Y-75328849D01*
X116971823Y-75297497D01*
X116993989Y-75295500D01*
X123975320Y-75295500D01*
X123975320Y-75295499D01*
X124035314Y-75290251D01*
X124072899Y-75276571D01*
X124148065Y-75249214D01*
X124148066Y-75249213D01*
X124148069Y-75249212D01*
X124239987Y-75172083D01*
X124299983Y-75068168D01*
X124320819Y-74950000D01*
X124320819Y-73900000D01*
X124315570Y-73840005D01*
X124303858Y-73807825D01*
X124274533Y-73727253D01*
X124274529Y-73727248D01*
X124234447Y-73679480D01*
X124206434Y-73615472D01*
X124217473Y-73546480D01*
X124253949Y-73501398D01*
X124259061Y-73497473D01*
X124259072Y-73497468D01*
X124322468Y-73434072D01*
X124367295Y-73356428D01*
X124390500Y-73269828D01*
X124390500Y-72155172D01*
X124367295Y-72068572D01*
X124322468Y-71990928D01*
X124259072Y-71927532D01*
X124259071Y-71927531D01*
X124181428Y-71882705D01*
X124181429Y-71882705D01*
X124152561Y-71874970D01*
X124094828Y-71859500D01*
X115492328Y-71859500D01*
X115402672Y-71859500D01*
X115344938Y-71874970D01*
X115316071Y-71882705D01*
X115238428Y-71927531D01*
X115175031Y-71990928D01*
X115130205Y-72068571D01*
X115130205Y-72068572D01*
X115108709Y-72148796D01*
X115104897Y-72163022D01*
X115102704Y-72162434D01*
X115079191Y-72215584D01*
X115020866Y-72254054D01*
X114984520Y-72259500D01*
X113090773Y-72259500D01*
X113023734Y-72239815D01*
X113017140Y-72235270D01*
X112899971Y-72148796D01*
X112899970Y-72148795D01*
X112767520Y-72102448D01*
X112736075Y-72099500D01*
X112123935Y-72099500D01*
X112106683Y-72101117D01*
X112092481Y-72102449D01*
X112092479Y-72102449D01*
X112092475Y-72102450D01*
X111960031Y-72148795D01*
X111847118Y-72232128D01*
X111846060Y-72233187D01*
X111844616Y-72233975D01*
X111839648Y-72237642D01*
X111839145Y-72236961D01*
X111784735Y-72266668D01*
X111758385Y-72269500D01*
X111104313Y-72269500D01*
X111037274Y-72249815D01*
X110991519Y-72197011D01*
X110981575Y-72127853D01*
X111010600Y-72064297D01*
X111048014Y-72035017D01*
X111097391Y-72009859D01*
X111184859Y-71922391D01*
X111241017Y-71812175D01*
X111241017Y-71812173D01*
X111241018Y-71812172D01*
X111241018Y-71812171D01*
X111244901Y-71787650D01*
X111255500Y-71720735D01*
X111255499Y-71359266D01*
X111255499Y-71359264D01*
X111255499Y-71359260D01*
X111241018Y-71267829D01*
X111241018Y-71267828D01*
X111241017Y-71267826D01*
X111241017Y-71267825D01*
X111184859Y-71157609D01*
X111184857Y-71157607D01*
X111184854Y-71157603D01*
X111097396Y-71070145D01*
X111097393Y-71070143D01*
X111097391Y-71070141D01*
X110987175Y-71013983D01*
X110987174Y-71013982D01*
X110987171Y-71013981D01*
X110895735Y-70999500D01*
X109184260Y-70999500D01*
X109184260Y-70999501D01*
X109092829Y-71013981D01*
X109092828Y-71013981D01*
X108982607Y-71070142D01*
X108982603Y-71070145D01*
X108895145Y-71157603D01*
X108895142Y-71157608D01*
X108838981Y-71267827D01*
X108838981Y-71267828D01*
X108824500Y-71359264D01*
X108824500Y-71720739D01*
X108838981Y-71812170D01*
X108838982Y-71812174D01*
X108860056Y-71853533D01*
X108872952Y-71922202D01*
X108846675Y-71986942D01*
X108789569Y-72027199D01*
X108719763Y-72030191D01*
X108661890Y-71997508D01*
X107513524Y-70849142D01*
X106151875Y-69487492D01*
X106151874Y-69487491D01*
X106151871Y-69487489D01*
X106028627Y-69416335D01*
X106028626Y-69416334D01*
X106028625Y-69416334D01*
X105891158Y-69379500D01*
X100678842Y-69379500D01*
X100678839Y-69379500D01*
X100019260Y-69379500D01*
X100019260Y-69379501D01*
X99927829Y-69393981D01*
X99927828Y-69393981D01*
X99817607Y-69450142D01*
X99817603Y-69450145D01*
X99730145Y-69537603D01*
X99730142Y-69537608D01*
X99673981Y-69647827D01*
X99673981Y-69647828D01*
X99659500Y-69739264D01*
X95700500Y-69739264D01*
X95700500Y-67773085D01*
X95959500Y-67773085D01*
X95959500Y-67773092D01*
X95959500Y-67773093D01*
X95959500Y-68366912D01*
X95959501Y-68366918D01*
X95965780Y-68425335D01*
X96015069Y-68557485D01*
X96015070Y-68557487D01*
X96015071Y-68557489D01*
X96099597Y-68670403D01*
X96212511Y-68754929D01*
X96344665Y-68804219D01*
X96403085Y-68810500D01*
X98696914Y-68810499D01*
X98755335Y-68804219D01*
X98887489Y-68754929D01*
X99000403Y-68670403D01*
X99084929Y-68557489D01*
X99134219Y-68425335D01*
X99140500Y-68366915D01*
X99140499Y-67773086D01*
X99134219Y-67714665D01*
X99084929Y-67582511D01*
X99000403Y-67469597D01*
X98887489Y-67385071D01*
X98887487Y-67385070D01*
X98887485Y-67385069D01*
X98755338Y-67335782D01*
X98755337Y-67335781D01*
X98755335Y-67335781D01*
X98696915Y-67329500D01*
X98696905Y-67329500D01*
X96403087Y-67329500D01*
X96403081Y-67329501D01*
X96344664Y-67335780D01*
X96212514Y-67385069D01*
X96212507Y-67385073D01*
X96099597Y-67469597D01*
X96015073Y-67582507D01*
X96015069Y-67582514D01*
X95965782Y-67714661D01*
X95965781Y-67714665D01*
X95959500Y-67773085D01*
X95700500Y-67773085D01*
X95700500Y-67005172D01*
X114634500Y-67005172D01*
X114634500Y-69819828D01*
X114657705Y-69906428D01*
X114702532Y-69984072D01*
X114765928Y-70047468D01*
X114843572Y-70092295D01*
X114930172Y-70115500D01*
X114930174Y-70115500D01*
X124019826Y-70115500D01*
X124019828Y-70115500D01*
X124106428Y-70092295D01*
X124184072Y-70047468D01*
X124247468Y-69984072D01*
X124292295Y-69906428D01*
X124315500Y-69819828D01*
X124315500Y-67005172D01*
X124292295Y-66918572D01*
X124247468Y-66840928D01*
X124184072Y-66777532D01*
X124184071Y-66777531D01*
X124106428Y-66732705D01*
X124106429Y-66732705D01*
X124077561Y-66724970D01*
X124019828Y-66709500D01*
X124019826Y-66709500D01*
X122014500Y-66709500D01*
X121947461Y-66689815D01*
X121901706Y-66637011D01*
X121890500Y-66585500D01*
X121890500Y-59718853D01*
X121890499Y-59718839D01*
X121890499Y-59069260D01*
X121876018Y-58977829D01*
X121876018Y-58977828D01*
X121876017Y-58977826D01*
X121876017Y-58977825D01*
X121819859Y-58867609D01*
X121819857Y-58867607D01*
X121819854Y-58867603D01*
X121732396Y-58780145D01*
X121732393Y-58780143D01*
X121732391Y-58780141D01*
X121622175Y-58723983D01*
X121622174Y-58723982D01*
X121622171Y-58723981D01*
X121530735Y-58709500D01*
X121169260Y-58709500D01*
X121169260Y-58709501D01*
X121077829Y-58723981D01*
X121077828Y-58723981D01*
X120967607Y-58780142D01*
X120967603Y-58780145D01*
X120880145Y-58867603D01*
X120880142Y-58867608D01*
X120823981Y-58977827D01*
X120823981Y-58977828D01*
X120809500Y-59069264D01*
X120809500Y-66585500D01*
X120789815Y-66652539D01*
X120737011Y-66698294D01*
X120685500Y-66709500D01*
X115019828Y-66709500D01*
X114930172Y-66709500D01*
X114872438Y-66724970D01*
X114843571Y-66732705D01*
X114765928Y-66777531D01*
X114702531Y-66840928D01*
X114657705Y-66918571D01*
X114657705Y-66918572D01*
X114634500Y-67005172D01*
X95700500Y-67005172D01*
X95700500Y-60740405D01*
X95720185Y-60673366D01*
X95772989Y-60627611D01*
X95842147Y-60617667D01*
X95905703Y-60646692D01*
X95936882Y-60688001D01*
X96087373Y-61010733D01*
X96087383Y-61010751D01*
X96277330Y-61339749D01*
X96277334Y-61339755D01*
X96277341Y-61339766D01*
X96495228Y-61650941D01*
X96663048Y-61850940D01*
X96739419Y-61941956D01*
X97008044Y-62210581D01*
X97129046Y-62312113D01*
X97299058Y-62454771D01*
X97610233Y-62672658D01*
X97610240Y-62672662D01*
X97610251Y-62672670D01*
X97918588Y-62850688D01*
X97939242Y-62862613D01*
X97939257Y-62862621D01*
X97960816Y-62872674D01*
X98283550Y-63023167D01*
X98640533Y-63153099D01*
X99007482Y-63251423D01*
X99381605Y-63317390D01*
X99760051Y-63350499D01*
X99760052Y-63350500D01*
X99760053Y-63350500D01*
X100139948Y-63350500D01*
X100139948Y-63350499D01*
X100518395Y-63317390D01*
X100892518Y-63251423D01*
X101259467Y-63153099D01*
X101616450Y-63023167D01*
X101960751Y-62862617D01*
X102289749Y-62672670D01*
X102600940Y-62454772D01*
X102891956Y-62210581D01*
X103160581Y-61941956D01*
X103404772Y-61650940D01*
X103622670Y-61339749D01*
X103812617Y-61010751D01*
X103973167Y-60666450D01*
X104103099Y-60309467D01*
X104201423Y-59942518D01*
X104267390Y-59568395D01*
X104300500Y-59189947D01*
X104300500Y-58810053D01*
X104267390Y-58431605D01*
X104201423Y-58057482D01*
X104103099Y-57690533D01*
X103973167Y-57333550D01*
X103812617Y-56989249D01*
X103622670Y-56660251D01*
X103622662Y-56660240D01*
X103622658Y-56660233D01*
X103404771Y-56349058D01*
X103160578Y-56058041D01*
X102891958Y-55789421D01*
X102600943Y-55545230D01*
X102469347Y-55453085D01*
X117509500Y-55453085D01*
X117509500Y-55453092D01*
X117509500Y-55453093D01*
X117509500Y-57746912D01*
X117509501Y-57746918D01*
X117515780Y-57805335D01*
X117565069Y-57937485D01*
X117565070Y-57937487D01*
X117565071Y-57937489D01*
X117649597Y-58050403D01*
X117762511Y-58134929D01*
X117894665Y-58184219D01*
X117953085Y-58190500D01*
X118546914Y-58190499D01*
X118605335Y-58184219D01*
X118737489Y-58134929D01*
X118850403Y-58050403D01*
X118934929Y-57937489D01*
X118984219Y-57805335D01*
X118990500Y-57746915D01*
X118990499Y-55453086D01*
X118990499Y-55453085D01*
X122459500Y-55453085D01*
X122459500Y-55453092D01*
X122459500Y-55453093D01*
X122459500Y-57746912D01*
X122459501Y-57746918D01*
X122465780Y-57805335D01*
X122515069Y-57937485D01*
X122515070Y-57937487D01*
X122515071Y-57937489D01*
X122599597Y-58050403D01*
X122712511Y-58134929D01*
X122844665Y-58184219D01*
X122903085Y-58190500D01*
X123496914Y-58190499D01*
X123555335Y-58184219D01*
X123687489Y-58134929D01*
X123800403Y-58050403D01*
X123884929Y-57937489D01*
X123934219Y-57805335D01*
X123940500Y-57746915D01*
X123940499Y-55453086D01*
X123934219Y-55394665D01*
X123912855Y-55337386D01*
X123884930Y-55262514D01*
X123884929Y-55262511D01*
X123800403Y-55149597D01*
X123687489Y-55065071D01*
X123687487Y-55065070D01*
X123687485Y-55065069D01*
X123555338Y-55015782D01*
X123555337Y-55015781D01*
X123555335Y-55015781D01*
X123496915Y-55009500D01*
X123496905Y-55009500D01*
X122903087Y-55009500D01*
X122903081Y-55009501D01*
X122844664Y-55015780D01*
X122712514Y-55065069D01*
X122712507Y-55065073D01*
X122599597Y-55149597D01*
X122515073Y-55262507D01*
X122515069Y-55262514D01*
X122465782Y-55394661D01*
X122465781Y-55394665D01*
X122459500Y-55453085D01*
X118990499Y-55453085D01*
X118984219Y-55394665D01*
X118962855Y-55337386D01*
X118934930Y-55262514D01*
X118934929Y-55262511D01*
X118850403Y-55149597D01*
X118737489Y-55065071D01*
X118737487Y-55065070D01*
X118737485Y-55065069D01*
X118605338Y-55015782D01*
X118605337Y-55015781D01*
X118605335Y-55015781D01*
X118546915Y-55009500D01*
X118546905Y-55009500D01*
X117953087Y-55009500D01*
X117953081Y-55009501D01*
X117894664Y-55015780D01*
X117762514Y-55065069D01*
X117762507Y-55065073D01*
X117649597Y-55149597D01*
X117565073Y-55262507D01*
X117565069Y-55262514D01*
X117515782Y-55394661D01*
X117515781Y-55394665D01*
X117509500Y-55453085D01*
X102469347Y-55453085D01*
X102289766Y-55327341D01*
X102289755Y-55327334D01*
X102289749Y-55327330D01*
X102239876Y-55298536D01*
X101960757Y-55137386D01*
X101960742Y-55137378D01*
X101616459Y-54976837D01*
X101616457Y-54976836D01*
X101616450Y-54976833D01*
X101518057Y-54941020D01*
X101461795Y-54899595D01*
X101436860Y-54834327D01*
X101451170Y-54765938D01*
X101500182Y-54716142D01*
X101560470Y-54700500D01*
X146747072Y-54700500D01*
X146814111Y-54720185D01*
G37*
%TD.AperFunction*%
%TD*%
M02*
