%TF.GenerationSoftware,KiCad,Pcbnew,9.0.4*%
%TF.CreationDate,2026-01-29T02:42:16+03:00*%
%TF.ProjectId,Voltage supply of sEMG & ADC 2.0,566f6c74-6167-4652-9073-7570706c7920,rev?*%
%TF.SameCoordinates,Original*%
%TF.FileFunction,Copper,L2,Bot*%
%TF.FilePolarity,Positive*%
%FSLAX46Y46*%
G04 Gerber Fmt 4.6, Leading zero omitted, Abs format (unit mm)*
G04 Created by KiCad (PCBNEW 9.0.4) date 2026-01-29 02:42:16*
%MOMM*%
%LPD*%
G01*
G04 APERTURE LIST*
%TA.AperFunction,ViaPad*%
%ADD10C,1.000000*%
%TD*%
%TA.AperFunction,ViaPad*%
%ADD11C,0.800000*%
%TD*%
G04 APERTURE END LIST*
D10*
%TO.N,GND*%
X129594000Y-77535000D03*
X134462000Y-64315000D03*
X132038000Y-79425000D03*
X136896000Y-64315000D03*
X127150000Y-62425000D03*
X132018000Y-62425000D03*
X132028000Y-64315000D03*
X132028000Y-77535000D03*
X139330000Y-64315000D03*
X127160000Y-64315000D03*
D11*
X120100000Y-61150000D03*
D10*
X129604000Y-79425000D03*
X139320000Y-62425000D03*
X127170000Y-79425000D03*
X136900000Y-67035000D03*
D11*
X105100000Y-76300000D03*
D10*
X136900000Y-74795000D03*
X136900000Y-69535000D03*
X139330000Y-77535000D03*
X136896000Y-77535000D03*
X124975000Y-69575000D03*
D11*
X118900000Y-71025000D03*
D10*
X136886000Y-62425000D03*
X139330000Y-67055000D03*
X124975000Y-67075000D03*
D11*
X102200000Y-72420000D03*
D10*
X129584000Y-62425000D03*
X134462000Y-77535000D03*
X136900000Y-72135000D03*
X134472000Y-79425000D03*
X127160000Y-77535000D03*
X139330000Y-69641667D03*
D11*
X120100000Y-58450000D03*
D10*
X139340000Y-79425000D03*
D11*
X112430000Y-70020000D03*
D10*
X139330000Y-72228333D03*
X136906000Y-79425000D03*
X124975000Y-72175000D03*
X129594000Y-64315000D03*
D11*
X114400000Y-71025000D03*
X99200000Y-72400000D03*
D10*
X124965000Y-74525000D03*
X134452000Y-62425000D03*
D11*
X103180000Y-76000000D03*
D10*
X139330000Y-74815000D03*
%TD*%
%TA.AperFunction,Conductor*%
%TO.N,GND*%
G36*
X146814111Y-54720185D02*
G01*
X146859866Y-54772989D01*
X146869810Y-54842147D01*
X146840785Y-54905703D01*
X146782007Y-54943477D01*
X146768604Y-54946616D01*
X146757491Y-54948575D01*
X146757480Y-54948577D01*
X146560832Y-55001269D01*
X146390533Y-55046901D01*
X146390530Y-55046902D01*
X146390529Y-55046902D01*
X146191123Y-55119480D01*
X146033550Y-55176833D01*
X146033546Y-55176834D01*
X146033540Y-55176837D01*
X145689257Y-55337378D01*
X145689242Y-55337386D01*
X145360259Y-55527325D01*
X145360233Y-55527341D01*
X145049058Y-55745228D01*
X144758041Y-55989421D01*
X144489421Y-56258041D01*
X144245228Y-56549058D01*
X144027341Y-56860233D01*
X144027325Y-56860259D01*
X143837386Y-57189242D01*
X143837378Y-57189257D01*
X143676837Y-57533540D01*
X143546902Y-57890529D01*
X143546902Y-57890531D01*
X143448577Y-58257480D01*
X143448575Y-58257491D01*
X143382610Y-58631598D01*
X143382610Y-58631602D01*
X143349500Y-59010049D01*
X143349500Y-59389950D01*
X143382610Y-59768397D01*
X143382610Y-59768401D01*
X143413312Y-59942519D01*
X143448577Y-60142518D01*
X143546901Y-60509467D01*
X143676833Y-60866450D01*
X143676836Y-60866457D01*
X143676837Y-60866459D01*
X143837378Y-61210742D01*
X143837383Y-61210751D01*
X144027330Y-61539749D01*
X144027334Y-61539755D01*
X144027341Y-61539766D01*
X144245228Y-61850941D01*
X144321599Y-61941956D01*
X144489419Y-62141956D01*
X144758044Y-62410581D01*
X144810708Y-62454771D01*
X145049058Y-62654771D01*
X145360233Y-62872658D01*
X145360240Y-62872662D01*
X145360251Y-62872670D01*
X145620911Y-63023162D01*
X145689242Y-63062613D01*
X145689257Y-63062621D01*
X145842271Y-63133972D01*
X146033550Y-63223167D01*
X146390533Y-63353099D01*
X146757482Y-63451423D01*
X147131605Y-63517390D01*
X147510051Y-63550499D01*
X147510052Y-63550500D01*
X147510053Y-63550500D01*
X147889948Y-63550500D01*
X147889948Y-63550499D01*
X148268395Y-63517390D01*
X148642518Y-63451423D01*
X149009467Y-63353099D01*
X149366450Y-63223167D01*
X149710751Y-63062617D01*
X150039749Y-62872670D01*
X150350940Y-62654772D01*
X150641956Y-62410581D01*
X150910581Y-62141956D01*
X151154772Y-61850940D01*
X151372670Y-61539749D01*
X151562617Y-61210751D01*
X151723167Y-60866450D01*
X151783979Y-60699369D01*
X151825405Y-60643108D01*
X151890673Y-60618173D01*
X151959062Y-60632483D01*
X152008857Y-60681495D01*
X152024500Y-60741783D01*
X152024500Y-79505981D01*
X152004815Y-79573020D01*
X151952011Y-79618775D01*
X151882853Y-79628719D01*
X151819297Y-79599694D01*
X151788118Y-79558386D01*
X151662621Y-79289258D01*
X151662613Y-79289242D01*
X151650688Y-79268588D01*
X151472670Y-78960251D01*
X151472662Y-78960240D01*
X151472658Y-78960233D01*
X151254771Y-78649058D01*
X151010578Y-78358041D01*
X150741958Y-78089421D01*
X150450941Y-77845228D01*
X150139766Y-77627341D01*
X150139755Y-77627334D01*
X150139749Y-77627330D01*
X149966535Y-77527325D01*
X149810757Y-77437386D01*
X149810742Y-77437378D01*
X149466459Y-77276837D01*
X149466457Y-77276836D01*
X149466450Y-77276833D01*
X149109467Y-77146901D01*
X148876832Y-77084566D01*
X148742519Y-77048577D01*
X148742508Y-77048575D01*
X148368399Y-76982610D01*
X147989950Y-76949500D01*
X147989947Y-76949500D01*
X147610053Y-76949500D01*
X147610049Y-76949500D01*
X147231602Y-76982610D01*
X147231598Y-76982610D01*
X146857491Y-77048575D01*
X146857480Y-77048577D01*
X146660832Y-77101269D01*
X146490533Y-77146901D01*
X146490530Y-77146902D01*
X146490529Y-77146902D01*
X146291123Y-77219480D01*
X146133550Y-77276833D01*
X146133546Y-77276834D01*
X146133540Y-77276837D01*
X145789257Y-77437378D01*
X145789242Y-77437386D01*
X145460259Y-77627325D01*
X145460233Y-77627341D01*
X145149058Y-77845228D01*
X144858041Y-78089421D01*
X144589421Y-78358041D01*
X144345228Y-78649058D01*
X144127341Y-78960233D01*
X144127325Y-78960259D01*
X143937386Y-79289242D01*
X143937378Y-79289257D01*
X143776837Y-79633540D01*
X143776834Y-79633546D01*
X143776833Y-79633550D01*
X143719480Y-79791123D01*
X143646902Y-79990529D01*
X143646902Y-79990531D01*
X143548577Y-80357480D01*
X143548575Y-80357491D01*
X143482610Y-80731598D01*
X143482610Y-80731602D01*
X143449500Y-81110049D01*
X143449500Y-81489950D01*
X143482610Y-81868397D01*
X143482610Y-81868401D01*
X143548575Y-82242508D01*
X143548577Y-82242518D01*
X143646901Y-82609467D01*
X143776833Y-82966450D01*
X143776836Y-82966457D01*
X143776837Y-82966459D01*
X143937378Y-83310742D01*
X143937383Y-83310751D01*
X144127330Y-83639749D01*
X144127334Y-83639755D01*
X144127341Y-83639766D01*
X144345228Y-83950941D01*
X144505509Y-84141956D01*
X144589419Y-84241956D01*
X144858044Y-84510581D01*
X144979046Y-84612113D01*
X145149058Y-84754771D01*
X145460233Y-84972658D01*
X145460240Y-84972662D01*
X145460251Y-84972670D01*
X145616037Y-85062613D01*
X145789242Y-85162613D01*
X145789257Y-85162621D01*
X145919088Y-85223162D01*
X146133550Y-85323167D01*
X146231942Y-85358979D01*
X146288205Y-85400405D01*
X146313140Y-85465673D01*
X146298830Y-85534062D01*
X146249818Y-85583858D01*
X146189530Y-85599500D01*
X101331758Y-85599500D01*
X101264719Y-85579815D01*
X101218964Y-85527011D01*
X101209020Y-85457853D01*
X101238045Y-85394297D01*
X101296823Y-85356523D01*
X101299663Y-85355726D01*
X101299830Y-85355680D01*
X101309467Y-85353099D01*
X101666450Y-85223167D01*
X102010751Y-85062617D01*
X102339749Y-84872670D01*
X102650940Y-84654772D01*
X102941956Y-84410581D01*
X103210581Y-84141956D01*
X103454772Y-83850940D01*
X103672670Y-83539749D01*
X103862617Y-83210751D01*
X104023167Y-82866450D01*
X104153099Y-82509467D01*
X104251423Y-82142518D01*
X104317390Y-81768395D01*
X104350500Y-81389947D01*
X104350500Y-81010053D01*
X104317390Y-80631605D01*
X104251423Y-80257482D01*
X104153099Y-79890533D01*
X104023167Y-79533550D01*
X103909252Y-79289258D01*
X103862621Y-79189257D01*
X103862613Y-79189242D01*
X103850688Y-79168588D01*
X103672670Y-78860251D01*
X103672662Y-78860240D01*
X103672658Y-78860233D01*
X103454771Y-78549058D01*
X103210578Y-78258041D01*
X102941958Y-77989421D01*
X102650941Y-77745228D01*
X102339766Y-77527341D01*
X102339755Y-77527334D01*
X102339749Y-77527330D01*
X102242004Y-77470897D01*
X102010757Y-77337386D01*
X102010742Y-77337378D01*
X101666459Y-77176837D01*
X101666457Y-77176836D01*
X101666450Y-77176833D01*
X101309467Y-77046901D01*
X101076832Y-76984566D01*
X100942519Y-76948577D01*
X100942508Y-76948575D01*
X100568399Y-76882610D01*
X100189950Y-76849500D01*
X100189947Y-76849500D01*
X99810053Y-76849500D01*
X99810049Y-76849500D01*
X99431602Y-76882610D01*
X99431598Y-76882610D01*
X99057491Y-76948575D01*
X99057480Y-76948577D01*
X98860832Y-77001269D01*
X98690533Y-77046901D01*
X98690530Y-77046902D01*
X98690529Y-77046902D01*
X98491123Y-77119480D01*
X98333550Y-77176833D01*
X98333546Y-77176834D01*
X98333540Y-77176837D01*
X97989257Y-77337378D01*
X97989242Y-77337386D01*
X97660259Y-77527325D01*
X97660233Y-77527341D01*
X97349058Y-77745228D01*
X97058041Y-77989421D01*
X96789421Y-78258041D01*
X96545228Y-78549058D01*
X96327341Y-78860233D01*
X96327325Y-78860259D01*
X96137386Y-79189242D01*
X96137378Y-79189257D01*
X95976837Y-79533540D01*
X95976834Y-79533546D01*
X95976833Y-79533550D01*
X95941020Y-79631942D01*
X95899595Y-79688205D01*
X95834327Y-79713140D01*
X95765938Y-79698830D01*
X95716142Y-79649818D01*
X95700500Y-79589530D01*
X95700500Y-60740405D01*
X95720185Y-60673366D01*
X95772989Y-60627611D01*
X95842147Y-60617667D01*
X95905703Y-60646692D01*
X95936882Y-60688001D01*
X96087373Y-61010733D01*
X96087383Y-61010751D01*
X96277330Y-61339749D01*
X96277334Y-61339755D01*
X96277341Y-61339766D01*
X96495228Y-61650941D01*
X96663048Y-61850940D01*
X96739419Y-61941956D01*
X97008044Y-62210581D01*
X97129046Y-62312113D01*
X97299058Y-62454771D01*
X97610233Y-62672658D01*
X97610240Y-62672662D01*
X97610251Y-62672670D01*
X97918588Y-62850688D01*
X97939242Y-62862613D01*
X97939257Y-62862621D01*
X97960816Y-62872674D01*
X98283550Y-63023167D01*
X98640533Y-63153099D01*
X99007482Y-63251423D01*
X99381605Y-63317390D01*
X99760051Y-63350499D01*
X99760052Y-63350500D01*
X99760053Y-63350500D01*
X100139948Y-63350500D01*
X100139948Y-63350499D01*
X100518395Y-63317390D01*
X100892518Y-63251423D01*
X101259467Y-63153099D01*
X101616450Y-63023167D01*
X101960751Y-62862617D01*
X102289749Y-62672670D01*
X102600940Y-62454772D01*
X102891956Y-62210581D01*
X103160581Y-61941956D01*
X103404772Y-61650940D01*
X103622670Y-61339749D01*
X103812617Y-61010751D01*
X103973167Y-60666450D01*
X104103099Y-60309467D01*
X104201423Y-59942518D01*
X104267390Y-59568395D01*
X104300500Y-59189947D01*
X104300500Y-58810053D01*
X104267390Y-58431605D01*
X104201423Y-58057482D01*
X104103099Y-57690533D01*
X103973167Y-57333550D01*
X103812617Y-56989249D01*
X103622670Y-56660251D01*
X103622662Y-56660240D01*
X103622658Y-56660233D01*
X103404771Y-56349058D01*
X103160578Y-56058041D01*
X102891958Y-55789421D01*
X102600941Y-55545228D01*
X102289766Y-55327341D01*
X102289755Y-55327334D01*
X102289749Y-55327330D01*
X102192004Y-55270897D01*
X101960757Y-55137386D01*
X101960742Y-55137378D01*
X101616459Y-54976837D01*
X101616457Y-54976836D01*
X101616450Y-54976833D01*
X101518057Y-54941020D01*
X101461795Y-54899595D01*
X101436860Y-54834327D01*
X101451170Y-54765938D01*
X101500182Y-54716142D01*
X101560470Y-54700500D01*
X146747072Y-54700500D01*
X146814111Y-54720185D01*
G37*
%TD.AperFunction*%
%TD*%
M02*
